<svg xmlns="http://www.w3.org/2000/svg" width="384.93" height="367.21" viewBox="0 0 384.93 367.21">
  <defs>
    <style>
      .cls-1 {
        fill: #618084;
        stroke: #333;
        stroke-miterlimit: 10;
        stroke-width: 0.11px;
      }

      .cls-2 {
        fill: #333;
      }

      .cls-3 {
        fill: #f3912e;
      }
    </style>
  </defs>
  <g id="environment">
    <path class="cls-1" d="M323.62,224.69c-1.48,15.68-21.6,18.31-23.48,31.62-3.85,27.31,38.13,47.35,33.54,57-5.23,11-55.34-18.48-123.61-15.81-57.59,2.24-78.59,23.84-119.78,8.14-6.27-2.39-43-15.2-46.58-39.5a28.58,28.58,0,0,1,.09-7c2.75-23.94,24.43-35.27,37.5-52.06,30.35-39,2.63-92.84,32-106.3a18.47,18.47,0,0,1,4.79-1.64c23.72-4.43,28.75,24.33,76.43,50.42,50.86,27.84,103.94,27.28,123.36,56.9C320.23,210.09,324.39,216.6,323.62,224.69Z"/>
    <g id="Layer_40" data-name="Layer 40">
      <path class="cls-2" d="M126.83,246.26c.82-.28-.15-2.42.81-7.12.3-1.48.66-2.56.18-3.91s-1.36-1.58-1.48-2.61c-.24-2,2.79-2.69,3-4.65.2-2.16-3.35-2.64-6.33-6.7-2.49-3.41-1.21-4.73-3.9-8-2.25-2.74-3.74-2.55-5.22-4.84-2-3,0-4.56-1.11-8.38-1.79-5.88-7.25-5.75-7.75-10.84-.23-2.39.85-3.7.71-6.83a2.86,2.86,0,0,1,.65-2.3c.44-.38.8-.22,1.12-.41,1.84-1.09-3.23-10.74-.47-13.37.51-.49.85-.3,1.53-1,1.42-1.46,1.23-3.6,1.29-5s.35-1.94,3-7.6c7-15.17,7-15.5,8.3-17.08,3-3.5,7.63-7.45,9-7.71a1.55,1.55,0,0,0,1-.59,1,1,0,0,0-.06-1.12c-.41-.31-1.16.45-1.53.17s.32-1.56-.12-1.94-.92.18-2.24.47a10.55,10.55,0,0,1-1.93.22c-2.49.21-5.71,6.9-7.31,10.07-3,5.85-2.81,4.45-5.16,9.34a92.37,92.37,0,0,0-7.41,22.27c-.41,2.11-1,5.3-1.34,9.23a94,94,0,0,0-.42,10.37c.06,3.44.28,6.26.47,8.13a94.82,94.82,0,0,0,1.75,10.88c.72,3.24,1.52,6,2.24,8.25a92.63,92.63,0,0,0,3.57,9.36,82.17,82.17,0,0,0,5.57,10.62c.53.85,1.77,2.62,4.25,6.15C125.36,245.44,126.23,246.47,126.83,246.26Z"/>
      <path class="cls-2" d="M288.81,179.14c-.24-1.79-.34-3.58-.58-5.36-.56-4.2-.56-6.15-.82-8.86a64.73,64.73,0,0,0-2.81-13.53,69.31,69.31,0,0,0-8.09-16.16c-1.8-2.86-3.43-5.11-4.51-6.54a94.58,94.58,0,0,0-8-9.29c-1.24-1.26-2.69-2.67-4.35-4.15-2.63-2.36-5.05-4.27-7.06-5.75a94.11,94.11,0,0,0-8.6-5.63c-1.73-1-3.21-1.78-4.28-2.33-2.52-1.28-4.77-2.29-6.59-3.05-2.47-1-5.31-2.08-8.49-3.06-1.23-.37-2.82-.83-4.69-1.3-5.6-1.4-6-.94-7.38-1.53-.22-.09-.87-.38-1.06-.17s0,.46.14.65c.32.36.92.24,1.32.22,1.1,0,1.71.64,2.95,1.38a15.46,15.46,0,0,0,3.83,1.52c3.05.93,3.68.19,6.56,1.13,1.89.62,3.52,1.55,3.44,1.77s-.65.05-1.77-.1c-1.44-.19-2-.37-2.16-.12s0,.54.42,1.18a9.91,9.91,0,0,0,2.06,2.77c1.56,1.25,2.65.82,3.1,1.85.31.7-.15,1.07.27,1.91.27.56.48.42,1.37,1.45a4.71,4.71,0,0,1,1.06,1.82c.11.39.18.63.05.79-.37.44-1.71-.57-2.31-.08-.33.28-.06.71-.22,1.7s-.59,1.13-1.16,2.58-.42,2.16-.83,2.28c-.75.22-1.75-1.82-2.26-1.6s-.24,1.3-.1,2c.21,1,.54,1,.54,1.67,0,1-.84,2.16-1.72,2.11a1.43,1.43,0,0,1-1.08-.76c-.31-.62.11-1.06-.15-1.43-.48-.68-2.5.16-2.62-.15s.69-.8,1.62-1.2c1.23-.53,1.8-.27,2.18-.79a1.86,1.86,0,0,0-.17-2.06c-.45-.6-1.19-.76-2.36-.88a37.5,37.5,0,0,0-6.38-.08c-3.2.16-2.88,0-3.2.13-.58.16-1.94.65-6.19,6-1.66,2.08-2.17,2.9-3.46,3.34s-2.13.08-2.83.81c-.44.46-.42.93-.46,3.53-.06,3.17-.11,3.87.46,4.3a2.25,2.25,0,0,0,1.87.17c1.53-.45,1.62-2,2.85-2.28a2.73,2.73,0,0,1,2.11.84c1.61,1.5.65,3.83,2.16,4.71a1.51,1.51,0,0,0,1.18.22c1-.32.55-1.9,1.92-3.71a3.48,3.48,0,0,0,.81-1.27,2.35,2.35,0,0,0-.27-2c-.45-.54-1-.35-1.4-1a1.71,1.71,0,0,1-.32-1.06c0-.62.5-1,.91-1.45a12.05,12.05,0,0,0,1.23-2.5c1.23-2.66,1.52-3.13,1.91-3.12s.66.47.72.56a2.76,2.76,0,0,1-.27,2.34c-.57,1.39-1,1.43-1.23,2.48a3.12,3.12,0,0,0,.12,1.82,2.9,2.9,0,0,0,1.06,1.3c.87.56,1.92.44,3.8.19,1.44-.18,2.17-.43,2.46-.05a.71.71,0,0,1,0,.86c-.14.11-.33,0-.61,0a8.13,8.13,0,0,0-1.38-.13c-.91,0-1.37-.07-1.62.22a1.18,1.18,0,0,0-.22.79c0,.16,0,.56.17.64s.36-.24.64-.17a.54.54,0,0,1,.37.44c0,.27-.15.49-.35.71s-.2.24-.29.27c-.48.16-1-.93-1.45-.83s-.62,1.54-.64,1.76c-.11,1.63.52,2.22.12,3.08a2.49,2.49,0,0,1-1.32,1.1c-1.56.74-2.51-.1-3.39.64-.72.6-.48,1.48-1.13,1.69-.38.13-.78-.1-1.57-.56-1-.6-1.55-.9-1.75-1.38-.43-1,.62-1.9.1-2.72-.3-.48-.71-.27-1.11-.81-.57-.79,0-1.61-.54-2a1.41,1.41,0,0,0-1.42,0c-.39.2-.63.64-1.11,1.5a4.63,4.63,0,0,0-.61,1.4,4,4,0,0,0,.17,1.62c.28,1.23.58,1.57.37,2.11a1.1,1.1,0,0,1-.54.64c-.4.17-.71-.12-1.45-.17a4.23,4.23,0,0,0-1,.07c-1.4.27-1.44,2.06-2.95,2.83-1.3.66-2.33-.14-2.94.64s0,1.43-.59,2c-.23.21-.52.29-1.7.27-2,0-3.46-.31-3.61.08,0,.11.06.17.1.66a1.42,1.42,0,0,1,0,.57c-.29.65-3.61-.51-3.93.14-.1.21.12.53.15.57a1.32,1.32,0,0,0,.93.44,5.29,5.29,0,0,1,3.32,2.6,7.56,7.56,0,0,1,.19,3c0,1.79-.31,2.31-.68,2.61a1.82,1.82,0,0,1-.86.34c-1.66.26-2.86-.75-4.4-1.25a6.47,6.47,0,0,0-4.57,0c-1.76.89-2.32,3-3.12,5.95a13.6,13.6,0,0,0-.47,3.68c0,1.42,0,2.45.79,3.22a3,3,0,0,0,1.84.93c.69.06,1.41-.19,1.57.1s-.07.42.05.52.36,0,.46-.07l.16-.08a2.56,2.56,0,0,0,.56-.42c.56-.53,3.17-.15,3.17-.15,1.75.26,3.28-1.11,6.12-3.68,1.93-1.75,3.24-2.93,4.07-5,.41-1,.47-1.59,1.09-1.94,1.32-.75,2.72,1,4.88.37a4.29,4.29,0,0,0,2-1.13c.54-.58.61-1.06,1.18-1.28a1.91,1.91,0,0,1,1.52.17,3.08,3.08,0,0,1,1.13,1.45,18.16,18.16,0,0,0,1.5,2.33c.88,1.11,1.28.67,3.91,2.53a16.55,16.55,0,0,1,2.06,1.94c.47.51.74.85.74,1.31a1.88,1.88,0,0,1-.81,1.3,5,5,0,0,1-3.19.36c-.68-.07-1-.17-1.24.06s0,1,.3,1.44.68.52,2.06,1.22,1.44.86,1.82.75a1.88,1.88,0,0,0,1-1.43c.11-.55-.1-.74.1-1.13s.56-.34,1.11-.83a2.55,2.55,0,0,0,.88-1.62c0-.61-.34-.87-.15-1.18.08-.12.19-.17,1-.39s1-.25,1-.37c.11-.3-.53-.84-1-1.13-.78-.49-1.1-.33-2-.71a7.85,7.85,0,0,1-1.92-1.43,16.72,16.72,0,0,1-1.5-1.52c-1.33-1.54-2.4-2.8-2.43-4.42,0-.31,0-.91.27-1,.44-.19,1.24.9,2.26,2.07,2.86,3.26,4.31,4.92,6.39,5.62.55.19,1.56.45,1.94,1.28.22.48,0,.65.1,1.55a4.49,4.49,0,0,0,1.13,2.65c.5.51.66.33,1,.79.64.85.17,1.58.76,2.28a1.66,1.66,0,0,0,1.64.59c.72-.25.48-1.2,1.48-1.89.51-.36.86-.3,1.1-.74a1.08,1.08,0,0,0,0-1.2s-.11-.09-.74-.2-.66-.06-.76-.12c-.27-.17-.25-.57-.15-2.19.07-1.11.08-1.24.22-1.42a1.66,1.66,0,0,1,2.14-.27,1.88,1.88,0,0,1,.59,1.3c.16,1.06-.32,1.5,0,1.94s.8.15,1.3.64.32.69.52,1.23a4.21,4.21,0,0,0,1.54,1.86,5.7,5.7,0,0,0,2.93,1.21,2.46,2.46,0,0,0,2-.37c.3-.31.27-.62.61-.76s.63.1,1.3.17A4.64,4.64,0,0,0,241,169c1.68-.17,2.19.48,3,0,.16-.1.07-.08.84-.74.5-.43.76-.65.83-.64.66.09,1.67,4.44-.37,7.79a8,8,0,0,1-3.3,3c-2.61,1.23-5.3.66-10.33-.47-4-.9-4.51-1.45-5.9-1-2.91.93-2.79,4-5.36,4.58-1.95.46-2.56-1.18-7-2.79s-6.29-.91-7.07-2.41c-1.17-2.27,2.38-5.31,1.24-6.83-.69-.94-2.33-.17-6.83.15-6.06.43-6.09-.75-9,.22-1.53.5-3.27,1.4-5.5,1.18a5.78,5.78,0,0,1-2.27-.52c-1-.48-1.3-1.07-2.43-1.34a2.1,2.1,0,0,0-1.22-.06c-.78.23-.95,1-1.52,1.68a12.13,12.13,0,0,1-3.19,1.86c-2.11,1.06-2.71,1.23-3,2a4,4,0,0,0-.16,1.7c.05,1.07.35,1.35.26,1.94-.16,1-1.18,1.53-1.59,1.77-2.41,1.38-4.63,3.08-7,4.54-2,1.23-6.78,4.2-6.81,7.26,0,.41.07,1.8.1,2.36.11,1.89.19,2.22.2,2.91a10.45,10.45,0,0,1-1,4.54c-1.17,2.46-2.57,2.61-2.67,4.23-.06,1,.47,1.27,1.37,3.11,1.72,3.53.77,4.59,2.3,6.75,1,1.4,1.32.86,3.59,3.06,1.37,1.35,1.35,1.65,3.78,4.51,3,3.58,3.78,3.95,4.49,4.13.21,0,1.33.09,3.57.16,1.78.06,2.68.09,3,.08,2.93-.06,3.43-.55,4.57,0,1,.43.88.91,2,1.28a4.83,4.83,0,0,0,2.71.08c1.27-.31,1.31-.86,2.76-1.4a5.25,5.25,0,0,1,2.79-.42c1.28.24,1.39,1,3.26,2.18a9,9,0,0,0,3.45,1.47,13.57,13.57,0,0,0,3.93-.1c.65,3.16.8,3.84.8,3.84.6,2.71,1.14,4,1.64,5.72.78,2.69,1,4.91,1.32,9.36.38,4.65,0,4.51.43,9,.48,5.65,1.19,7.74,1.76,9.09.83,2,1.82,4.26,4.13,5.35a8.52,8.52,0,0,0,3.79.66,15.78,15.78,0,0,0,5.35-1c5.25-2.11,12.44-11.26,17.18-16.12,7.38-7.56,8.76-5.77,15.07-12.95,3.27-3.72,5.57-7.64,10-15.33,5.84-10,13.08-22.49,10.83-24.31-.77-.63-2.81.12-4,1.05s-1.14,1.93-2.11,3.35c-1.31,1.91-4,4-6.06,3.49-1.72-.39-1.94-2.32-4.43-6.17-1.83-2.83-2.75-3.4-4.54-5.71-4.79-6.18-7.49-14.1-6.53-14.68s6.74,7.14,7.58,8.27c2.83,3.86,4.24,5.79,4.77,8.16.66,2.94.22,5.5,1.75,6.29a3.35,3.35,0,0,0,2.68-.23c2.65-1,3.67-3.24,6.52-7.46,2.36-3.48,2.1-2.62,3.62-5,2.9-4.59,4.36-6.89,4-9.79a11.1,11.1,0,0,0-2.57-5.24c-.63-.83-1.4-1.8-2-1.63-.84.25-.23,2.6-1.86,4.54-.4.47-1,1.17-1.75,1.17-1,0-1.41-1.29-3.14-3.5-2.14-2.72-3.67-3.39-3.38-4.54a1.55,1.55,0,0,1,1.39-1.17c.61.07.61.89,1.52,1.75a4.68,4.68,0,0,0,3.14,1.17,3,3,0,0,0,2-.59c.71-.61.52-1.32,1-1.51s1.11.73,2.57,1.16a3.55,3.55,0,0,0,2.44,0c1.16-.52.91-1.57,2.1-2.33,1-.64,2.68-.84,3.38,0a2.19,2.19,0,0,1,.23,1.87,2.17,2.17,0,0,0,1.05,1.63c.9.35,1.64-.75,2.33-.47s.5,2.27.93,6c.22,1.86.37,3.07.82,3.14s1.4-1.61,1.75-3.14A12.15,12.15,0,0,0,288.81,179.14ZM247,157a2,2,0,0,1-.7,1.25c-.55.32-1.11-.17-2.39-.55a8.89,8.89,0,0,0-3-.33,6.51,6.51,0,0,0-3,1,10,10,0,0,1-1.54,1.07,9.37,9.37,0,0,1-1.6.73,4.69,4.69,0,0,1-2.08.39,2,2,0,0,1-1.24-.41,1.9,1.9,0,0,1-.58-1.1,3,3,0,0,1,.11-1.46,4.54,4.54,0,0,1,.53-1.21c.25-.37.35-.4.76-.9a6.17,6.17,0,0,0,.82-1.15,5.56,5.56,0,0,0,.33-2,6.34,6.34,0,0,1,.26-2.13,1.7,1.7,0,0,1,.89-1.1,1.54,1.54,0,0,1,1.58.56c.56.73,0,1.47.44,2.08s1.8.52,2.53.45a6.73,6.73,0,0,1,2.13-.2,5.17,5.17,0,0,1,1,.28,6.14,6.14,0,0,1,1.37.82c.57.39,1.16.74,1.74,1.12,1.34.87,1.58,1,1.71,1.37A2.2,2.2,0,0,1,247,157Zm16.19,1.9a8,8,0,0,1,0,1.4,1.69,1.69,0,0,1-.75,1.09c-.66.38-1.47,0-2.88-.55a5.14,5.14,0,0,1-1.74-.94,5.85,5.85,0,0,1-1-2.58c-.17-.65-.28-1.19-.35-1.54a3.72,3.72,0,0,0-.59-1.49,6.74,6.74,0,0,0-1.64-1.54h0l-2.38-1.94c-1.4-1.13-1.7-1.37-1.88-1.92a5.56,5.56,0,0,1,0-2.44,1,1,0,0,1,.16-.5,3.82,3.82,0,0,1,1.39-1.93c.61-.42,1.9-1,2.76-.48a1.77,1.77,0,0,1,.63.92c.46,1.34-.61,2.05-.27,3.62a4.66,4.66,0,0,0,.51,1.27,4.3,4.3,0,0,0,1,1.26,5.88,5.88,0,0,0,1.64.85,11,11,0,0,1,1.79,1,10.72,10.72,0,0,1,2.38,2.83A8.45,8.45,0,0,1,263.15,158.88Z"/>
      <path class="cls-2" d="M204.34,157.55c-.6.44-.46,1.62.13,2.21.06.06.55.53,1,.39a1.76,1.76,0,0,0,.26-2.54A1.16,1.16,0,0,0,204.34,157.55Z"/>
      <path class="cls-2" d="M203.82,161.84a2.2,2.2,0,0,0-1.24,2.34,2.32,2.32,0,0,0,.85,1.3c.27.24.86.76,1.36.58s.56-.67.72-1.3c.2-.81.6-2.36-.2-2.92A1.64,1.64,0,0,0,203.82,161.84Z"/>
      <path class="cls-2" d="M183.59,134.33c-.31.33.4,1,.31,1.9-.14,1.4-2.1,1.79-2,2.59.09.64,1.44,1.08,2.51,1a3.67,3.67,0,0,0,3-2.36c.28-.72.54-2.12-.15-2.74-.38-.34-.62-.07-2.59-.38C184,134.23,183.76,134.15,183.59,134.33Z"/>
      <path class="cls-2" d="M190.73,128.88c-.7.37-.83,1.38-.88,1.76-.15,1.2.35,1.81,0,2.16s-1.14-.1-1.37.23.76,1.91.76,1.91.17.64.38,1.21c.29.8.43.8.38,1-.13.54-1.08.4-1.45,1.07a1.25,1.25,0,0,0,.23,1.45c.4.27.88-.14,1.22.15a.91.91,0,0,1,.08,1.14c-.38.47-1.15,0-2,.38s-1.24,1.39-1,1.75.78,0,3-.38c2-.32,2.56-.24,3.35-.76a4.32,4.32,0,0,1,1.07-.61c.79-.27,1.24-.08,1.45-.38s0-.69-.39-1.37c-.45-.89-.61-.85-1-1.52a3.57,3.57,0,0,1-.5-2.22c.08-.44.23-.53.16-.83s-.44-.47-1.14-1.14-.84-.76-.84-1.07.37-.5.76-1.06c.19-.27.81-1.16.53-1.91s-1.57-1-1.86-1A1.71,1.71,0,0,0,190.73,128.88Z"/>
      <path class="cls-2" d="M223.45,103.29c-.09.11-.36.46-.16,1.7a7.82,7.82,0,0,0,.68,2.18c1.59,3.12,2.4,4.69,3.51,5,.9.25,2.09,0,2.26-.48.11-.33-.23-.71-1-1.5-2.59-2.65-2.7-2.49-2.9-3-.7-1.72.69-3.47-.16-4.12a1.66,1.66,0,0,0-.93-.24A1.73,1.73,0,0,0,223.45,103.29Z"/>
      <path class="cls-2" d="M208.89,105.63c-.44.44.31,1.43-.08,1.82a1,1,0,0,1-1.21-.16c-.35-.41.09-.93-.25-1.33s-1.59-.36-1.59-.36h0s-.16-.73-.24-1.46-.09-.94,0-1.08c.39-.63,1.88-.53,1.88-.53h0a3.18,3.18,0,0,0,.14.93.6.6,0,0,0,.23.34.43.43,0,0,0,.19.06c.24,0,.25-.41.53-.56s.24,0,.71,0a4.12,4.12,0,0,0,.82-.16h0l-.12,2.18h0A1.8,1.8,0,0,0,208.89,105.63Z"/>
      <path class="cls-2" d="M180.33,115.85c0,.23,0,.24.12.77.09.72,0,1,.17,1.16s.39-.08.56,0c.43.27-.26,1.85.09,2,.17.1.37-.24.77-.17.2,0,.21.15.62.4a2,2,0,0,0,.74.34c.27.06.3,0,.82,0,.71-.05.87.07,1.08-.09s.11-.36.31-.68.69-.37,1.06-.68a1.69,1.69,0,0,0,.31-2.08c-.34-.32-.79.07-2.08,0a2.84,2.84,0,0,1-1.7-.46c-.82-.68-.49-1.89-1-2-.25-.07-.52.14-1.05.56A1.78,1.78,0,0,0,180.33,115.85Z"/>
      <path class="cls-2" d="M162.08,118.91c.68.53,2.3-1.78,5.68-3.45,4.38-2.15,8.09-1.45,14.89-3a10.94,10.94,0,0,0,3-1.1,24.08,24.08,0,0,0,3.31-2.56c1.59-1.18,2.28-1.12,4.25-2.11.87-.44,6.14-3.1,5.78-4.93-.2-1-1.84-1-8.32-3.53-2.66-1-3.6-1.75-4.37-2.82s-.9-2.12-1.75-2.38c-.38-.11-.88-.08-3.51,1.77s-2.84,2.34-2.76,2.61c.21.75,2,.49,2.28,1.38.2.54-.22,1.4-2.52,3.43a33.75,33.75,0,0,1-4.26,3.27c-4.64,2.83-8.41,5.14-10.56,9C162.31,116.07,161.44,118.42,162.08,118.91Z"/>
      <path class="cls-2" d="M159.56,109.39a6.71,6.71,0,0,0,3.15-.83,54.19,54.19,0,0,0,5.52-4.06c3.16-2.45,3.48-2.27,4.7-3.55.89-1,1.32-1.69,2.4-2.09a2.35,2.35,0,0,0,1.38-.82c.28-.44,0-.68.35-1.11.48-.67,1.11-.56,1.5-1.14a1.48,1.48,0,0,0,0-1.74c-.46-.38-1.21.31-3.27.87-1.37.37-1.6.22-3,.59-2,.56-2.54.66-2.87,1.11-.47.62-.58,1.6-.2,2,.18.17.66.17,1.62.16s1.31-.07,1.45.15,0,.64-.11.75c-.74,1.38-2.6.9-4.85,2.41-.94.62-1,1-1.78,1.14-1,.21-1.43-.32-2.52,0-.67.2-.65.44-1.42.63-1,.24-1.32-.06-1.62.24-.47.47.3,1.36-.19,2.21-.33.56-.8.38-1.19,1a1.61,1.61,0,0,0,0,1.81A1.28,1.28,0,0,0,159.56,109.39Z"/>
      <path class="cls-2" d="M165.91,100.68a1.77,1.77,0,0,0,2.21-.71c.24-.42.32-1,.07-1.22s-.42.1-1.53.59c-.78.34-1.1.4-1.15.67S165.7,100.54,165.91,100.68Z"/>
      <path class="cls-2" d="M139.1,126.49a3.17,3.17,0,0,0-.46,1.59,2.65,2.65,0,0,0,.46,2.21,2,2,0,0,0,2.08.46c.61-.27.81-.89,1.18-2a2.61,2.61,0,0,0,.2-1.76,2.52,2.52,0,0,0-1.07-1.17,1.61,1.61,0,0,0-.86-.38C139.82,125.37,139.23,126.28,139.1,126.49Z"/>
      <path class="cls-2" d="M133.08,128.48c.23.31.4.54.35.77-.09.52-1.16.56-1.15.84s.72.45,1.35.45a2.66,2.66,0,0,0,1.54-.52,3.14,3.14,0,0,0,.74-.83c.28-.4.42-.61.35-.77-.14-.34-1-.08-1.19-.45s.27-1,.35-1.09c.7-.93,1.51-.72,2-1.55.21-.36.37-.93.12-1.25s-1.12-.29-1.67,0-.51.84-1.28,1.35c-.52.35-.71.21-1.38.68a1.66,1.66,0,0,0-.77.89,1.16,1.16,0,0,0,0,.71C132.56,128,132.77,128.06,133.08,128.48Z"/>
      <path class="cls-2" d="M130,123.66c.37.8,2.66.88,4.33.1.95-.44,1-.85,2.15-1.22a3.9,3.9,0,0,1,2.73-.1c.86.38.75.9,1.64,1.42a4.43,4.43,0,0,0,3.11.32c.56-.12,2.32-.48,3-1.83.54-1.09-.19-1.72.26-2.89.34-.92,1-1,3-2.38,4.08-2.67,4.34-4,4.36-4.49,0-.11,0-.72-.25-.87-.48-.25-1.35,1-1.77.71-.24-.14-.24-.67-.1-1.06a2.54,2.54,0,0,1,1.45-1.26c2.23-1,4.06-3.51,3.69-4.33-.17-.38-.79-.49-1.19-.45-.77.08-1.11.81-1.92,1.6a12.81,12.81,0,0,1-2.32,1.51c-4.37,2.57-5.05,2.31-6.54,3.81-.65.65-1.25,1.43-1.48,1.3s0-.82.19-1.34a4.7,4.7,0,0,1,2.38-2.07c1.67-.89,1.4-1.31,3.88-3.27,4.15-3.28,7.62-4.24,7.42-4.78s-2.7,0-2.83.06a17.88,17.88,0,0,0-3.82,1.51c-1,.45-1.6.76-2.41,1.19a50.84,50.84,0,0,0-6.61,4.46c-2.35,1.77-4.79,3.73-4.79,3.73a14.93,14.93,0,0,0-.67,1.86c-.26.92-.21,1.21-.55,1.57a1.82,1.82,0,0,1-.8.48c-1.11.39-2,1.57-3.85,3.92C130.42,122.49,129.8,123.3,130,123.66Z"/>
      <path class="cls-3" d="M137.86,257.46a84.6,84.6,0,0,0,13,9.27,86.59,86.59,0,0,0,33.87,11.08h0c8.87,1.27,21.95,1.53,21.95,1.53h0s10-.39,16-1.26c8.57-1.24,14.7-4.32,19.88-6.83,16.57-8,29.13-22.55,33.06-27.35a107.46,107.46,0,0,0,21.37-40c5.82-20.74,3.64-37.6,2.34-46.88-1.16-8.22-5.34-35.67-24.82-57.26-8.22-9.11-18.34-16.26-21.37-14.12-.61.43-.75,1.09-2.15,2.52a20.7,20.7,0,0,1-6.42,4.15c-5.44,2.22-11.93,1-15.61.13-7.55-1.89-8.66-4.09-16.74-7.56-4.72-2-14.09-6-25.31-5.91-10.63.11-16.77,3.87-18.25,1.51-1.09-1.75,1.44-5.16,6.29-11.58s7.25-9.58,11.59-13.1A52,52,0,0,1,207,45.69a53.15,53.15,0,0,1,22.79-.38c5.62,1,11.69,2.11,17.75,6.8a32.18,32.18,0,0,1,8.56,10.32c2.12,4.06,4.91,11.51,2.77,13.1-1.61,1.19-4.76-1.88-10.32-4.91-10-5.45-19.33-6.14-31.85-7.05-10.32-.76-15.22.26-18.26,1.13C194,66,189.58,68,189.71,68.48c0,0,.06.18,5.67-.63A74.2,74.2,0,0,1,205,66.46a79.53,79.53,0,0,1,13.09.13,84.29,84.29,0,0,1,29.21,8.18,89.57,89.57,0,0,1,12.64,7.83,101.4,101.4,0,0,1,12.6,10.23,91.6,91.6,0,0,1,12.36,15,118.2,118.2,0,0,1,12.85,24.51,112.42,112.42,0,0,1,7.65,50.62,115,115,0,0,1-9.23,35.77c-3.65,8.86-8.22,19.67-18.22,31-5.84,6.64-16.13,18.36-32.39,23.63-6.21,2-20.09,5.28-20.09,5.28.8-.21.8-.2.3-.08a81,81,0,0,1-10.2,1.49,159.61,159.61,0,0,1-20.15.32,115.26,115.26,0,0,1-16.27-2.21A94.16,94.16,0,0,1,162,273a88.56,88.56,0,0,1-22.31-13.49"/>
    </g>
  </g>
</svg>
