<svg xmlns="http://www.w3.org/2000/svg" width="384.93" height="367.21" viewBox="0 0 384.93 367.21">
  <defs>
    <style>
      .cls-1 {
        fill: #618084;
        stroke: #333;
        stroke-miterlimit: 10;
        stroke-width: 0.11px;
      }

      .cls-2 {
        fill: #333;
      }

      .cls-3 {
        fill: #f3912e;
      }
    </style>
  </defs>
  <g id="health">
    <path class="cls-1" d="M336.59,194.51c-8.25,17.94-20.85,18.75-23.47,31.62-5.13,25.21,38.25,48.07,33.54,57-5.36,10.15-57.45-26.1-110.65-10-34.68,10.47-37.62,33.45-61.85,30.92-30.47-3.17-36.23-40.58-76.12-47.66-21.6-3.85-34,4.66-38.74-2.63-6.52-10.12,16-27.88,35-76.83a238.68,238.68,0,0,0,10.34-31.51c9.6-38.89,5.19-66.54,21.66-74.78A20,20,0,0,1,131.05,69c25.84-6.18,46.11,30.92,76.43,50.42,53.9,34.67,111.81-4.16,130.23,26.65C345.89,159.75,342.7,181.23,336.59,194.51Z"/>
    <g id="käsi">
      <path class="cls-2" d="M134.48,236.35a41.2,41.2,0,0,0,9.78-4.16,33.48,33.48,0,0,0,8.22-6.65c1.18-1.32,2.21-2.77,3.43-4.11a15.2,15.2,0,0,1,4.31-3.33,21.69,21.69,0,0,1,10.54-2.34,90.84,90.84,0,0,1,10.72,1A61,61,0,0,1,192,219.18c1.72.56,3.39,1.16,5.07,1.84s3.31,1.58,4.86,2.33,3.22,1.4,4.88,2,3.31,1.24,5,1.75a38.61,38.61,0,0,0,10.29,1.76,83.76,83.76,0,0,0,10.55-.68l5.31-.57c1.77-.18,3.53-.43,5.41-.48a11.84,11.84,0,0,1,2.92.26,6,6,0,0,1,2.8,1.51,7.33,7.33,0,0,1,2.1,5.68,5.17,5.17,0,0,1-1.29,3,7.07,7.07,0,0,1-2.54,1.69,24.65,24.65,0,0,1-5.36,1.44c-3.57.6-7.13.94-10.7,1.18s-7.15.38-10.72.44-7.15,0-10.72-.2V242c3.56-.12,7.12-.25,10.67-.51s7.1-.53,10.63-.92,7.07-.8,10.52-1.49a23.38,23.38,0,0,0,4.92-1.44,5.34,5.34,0,0,0,1.85-1.28,3.18,3.18,0,0,0,.74-1.86,5.39,5.39,0,0,0-1.53-4,4,4,0,0,0-1.86-1,9.76,9.76,0,0,0-2.4-.18c-1.69.05-3.46.26-5.24.43l-5.33.52a85.88,85.88,0,0,1-10.8.49,40.49,40.49,0,0,1-10.71-2c-1.72-.55-3.41-1.19-5.07-1.86s-3.33-1.34-5-2.16-3.12-1.7-4.74-2.36-3.3-1.31-5-1.88a60.47,60.47,0,0,0-10.27-2.55,94.52,94.52,0,0,0-10.56-1.1,20.64,20.64,0,0,0-10.16,2.05,14.37,14.37,0,0,0-4.17,3.09c-1.2,1.27-2.27,2.72-3.49,4a34.29,34.29,0,0,1-8.47,6.6,41.08,41.08,0,0,1-9.93,4Z"/>
      <path class="cls-2" d="M143.24,269.84a56,56,0,0,1,7.94-7.68,52.06,52.06,0,0,1,9.36-5.92A50,50,0,0,1,171,252.48a55.27,55.27,0,0,1,11-1.43h.11c8.21,1.37,16.46,2.4,24.75,3.29a95.67,95.67,0,0,0,12.34.87,62.93,62.93,0,0,0,12.1-2.07l12.11-3c4-1,8.1-2,12.09-3.08a127.88,127.88,0,0,0,23.07-9.24l.1.17a98.48,98.48,0,0,1-11,6,86.25,86.25,0,0,1-11.7,4.63c-4,1.26-8,2.36-12.06,3.43s-8,2.14-12.14,3.07a61.25,61.25,0,0,1-12.53,1.9,101.93,101.93,0,0,1-12.57-1.13c-8.27-1-16.55-2.2-24.76-3.72H182a55.65,55.65,0,0,0-10.84,1.22,49.47,49.47,0,0,0-10.36,3.46,52.63,52.63,0,0,0-9.38,5.65,55.79,55.79,0,0,0-8.06,7.46Z"/>
      <path class="cls-2" d="M246.07,228.7l-3.9.65-1.95.31a7.36,7.36,0,0,0-1.79.47,7.18,7.18,0,0,0-1.59.89,2.93,2.93,0,0,0-.93,1.32,5.16,5.16,0,0,0,.07,3.38,2.82,2.82,0,0,0,2,2,2.68,2.68,0,0,0,.7,0l.95-.09,1.9-.19c2.55-.26,5.13-.67,7.8-.88l.06.19a28.14,28.14,0,0,1-7.56,2.67,19.62,19.62,0,0,1-2,.28c-.33,0-.68.05-1,.07a4.53,4.53,0,0,1-1.25-.14,3.92,3.92,0,0,1-2.1-1.43,5.84,5.84,0,0,1-1-2.06,6.54,6.54,0,0,1,.25-4.36,4.21,4.21,0,0,1,1.46-1.75,8.59,8.59,0,0,1,1.92-.9,7.7,7.7,0,0,1,2-.33l2-.13,3.94-.23Z"/>
    </g>
    <path id="süda" class="cls-2" d="M204.67,213.44c-20,2-36.35-11.38-48.13-21.05-8.23-6.75-24.78-20.33-30.73-44.22-2.08-8.36-7.8-31.32,6.32-49.63,1.3-1.7,14.17-17.84,34.81-17.78.67,0,1.34,0,1.34,0a39.48,39.48,0,0,1,22.88,8.5,38.51,38.51,0,0,1,11.35,15.57s6.05-10.67,10.91-15.56C223.5,79.15,244.06,78.22,259,85.88a43,43,0,0,1,16.51,15.17c10.76,16.94,5.71,35.5,4.65,39.38-1.68,6.17-5,13.79-23.79,33.09C231.3,199.2,218.77,212.05,204.67,213.44Z"/>
    <g id="leht">
      <g>
        <path class="cls-3" d="M191.26,218.38a26.49,26.49,0,0,1-3.51,1.78c-8.55,3.94-14,3.65-14.46,5.8-.3,1.32,1.34,3.12,3.22,3.8,4.57,1.64,8-4.49,16.63-6.17.25-.05.89-.14,2.64-.29,13.75-1.17,21.61,1.12,32.17,0,6.78-.73,11.71-2.55,17-4.51a78,78,0,0,0,18-9,63.14,63.14,0,0,0,20.83-23.26c2.39-4.69,8.9-17.46,4.22-22.64-.62-.68-2-1.65-16.36-1.42-6.86.11-12.92.21-20.92,1.9a76.14,76.14,0,0,0-18,5.93c-6.64,3.2-28.36,13.67-31.54,29.8,0,0-2,10.22-6.27,15.07A19.21,19.21,0,0,1,191.26,218.38Z"/>
        <path class="cls-2" d="M229.31,204a40.08,40.08,0,0,0,4.64.18,30.86,30.86,0,0,0,4.6-.43,34.64,34.64,0,0,0,8.84-2.71,22.42,22.42,0,0,1-4.22,2,26.11,26.11,0,0,1-4.54,1.18A24.55,24.55,0,0,1,229.31,204Z"/>
        <path class="cls-2" d="M245.55,193.65a38,38,0,0,0,4.64.19,30.62,30.62,0,0,0,4.6-.43,34.83,34.83,0,0,0,8.85-2.71,23.37,23.37,0,0,1-4.22,2,26.35,26.35,0,0,1-4.54,1.18A24.6,24.6,0,0,1,245.55,193.65Z"/>
        <path class="cls-2" d="M261.66,181.19a38,38,0,0,0,4.64.17,32,32,0,0,0,4.6-.45,34.54,34.54,0,0,0,8.83-2.75,22.41,22.41,0,0,1-4.21,2,27.24,27.24,0,0,1-4.53,1.2A24.6,24.6,0,0,1,261.66,181.19Z"/>
        <path class="cls-2" d="M224.34,188.32a37.72,37.72,0,0,0-1.24,4.48,32.13,32.13,0,0,0-.63,4.58,35,35,0,0,0,.63,9.23,22.33,22.33,0,0,1-1-4.57,26.26,26.26,0,0,1-.12-4.69A24.75,24.75,0,0,1,224.34,188.32Z"/>
        <path class="cls-2" d="M239.44,179.18a42,42,0,0,0-1.24,4.48,30.74,30.74,0,0,0-.62,4.58,34.44,34.44,0,0,0,.62,9.22,22.77,22.77,0,0,1-1-4.56,26.26,26.26,0,0,1-.12-4.69A24.7,24.7,0,0,1,239.44,179.18Z"/>
        <path class="cls-2" d="M254.54,170a42,42,0,0,0-1.24,4.48,32.11,32.11,0,0,0-.62,4.58,34.86,34.86,0,0,0,.62,9.22,22.77,22.77,0,0,1-1-4.56,26.26,26.26,0,0,1-.12-4.69A24.7,24.7,0,0,1,254.54,170Z"/>
        <path class="cls-2" d="M188.15,223c4.15-1.42,8.25-3,12.26-4.73s8-3.62,11.81-5.7,7.52-4.48,11.28-6.74l11.26-6.8,11.31-6.71c1.88-1.13,3.79-2.22,5.56-3.45s3.48-2.64,5.19-4c3.4-2.75,6.72-5.61,10-8.51l4.92-4.37,4.86-4.43c-6.19,6.21-12.57,12.24-19.3,17.9-1.68,1.42-3.37,2.81-5.17,4.11s-3.71,2.39-5.59,3.53l-11.27,6.78L224,206.65c-3.79,2.22-7.48,4.57-11.39,6.63A135.06,135.06,0,0,1,188.15,223Z"/>
      </g>
    </g>
  </g>
</svg>
