<svg xmlns="http://www.w3.org/2000/svg" width="384.93" height="367.21" viewBox="0 0 384.93 367.21">
  <defs>
    <style>
      .cls-1 {
        fill: #618084;
        stroke-width: 0.11px;
      }

      .cls-1, .cls-3 {
        stroke: #333;
      }

      .cls-1, .cls-3, .cls-4 {
        stroke-miterlimit: 10;
      }

      .cls-2 {
        fill: #333;
      }

      .cls-3, .cls-4 {
        fill: none;
      }

      .cls-4 {
        stroke: #f3912e;
      }

      .cls-5 {
        fill: #f3912e;
      }
    </style>
  </defs>
  <g id="production">
    <g id="Layer_38" data-name="Layer 38">
      <path class="cls-1" d="M303.56,41.44c19.76,6,11.58,89.35.25,145.56C294,235.56,278,315,240.51,320.77c-15.32,2.37-21.06-9.55-44.75-21.7-78.15-40.07-171.28,9.87-178.91-8.7-2.36-5.74,6.56-10.39,25.66-36.23,23.42-31.71,41.22-55.79,37.32-78.46-5-29.19-41.75-31.08-42-52C37.62,98.49,90.34,66.3,142.2,66.53c49.55.22,66.47,29.88,103.05,19S290.1,37.34,303.56,41.44Z"/>
    </g>
    <g id="pudelid">
      <path class="cls-2" d="M26.17,329.46q-.44-12-1.58-23.93c-.38-4-.94-7.95-1-12a59.9,59.9,0,0,1,.86-12,40.63,40.63,0,0,1,1.45-5.9,15,15,0,0,1,3.05-5.37,14.47,14.47,0,0,1,11.25-4.4l24-.14,96-.23,96,.23,48,.28,48,.49-48,.49-48,.28-96,.22-96-.23-24-.14c-.49,0-1,0-1.48,0s-1,.07-1.43.13a14.76,14.76,0,0,0-2.79.68A12.08,12.08,0,0,0,29.76,271c-2.64,2.82-3.57,6.84-4.36,10.69a59.41,59.41,0,0,0-1.07,11.84c0,4,.48,7.95.79,11.94C25.76,313.46,26.09,321.46,26.17,329.46Z"/>
      <path class="cls-3" d="M93.47,261H130.4c.12-.72,2.8-57.89,0-64-.92-2-2-4.13-2-4.13-.83-1.63-1.5-2.8-1.7-3.19-2-3.93-3.59-7.27-4.66-9.67L121,172.22H101.78l-1,8.26-7.19,13.77-1.1,3.39C91.81,199.59,91.88,215.92,93.47,261Z"/>
      <path class="cls-2" d="M108.65,182.23a73.67,73.67,0,0,0-3.14,8.05,64.83,64.83,0,0,0-2.14,8.33,78,78,0,0,0-1,17.15l.12,8.65c0,1.44,0,2.88,0,4.33s0,2.88-.09,4.33l-.25,8.65c-.11,2.88-.2,5.77-.34,8.65-.08-2.89-.1-5.77-.15-8.66l0-8.65c0-2.88.07-5.76,0-8.64l-.21-8.65c-.06-5.75,0-11.63,1.25-17.31A60.78,60.78,0,0,1,108.65,182.23Z"/>
      <path class="cls-3" d="M144.85,261h36.93c.12-.72,2.8-57.89,0-64-.92-2-2-4.13-2-4.13-.83-1.63-1.5-2.8-1.7-3.19-2-3.93-3.6-7.27-4.66-9.67-.38-2.57-.76-5.15-1.15-7.72H153.15l-1,8.26-7.19,13.77-1.1,3.39C143.19,199.59,143.26,215.92,144.85,261Z"/>
      <path class="cls-2" d="M160,182.23a71.7,71.7,0,0,0-3.14,8.05,64.83,64.83,0,0,0-2.14,8.33,78,78,0,0,0-1,17.15l.12,8.65c0,1.44,0,2.88,0,4.33s-.05,2.88-.09,4.33l-.25,8.65c-.11,2.88-.2,5.77-.35,8.65-.07-2.89-.09-5.77-.14-8.66l0-8.65c0-2.88.07-5.76,0-8.64l-.21-8.65c-.06-5.75,0-11.63,1.25-17.31A60.78,60.78,0,0,1,160,182.23Z"/>
      <path class="cls-2" d="M167.61,172.22c3.88,0,7.4-.25,7.4-.25h0a23.72,23.72,0,0,0,1.28-4.92,12.93,12.93,0,0,0-.13-3.84h0a8.82,8.82,0,0,0-1.44-1.88c-1.46-1.42-20.41-.83-20.41-.83,1.67-.05-3.76-.36-4.94.83-.48.48-.6,1.17-.85,2.53a9.61,9.61,0,0,0-.06,3.9,12.83,12.83,0,0,0,2,4.34s4.61.19,15,.1C166.79,172.18,166.84,172.22,167.61,172.22Z"/>
      <path class="cls-4" d="M195,260H232c.12-.72,2.8-57.89,0-64-.92-2-2-4.13-2-4.13-.83-1.63-1.5-2.8-1.7-3.19-2.05-3.93-3.6-7.27-4.66-9.66q-.57-3.87-1.15-7.73H203.34l-1,8.26-7.19,13.77-1.1,3.39C193.38,198.67,193.45,215,195,260Z"/>
      <path class="cls-5" d="M210.22,181.32a70.81,70.81,0,0,0-3.14,8,64.83,64.83,0,0,0-2.14,8.33,78,78,0,0,0-1,17.15l.12,8.65c0,1.44,0,2.88,0,4.33s-.05,2.88-.09,4.33l-.25,8.65c-.11,2.89-.2,5.77-.35,8.65-.07-2.89-.09-5.77-.14-8.66l0-8.64c0-2.89.07-5.77,0-8.65l-.21-8.65c-.06-5.75,0-11.62,1.25-17.31A60.58,60.58,0,0,1,210.22,181.32Z"/>
      <path class="cls-5" d="M217.8,171.3c3.88,0,7.4-.25,7.4-.25h0a23.54,23.54,0,0,0,1.28-4.91,13,13,0,0,0-.13-3.85h0a8.82,8.82,0,0,0-1.44-1.88c-1.46-1.42-20.41-.83-20.41-.83,1.67-.05-3.76-.35-4.94.83-.48.48-.6,1.17-.85,2.53a9.61,9.61,0,0,0-.06,3.9,12.75,12.75,0,0,0,2,4.34s4.6.19,15,.1C217,171.27,217,171.3,217.8,171.3Z"/>
      <path class="cls-3" d="M246.22,259.61h36.93c.12-.72,2.8-57.89,0-64-.92-2.05-2-4.14-2-4.14-.83-1.63-1.5-2.8-1.7-3.19-2.05-3.93-3.6-7.27-4.66-9.66q-.57-3.87-1.15-7.73H254.52l-1,8.26-7.19,13.77-1.1,3.39C244.56,198.24,244.63,214.57,246.22,259.61Z"/>
      <path class="cls-2" d="M261.39,180.89a73.45,73.45,0,0,0-3.13,8,63.63,63.63,0,0,0-2.14,8.33,78,78,0,0,0-1,17.15l.12,8.65c0,1.44,0,2.89,0,4.33s-.05,2.89-.1,4.33l-.24,8.65c-.11,2.89-.2,5.77-.35,8.65-.07-2.89-.09-5.77-.14-8.66l0-8.64c0-2.88.07-5.77,0-8.65l-.21-8.65c-.06-5.75,0-11.62,1.25-17.31A60.9,60.9,0,0,1,261.39,180.89Z"/>
      <path class="cls-2" d="M269,170.87c3.88,0,7.4-.25,7.4-.25h0a23.54,23.54,0,0,0,1.28-4.91,13,13,0,0,0-.13-3.85h0a8.82,8.82,0,0,0-1.44-1.88c-1.46-1.42-20.41-.83-20.41-.83,1.67-.05-3.76-.35-4.94.83-.48.49-.6,1.17-.85,2.53a9.61,9.61,0,0,0-.06,3.9,12.83,12.83,0,0,0,2,4.34s4.61.19,15,.1C268.16,170.84,268.21,170.87,269,170.87Z"/>
      <path class="cls-3" d="M300.66,259.61h36.93c.12-.72,2.8-57.89,0-64-.92-2.05-2-4.14-2-4.14-.83-1.63-1.5-2.8-1.7-3.19-2.05-3.93-3.6-7.27-4.66-9.66l-1.14-7.73H309l-1,8.26-7.19,13.77-1.1,3.39C299,198.24,299.07,214.57,300.66,259.61Z"/>
      <path class="cls-2" d="M315.84,180.89a71.55,71.55,0,0,0-3.14,8,65.25,65.25,0,0,0-2.14,8.33,78,78,0,0,0-1,17.15l.12,8.65c0,1.44,0,2.89,0,4.33s0,2.89-.09,4.33l-.25,8.65c-.11,2.89-.2,5.77-.35,8.65-.07-2.89-.09-5.77-.14-8.66l0-8.64c-.05-2.88.07-5.77,0-8.65l-.21-8.65c-.06-5.75,0-11.62,1.25-17.31A60.58,60.58,0,0,1,315.84,180.89Z"/>
      <path class="cls-2" d="M323.42,170.87c3.88,0,7.4-.25,7.4-.25h0a23.54,23.54,0,0,0,1.28-4.91,13,13,0,0,0-.13-3.85h0a8.82,8.82,0,0,0-1.44-1.88c-1.46-1.42-20.41-.83-20.41-.83,1.67-.05-3.76-.35-4.94.83-.48.49-.6,1.17-.85,2.53a9.61,9.61,0,0,0-.06,3.9,12.75,12.75,0,0,0,2,4.34s4.6.19,15,.1C322.6,170.84,322.65,170.87,323.42,170.87Z"/>
      <path class="cls-2" d="M85.16,127.08s6.5,4.71,11.88,8.75c2.43,1.82,5.77,4.36,9.73,7.48q.93,8.53,1.88,17.07h3.23q1-8.69,1.93-17.37c5.94-4.71,10.74-8.09,14.07-10.33,2.3-1.54,8.46-5.6,8.46-5.6Zm27.54,19.41c-.17,1.64-.24,1.47-.53,3.52-.14,1-.23,1.93-.33,2.9a7.69,7.69,0,0,1-.6,2.64,1,1,0,0,1-1.69.54.94.94,0,0,1-.41-.78,19.1,19.1,0,0,0-.28-2.61,1.19,1.19,0,0,1-.11-.42c-.06-.7-.33-1.37-.43-2.06s-.19-1.39-.33-2.08-.15-1.29-.24-1.93a14.36,14.36,0,0,0-.37-2.08,1.34,1.34,0,0,1,.12-1.18c.53-.87,5.34-.8,5.4-.38,0,0,0,.27,0,.27S112.89,144.72,112.7,146.49Z"/>
      <path class="cls-2" d="M4.64,89.77l110.88-.67L115,131.19l-9.35-.65q0-15.25-.08-30.51L5.13,102.57"/>
    </g>
  </g>
</svg>
