<svg xmlns="http://www.w3.org/2000/svg" width="199.59" height="190.68" viewBox="0 0 199.59 190.68">
  <defs>
    <style>
      .cls-1 {
        fill: #618084;
      }

      .cls-2 {
        fill: #b1927e;
      }

      .cls-3 {
        fill: #333;
      }

      .cls-4 {
        fill: #b67c58;
      }

      .cls-5 {
        fill: #9b6138;
      }
    </style>
  </defs>
  <g id="buckwheat">
    <ellipse class="cls-1" cx="99.8" cy="95.38" rx="99.75" ry="95.3"/>
    <g>
      <g>
        <path class="cls-2" d="M80.61,68.55c-.08-.32-1.39-5.53,1.89-8.88a9.46,9.46,0,0,1,5.65-2.45,22.9,22.9,0,0,1,10.16,1.11s-.37,2.81-.81,4.63a18,18,0,0,1-3.11,6.76c-1.23,1.62-2.24,3-4.15,3.71a7.53,7.53,0,0,1-7.45-1A7.19,7.19,0,0,1,80.61,68.55Z"/>
        <path class="cls-3" d="M80.61,68.55a11.06,11.06,0,0,1,.28-6.42,7.73,7.73,0,0,1,1.78-2.73,7.46,7.46,0,0,1,2.8-1.7A18,18,0,0,1,92,56.83a24.42,24.42,0,0,1,6.4,1.22l-.17.54a.3.3,0,0,0,.23,0,.29.29,0,0,0,.17-.19h0v.06l0,.11,0,.24-.06.47-.15.94c-.09.62-.21,1.25-.34,1.87a21.44,21.44,0,0,1-1.08,3.67,19.22,19.22,0,0,1-4.27,6.29,7,7,0,0,1-3.38,1.77,8.32,8.32,0,0,1-3.78,0,6.32,6.32,0,0,1-3.23-1.9A7.46,7.46,0,0,1,80.61,68.55Zm0,0a7.51,7.51,0,0,0,1.66,3.35,6.31,6.31,0,0,0,3.22,1.84,7.66,7.66,0,0,0,6.91-1.89,20.17,20.17,0,0,0,4-6.26,20.9,20.9,0,0,0,1-3.58l.32-1.86.15-.93.08-.46,0-.23,0-.12V58.3a.34.34,0,0,1,.18-.22.29.29,0,0,1,.23,0l-.17.53a25.14,25.14,0,0,0-6.34-1.32,17.88,17.88,0,0,0-6.38.66A7.15,7.15,0,0,0,81,62.16,11,11,0,0,0,80.61,68.55Z"/>
      </g>
      <g>
        <path class="cls-4" d="M70.21,88.72c-.34,0-5.71-.07-8.11-4.09a9.42,9.42,0,0,1-.92-6.09A22.83,22.83,0,0,1,64.84,69s2.62,1.08,4.27,2a18,18,0,0,1,5.74,4.73c1.26,1.61,2.31,2.93,2.54,5a7.54,7.54,0,0,1-2.87,7A7.17,7.17,0,0,1,70.21,88.72Z"/>
        <path class="cls-3" d="M70.21,88.72a11.1,11.1,0,0,1-6.14-1.9,7.8,7.8,0,0,1-2.19-2.42A7.72,7.72,0,0,1,61,81.26a18.12,18.12,0,0,1,.82-6.5,24.14,24.14,0,0,1,2.81-5.88l.48.3a.32.32,0,0,0,.08-.21.28.28,0,0,0-.14-.21h0l.06,0,.11,0,.22.09.44.18.87.38c.58.25,1.15.53,1.72.81a20.19,20.19,0,0,1,3.27,2,19.24,19.24,0,0,1,5,5.74,7,7,0,0,1,.84,3.71,8.28,8.28,0,0,1-1,3.65A6.39,6.39,0,0,1,73.89,88,7.42,7.42,0,0,1,70.21,88.72Zm0,0A7.46,7.46,0,0,0,73.87,88a6.22,6.22,0,0,0,2.59-2.64,7.6,7.6,0,0,0-.06-7.16,20,20,0,0,0-5-5.48,21.11,21.11,0,0,0-3.21-1.89L66.46,70l-.86-.38-.43-.19L65,69.35l-.11,0,0,0-.05,0a.31.31,0,0,1-.17-.22.33.33,0,0,1,.06-.23l.47.31a24.87,24.87,0,0,0-2.89,5.79,17.71,17.71,0,0,0-1,6.33,7.16,7.16,0,0,0,2.9,5.51A11,11,0,0,0,70.21,88.72Z"/>
      </g>
      <g>
        <path class="cls-5" d="M67.26,50c-3.83.21-5.46,0-6.13,1-.21.35-.33.84.25,3,.82,3.08,1.28,4.79,2.73,6.77,1.3,1.76,2.59,3.52,5,4a7.14,7.14,0,0,0,5.22-1.12,6.49,6.49,0,0,0,2.57-3,6,6,0,0,0,.44-2.16c0-.38.22-7.06-3.51-8.9C72.59,49.07,72.47,49.71,67.26,50Z"/>
        <path class="cls-3" d="M67.26,50,64,50.15a12.36,12.36,0,0,0-1.61.16,1.75,1.75,0,0,0-1.29.81,2.67,2.67,0,0,0,0,1.56c.11.52.26,1,.4,1.56.3,1,.59,2.07.95,3.08a15.41,15.41,0,0,0,3.42,5.33,6.34,6.34,0,0,0,2.54,1.73,5.81,5.81,0,0,0,3,.18,7.13,7.13,0,0,0,4.93-3.47,6.2,6.2,0,0,0,.69-3,16.19,16.19,0,0,0-.26-3.18,10.06,10.06,0,0,0-1-3,5,5,0,0,0-2.21-2.23,2.51,2.51,0,0,0-1.56-.12l-1.6.22C69.41,49.87,68.33,49.94,67.26,50Zm0,0c1.07-.07,2.15-.16,3.21-.3l1.6-.24a2.61,2.61,0,0,1,1.61.1A5.16,5.16,0,0,1,76,51.78a10.53,10.53,0,0,1,1.12,3.06,17.68,17.68,0,0,1,.37,3.24,6.46,6.46,0,0,1-.65,3.25,7.69,7.69,0,0,1-5.26,3.81,6.54,6.54,0,0,1-3.34-.24A6.91,6.91,0,0,1,65.52,63a22.62,22.62,0,0,1-2-2.62,12.47,12.47,0,0,1-1.36-3c-.34-1-.59-2.08-.85-3.13-.14-.52-.26-1.05-.35-1.58a2.8,2.8,0,0,1,0-1.62,1.84,1.84,0,0,1,1.36-.83A12.69,12.69,0,0,1,64,50.1Z"/>
      </g>
      <g>
        <path class="cls-5" d="M80.51,34.36c-.39.16-.37.78-.58,1.78-.44,2.17-1.26,2.84-2,4.55a12.06,12.06,0,0,0-.57,8,7.31,7.31,0,0,0,2.73,4.09,6.67,6.67,0,0,0,5.48,1c3.56-1.05,4.47-5,4.58-5.47a7.92,7.92,0,0,0-.44-4.63c-.89-2.2-2-2.14-5.31-5.69C82.24,35.69,81.22,34.07,80.51,34.36Z"/>
        <path class="cls-3" d="M80.51,34.36c-.26.11-.32.42-.37.67l-.14.79a9.37,9.37,0,0,1-.39,1.56,24.81,24.81,0,0,1-1.44,2.87,12.33,12.33,0,0,0-1.1,6.21,10.41,10.41,0,0,0,.76,3.06,6.92,6.92,0,0,0,1.73,2.55,6.05,6.05,0,0,0,10-2.64,7.72,7.72,0,0,0-.15-6.09,7,7,0,0,0-2-2.39c-.8-.7-1.58-1.45-2.32-2.22s-1.46-1.57-2.15-2.39c-.35-.41-.7-.82-1.06-1.21a6.19,6.19,0,0,0-.59-.55A.8.8,0,0,0,80.51,34.36Zm0,0a.81.81,0,0,1,.74.21,5.12,5.12,0,0,1,.59.55c.37.38.72.79,1.08,1.19.7.81,1.42,1.6,2.18,2.36s1.56,1.46,2.38,2.14a7.28,7.28,0,0,1,2.18,2.4,8,8,0,0,1,.35,6.4,8.23,8.23,0,0,1-1.72,2.81,6,6,0,0,1-2.86,1.7,6.88,6.88,0,0,1-6.21-1.68,7,7,0,0,1-1.76-2.78,10.84,10.84,0,0,1-.69-3.18,12.69,12.69,0,0,1,1.33-6.27,26.34,26.34,0,0,0,1.47-2.84A8.65,8.65,0,0,0,80,35.82l.15-.79C80.18,34.78,80.25,34.47,80.51,34.36Z"/>
      </g>
      <g>
        <path class="cls-2" d="M127.09,123.22a6.87,6.87,0,0,1-5.41-2.75c-.82-1.19-.94-2.35-1.13-4.24-.21-2.06.22-1.88.34-5.74.06-2.07,0-3,.71-3.69a3,3,0,0,1,2.11-.49c3.62,0,5.43-.07,6.79.34,1.94.58,3.36,1,4.27,2.35s.81,3.16.61,5a10.65,10.65,0,0,1-1.34,4.69C133.55,119.54,131.15,123.28,127.09,123.22Z"/>
        <path class="cls-3" d="M127.09,123.22a6.8,6.8,0,0,1-5.64-3,7.76,7.76,0,0,1-.91-3.19c-.07-.55-.14-1.1-.16-1.67a11.62,11.62,0,0,1,.12-1.67,30.14,30.14,0,0,0,.2-3.3l0-1.66a3.29,3.29,0,0,1,.4-1.72,2.05,2.05,0,0,1,1.59-.87c.58-.06,1.12,0,1.68-.07,1.11,0,2.21,0,3.33,0a10.59,10.59,0,0,1,3.34.52,9.11,9.11,0,0,1,3.09,1.42,4.46,4.46,0,0,1,1.53,3,15.56,15.56,0,0,1-.19,3.35,11.38,11.38,0,0,1-.79,3.24,10,10,0,0,1-1.82,2.79,9.1,9.1,0,0,1-2.59,2.07A6.75,6.75,0,0,1,127.09,123.22Zm0,0a6.65,6.65,0,0,0,3.18-.81,9,9,0,0,0,2.55-2.08,9.88,9.88,0,0,0,1.72-2.8,11.77,11.77,0,0,0,.67-3.21,16.42,16.42,0,0,0,.09-3.28,4.15,4.15,0,0,0-1.46-2.71,8.73,8.73,0,0,0-2.93-1.29,10.46,10.46,0,0,0-3.2-.46c-1.1,0-2.21,0-3.31,0s-2.33-.17-2.88.68a3.07,3.07,0,0,0-.36,1.47l-.07,1.66a30.8,30.8,0,0,1-.31,3.32,10.13,10.13,0,0,0-.17,1.63c0,.55.06,1.1.11,1.65a7.4,7.4,0,0,0,.8,3.17A6.77,6.77,0,0,0,127.09,123.22Z"/>
      </g>
      <g>
        <path class="cls-5" d="M127,99.64c-.33.08-5.56,1.3-8.86-2a9.45,9.45,0,0,1-2.35-5.7A22.89,22.89,0,0,1,117,81.77s2.8.42,4.61.89a17.91,17.91,0,0,1,6.71,3.22c1.61,1.26,2.94,2.3,3.65,4.22a7.51,7.51,0,0,1-1.13,7.43A7.19,7.19,0,0,1,127,99.64Z"/>
        <path class="cls-3" d="M127,99.64a11.11,11.11,0,0,1-6.43-.38,7.82,7.82,0,0,1-2.69-1.82,7.64,7.64,0,0,1-1.66-2.83,18.36,18.36,0,0,1-.76-6.51,24.31,24.31,0,0,1,1.33-6.38l.53.18a.29.29,0,0,0,0-.23.28.28,0,0,0-.18-.17h.06l.12,0,.23,0,.47.08.94.15c.62.11,1.24.24,1.86.38a20.32,20.32,0,0,1,3.65,1.14,19.44,19.44,0,0,1,6.23,4.38,6.91,6.91,0,0,1,1.7,3.4,8.18,8.18,0,0,1-.08,3.78,6.3,6.3,0,0,1-1.95,3.2A7.47,7.47,0,0,1,127,99.64Zm0,0a7.53,7.53,0,0,0,3.37-1.6,6.23,6.23,0,0,0,1.89-3.19,7.63,7.63,0,0,0-1.77-6.94,19,19,0,0,0-9.76-5.18l-1.85-.36-.92-.16-.47-.08-.23,0-.12,0H117a.3.3,0,0,1-.21-.18.29.29,0,0,1,0-.23l.53.18a25.12,25.12,0,0,0-1.43,6.32,17.9,17.9,0,0,0,.55,6.39,7.17,7.17,0,0,0,4.14,4.66A11,11,0,0,0,127,99.64Z"/>
      </g>
      <g>
        <path class="cls-4" d="M135.21,102.85c-.08-.33-1.39-5.53,1.89-8.89a9.38,9.38,0,0,1,5.65-2.44,22.81,22.81,0,0,1,10.16,1.1s-.37,2.81-.81,4.63A18,18,0,0,1,149,104c-1.23,1.63-2.24,3-4.15,3.72a7.51,7.51,0,0,1-7.45-1A7.16,7.16,0,0,1,135.21,102.85Z"/>
        <path class="cls-3" d="M135.21,102.85a11.1,11.1,0,0,1,.28-6.43,7.82,7.82,0,0,1,1.78-2.73,7.59,7.59,0,0,1,2.8-1.7,18.26,18.26,0,0,1,6.49-.87,24,24,0,0,1,6.4,1.23l-.17.53a.26.26,0,0,0,.23,0,.28.28,0,0,0,.17-.18h0v.06l0,.12,0,.23-.07.47-.14.94c-.09.63-.21,1.25-.34,1.87a21.18,21.18,0,0,1-1.08,3.67,19.13,19.13,0,0,1-4.28,6.3,6.83,6.83,0,0,1-3.37,1.76,8.18,8.18,0,0,1-3.78,0,6.3,6.3,0,0,1-3.23-1.89A7.56,7.56,0,0,1,135.21,102.85Zm0,0a7.42,7.42,0,0,0,1.66,3.34,6.24,6.24,0,0,0,3.22,1.84,7.63,7.63,0,0,0,6.91-1.89,20.13,20.13,0,0,0,4-6.25,21,21,0,0,0,1-3.59l.32-1.85.15-.93.08-.47,0-.23,0-.12v-.11a.31.31,0,0,1,.18-.21.3.3,0,0,1,.23,0l-.17.53a25.56,25.56,0,0,0-6.34-1.31,17.88,17.88,0,0,0-6.38.65,7.15,7.15,0,0,0-4.59,4.21A11,11,0,0,0,135.21,102.85Z"/>
      </g>
      <g>
        <path class="cls-4" d="M128.25,75.43c-.08-.32-1.39-5.53,1.89-8.88a9.42,9.42,0,0,1,5.65-2.45A23,23,0,0,1,146,65.21s-.38,2.81-.81,4.63A18,18,0,0,1,142,76.6c-1.24,1.62-2.25,3-4.16,3.71a7.51,7.51,0,0,1-7.45-1A7.2,7.2,0,0,1,128.25,75.43Z"/>
        <path class="cls-3" d="M128.25,75.43a11.06,11.06,0,0,1,.28-6.42,7.73,7.73,0,0,1,1.78-2.73,7.54,7.54,0,0,1,2.8-1.7,18.07,18.07,0,0,1,6.49-.87A23.7,23.7,0,0,1,146,64.93l-.18.53a.3.3,0,0,0,.23,0,.29.29,0,0,0,.17-.19s0,0,0,0v.17l0,.24-.06.47-.14.94c-.1.62-.22,1.24-.35,1.87a20.82,20.82,0,0,1-1.08,3.67A19.32,19.32,0,0,1,140.27,79a7,7,0,0,1-3.37,1.77,8.36,8.36,0,0,1-3.79,0,6.23,6.23,0,0,1-3.23-1.89A7.51,7.51,0,0,1,128.25,75.43Zm0,0a7.53,7.53,0,0,0,1.67,3.35,6.16,6.16,0,0,0,3.21,1.83A7.59,7.59,0,0,0,140,78.72a18.92,18.92,0,0,0,5-9.84l.33-1.85.15-.93.07-.46,0-.24,0-.11v-.11a.32.32,0,0,1,.17-.22.3.3,0,0,1,.23,0l-.17.54a25.14,25.14,0,0,0-6.34-1.32,18.11,18.11,0,0,0-6.38.65A7.19,7.19,0,0,0,128.6,69,11.16,11.16,0,0,0,128.25,75.43Z"/>
      </g>
      <g>
        <path class="cls-5" d="M111.78,151.33c.25.37-.21.79.08,1.31.17.28.43.36,2.07.75,1.25.3,1.43.34,1.73.27a2.41,2.41,0,0,0,1.36-1c1.94-2.47,2.86-8.06,2.86-8.06,1.15-5.4.69-6.2.33-6.59-.77-.84-2.48-.73-5.85-.47-3.93.31-5.93.48-7.77,1.72a9.31,9.31,0,0,0-3.14,3.58c-.42.87-1.32,2.73-.57,4.32a4.39,4.39,0,0,0,.88,1.16c.75.82,2,1.85,2.39,1.57s-.24-1.63-.1-1.68.55,2.27,2.06,3S111.31,150.65,111.78,151.33Z"/>
        <path class="cls-3" d="M111.78,151.33c.19.28,0,.61,0,.91a.68.68,0,0,0,.49.69c.59.2,1.2.32,1.8.47l.9.2a1.42,1.42,0,0,0,.89,0,2.91,2.91,0,0,0,1.32-1.21,20.69,20.69,0,0,0,2.27-7c.19-1.24.43-2.44.57-3.66.07-.61.12-1.21.13-1.81a2.58,2.58,0,0,0-.26-1.46,1.82,1.82,0,0,0-1.31-.49,15,15,0,0,0-1.77,0c-1.22.07-2.46.18-3.69.29-2.45.21-4.92.34-6.76,1.83a8.84,8.84,0,0,0-2.35,2.6,6.72,6.72,0,0,0-1.1,3.31,2.68,2.68,0,0,0,.52,1.59,10.33,10.33,0,0,0,1.22,1.35,6.44,6.44,0,0,0,.7.57c.22.16.54.34.71.3s.11-.13.11-.27a3.49,3.49,0,0,0,0-.44l-.1-.45-.05-.24a.44.44,0,0,1,0-.13v0s0-.07.06-.09.16,0,.15.06a14.1,14.1,0,0,0,.73,1.72,2.86,2.86,0,0,0,1.29,1.26,3.22,3.22,0,0,0,1.82.11c.31-.05.61-.12.92-.16S111.58,151.06,111.78,151.33Zm0,0c-.2-.26-.57-.22-.86-.18l-.92.17a3.3,3.3,0,0,1-1.84-.08c-1.2-.51-1.69-1.86-2.14-2.93,0,0,0,0,.06,0a0,0,0,0,0,0,0v0a.51.51,0,0,0,0,.09l.05.22.13.45a2.53,2.53,0,0,1,.08.48.5.5,0,0,1-.24.53.76.76,0,0,1-.55-.06,3,3,0,0,1-.44-.22,8.39,8.39,0,0,1-.77-.56,11.3,11.3,0,0,1-1.35-1.33,3.25,3.25,0,0,1-.74-1.85,7.51,7.51,0,0,1,1-3.74,9.47,9.47,0,0,1,2.44-3,8.31,8.31,0,0,1,3.53-1.71,29.17,29.17,0,0,1,3.76-.5c1.24-.09,2.47-.19,3.73-.25a14.09,14.09,0,0,1,1.94,0,2.86,2.86,0,0,1,2,.94,2.12,2.12,0,0,1,.37,1.13,6.67,6.67,0,0,1,0,1c0,.65-.14,1.27-.25,1.89-.21,1.23-.54,2.45-.79,3.65a21.31,21.31,0,0,1-2.72,7,3,3,0,0,1-1.41,1.22,1.51,1.51,0,0,1-.94,0l-.9-.22c-.6-.15-1.21-.28-1.8-.49a.7.7,0,0,1-.49-.71C111.75,151.93,112,151.61,111.78,151.33Z"/>
      </g>
      <path class="cls-3" d="M101.63,146.37c.21,0,.36.17.52.28s.31.27.46.41l.88.86a21.74,21.74,0,0,0,1.83,1.63,1.81,1.81,0,0,0,.52.3c.19.09.36,0,.35-.18a5,5,0,0,0-.23-1.18l0-.17a.15.15,0,0,1,0-.13c0-.13.24,0,.21,0a2,2,0,0,1,.14.31l.24.56a5.63,5.63,0,0,0,.58,1.05,2.27,2.27,0,0,0,1.91,1.07,5.23,5.23,0,0,0,1.17-.16,3.24,3.24,0,0,1,1.32-.14.81.81,0,0,1,.6.62,2.5,2.5,0,0,1-.06.68.64.64,0,0,0,.43.7,7.47,7.47,0,0,0,2.33.23,3.75,3.75,0,0,1,.68.09.62.62,0,0,1,.43.38.64.64,0,0,1-.14.52,3.07,3.07,0,0,1-1.08.82,5.6,5.6,0,0,1-2.47.64,8.65,8.65,0,0,1-4.68-1.64,15.16,15.16,0,0,1-3.66-3.3,15.82,15.82,0,0,1-1.42-2c-.2-.35-.4-.72-.57-1.09A2.22,2.22,0,0,1,101.63,146.37Zm0,0a2.21,2.21,0,0,0,.31,1.15c.18.37.38.73.59,1.08a14.77,14.77,0,0,0,5.19,5.07,8.33,8.33,0,0,0,4.52,1.39,5,5,0,0,0,2.23-.62,2.69,2.69,0,0,0,.86-.66c0-.05,0-.12,0,0s0,0,0,0a2.78,2.78,0,0,0-.54-.06,7.58,7.58,0,0,1-2.53-.32,1.2,1.2,0,0,1-.72-1.26,2.81,2.81,0,0,0,.07-.54.28.28,0,0,0-.22-.21,3.18,3.18,0,0,0-1.1.1,5.83,5.83,0,0,1-1.27.11,2.65,2.65,0,0,1-2.15-1.3,6.21,6.21,0,0,1-.55-1.13l-.22-.58a2.39,2.39,0,0,0-.1-.26h0a.1.1,0,0,0,.08,0s0,0,0,0a.78.78,0,0,0,0,.14,4.94,4.94,0,0,1,.18,1.23.33.33,0,0,1-.18.3.43.43,0,0,1-.34,0,2.8,2.8,0,0,1-.53-.33,22.1,22.1,0,0,1-1.81-1.67l-.87-.87-.45-.42C102,146.55,101.84,146.35,101.63,146.37Z"/>
      <g>
        <path class="cls-2" d="M99.55,134c.31.32-.08.82.31,1.27.21.25.48.28,2.17.39,1.27.07,1.46.08,1.74,0a2.42,2.42,0,0,0,1.18-1.21c1.47-2.77,1.4-8.43,1.4-8.43.19-5.52-.4-6.22-.82-6.54-.91-.7-2.57-.29-5.84.55-3.82,1-5.76,1.51-7.35,3a9.33,9.33,0,0,0-2.47,4.08c-.26.92-.83,2.91.19,4.35a5.12,5.12,0,0,0,1.06,1c.89.68,2.31,1.46,2.64,1.12s-.52-1.56-.4-1.63.94,2.14,2.55,2.55S99,133.43,99.55,134Z"/>
        <path class="cls-3" d="M99.59,134c.27.28.1.66.16.92a.62.62,0,0,0,.56.54,14.15,14.15,0,0,0,1.85.09c.61,0,1.29.1,1.68-.21a2.74,2.74,0,0,0,.92-1.37,28.15,28.15,0,0,0,1.09-7.14c.06-1.26.18-2.46.2-3.7,0-.61,0-1.23,0-1.83a2.72,2.72,0,0,0-.51-1.6,2.11,2.11,0,0,0-1.62-.38,12.53,12.53,0,0,0-1.79.34c-1.2.28-2.38.67-3.57,1-2.35.75-4.77,1.44-6.23,3.27a8.52,8.52,0,0,0-1.71,3,6.78,6.78,0,0,0-.37,3.31,2.31,2.31,0,0,0,.71,1.27,12,12,0,0,0,1.38,1.06A8.09,8.09,0,0,0,93,133a2.31,2.31,0,0,0,.35.14c.09.05.22,0,.07.07s-.12.16-.11.17a.14.14,0,0,0,0-.07,1.52,1.52,0,0,0-.09-.37l-.15-.42-.09-.24a.78.78,0,0,1-.05-.21V132a.49.49,0,0,1,.2-.35.46.46,0,0,1,.4,0c.15.08.08.06.12.09a1.93,1.93,0,0,1,.3.49l.21.4a7.34,7.34,0,0,0,.48.75,2.72,2.72,0,0,0,1.35,1,2.86,2.86,0,0,0,1.75-.14l.88-.31A.93.93,0,0,1,99.59,134Zm-.09.08c-.21-.19-.53-.1-.81,0l-.87.34a3.51,3.51,0,0,1-1.88.31c-1.35-.22-2.24-1.63-2.8-2.42l.08.05a.34.34,0,0,0,.34,0,.33.33,0,0,0,.18-.29.06.06,0,0,0,0,0c0-.05,0,0,0,0l.1.18.22.43a2.82,2.82,0,0,1,.2.52,1.43,1.43,0,0,1,0,.38.75.75,0,0,1-.33.56,1.16,1.16,0,0,1-.84.1,3.67,3.67,0,0,1-.53-.16,7.52,7.52,0,0,1-.9-.44,9.88,9.88,0,0,1-1.62-1.14A3.55,3.55,0,0,1,89,130.54a7.47,7.47,0,0,1,.43-4,9.81,9.81,0,0,1,2-3.36A7.93,7.93,0,0,1,94.7,121a25.54,25.54,0,0,1,3.64-1l3.64-.8a12.78,12.78,0,0,1,1.87-.29,2.59,2.59,0,0,1,1.9.45,3.2,3.2,0,0,1,.73,1.83,14.89,14.89,0,0,1,.22,1.87c.1,1.25.1,2.52.14,3.74a17.12,17.12,0,0,1-1.4,7.43,3.35,3.35,0,0,1-1.34,1.51,1.45,1.45,0,0,1-.52.17,2.89,2.89,0,0,1-.51,0l-.93-.1c-.62-.09-1.23-.11-1.86-.24a.79.79,0,0,1-.66-.68C99.57,134.6,99.71,134.27,99.5,134.06Z"/>
      </g>
      <path class="cls-3" d="M88.69,130.9c.2-.05.38.11.56.19l.52.33,1,.68a18.85,18.85,0,0,0,2.08,1.29,2.07,2.07,0,0,0,.57.21c.2.05.35,0,.31-.24a4.69,4.69,0,0,0-.43-1.12l-.06-.16s0-.05,0-.14.25,0,.22,0a1.93,1.93,0,0,1,.19.27l.33.52a6.11,6.11,0,0,0,.75.93,2.3,2.3,0,0,0,2.08.72A5.84,5.84,0,0,0,98,134a3.11,3.11,0,0,1,1.28-.37.77.77,0,0,1,.69.5,2.71,2.71,0,0,1,.07.68.63.63,0,0,0,.54.62,7.33,7.33,0,0,0,2.33-.18,3.66,3.66,0,0,1,.68,0,.62.62,0,0,1,.5.3.68.68,0,0,1-.05.54,3.26,3.26,0,0,1-.92,1,5.52,5.52,0,0,1-2.32,1.06,8.65,8.65,0,0,1-4.9-.8,15.17,15.17,0,0,1-4.17-2.61A14.3,14.3,0,0,1,89.93,133a10,10,0,0,1-.75-1A2.15,2.15,0,0,1,88.69,130.9Zm0,0A2.15,2.15,0,0,0,89.2,132a9.88,9.88,0,0,0,.76.95,15.77,15.77,0,0,0,1.77,1.7A14.92,14.92,0,0,0,96,137a8.48,8.48,0,0,0,4.69.58,5.33,5.33,0,0,0,2.09-1,2.84,2.84,0,0,0,.73-.8c0-.06,0-.14,0-.06s0,0,0,0a3.59,3.59,0,0,0-.53,0,7.65,7.65,0,0,1-2.55.12,1.19,1.19,0,0,1-.93-1.11,2.5,2.5,0,0,0,0-.54.28.28,0,0,0-.24-.18,3.59,3.59,0,0,0-1.07.29,6.2,6.2,0,0,1-1.23.34,2.67,2.67,0,0,1-2.35-.92,5.5,5.5,0,0,1-.74-1l-.31-.54c0-.08-.11-.18-.15-.23s0,0,0,0a.15.15,0,0,0,.08,0c0-.05,0,0,0,0a.93.93,0,0,0,0,.13,4.42,4.42,0,0,1,.39,1.18.37.37,0,0,1-.12.33.45.45,0,0,1-.34,0,2.7,2.7,0,0,1-.58-.23,18.68,18.68,0,0,1-2.07-1.33l-1-.7-.52-.34C89.07,131,88.89,130.86,88.69,130.9Z"/>
      <g>
        <path class="cls-5" d="M83.48,125.5c.43-.14.71.43,1.28.28.32-.07.46-.3,1.3-1.77.64-1.11.73-1.28.74-1.59a2.4,2.4,0,0,0-.56-1.58c-1.84-2.55-6.95-5-6.95-5-4.86-2.61-5.76-2.39-6.23-2.15-1,.51-1.39,2.17-2.08,5.48-.8,3.86-1.19,5.83-.51,7.94a9.23,9.23,0,0,0,2.56,4c.71.64,2.25,2,4,1.75a4.64,4.64,0,0,0,1.36-.52c1-.49,2.33-1.42,2.17-1.86s-1.63-.23-1.64-.37,2.34.1,3.42-1.16S82.7,125.76,83.48,125.5Z"/>
        <path class="cls-3" d="M83.46,125.44c.38-.11.64.2.91.26a.61.61,0,0,0,.73-.26,14,14,0,0,0,.89-1.62c.24-.56.66-1.12.55-1.6a2.7,2.7,0,0,0-.81-1.43,28,28,0,0,0-5.93-4.13c-1.1-.61-2.13-1.25-3.23-1.81-.55-.28-1.1-.55-1.66-.77a2.81,2.81,0,0,0-1.67-.25,2.1,2.1,0,0,0-1,1.28,13.23,13.23,0,0,0-.49,1.77c-.28,1.2-.45,2.43-.66,3.65-.37,2.44-.82,4.91.18,7a8.62,8.62,0,0,0,2,2.85,6.68,6.68,0,0,0,2.8,1.8,2.42,2.42,0,0,0,1.46-.07,12.61,12.61,0,0,0,1.56-.78,7.18,7.18,0,0,0,.7-.48,2.35,2.35,0,0,0,.28-.25c.08-.06.1-.19.09,0s.09.18.11.17a.14.14,0,0,0-.07,0,2.33,2.33,0,0,0-.37-.08l-.44,0-.26,0-.2,0-.09,0a.43.43,0,0,1-.22-.33.46.46,0,0,1,.16-.37c.14-.09.09,0,.13-.06a1.86,1.86,0,0,1,.57-.05h.46a8.46,8.46,0,0,0,.88-.1,2.82,2.82,0,0,0,1.52-.76,3,3,0,0,0,.64-1.64l.11-.92C83,126,83.11,125.58,83.46,125.44Zm0,.12c-.26.1-.33.43-.37.73s0,.61-.07.92A3.56,3.56,0,0,1,82.5,129c-.8,1.12-2.45,1.29-3.41,1.44l.08,0a.37.37,0,0,0,.13-.32.32.32,0,0,0-.19-.29l0,0s0,0,0,0h.7a2.88,2.88,0,0,1,.55.06,1.06,1.06,0,0,1,.35.14.73.73,0,0,1,.36.54,1.07,1.07,0,0,1-.29.79,2.49,2.49,0,0,1-.37.41,7.79,7.79,0,0,1-.8.62,10.32,10.32,0,0,1-1.73.95,3.64,3.64,0,0,1-2.19.17,7.41,7.41,0,0,1-3.38-2.15A9.87,9.87,0,0,1,70.19,128a8,8,0,0,1-.51-3.88,25,25,0,0,1,.72-3.7l.89-3.62a14.4,14.4,0,0,1,.56-1.8,2.58,2.58,0,0,1,1.25-1.51,3.24,3.24,0,0,1,2,.15,15.65,15.65,0,0,1,1.78.63c1.16.46,2.3,1,3.41,1.53a17,17,0,0,1,6,4.54,3.2,3.2,0,0,1,.76,1.87,1.74,1.74,0,0,1-.07.54,2.1,2.1,0,0,1-.23.45l-.5.8c-.35.51-.64,1.06-1,1.56a.78.78,0,0,1-.9.29C84,125.74,83.77,125.46,83.5,125.56Z"/>
      </g>
      <path class="cls-3" d="M75.89,133.86c0-.2.27-.29.42-.42s.34-.22.52-.32l1.07-.61a21.13,21.13,0,0,0,2.07-1.3,2.88,2.88,0,0,0,.44-.41c.14-.17.12-.34-.08-.4a5.21,5.21,0,0,0-1.2-.1l-.16,0s-.06,0-.13-.06.08-.24.08-.2a2.33,2.33,0,0,1,.33-.06l.61-.06a6.32,6.32,0,0,0,1.16-.27,2.27,2.27,0,0,0,1.57-1.54,6.22,6.22,0,0,0,.17-1.17,3.08,3.08,0,0,1,.23-1.31.79.79,0,0,1,.76-.39,2.26,2.26,0,0,1,.64.24.64.64,0,0,0,.79-.22,7,7,0,0,0,.87-2.17,3,3,0,0,1,.28-.62.58.58,0,0,1,.48-.31.65.65,0,0,1,.47.27,3.33,3.33,0,0,1,.48,1.26,5.82,5.82,0,0,1-.07,2.56,8.74,8.74,0,0,1-2.88,4,15.42,15.42,0,0,1-4.19,2.59,14.56,14.56,0,0,1-2.33.8,12.16,12.16,0,0,1-1.2.25A2.21,2.21,0,0,1,75.89,133.86Zm0,0a2.12,2.12,0,0,0,1.2,0,9.71,9.71,0,0,0,1.19-.26,14.38,14.38,0,0,0,2.3-.84,14.58,14.58,0,0,0,4-2.73,8.46,8.46,0,0,0,2.6-4,5.15,5.15,0,0,0,0-2.31,2.93,2.93,0,0,0-.39-1c0-.06-.11-.08,0-.06s0,0,0,.05a3,3,0,0,0-.21.5,7.65,7.65,0,0,1-1,2.34,1.19,1.19,0,0,1-1.41.34,3,3,0,0,0-.5-.21.26.26,0,0,0-.26.14,3.23,3.23,0,0,0-.22,1.09,5.52,5.52,0,0,1-.24,1.25,2.65,2.65,0,0,1-1.85,1.7,6,6,0,0,1-1.24.22l-.61.05-.28,0s0,0,0,0a.08.08,0,0,0,0-.08s0,0,0,0l.14,0a4.8,4.8,0,0,1,1.23.17.35.35,0,0,1,.24.26.47.47,0,0,1-.13.32,3.13,3.13,0,0,1-.47.42,19.45,19.45,0,0,1-2.1,1.26l-1.08.6-.53.31C76.16,133.57,75.93,133.66,75.89,133.86Z"/>
      <g>
        <path class="cls-5" d="M98.64,112.69c.39.22.15.8.65,1.14.27.18.53.14,2.19-.22,1.25-.27,1.43-.32,1.67-.51a2.42,2.42,0,0,0,.8-1.48c.67-3.07-.93-8.5-.93-8.5-1.32-5.36-2.08-5.88-2.58-6.07-1.06-.42-2.54.42-5.46,2.12-3.41,2-5.13,3-6.25,4.93a9.17,9.17,0,0,0-1.27,4.59c0,1,0,3,1.37,4.13a4.57,4.57,0,0,0,1.29.67c1,.41,2.61.78,2.84.37s-.93-1.37-.83-1.47,1.49,1.81,3.15,1.77S97.92,112.28,98.64,112.69Z"/>
        <path class="cls-3" d="M98.64,112.69c.29.17.25.55.38.82a.71.71,0,0,0,.75.41,18.3,18.3,0,0,0,1.82-.36l.91-.22a1.42,1.42,0,0,0,.78-.42,3,3,0,0,0,.65-1.67,20.46,20.46,0,0,0-1-7.27c-.36-1.19-.67-2.38-1.08-3.53a15.59,15.59,0,0,0-.66-1.69,2.75,2.75,0,0,0-.87-1.21,1.89,1.89,0,0,0-1.39.13,15.78,15.78,0,0,0-1.6.79c-1.06.6-2.13,1.24-3.19,1.87-2.12,1.25-4.28,2.45-5.29,4.59a9.18,9.18,0,0,0-1,3.37,6.81,6.81,0,0,0,.46,3.46,2.74,2.74,0,0,0,1.16,1.2,11.8,11.8,0,0,0,1.68.68,6.63,6.63,0,0,0,.88.21c.27,0,.64.07.77,0s0-.16,0-.29a2.66,2.66,0,0,0-.24-.38l-.28-.36-.15-.19a.52.52,0,0,1-.07-.11l0,0a.23.23,0,0,1,0-.11c.05,0,.16,0,.15,0a15.76,15.76,0,0,0,1.41,1.22,2.87,2.87,0,0,0,1.71.58,3.25,3.25,0,0,0,1.69-.7c.25-.17.49-.37.75-.54S98.34,112.53,98.64,112.69Zm0,0a.85.85,0,0,0-.85.21c-.26.17-.5.37-.75.55a3.24,3.24,0,0,1-1.69.72c-1.31.07-2.34-.93-3.2-1.7,0,0,0,0,0,0s0,0,0,0h0s0,0,0,.08l.15.17.31.36a2.28,2.28,0,0,1,.28.39.51.51,0,0,1,0,.58.76.76,0,0,1-.52.19,4,4,0,0,1-.49,0c-.32,0-.63-.1-.94-.17a10.6,10.6,0,0,1-1.8-.61A3.31,3.31,0,0,1,87.8,112a7.47,7.47,0,0,1-.74-3.78,9.35,9.35,0,0,1,.89-3.78,8.13,8.13,0,0,1,2.44-3.07,27.39,27.39,0,0,1,3.16-2.09c1.08-.62,2.14-1.25,3.25-1.85a14.92,14.92,0,0,1,1.76-.8,2.83,2.83,0,0,1,2.22,0,2.16,2.16,0,0,1,.83.85,6.13,6.13,0,0,1,.43.9c.24.61.43,1.21.6,1.81.34,1.21.58,2.45.87,3.64a21.16,21.16,0,0,1,.58,7.43,3,3,0,0,1-.74,1.72,1.6,1.6,0,0,1-.84.42l-.91.19c-.61.12-1.21.28-1.83.34a.71.71,0,0,1-.76-.43C98.88,113.24,98.93,112.86,98.64,112.69Z"/>
      </g>
      <path class="cls-3" d="M87.34,112.63c.18-.1.4,0,.6,0l.59.17,1.16.38a19.75,19.75,0,0,0,2.36.67,2,2,0,0,0,.6,0c.21,0,.33-.13.24-.32a5,5,0,0,0-.73-1l-.09-.13s0,0,0-.14.23-.1.2-.08a2.13,2.13,0,0,1,.26.21l.46.41a5.58,5.58,0,0,0,1,.69,2.28,2.28,0,0,0,2.19.13,5.94,5.94,0,0,0,1-.65,3.12,3.12,0,0,1,1.13-.7.78.78,0,0,1,.8.3,2.53,2.53,0,0,1,.25.63.65.65,0,0,0,.69.45,7.34,7.34,0,0,0,2.19-.81,3.54,3.54,0,0,1,.65-.21.64.64,0,0,1,.56.15.63.63,0,0,1,.1.53,3.21,3.21,0,0,1-.61,1.21,5.75,5.75,0,0,1-2,1.65,8.63,8.63,0,0,1-4.93.56,15.24,15.24,0,0,1-4.73-1.38,16.09,16.09,0,0,1-2.15-1.19,11.58,11.58,0,0,1-1-.74C87.83,113.28,87.44,113,87.34,112.63Zm0,0c.1.4.5.64.79.91a12,12,0,0,0,1,.71,14.4,14.4,0,0,0,2.16,1.15A14.6,14.6,0,0,0,96,116.56a8.49,8.49,0,0,0,4.67-.71,5.11,5.11,0,0,0,1.74-1.53,2.86,2.86,0,0,0,.49-1c0-.06,0-.13,0-.06s0,0,0,0a2.62,2.62,0,0,0-.51.18,7.42,7.42,0,0,1-2.42.8,1.19,1.19,0,0,1-1.2-.81,2.84,2.84,0,0,0-.17-.52.28.28,0,0,0-.28-.1,3.44,3.44,0,0,0-1,.57,5.36,5.36,0,0,1-1.09.66,2.64,2.64,0,0,1-2.5-.24,6.24,6.24,0,0,1-1-.77l-.45-.43a1.7,1.7,0,0,0-.2-.19h0a.11.11,0,0,0,.06-.06c0-.05,0,0,0,0a.83.83,0,0,0,.08.12,4.78,4.78,0,0,1,.7,1,.35.35,0,0,1,0,.35.49.49,0,0,1-.32.12A3.27,3.27,0,0,1,92,114a19.86,19.86,0,0,1-2.35-.72l-1.16-.4a5.76,5.76,0,0,0-.59-.18C87.74,112.64,87.52,112.53,87.34,112.63Z"/>
      <g>
        <path class="cls-4" d="M80.77,102.85c.43-.15.71.41,1.29.26.31-.09.45-.32,1.26-1.81.61-1.12.7-1.29.71-1.59a2.44,2.44,0,0,0-.59-1.58c-1.89-2.51-7-4.85-7-4.85-4.91-2.51-5.8-2.27-6.27-2-1,.53-1.35,2.2-2,5.53-.73,3.87-1.08,5.85-.36,8a9.24,9.24,0,0,0,2.64,4c.73.63,2.29,2,4,1.67a4.32,4.32,0,0,0,1.35-.54c1-.51,2.31-1.47,2.14-1.91s-1.64-.19-1.65-.33,2.34,0,3.39-1.23S80,103.13,80.77,102.85Z"/>
        <path class="cls-3" d="M80.77,102.85c.32-.11.58.17.87.25a.7.7,0,0,0,.8-.3c.35-.51.62-1.07.92-1.61.15-.28.3-.55.43-.83a1.48,1.48,0,0,0,.19-.87,2.91,2.91,0,0,0-.84-1.58,20.5,20.5,0,0,0-6.14-4c-1.14-.5-2.24-1.05-3.38-1.5q-.86-.34-1.71-.6a2.79,2.79,0,0,0-1.49-.13,1.84,1.84,0,0,0-.8,1.14,14.91,14.91,0,0,0-.45,1.72c-.25,1.19-.46,2.42-.68,3.64-.43,2.42-.94,4.84,0,7a9,9,0,0,0,1.9,3A6.78,6.78,0,0,0,73.32,110,2.73,2.73,0,0,0,75,110a11.68,11.68,0,0,0,1.61-.83,6.53,6.53,0,0,0,.74-.52c.21-.18.47-.44.48-.62s-.1-.13-.24-.17a3.11,3.11,0,0,0-.44-.06l-.46,0h-.24a.32.32,0,0,1-.13,0h0a.2.2,0,0,1-.07-.09c0-.07.09-.13.1-.12a15.24,15.24,0,0,0,1.85-.27,2.77,2.77,0,0,0,1.55-.91,3.23,3.23,0,0,0,.58-1.73c0-.31,0-.62.08-.93S80.46,103,80.77,102.85Zm0,0c-.31.13-.36.49-.4.78s0,.62-.07.93a3.22,3.22,0,0,1-.56,1.75c-.8,1-2.24,1.16-3.38,1.31,0,0,0,0,0-.05s0,0,0,0h.81a2.59,2.59,0,0,1,.48,0c.15,0,.4.1.45.37a.75.75,0,0,1-.2.52,2.28,2.28,0,0,1-.33.36,6.06,6.06,0,0,1-.74.6,10.72,10.72,0,0,1-1.64,1,3.25,3.25,0,0,1-2,.22,7.41,7.41,0,0,1-3.36-1.91,9.44,9.44,0,0,1-2.27-3.14,8.12,8.12,0,0,1-.73-3.85A30.15,30.15,0,0,1,67.33,98c.23-1.23.46-2.44.73-3.67a13.42,13.42,0,0,1,.54-1.86A2.86,2.86,0,0,1,70,90.73a2.25,2.25,0,0,1,1.19-.07,5.63,5.63,0,0,1,1,.27,17.12,17.12,0,0,1,1.76.73c1.14.53,2.23,1.15,3.32,1.71a21.33,21.33,0,0,1,6,4.43,3.05,3.05,0,0,1,.81,1.68,1.51,1.51,0,0,1-.23.91l-.45.82c-.31.54-.58,1.09-.94,1.6a.72.72,0,0,1-.82.3C81.35,103,81.09,102.74,80.77,102.85Z"/>
      </g>
      <path class="cls-3" d="M73.34,111.36c0-.2.26-.3.41-.43a5.69,5.69,0,0,1,.52-.33l1-.64a18.51,18.51,0,0,0,2.05-1.34,1.91,1.91,0,0,0,.43-.42c.13-.16.12-.34-.09-.39a4.69,4.69,0,0,0-1.2-.08h-.16s-.06,0-.13-.07.08-.23.07-.2a3,3,0,0,1,.33-.06l.61-.08a5.61,5.61,0,0,0,1.16-.28,2.27,2.27,0,0,0,1.53-1.58,4.93,4.93,0,0,0,.15-1.17,3.22,3.22,0,0,1,.21-1.31.8.8,0,0,1,.75-.41,2.39,2.39,0,0,1,.65.23.64.64,0,0,0,.78-.23,7.19,7.19,0,0,0,.83-2.19,3,3,0,0,1,.27-.63.59.59,0,0,1,.48-.32.63.63,0,0,1,.46.27,3.16,3.16,0,0,1,.51,1.25,5.63,5.63,0,0,1,0,2.55,8.66,8.66,0,0,1-2.8,4.1,15.56,15.56,0,0,1-4.14,2.68,16,16,0,0,1-2.31.84,11.62,11.62,0,0,1-1.2.27A2.22,2.22,0,0,1,73.34,111.36Zm0,0a2.22,2.22,0,0,0,1.2,0c.4-.08.8-.18,1.19-.29a15.9,15.9,0,0,0,2.29-.88,15.16,15.16,0,0,0,4-2.81,8.41,8.41,0,0,0,2.51-4,5.19,5.19,0,0,0,0-2.32,2.9,2.9,0,0,0-.42-1s-.11-.07,0,0,0,0,0,0a3.1,3.1,0,0,0-.19.5,7.61,7.61,0,0,1-1,2.36,1.21,1.21,0,0,1-1.41.37,2.72,2.72,0,0,0-.5-.21.29.29,0,0,0-.26.15,3.33,3.33,0,0,0-.19,1.09,5.65,5.65,0,0,1-.22,1.26,2.61,2.61,0,0,1-1.82,1.73,5.27,5.27,0,0,1-1.23.25l-.61,0a1.7,1.7,0,0,0-.28,0s0,0,0,0a.09.09,0,0,0,0-.09s0,0,0,0l.13,0a4.77,4.77,0,0,1,1.24.14A.35.35,0,0,1,78,108a.41.41,0,0,1-.12.31,2.61,2.61,0,0,1-.45.43A19.75,19.75,0,0,1,75.34,110l-1.06.61-.52.33C73.61,111.06,73.38,111.16,73.34,111.36Z"/>
      <g>
        <path class="cls-4" d="M89.18,145c.38-.1.63.36,1.14.27.28-.05.41-.23,1.15-1.37.55-.86.63-1,.65-1.24a2,2,0,0,0-.51-1.29c-1.65-2.11-6.19-4.26-6.19-4.26-4.34-2.27-5.13-2.12-5.55-1.95-.91.36-1.22,1.68-1.82,4.3-.7,3.06-1,4.62-.42,6.34a7.84,7.84,0,0,0,2.3,3.31c.63.54,2,1.71,3.55,1.55a4.24,4.24,0,0,0,1.2-.36c.89-.36,2.07-1.05,1.92-1.41s-1.45-.24-1.46-.35,2.08.17,3-.8S88.48,145.21,89.18,145Z"/>
        <path class="cls-3" d="M89.18,145c.27-.07.49.15.73.23a.66.66,0,0,0,.72-.14,11.41,11.41,0,0,0,.88-1.3c.25-.44.68-.87.55-1.4a2.67,2.67,0,0,0-.78-1.29,19.52,19.52,0,0,0-5.21-3.38c-.94-.43-1.9-.91-2.84-1.32a10.7,10.7,0,0,0-2.84-.9c-.74-.08-1.09,1-1.35,1.93s-.48,2-.7,3c-.46,2-.94,4,0,5.85A7.56,7.56,0,0,0,80,148.76a6.18,6.18,0,0,0,2.5,1.61,2.67,2.67,0,0,0,1.43,0,10.86,10.86,0,0,0,1.43-.56,5.38,5.38,0,0,0,.66-.38c.2-.13.45-.33.46-.47s-.34-.2-.56-.23-.5,0-.8-.1c0,0-.11-.07,0-.12s.07,0,.09-.06h.7a6.48,6.48,0,0,0,.77-.06,2.72,2.72,0,0,0,1.43-.56,2.17,2.17,0,0,0,.64-1.39l.08-.78C88.84,145.42,88.91,145.1,89.18,145Zm0,0c-.27.08-.34.39-.37.63l-.08.79a2.07,2.07,0,0,1-.63,1.4,2.8,2.8,0,0,1-1.43.62,5.31,5.31,0,0,1-.79.09l-.39,0h-.28s0,0,0,0,0-.08,0-.07c.21,0,.5,0,.76.06a2.76,2.76,0,0,1,.4.06c.12,0,.33.09.36.33,0,.4-.32.52-.52.7a6,6,0,0,1-.67.44,10.73,10.73,0,0,1-1.46.67,3.26,3.26,0,0,1-1.67.08,6.82,6.82,0,0,1-2.84-1.59,8,8,0,0,1-2-2.57,6.18,6.18,0,0,1-.68-3.25,21.53,21.53,0,0,1,.51-3.18c.24-1,.46-2,.75-3.07a6.49,6.49,0,0,1,.64-1.57,1.79,1.79,0,0,1,1.69-.95,5.91,5.91,0,0,1,1.62.46c.5.21,1,.44,1.45.68,1,.47,1.85,1,2.78,1.49A20.51,20.51,0,0,1,91.38,141a2.83,2.83,0,0,1,.77,1.38,1.09,1.09,0,0,1-.18.77l-.42.66a13,13,0,0,1-.91,1.29.66.66,0,0,1-.73.14C89.67,145.18,89.46,145,89.18,145Z"/>
      </g>
      <path class="cls-3" d="M82.48,151.43c0-.17.24-.23.37-.32l.46-.24.93-.45a17.53,17.53,0,0,0,1.83-.94,2,2,0,0,0,.39-.31c.13-.13.15-.28,0-.33a4,4,0,0,0-1-.13,1.36,1.36,0,0,1-.27,0,.06.06,0,0,1,0,0s-.07-.07,0-.11.09-.06.12-.09h.14l.51,0a5.71,5.71,0,0,0,1-.14,2,2,0,0,0,1.5-1.06,2.92,2.92,0,0,0,.19-1,3.46,3.46,0,0,1,.17-1.09.69.69,0,0,1,.61-.38,1.32,1.32,0,0,1,.57.18.61.61,0,0,0,.73,0,4.14,4.14,0,0,0,.83-1.71,2.44,2.44,0,0,1,.25-.52.49.49,0,0,1,.38-.25.5.5,0,0,1,.41.19,2.61,2.61,0,0,1,.47,1,4.13,4.13,0,0,1-.08,2.15A6.82,6.82,0,0,1,90.2,149a13.28,13.28,0,0,1-3.69,1.84,14.31,14.31,0,0,1-2,.51,8.89,8.89,0,0,1-1,.13A2,2,0,0,1,82.48,151.43Zm0,0a1.88,1.88,0,0,0,1,.06,8.64,8.64,0,0,0,1-.15,13.47,13.47,0,0,0,2-.54,12.57,12.57,0,0,0,3.57-2,6.68,6.68,0,0,0,2.43-3.11,3.68,3.68,0,0,0,0-1.92,1.88,1.88,0,0,0-.36-.82s-.07,0,0,0,0,0,0,.05a2.75,2.75,0,0,0-.18.41,4.44,4.44,0,0,1-1,1.91,1.09,1.09,0,0,1-1.21.06c-.33-.18-.5-.2-.61,0a13.26,13.26,0,0,1-.43,2,2.27,2.27,0,0,1-1.76,1.16,6.22,6.22,0,0,1-1.05.1h-.63s0,0,0,0,0-.05,0-.06h0l.24,0a3.85,3.85,0,0,1,1,.18c.07,0,.18.11.18.23a.49.49,0,0,1-.13.26,2.61,2.61,0,0,1-.43.31,18.57,18.57,0,0,1-1.84.92l-.94.42-.46.23C82.72,151.2,82.52,151.26,82.48,151.43Z"/>
      <g>
        <path class="cls-2" d="M101.79,74.25c-.08-.32-1.39-5.53,1.89-8.88a9.46,9.46,0,0,1,5.65-2.45A23,23,0,0,1,119.5,64s-.38,2.81-.82,4.63a17.82,17.82,0,0,1-3.11,6.76c-1.23,1.62-2.24,3-4.15,3.71a7.51,7.51,0,0,1-7.45-1A7.13,7.13,0,0,1,101.79,74.25Z"/>
        <path class="cls-3" d="M101.79,74.25a11.06,11.06,0,0,1,.28-6.42,7.73,7.73,0,0,1,1.78-2.73,7.46,7.46,0,0,1,2.8-1.7,18.07,18.07,0,0,1,6.49-.87,24,24,0,0,1,6.4,1.22l-.17.53a.25.25,0,0,0,.23,0,.29.29,0,0,0,.17-.19h0v.06l0,.11,0,.24-.06.47-.15.94c-.09.62-.21,1.25-.34,1.87a20.82,20.82,0,0,1-1.08,3.67,19.32,19.32,0,0,1-4.27,6.29,7,7,0,0,1-3.38,1.77,8.46,8.46,0,0,1-3.78,0,6.32,6.32,0,0,1-3.23-1.9A7.51,7.51,0,0,1,101.79,74.25Zm0,0a7.51,7.51,0,0,0,1.66,3.35,6.31,6.31,0,0,0,3.22,1.84,7.65,7.65,0,0,0,6.91-1.89,20.29,20.29,0,0,0,4-6.26,20.76,20.76,0,0,0,1-3.59l.32-1.85.16-.93.07-.46,0-.24,0-.11V64a.29.29,0,0,1,.17-.22.29.29,0,0,1,.23,0l-.17.53A25.14,25.14,0,0,0,113.11,63a18.11,18.11,0,0,0-6.38.65,7.16,7.16,0,0,0-4.59,4.22A11,11,0,0,0,101.79,74.25Z"/>
      </g>
      <g>
        <path class="cls-4" d="M91.39,94.42c-.34,0-5.7-.07-8.11-4.09a9.42,9.42,0,0,1-.92-6.09A22.83,22.83,0,0,1,86,74.7s2.62,1.08,4.27,2A18,18,0,0,1,96,81.39c1.26,1.61,2.31,2.93,2.54,5a7.54,7.54,0,0,1-2.87,7A7.17,7.17,0,0,1,91.39,94.42Z"/>
        <path class="cls-3" d="M91.39,94.42a11,11,0,0,1-6.14-1.91A7.32,7.32,0,0,1,82.13,87a18.12,18.12,0,0,1,.82-6.5,24.14,24.14,0,0,1,2.81-5.88l.48.3a.32.32,0,0,0,.08-.21.28.28,0,0,0-.14-.21h0l.06,0,.11,0,.22.1.44.18.87.38c.58.25,1.15.52,1.72.81a20.19,20.19,0,0,1,3.27,2,19.24,19.24,0,0,1,5,5.74,6.85,6.85,0,0,1,.84,3.71,8.28,8.28,0,0,1-1,3.65,6.33,6.33,0,0,1-2.66,2.64A7.42,7.42,0,0,1,91.39,94.42Zm0,0a7.46,7.46,0,0,0,3.66-.75A6.22,6.22,0,0,0,97.64,91a7.6,7.6,0,0,0-.06-7.16,20,20,0,0,0-5-5.48,20.63,20.63,0,0,0-3.21-1.89l-1.71-.79-.86-.38-.43-.19-.22-.09L86,75l0,0,0,0a.31.31,0,0,1-.17-.22.33.33,0,0,1,.06-.23l.47.3a25.68,25.68,0,0,0-2.89,5.79,17.77,17.77,0,0,0-1,6.34,7.16,7.16,0,0,0,2.9,5.51A11,11,0,0,0,91.39,94.42Z"/>
      </g>
      <g>
        <path class="cls-5" d="M128.77,127.24c-3.83.21-5.45,0-6.12,1-.22.35-.34.84.25,3,.82,3.08,1.27,4.79,2.73,6.77,1.3,1.77,2.59,3.52,4.94,4a7.19,7.19,0,0,0,5.22-1.11,6.59,6.59,0,0,0,2.58-3,6.4,6.4,0,0,0,.44-2.15c0-.38.21-7.07-3.51-8.91C134.1,126.31,134,127,128.77,127.24Z"/>
        <path class="cls-3" d="M128.77,127.24l-3.23.15a12,12,0,0,0-1.6.16,1.77,1.77,0,0,0-1.3.81,2.59,2.59,0,0,0,0,1.56c.11.52.25,1,.4,1.56.3,1,.58,2.07.95,3.08a15.52,15.52,0,0,0,3.41,5.34,6.28,6.28,0,0,0,2.55,1.72,5.81,5.81,0,0,0,3,.18,7.13,7.13,0,0,0,4.92-3.46,6.21,6.21,0,0,0,.7-3,17.91,17.91,0,0,0-.26-3.19,10.46,10.46,0,0,0-1-3,4.9,4.9,0,0,0-2.2-2.23,2.52,2.52,0,0,0-1.56-.12L132,127C130.92,127.11,129.85,127.18,128.77,127.24Zm0,0c1.08-.07,2.15-.16,3.22-.3l1.6-.24a2.58,2.58,0,0,1,1.6.1,5.24,5.24,0,0,1,2.34,2.22,10.8,10.8,0,0,1,1.11,3.06,18.6,18.6,0,0,1,.38,3.24,6.58,6.58,0,0,1-.66,3.25,7.64,7.64,0,0,1-5.26,3.81,6.44,6.44,0,0,1-3.34-.24,6.81,6.81,0,0,1-2.73-1.9,22.62,22.62,0,0,1-2-2.62,12.47,12.47,0,0,1-1.36-3c-.33-1-.59-2.08-.85-3.12-.13-.53-.26-1.05-.35-1.59a2.72,2.72,0,0,1,.06-1.62,1.81,1.81,0,0,1,1.36-.83,10.82,10.82,0,0,1,1.61-.14Z"/>
      </g>
      <g>
        <path class="cls-5" d="M146.65,69c-.39.16-.37.79-.58,1.79-.44,2.16-1.27,2.84-2,4.55a12.11,12.11,0,0,0-.58,8,7.43,7.43,0,0,0,2.74,4.09,6.71,6.71,0,0,0,5.48,1c3.56-1,4.47-5,4.58-5.47a8,8,0,0,0-.44-4.64c-.89-2.2-2-2.14-5.32-5.69C148.38,70.38,147.36,68.75,146.65,69Z"/>
        <path class="cls-3" d="M146.65,69c-.26.12-.32.43-.37.68l-.14.79a9.37,9.37,0,0,1-.39,1.56,25.64,25.64,0,0,1-1.44,2.87,12.31,12.31,0,0,0-1.1,6.21,10.42,10.42,0,0,0,.76,3,7,7,0,0,0,1.73,2.56,6.06,6.06,0,0,0,10-2.65,7.7,7.7,0,0,0-.15-6.08,6.83,6.83,0,0,0-2-2.39c-.8-.71-1.58-1.45-2.32-2.22S149.72,71.84,149,71c-.35-.41-.69-.82-1.05-1.21a5.06,5.06,0,0,0-.59-.55A.8.8,0,0,0,146.65,69Zm0,0a.82.82,0,0,1,.74.22,5,5,0,0,1,.59.54c.37.39.72.8,1.08,1.2.7.8,1.42,1.6,2.18,2.35s1.56,1.47,2.38,2.15a7.29,7.29,0,0,1,2.18,2.4,8,8,0,0,1,.35,6.4,8.42,8.42,0,0,1-1.72,2.81,6.16,6.16,0,0,1-2.86,1.7,6.9,6.9,0,0,1-6.21-1.68,7.12,7.12,0,0,1-1.76-2.78,10.91,10.91,0,0,1-.69-3.18,12.8,12.8,0,0,1,1.32-6.27,24.06,24.06,0,0,0,1.48-2.85,10.1,10.1,0,0,0,.41-1.55l.15-.79A.85.85,0,0,1,146.65,69Z"/>
      </g>
      <g>
        <path class="cls-2" d="M149.61,71.56a6.85,6.85,0,0,1-5.41-2.75c-.82-1.19-.94-2.35-1.13-4.24-.21-2,.22-1.87.34-5.73.06-2.08,0-3.06.71-3.7a3,3,0,0,1,2.11-.48c3.62,0,5.43-.08,6.79.33,1.94.58,3.36,1,4.27,2.36s.81,3.15.61,5a10.72,10.72,0,0,1-1.34,4.69C156.07,67.89,153.67,71.63,149.61,71.56Z"/>
        <path class="cls-3" d="M149.61,71.56a6.77,6.77,0,0,1-5.63-3,7.63,7.63,0,0,1-.92-3.19c-.07-.55-.14-1.1-.16-1.66A11.42,11.42,0,0,1,143,62a30.44,30.44,0,0,0,.2-3.3l0-1.67a3.31,3.31,0,0,1,.4-1.72,2.05,2.05,0,0,1,1.59-.87c.58-.06,1.13-.05,1.68-.06,1.11,0,2.22,0,3.33,0a10.89,10.89,0,0,1,3.34.52,9.11,9.11,0,0,1,3.09,1.42,4.51,4.51,0,0,1,1.53,3,15.56,15.56,0,0,1-.19,3.35,11.45,11.45,0,0,1-.79,3.25,10,10,0,0,1-1.82,2.78,9.1,9.1,0,0,1-2.59,2.07A6.75,6.75,0,0,1,149.61,71.56Zm0,0a6.65,6.65,0,0,0,3.18-.81,9,9,0,0,0,2.55-2.08,9.88,9.88,0,0,0,1.72-2.8,11.27,11.27,0,0,0,.67-3.21,15.63,15.63,0,0,0,.09-3.27,4.13,4.13,0,0,0-1.46-2.71,8.35,8.35,0,0,0-2.93-1.29,9.88,9.88,0,0,0-3.2-.46c-1.1,0-2.21,0-3.31,0s-2.33-.16-2.88.68a3.14,3.14,0,0,0-.36,1.48l-.07,1.65A30.8,30.8,0,0,1,143.3,62a11.4,11.4,0,0,0-.17,1.64c0,.54.06,1.09.11,1.64a7.23,7.23,0,0,0,.81,3.17A6.72,6.72,0,0,0,149.61,71.56Z"/>
      </g>
      <g>
        <path class="cls-5" d="M104.51,74.3c-.33.08-5.56,1.29-8.86-2a9.51,9.51,0,0,1-2.35-5.69,22.85,22.85,0,0,1,1.28-10.14s2.8.42,4.62.88a18,18,0,0,1,6.7,3.23c1.61,1.26,2.94,2.29,3.65,4.21a7.52,7.52,0,0,1-1.13,7.44A7.13,7.13,0,0,1,104.51,74.3Z"/>
        <path class="cls-3" d="M104.51,74.3a11,11,0,0,1-6.42-.39,7.76,7.76,0,0,1-2.7-1.82,7.56,7.56,0,0,1-1.66-2.83,18.3,18.3,0,0,1-.76-6.5,24.3,24.3,0,0,1,1.33-6.39l.53.18a.24.24,0,0,0,0-.22.25.25,0,0,0-.18-.17h.06l.12,0,.23,0,.47.07.94.16c.62.11,1.24.24,1.86.37A20.92,20.92,0,0,1,102,58a19.15,19.15,0,0,1,6.23,4.37A7.08,7.08,0,0,1,110,65.75a8.32,8.32,0,0,1-.09,3.78,6.39,6.39,0,0,1-2,3.2A7.58,7.58,0,0,1,104.51,74.3Zm0,0a7.44,7.44,0,0,0,3.37-1.61,6.2,6.2,0,0,0,1.89-3.18A7.62,7.62,0,0,0,108,62.57a19.86,19.86,0,0,0-6.19-4.11,20.13,20.13,0,0,0-3.57-1.08L96.39,57l-.92-.17L95,56.78l-.23,0-.12,0h-.11a.3.3,0,0,1-.21-.41l.53.18a25.12,25.12,0,0,0-1.42,6.31A17.89,17.89,0,0,0,94,69.18a7.15,7.15,0,0,0,4.14,4.66A11,11,0,0,0,104.51,74.3Z"/>
      </g>
      <g>
        <path class="cls-4" d="M123.82,52.47c-.09-.33-1.39-5.54,1.89-8.89a9.46,9.46,0,0,1,5.65-2.45,22.93,22.93,0,0,1,10.16,1.11s-.37,2.81-.81,4.63a18,18,0,0,1-3.11,6.76c-1.23,1.63-2.24,3-4.15,3.72a7.55,7.55,0,0,1-7.46-1A7.24,7.24,0,0,1,123.82,52.47Z"/>
        <path class="cls-3" d="M123.82,52.47A11.1,11.1,0,0,1,124.1,46a7.79,7.79,0,0,1,1.77-2.73,7.62,7.62,0,0,1,2.8-1.7,18.32,18.32,0,0,1,6.49-.87A24.42,24.42,0,0,1,141.57,42l-.17.54a.26.26,0,0,0,.23,0,.23.23,0,0,0,.16-.19s0,0,0,0v.06l0,.12,0,.23-.07.47-.14.94c-.1.63-.22,1.25-.34,1.87a20.37,20.37,0,0,1-1.09,3.67,19.21,19.21,0,0,1-4.27,6.3,6.91,6.91,0,0,1-3.37,1.76,8.18,8.18,0,0,1-3.78,0,6.28,6.28,0,0,1-3.23-1.9A7.47,7.47,0,0,1,123.82,52.47Zm0,0a7.47,7.47,0,0,0,1.66,3.34,6.23,6.23,0,0,0,3.22,1.84,7.6,7.6,0,0,0,6.9-1.89,19.77,19.77,0,0,0,4-6.25,20.4,20.4,0,0,0,1-3.59l.32-1.85.15-.93.07-.47,0-.23,0-.12v-.11a.29.29,0,0,1,.17-.21.33.33,0,0,1,.24,0l-.18.53a25.51,25.51,0,0,0-6.33-1.32,17.86,17.86,0,0,0-6.38.66,7.12,7.12,0,0,0-4.59,4.21A11,11,0,0,0,123.82,52.47Z"/>
      </g>
      <g>
        <path class="cls-4" d="M67.41,129.57c-.22.25-3.86,4.2-8.46,3.3a9.41,9.41,0,0,1-5.15-3.38,23.11,23.11,0,0,1-4.66-9.1s2.56-1.23,4.32-1.86a17.86,17.86,0,0,1,7.35-1.12c2,.14,3.73.24,5.39,1.43a7.52,7.52,0,0,1,3.26,6.78A7.09,7.09,0,0,1,67.41,129.57Z"/>
        <path class="cls-3" d="M67.41,129.57a11,11,0,0,1-5.52,3.3,7.79,7.79,0,0,1-3.26,0,7.69,7.69,0,0,1-3-1.4,18.51,18.51,0,0,1-4.29-4.95,24.09,24.09,0,0,1-2.49-6l.54-.15a.3.3,0,0,0-.11-.2.31.31,0,0,0-.25,0s0,0,0,0l.05,0,.11,0,.21-.1.43-.2.86-.4c.58-.26,1.16-.5,1.75-.74a21.27,21.27,0,0,1,3.67-1.11,19.07,19.07,0,0,1,7.6.11,6.93,6.93,0,0,1,3.33,1.85,8.33,8.33,0,0,1,2.06,3.17,6.29,6.29,0,0,1,.19,3.74A7.44,7.44,0,0,1,67.41,129.57Zm0,0a7.51,7.51,0,0,0,1.89-3.23,6.2,6.2,0,0,0-.24-3.69,7.62,7.62,0,0,0-5.37-4.74,19.09,19.09,0,0,0-11,1.21l-1.73.75-.86.38-.43.2-.21.1-.11,0,0,0,0,0a.29.29,0,0,1-.27,0,.36.36,0,0,1-.14-.19l.54-.15a25.87,25.87,0,0,0,2.38,6,18.16,18.16,0,0,0,4,5,7.16,7.16,0,0,0,6,1.52A11,11,0,0,0,67.41,129.57Z"/>
      </g>
      <g>
        <path class="cls-5" d="M39.1,81.87c-.33.32-.82-.08-1.28.29-.26.21-.29.48-.42,2.17-.1,1.27-.11,1.46,0,1.74a2.44,2.44,0,0,0,1.18,1.2C41.33,88.79,47,88.83,47,88.83c5.52.28,6.23-.3,6.56-.71.71-.9.33-2.56-.45-5.85-.92-3.83-1.41-5.78-2.92-7.4a9.23,9.23,0,0,0-4-2.55c-.92-.28-2.9-.88-4.36.12a4.79,4.79,0,0,0-1,1c-.69.87-1.5,2.28-1.17,2.62s1.57-.49,1.64-.37-2.16.9-2.6,2.5S39.7,81.3,39.1,81.87Z"/>
        <path class="cls-3" d="M39.1,81.87c-.25.24-.6.08-.9.14a.69.69,0,0,0-.61.59c-.11.61-.13,1.23-.18,1.85,0,.31,0,.62,0,.93a1.38,1.38,0,0,0,.18.87A2.86,2.86,0,0,0,39,87.35a20.62,20.62,0,0,0,7.24,1.16c1.25,0,2.47,0,3.7,0,.61,0,1.22-.07,1.8-.15a2.75,2.75,0,0,0,1.41-.49,1.86,1.86,0,0,0,.28-1.37,16,16,0,0,0-.3-1.75c-.26-1.19-.57-2.4-.86-3.6-.6-2.39-1.12-4.8-2.87-6.39a9.29,9.29,0,0,0-2.94-1.92A6.82,6.82,0,0,0,43,72.27a2.74,2.74,0,0,0-1.49.76,12.22,12.22,0,0,0-1.14,1.42,6.06,6.06,0,0,0-.45.78c-.12.25-.26.59-.19.75s.15.09.29.06a2.21,2.21,0,0,0,.42-.12l.43-.16.23-.09.13,0h0a.13.13,0,0,1,.09.05c0,.07,0,.16,0,.15a15.39,15.39,0,0,0-1.59,1,2.86,2.86,0,0,0-1,1.47,3.21,3.21,0,0,0,.18,1.81c.1.3.21.59.3.88S39.33,81.64,39.1,81.87Zm0,0c.23-.24.13-.59,0-.87s-.21-.59-.31-.88a3.19,3.19,0,0,1-.2-1.83c.31-1.26,1.57-2,2.55-2.57,0,0,0,0,0,0s0,0,0,0h0l-.09,0-.21.09-.43.2a2.25,2.25,0,0,1-.46.15.48.48,0,0,1-.55-.15.74.74,0,0,1,0-.56c0-.16.1-.31.15-.46a7.56,7.56,0,0,1,.44-.85,10.92,10.92,0,0,1,1.1-1.55,3.2,3.2,0,0,1,1.71-1,7.33,7.33,0,0,1,3.84.38A9.21,9.21,0,0,1,50,74a8.23,8.23,0,0,1,2.24,3.22,31.27,31.27,0,0,1,1.09,3.63c.28,1.21.57,2.41.82,3.65a13.06,13.06,0,0,1,.27,1.92,2.83,2.83,0,0,1-.62,2.13,2,2,0,0,1-1.05.54,6,6,0,0,1-1,.16,17.5,17.5,0,0,1-1.91,0c-1.25,0-2.5-.14-3.73-.2a21.43,21.43,0,0,1-7.28-1.6,3,3,0,0,1-1.43-1.2,1.58,1.58,0,0,1-.16-.93l.08-.92a16.35,16.35,0,0,1,.2-1.85A.71.71,0,0,1,38.2,82C38.5,81.94,38.85,82.1,39.1,81.87Z"/>
      </g>
      <path class="cls-3" d="M42.41,71.07c.05.21-.12.39-.2.56s-.22.35-.34.52l-.7,1a21.26,21.26,0,0,0-1.33,2.06,2,2,0,0,0-.21.55c-.06.21,0,.36.23.33A5,5,0,0,0,41,75.68l.16-.05s.05,0,.14,0,0,.25,0,.22A1.61,1.61,0,0,1,41,76l-.52.32a5.68,5.68,0,0,0-.94.74,2.26,2.26,0,0,0-.76,2.06,5.4,5.4,0,0,0,.34,1.13,3.21,3.21,0,0,1,.34,1.28.8.8,0,0,1-.51.69,3,3,0,0,1-.68,0,.64.64,0,0,0-.63.53,7.23,7.23,0,0,0,.14,2.33,3.89,3.89,0,0,1,0,.69.59.59,0,0,1-.31.49.62.62,0,0,1-.53-.06,3.25,3.25,0,0,1-1-.93A5.84,5.84,0,0,1,35,83a8.72,8.72,0,0,1,.89-4.89A15.52,15.52,0,0,1,38.55,74a16.8,16.8,0,0,1,1.77-1.71,10.1,10.1,0,0,1,1-.73A2.13,2.13,0,0,1,42.41,71.07Zm0,0a2.22,2.22,0,0,0-1.09.5,11.81,11.81,0,0,0-1,.74,15.79,15.79,0,0,0-1.73,1.74,14.74,14.74,0,0,0-2.47,4.18,8.49,8.49,0,0,0-.67,4.68,5.13,5.13,0,0,0,1,2.11,2.77,2.77,0,0,0,.79.75c.06,0,.13,0,.05,0s0,0,0,0a2.55,2.55,0,0,0,0-.54,7.37,7.37,0,0,1-.08-2.54,1.2,1.2,0,0,1,1.13-.92,2.88,2.88,0,0,0,.54,0,.28.28,0,0,0,.18-.25,3.35,3.35,0,0,0-.27-1.07,5.49,5.49,0,0,1-.31-1.24,2.62,2.62,0,0,1,1-2.32,6.37,6.37,0,0,1,1-.73l.54-.3a2.21,2.21,0,0,0,.24-.14s0,0,0,0a.07.07,0,0,0,0,.07s0,0,0,0l-.13,0a4.6,4.6,0,0,1-1.19.38.36.36,0,0,1-.32-.14.45.45,0,0,1,0-.34,2.66,2.66,0,0,1,.25-.57,20.31,20.31,0,0,1,1.37-2.05l.72-1,.34-.51C42.29,71.46,42.45,71.28,42.41,71.07Z"/>
      <g>
        <path class="cls-2" d="M54.28,67.08c-.27.36-.82.06-1.21.51-.22.25-.2.52,0,2.2.12,1.27.15,1.46.31,1.72a2.43,2.43,0,0,0,1.37,1c3,1,8.56.07,8.56.07,5.48-.68,6.08-1.38,6.33-1.84.54-1-.12-2.58-1.47-5.68-1.57-3.62-2.39-5.45-4.16-6.78a9.22,9.22,0,0,0-4.41-1.81c-1-.11-3-.35-4.27.88a4.82,4.82,0,0,0-.81,1.2c-.53,1-1.08,2.51-.7,2.78s1.47-.76,1.56-.65-2,1.27-2.13,2.92S54.77,66.41,54.28,67.08Z"/>
        <path class="cls-3" d="M54.33,67.12c-.25.31-.64.2-.89.31a.61.61,0,0,0-.45.63,14.4,14.4,0,0,0,.21,1.84c.12.59.1,1.29.47,1.63a2.69,2.69,0,0,0,1.49.69,28.24,28.24,0,0,0,7.23,0c1.25-.14,2.46-.21,3.68-.39a15.42,15.42,0,0,0,1.8-.33,2.78,2.78,0,0,0,1.51-.75,2.1,2.1,0,0,0,.11-1.66,14.11,14.11,0,0,0-.61-1.72c-.46-1.14-1-2.25-1.57-3.37-1.11-2.2-2.16-4.48-4.21-5.64a8.52,8.52,0,0,0-3.23-1.21,6.84,6.84,0,0,0-3.33.15,2.33,2.33,0,0,0-1.15.9,11.85,11.85,0,0,0-.83,1.53,7.06,7.06,0,0,0-.29.8,2,2,0,0,0-.09.37c0,.09,0,.21-.06.07s-.17-.09-.19-.07H54a3.05,3.05,0,0,0,.35-.15l.39-.22.22-.13a2,2,0,0,1,.2-.08l.09,0a.41.41,0,0,1,.45.54c-.06.16,0,.09-.07.13a2,2,0,0,1-.44.37l-.36.27a5.34,5.34,0,0,0-.66.59,2.78,2.78,0,0,0-.81,1.5,3,3,0,0,0,.42,1.7l.45.82A1,1,0,0,1,54.33,67.12Zm-.1-.07c.16-.24,0-.55-.12-.81s-.31-.53-.47-.8a3.54,3.54,0,0,1-.59-1.81c0-1.37,1.25-2.47,2-3.14l0,.08a.32.32,0,0,0,.08.33.36.36,0,0,0,.32.14h0c.06,0,0,0,0,0l-.17.13-.39.28a2.17,2.17,0,0,1-.48.28,1.11,1.11,0,0,1-.37.09.75.75,0,0,1-.6-.24,1.11,1.11,0,0,1-.23-.81,4.11,4.11,0,0,1,.07-.55,7.16,7.16,0,0,1,.3-1,9.65,9.65,0,0,1,.86-1.77,3.57,3.57,0,0,1,1.69-1.41,7.46,7.46,0,0,1,4-.2,9.89,9.89,0,0,1,3.64,1.5,8,8,0,0,1,2.65,2.87,26.32,26.32,0,0,1,1.55,3.44l1.36,3.47a15.74,15.74,0,0,1,.58,1.8,2.56,2.56,0,0,1-.15,2,3.25,3.25,0,0,1-1.69,1,17,17,0,0,1-1.82.51c-1.21.29-2.47.49-3.67.72A17.11,17.11,0,0,1,55,72.94a3.32,3.32,0,0,1-1.7-1.08,1.88,1.88,0,0,1-.25-.49,2.4,2.4,0,0,1-.07-.5l0-.94c0-.62-.09-1.24-.06-1.87a.79.79,0,0,1,.57-.76C53.71,67.19,54.06,67.28,54.23,67.05Z"/>
      </g>
      <path class="cls-3" d="M55.66,55.87c.08.19,0,.4-.11.58s-.15.38-.23.57l-.52,1.12a21,21,0,0,0-.95,2.25,2.58,2.58,0,0,0-.12.59c0,.21.1.35.29.28a5,5,0,0,0,1-.61l.15-.08a.22.22,0,0,1,.14,0c.13,0,.07.24,0,.21a1.67,1.67,0,0,1-.24.23l-.45.41a5.67,5.67,0,0,0-.81.89,2.27,2.27,0,0,0-.38,2.16,5.18,5.18,0,0,0,.53,1,3.09,3.09,0,0,1,.56,1.21.8.8,0,0,1-.39.76,2.46,2.46,0,0,1-.66.17.64.64,0,0,0-.52.63,7.52,7.52,0,0,0,.54,2.28,2.57,2.57,0,0,1,.13.67.57.57,0,0,1-.21.53.62.62,0,0,1-.54,0A3.15,3.15,0,0,1,51.84,71a5.56,5.56,0,0,1-1.41-2.13,8.55,8.55,0,0,1,0-5,15.13,15.13,0,0,1,1.92-4.53,16.61,16.61,0,0,1,1.44-2,10.06,10.06,0,0,1,.84-.89C55,56.28,55.25,55.92,55.66,55.87Zm0,0c-.41.05-.69.42-1,.67a10.17,10.17,0,0,0-.83.91,16.41,16.41,0,0,0-1.4,2A15,15,0,0,0,50.74,64a8.39,8.39,0,0,0,.16,4.72,5.14,5.14,0,0,0,1.31,1.91,2.87,2.87,0,0,0,.91.6c.06,0,.13,0,.06,0s0,0,0,0a2.39,2.39,0,0,0-.12-.52,7.82,7.82,0,0,1-.52-2.5,1.19,1.19,0,0,1,1-1.09A2.49,2.49,0,0,0,54,67a.25.25,0,0,0,.13-.27,3.46,3.46,0,0,0-.45-1,6.13,6.13,0,0,1-.53-1.16,2.64,2.64,0,0,1,.54-2.46,6.17,6.17,0,0,1,.88-.89l.48-.39.21-.18s0,0,0,0a.13.13,0,0,0,0,.07c.05,0,0,0,0,0l-.12.06a4.86,4.86,0,0,1-1.11.58.36.36,0,0,1-.34-.08.45.45,0,0,1-.08-.33,3,3,0,0,1,.14-.61,21.59,21.59,0,0,1,1-2.25L55.3,57c.08-.18.17-.37.24-.56S55.73,56.06,55.66,55.87Z"/>
      <g>
        <path class="cls-5" d="M146.41,115.3c.43-.14.7.43,1.28.29.32-.08.46-.31,1.3-1.78.64-1.11.72-1.28.74-1.58a2.4,2.4,0,0,0-.56-1.59c-1.84-2.55-6.95-5-6.95-5-4.87-2.61-5.76-2.38-6.23-2.15-1,.51-1.39,2.18-2.08,5.49-.8,3.85-1.19,5.83-.51,7.94a9.27,9.27,0,0,0,2.56,4c.71.65,2.25,2,4,1.75a4.59,4.59,0,0,0,1.36-.51c1-.5,2.33-1.43,2.17-1.87s-1.63-.23-1.64-.36,2.33.1,3.42-1.16S145.62,115.56,146.41,115.3Z"/>
        <path class="cls-3" d="M146.39,115.25c.38-.12.64.2.91.26a.63.63,0,0,0,.73-.27,16.61,16.61,0,0,0,.89-1.61c.24-.56.66-1.12.55-1.61a2.65,2.65,0,0,0-.82-1.43,27.9,27.9,0,0,0-5.93-4.13c-1.1-.6-2.12-1.25-3.22-1.81-.55-.28-1.1-.55-1.66-.77a2.81,2.81,0,0,0-1.67-.25,2.09,2.09,0,0,0-1,1.29,12.69,12.69,0,0,0-.49,1.76c-.28,1.2-.45,2.43-.67,3.65-.36,2.44-.81,4.91.19,7a8.64,8.64,0,0,0,1.94,2.85,6.77,6.77,0,0,0,2.81,1.8,2.35,2.35,0,0,0,1.46-.07,11.83,11.83,0,0,0,1.55-.78,6.29,6.29,0,0,0,.71-.48,2.35,2.35,0,0,0,.28-.25c.08-.06.1-.19.09,0a.27.27,0,0,0,.11.17l-.07,0a2.33,2.33,0,0,0-.37-.08l-.44,0-.26,0-.21-.05-.08,0a.48.48,0,0,1-.23-.34.47.47,0,0,1,.17-.36c.14-.1.09-.05.13-.07a2.25,2.25,0,0,1,.57,0h.46a8.46,8.46,0,0,0,.88-.1,2.76,2.76,0,0,0,1.52-.76,3,3,0,0,0,.64-1.64l.11-.92C146,115.78,146,115.38,146.39,115.25Zm0,.11c-.26.1-.33.43-.37.73s-.05.61-.07.92a3.64,3.64,0,0,1-.57,1.83c-.79,1.11-2.44,1.28-3.4,1.44l.08,0a.37.37,0,0,0,.13-.32.33.33,0,0,0-.19-.29l0,0s0,0,0,0h.69a2.16,2.16,0,0,1,.55,0,1,1,0,0,1,.36.14.72.72,0,0,1,.35.54,1.08,1.08,0,0,1-.28.8,3.64,3.64,0,0,1-.37.4,6.38,6.38,0,0,1-.8.62,10.32,10.32,0,0,1-1.73,1,3.64,3.64,0,0,1-2.19.17,7.41,7.41,0,0,1-3.38-2.15,9.68,9.68,0,0,1-2.11-3.32,7.91,7.91,0,0,1-.51-3.87,24.84,24.84,0,0,1,.72-3.71l.89-3.62a14.94,14.94,0,0,1,.56-1.8,2.57,2.57,0,0,1,1.25-1.51,3.24,3.24,0,0,1,2,.15c.61.18,1.2.4,1.78.63,1.16.46,2.3,1,3.41,1.54a16.94,16.94,0,0,1,6,4.53A3.27,3.27,0,0,1,150,112a1.74,1.74,0,0,1-.07.54,3.28,3.28,0,0,1-.23.46l-.5.79c-.35.51-.64,1.06-1,1.56a.8.8,0,0,1-.9.3C146.94,115.54,146.7,115.27,146.43,115.36Z"/>
      </g>
      <path class="cls-3" d="M138.82,123.67c0-.21.27-.3.42-.42s.34-.22.52-.33l1.06-.61a20.15,20.15,0,0,0,2.08-1.3,2.14,2.14,0,0,0,.44-.41c.13-.16.12-.34-.08-.39a4.71,4.71,0,0,0-1.2-.11l-.17,0a.16.16,0,0,1-.12-.06c-.11-.08.08-.23.08-.2a1.39,1.39,0,0,1,.33,0l.6-.07a5.69,5.69,0,0,0,1.17-.27,2.26,2.26,0,0,0,1.56-1.54,4.93,4.93,0,0,0,.17-1.17,3.22,3.22,0,0,1,.24-1.3.78.78,0,0,1,.76-.4,2.39,2.39,0,0,1,.64.24.64.64,0,0,0,.79-.22,7.56,7.56,0,0,0,.87-2.16,2.84,2.84,0,0,1,.28-.63.58.58,0,0,1,.48-.31.6.6,0,0,1,.46.28,3.24,3.24,0,0,1,.49,1.26,5.63,5.63,0,0,1-.08,2.55,8.6,8.6,0,0,1-2.88,4,15.25,15.25,0,0,1-4.18,2.6,16,16,0,0,1-2.33.79,9.83,9.83,0,0,1-1.2.25A2.21,2.21,0,0,1,138.82,123.67Zm0,0a2.28,2.28,0,0,0,1.19,0,11.62,11.62,0,0,0,1.2-.27,15.37,15.37,0,0,0,2.3-.83,14.83,14.83,0,0,0,4-2.74,8.36,8.36,0,0,0,2.59-3.95,5,5,0,0,0,0-2.31,2.93,2.93,0,0,0-.39-1s-.11-.08,0,0,.05,0,0,0a2.25,2.25,0,0,0-.21.49,7.26,7.26,0,0,1-1,2.34,1.18,1.18,0,0,1-1.41.34,2.7,2.7,0,0,0-.49-.21.29.29,0,0,0-.27.15,3.39,3.39,0,0,0-.21,1.08,5.52,5.52,0,0,1-.24,1.25,2.63,2.63,0,0,1-1.86,1.7,5.8,5.8,0,0,1-1.23.23l-.62,0a1.06,1.06,0,0,0-.27,0s0,0,0,0a.09.09,0,0,0,0-.09s0,0,0,0l.13,0a5.34,5.34,0,0,1,1.24.16.34.34,0,0,1,.23.27.46.46,0,0,1-.12.31,2.67,2.67,0,0,1-.47.42,20.34,20.34,0,0,1-2.11,1.27l-1.07.59c-.18.1-.35.2-.53.32S138.86,123.47,138.82,123.67Z"/>
      <g>
        <path class="cls-5" d="M121.16,59c.39.22.15.8.64,1.14.27.18.54.14,2.19-.22,1.25-.27,1.43-.32,1.67-.51a2.48,2.48,0,0,0,.81-1.48c.66-3.07-.94-8.5-.94-8.5-1.32-5.36-2.08-5.88-2.57-6.07-1.06-.43-2.55.42-5.47,2.12-3.4,2-5.13,3-6.24,4.93A9.14,9.14,0,0,0,110,55c0,1,0,3,1.37,4.13a4.71,4.71,0,0,0,1.29.67c1,.41,2.62.78,2.84.37s-.92-1.37-.83-1.47,1.49,1.8,3.15,1.77S120.43,58.59,121.16,59Z"/>
        <path class="cls-3" d="M121.16,59c.29.17.24.55.38.82a.7.7,0,0,0,.75.41c.61-.07,1.21-.23,1.82-.36l.9-.22a1.42,1.42,0,0,0,.78-.42,2.88,2.88,0,0,0,.65-1.67,20.45,20.45,0,0,0-1-7.27c-.37-1.19-.67-2.38-1.08-3.54-.2-.57-.42-1.14-.67-1.68a2.61,2.61,0,0,0-.87-1.21,1.89,1.89,0,0,0-1.39.13,14.68,14.68,0,0,0-1.59.79c-1.06.6-2.13,1.24-3.19,1.87-2.12,1.25-4.28,2.45-5.29,4.59a8.82,8.82,0,0,0-1,3.37,6.81,6.81,0,0,0,.45,3.46,2.8,2.8,0,0,0,1.16,1.2,12.3,12.3,0,0,0,1.68.68,7,7,0,0,0,.88.21,1.3,1.3,0,0,0,.78,0s0-.16,0-.29a3.85,3.85,0,0,0-.23-.38l-.29-.36-.15-.19-.07-.11v0a.15.15,0,0,1,0-.11c.06,0,.16,0,.16,0a15.76,15.76,0,0,0,1.41,1.22,2.87,2.87,0,0,0,1.71.58,3.21,3.21,0,0,0,1.68-.7c.25-.18.5-.37.75-.54S120.86,58.84,121.16,59Zm0,0c-.3-.15-.61,0-.86.21s-.49.37-.75.55a3.21,3.21,0,0,1-1.69.72c-1.3.07-2.34-.93-3.2-1.7,0,0,0,0,0,0s0,0,0,0h0l0,.08.15.17.31.36a2.28,2.28,0,0,1,.28.39.5.5,0,0,1,0,.58.79.79,0,0,1-.53.19,4,4,0,0,1-.49,0c-.32,0-.63-.1-.94-.17a10.5,10.5,0,0,1-1.79-.61,3.26,3.26,0,0,1-1.47-1.35,7.48,7.48,0,0,1-.75-3.78,9.69,9.69,0,0,1,.89-3.78,8.22,8.22,0,0,1,2.44-3.07,29.23,29.23,0,0,1,3.16-2.09c1.08-.62,2.15-1.25,3.26-1.85a14.21,14.21,0,0,1,1.76-.8,2.83,2.83,0,0,1,2.22,0,2.13,2.13,0,0,1,.82.85,6.21,6.21,0,0,1,.44.9c.23.61.42,1.21.59,1.81.35,1.21.59,2.44.88,3.64a21.16,21.16,0,0,1,.58,7.43,3,3,0,0,1-.75,1.71,1.49,1.49,0,0,1-.83.43l-.91.19c-.61.12-1.21.28-1.83.34a.71.71,0,0,1-.76-.43C121.39,59.55,121.45,59.17,121.16,59Z"/>
      </g>
      <path class="cls-3" d="M109.86,58.94c.18-.1.4,0,.59,0s.4.11.59.18l1.17.38a20.14,20.14,0,0,0,2.35.67,2.06,2.06,0,0,0,.6,0c.21,0,.34-.13.24-.32a4.91,4.91,0,0,0-.72-1,1.47,1.47,0,0,1-.1-.13s0,0,0-.14.23-.1.2-.08a2.13,2.13,0,0,1,.26.21l.46.41a6,6,0,0,0,1,.69,2.28,2.28,0,0,0,2.19.13,5.21,5.21,0,0,0,1-.65,3.3,3.3,0,0,1,1.13-.7.79.79,0,0,1,.81.3,2.44,2.44,0,0,1,.24.63.65.65,0,0,0,.69.45,7.49,7.49,0,0,0,2.2-.81,3.1,3.1,0,0,1,.65-.21.6.6,0,0,1,.55.15.64.64,0,0,1,.11.53,3.22,3.22,0,0,1-.62,1.21,5.72,5.72,0,0,1-1.94,1.65,8.67,8.67,0,0,1-4.94.56,15.18,15.18,0,0,1-4.72-1.38,15.49,15.49,0,0,1-2.15-1.19,10.19,10.19,0,0,1-1-.74C110.35,59.59,110,59.34,109.86,58.94Zm0,0c.1.4.5.64.78.91s.66.49,1,.71a16,16,0,0,0,2.16,1.15,14.66,14.66,0,0,0,4.72,1.16,8.48,8.48,0,0,0,4.67-.71,5.11,5.11,0,0,0,1.74-1.53,2.86,2.86,0,0,0,.49-1c0-.06,0-.13,0-.06s.06,0,0,0a2.87,2.87,0,0,0-.51.18,7.44,7.44,0,0,1-2.41.8,1.19,1.19,0,0,1-1.2-.81,2.69,2.69,0,0,0-.18-.52.27.27,0,0,0-.28-.1,3.4,3.4,0,0,0-1,.57,6,6,0,0,1-1.09.66,2.66,2.66,0,0,1-2.51-.24,6.24,6.24,0,0,1-1-.77l-.44-.43a1.71,1.71,0,0,0-.21-.19h0l.06-.06c0-.05,0,0,0,0a.83.83,0,0,0,.08.12,4.75,4.75,0,0,1,.69,1,.34.34,0,0,1,0,.35.45.45,0,0,1-.32.11,2.51,2.51,0,0,1-.62-.06,20.61,20.61,0,0,1-2.35-.72l-1.16-.4c-.2-.07-.39-.13-.59-.18S110,58.84,109.86,58.94Z"/>
      <g>
        <path class="cls-4" d="M103.29,49.16c.42-.15.71.41,1.28.26.32-.09.46-.32,1.27-1.81.61-1.12.69-1.29.71-1.59a2.46,2.46,0,0,0-.6-1.58c-1.89-2.51-7-4.85-7-4.85-4.92-2.51-5.81-2.27-6.28-2-1,.53-1.34,2.2-2,5.53-.72,3.87-1.07,5.85-.35,7.94a9.24,9.24,0,0,0,2.63,4c.73.63,2.29,2,4,1.67a4.52,4.52,0,0,0,1.35-.54c1-.51,2.3-1.47,2.13-1.91s-1.63-.19-1.65-.33,2.34,0,3.4-1.23S102.5,49.43,103.29,49.16Z"/>
        <path class="cls-3" d="M103.29,49.16c.32-.11.58.17.87.24a.68.68,0,0,0,.8-.29c.34-.51.62-1.07.92-1.61.14-.28.29-.55.42-.83a1.35,1.35,0,0,0,.19-.87,2.8,2.8,0,0,0-.83-1.58,20.62,20.62,0,0,0-6.14-4c-1.15-.5-2.24-1.05-3.39-1.5a15.79,15.79,0,0,0-1.71-.6A2.75,2.75,0,0,0,92.94,38a1.86,1.86,0,0,0-.81,1.14,14.91,14.91,0,0,0-.44,1.72c-.25,1.19-.46,2.42-.68,3.64-.44,2.42-1,4.84,0,7a9,9,0,0,0,1.9,3,6.87,6.87,0,0,0,2.92,1.92,2.69,2.69,0,0,0,1.66-.09,11.25,11.25,0,0,0,1.62-.83,7.44,7.44,0,0,0,.73-.52c.22-.18.48-.44.48-.62s-.1-.13-.24-.17a1.94,1.94,0,0,0-.43-.06l-.47,0H99a.36.36,0,0,1-.14,0h0a.13.13,0,0,1-.06-.09.15.15,0,0,1,.09-.12,15,15,0,0,0,1.85-.27,2.8,2.8,0,0,0,1.56-.91,3.22,3.22,0,0,0,.57-1.73c0-.31,0-.62.09-.93S103,49.28,103.29,49.16Zm0,0c-.31.13-.37.49-.4.78s0,.62-.07.93a3.23,3.23,0,0,1-.57,1.75c-.79,1-2.23,1.16-3.37,1.31,0,0,0,0,0,0a0,0,0,0,0,0,0h.81a2.74,2.74,0,0,1,.48,0c.14,0,.39.1.44.37a.76.76,0,0,1-.19.52,2.88,2.88,0,0,1-.33.36,8.1,8.1,0,0,1-.74.6,12.19,12.19,0,0,1-1.64,1,3.27,3.27,0,0,1-2,.22A7.42,7.42,0,0,1,92.36,55a9.47,9.47,0,0,1-2.28-3.14A8.24,8.24,0,0,1,89.36,48a28.76,28.76,0,0,1,.48-3.77c.24-1.22.46-2.43.74-3.66a12.17,12.17,0,0,1,.54-1.86A2.82,2.82,0,0,1,92.55,37,2.21,2.21,0,0,1,93.73,37a5.75,5.75,0,0,1,1,.27,17.12,17.12,0,0,1,1.76.73c1.13.52,2.23,1.15,3.32,1.71a21.28,21.28,0,0,1,6,4.43,3.05,3.05,0,0,1,.81,1.68,1.53,1.53,0,0,1-.23.91l-.44.82c-.31.54-.59,1.09-1,1.6a.72.72,0,0,1-.82.3C103.86,49.34,103.61,49.05,103.29,49.16Z"/>
      </g>
      <path class="cls-3" d="M95.85,57.67c0-.2.27-.31.42-.43s.34-.23.51-.33l1.06-.64a18.51,18.51,0,0,0,2-1.34,2.44,2.44,0,0,0,.43-.42c.13-.16.11-.34-.09-.39A4.72,4.72,0,0,0,99,54h-.17s0,0-.12-.07.07-.23.07-.2a2.33,2.33,0,0,1,.33-.06l.6-.08a5.14,5.14,0,0,0,1.17-.29,2.26,2.26,0,0,0,1.53-1.57,5.51,5.51,0,0,0,.15-1.17,3.06,3.06,0,0,1,.21-1.31.79.79,0,0,1,.75-.41,2.3,2.3,0,0,1,.64.23.65.65,0,0,0,.79-.23,7.45,7.45,0,0,0,.83-2.19,2.91,2.91,0,0,1,.26-.63.61.61,0,0,1,.48-.32A.67.67,0,0,1,107,46a3.48,3.48,0,0,1,.51,1.25,5.63,5.63,0,0,1,0,2.55,8.66,8.66,0,0,1-2.8,4.1,15.35,15.35,0,0,1-4.13,2.68,16,16,0,0,1-2.31.84q-.6.16-1.2.27A2.26,2.26,0,0,1,95.85,57.67Zm0,0a2.22,2.22,0,0,0,1.2,0c.41-.08.8-.18,1.19-.29a15.46,15.46,0,0,0,2.29-.88,15,15,0,0,0,4-2.81,8.56,8.56,0,0,0,2.51-4,5.05,5.05,0,0,0,0-2.32,2.82,2.82,0,0,0-.41-1s-.11-.07,0,0,0,0,0,0a2.36,2.36,0,0,0-.2.5,7.61,7.61,0,0,1-1,2.36,1.19,1.19,0,0,1-1.4.37,3,3,0,0,0-.5-.21.28.28,0,0,0-.26.15,3.26,3.26,0,0,0-.2,1.09,5.62,5.62,0,0,1-.21,1.26A2.65,2.65,0,0,1,101,53.61a5.19,5.19,0,0,1-1.22.25l-.62,0-.28,0,0,0a.13.13,0,0,0,0-.09s0,0,0,0l.14,0a4.87,4.87,0,0,1,1.24.14.37.37,0,0,1,.24.26.46.46,0,0,1-.12.31,3.09,3.09,0,0,1-.46.43,19.61,19.61,0,0,1-2.08,1.31l-1.07.61-.52.33C96.12,57.37,95.9,57.47,95.85,57.67Z"/>
      <g>
        <path class="cls-4" d="M112.74,101.42c.37-.1.62.37,1.13.28.29,0,.41-.23,1.15-1.37.56-.87.64-1,.65-1.24a1.91,1.91,0,0,0-.51-1.29c-1.64-2.11-6.19-4.26-6.19-4.26-4.34-2.27-5.13-2.13-5.55-2-.9.37-1.22,1.69-1.82,4.31-.69,3-1,4.62-.41,6.33a7.69,7.69,0,0,0,2.29,3.31c.64.55,2,1.71,3.55,1.56a4.38,4.38,0,0,0,1.2-.36c.89-.36,2.07-1,1.93-1.41s-1.45-.25-1.47-.36,2.08.17,3-.8S112,101.6,112.74,101.42Z"/>
        <path class="cls-3" d="M112.74,101.42c.27-.07.49.15.73.23a.62.62,0,0,0,.71-.14,12.83,12.83,0,0,0,.89-1.29c.24-.45.67-.88.55-1.4a2.67,2.67,0,0,0-.79-1.3,20,20,0,0,0-5.21-3.38c-.94-.43-1.9-.91-2.84-1.31a10.29,10.29,0,0,0-2.83-.9c-.75-.08-1.1.95-1.36,1.92s-.47,2-.7,3c-.46,2-.94,4.05,0,5.85a7.76,7.76,0,0,0,1.71,2.43,6.27,6.27,0,0,0,2.5,1.6,2.67,2.67,0,0,0,1.43,0,8.32,8.32,0,0,0,1.43-.56,5.44,5.44,0,0,0,.67-.37c.19-.13.44-.33.46-.47s-.34-.2-.57-.23-.5,0-.8-.1c0,0-.1-.08,0-.13s.07,0,.09,0h.7a5.12,5.12,0,0,0,.78-.06,2.64,2.64,0,0,0,1.42-.56,2.1,2.1,0,0,0,.64-1.38l.09-.78C112.39,101.81,112.46,101.5,112.74,101.42Zm0,0c-.28.08-.34.39-.37.64l-.08.78a2.14,2.14,0,0,1-.63,1.41,2.83,2.83,0,0,1-1.44.62q-.39.06-.78.09l-.4,0h-.28s0,0,0,0,0-.07,0-.06c.21,0,.51,0,.76,0a2.93,2.93,0,0,1,.41.07.41.41,0,0,1,.36.33c-.06.39-.33.51-.53.69a4.83,4.83,0,0,1-.67.44,9.21,9.21,0,0,1-1.46.67,3.06,3.06,0,0,1-1.67.08,6.86,6.86,0,0,1-2.84-1.58,8.2,8.2,0,0,1-2-2.57,6.23,6.23,0,0,1-.68-3.26,21.4,21.4,0,0,1,.52-3.17c.24-1,.46-2,.75-3.08A6.61,6.61,0,0,1,102.3,92a1.85,1.85,0,0,1,1.69-1,5.65,5.65,0,0,1,1.63.47c.5.2,1,.44,1.45.67,1,.48,1.84,1,2.78,1.49a20.49,20.49,0,0,1,5.08,3.73,2.71,2.71,0,0,1,.77,1.38,1,1,0,0,1-.18.77l-.42.66a12.78,12.78,0,0,1-.9,1.28.65.65,0,0,1-.73.14C113.22,101.58,113,101.36,112.74,101.42Z"/>
      </g>
      <path class="cls-3" d="M106,107.82c0-.16.24-.23.38-.32l.46-.24.93-.44c.61-.3,1.24-.59,1.82-.95a2.38,2.38,0,0,0,.4-.31c.12-.12.14-.27,0-.32a3.54,3.54,0,0,0-1-.13,1.57,1.57,0,0,1-.28,0l0,0a.11.11,0,0,1,0-.12c.09-.12.09-.06.12-.08a.93.93,0,0,1,.14,0l.52,0a6.67,6.67,0,0,0,1-.13,2,2,0,0,0,1.5-1.07,2.92,2.92,0,0,0,.2-.94,3,3,0,0,1,.17-1.09.65.65,0,0,1,.6-.38,1.24,1.24,0,0,1,.58.18.62.62,0,0,0,.73,0,4.24,4.24,0,0,0,.82-1.72,3,3,0,0,1,.25-.52.5.5,0,0,1,.39-.25.53.53,0,0,1,.41.19,2.44,2.44,0,0,1,.46,1,4.24,4.24,0,0,1-.07,2.15,6.85,6.85,0,0,1-2.68,3.18,13.34,13.34,0,0,1-3.7,1.84,13.63,13.63,0,0,1-2,.51c-.34.06-.68.11-1,.14A2,2,0,0,1,106,107.82Zm0,0a2,2,0,0,0,1,.07c.34,0,.68-.09,1-.15a13.63,13.63,0,0,0,2-.55,12.65,12.65,0,0,0,3.56-2,6.56,6.56,0,0,0,2.43-3.11,3.68,3.68,0,0,0,0-1.92,2.14,2.14,0,0,0-.37-.82s-.07-.05,0,0,0,0,0,0a2.26,2.26,0,0,0-.19.41,4.42,4.42,0,0,1-1,1.92,1.08,1.08,0,0,1-1.2.06c-.33-.19-.51-.2-.61,0-.21.5-.1,1.32-.44,2a2.25,2.25,0,0,1-1.76,1.17,6.18,6.18,0,0,1-1,.09h-.63s-.06,0,0,0,0-.06,0-.07h0a1.2,1.2,0,0,0,.23,0,4.15,4.15,0,0,1,1,.19.27.27,0,0,1,.19.23.44.44,0,0,1-.14.25,3,3,0,0,1-.42.31,15.93,15.93,0,0,1-1.85.92l-.94.43-.46.23C106.28,107.6,106.08,107.66,106,107.82Z"/>
    </g>
    <g>
      <path class="cls-3" d="M137.52,104.45a24.81,24.81,0,0,1,6.16-7,27.36,27.36,0,0,1,3.95-2.54A24,24,0,0,1,152,93.13a34.61,34.61,0,0,0-14.46,11.32Z"/>
      <path class="cls-3" d="M117,81.77a49,49,0,0,0,12.72,16.74,31.79,31.79,0,0,1-4.12-3.38,38.34,38.34,0,0,1-3.55-4A33.86,33.86,0,0,1,117,81.77Z"/>
      <path class="cls-3" d="M94.58,56.43a29.18,29.18,0,0,0,5,9.42,29.51,29.51,0,0,0,8.07,7,26,26,0,0,1-4.47-3A27.05,27.05,0,0,1,99.44,66,26.69,26.69,0,0,1,94.58,56.43Z"/>
      <path class="cls-3" d="M135.51,103.87a26.12,26.12,0,0,0,1.08,4.48,21.91,21.91,0,0,0,1.95,4.16,20.87,20.87,0,0,0,2.74,3.67,24.53,24.53,0,0,0,3.46,3,20.45,20.45,0,0,1-6.42-6.6A21,21,0,0,1,135.51,103.87Z"/>
      <path class="cls-3" d="M121.6,106.8a18.64,18.64,0,0,0,1.07,4.54,15.52,15.52,0,0,0,2.26,4.06,15.27,15.27,0,0,0,3.28,3.29,18.28,18.28,0,0,0,4.09,2.24,14.84,14.84,0,0,1-4.19-2.1,15.69,15.69,0,0,1-3.38-3.28A16,16,0,0,1,121.6,106.8Z"/>
      <path class="cls-3" d="M121.5,106.72a16,16,0,0,1,8,4.78,15.79,15.79,0,0,1,2.54,4,14.84,14.84,0,0,1,1.25,4.52,18.35,18.35,0,0,0-1.4-4.46,15.15,15.15,0,0,0-2.58-3.86,15.48,15.48,0,0,0-3.54-3A18.28,18.28,0,0,0,121.5,106.72Z"/>
      <path class="cls-3" d="M86,74.7A36.68,36.68,0,0,0,88.73,85,36.2,36.2,0,0,0,94.24,94a32.57,32.57,0,0,1-5.74-9A33.18,33.18,0,0,1,86,74.7Z"/>
      <path class="cls-3" d="M104,78.13a52,52,0,0,0,8.31-6.22,52.62,52.62,0,0,0,7-7.72A43.16,43.16,0,0,1,104,78.13Z"/>
      <path class="cls-3" d="M81.64,71.11A39.71,39.71,0,0,1,87,65.71a39,39,0,0,1,6.33-4.22,52.87,52.87,0,0,0-6.18,4.41A54.35,54.35,0,0,0,81.64,71.11Z"/>
      <path class="cls-3" d="M92.46,37.67a27.23,27.23,0,0,0,9.74,14.74A23.76,23.76,0,0,1,95.9,46,24.11,24.11,0,0,1,92.46,37.67Z"/>
      <path class="cls-3" d="M80.51,34.36a24.51,24.51,0,0,1,2.56,4.37,28.66,28.66,0,0,1,1.69,4.79,27,27,0,0,1,.5,10.08,30,30,0,0,0-4.75-19.24Z"/>
      <path class="cls-3" d="M61.13,51a35.8,35.8,0,0,0,6.92,6.15,35.56,35.56,0,0,0,8.24,4.2A30.17,30.17,0,0,1,61.13,51Z"/>
      <path class="cls-3" d="M53.25,63.34A29.71,29.71,0,0,1,69.6,70.71a36,36,0,0,0-16.35-7.37Z"/>
      <path class="cls-3" d="M123,43.36a14.77,14.77,0,0,0-3.5,3.33,13.49,13.49,0,0,0-2.62,9.08,14.92,14.92,0,0,0,1.22,4.67,13.09,13.09,0,0,1-1-9.52,13,13,0,0,1,2.24-4.33A12.74,12.74,0,0,1,123,43.36Z"/>
      <path class="cls-3" d="M141.29,42.43a17.92,17.92,0,0,1-2.61,4,19.47,19.47,0,0,1-3.51,3.21,18.64,18.64,0,0,1-8.87,3.22,21.89,21.89,0,0,0,4.58-1.19A19.34,19.34,0,0,0,135,49.4,20.45,20.45,0,0,0,141.29,42.43Z"/>
      <path class="cls-3" d="M144.12,55.14a13.62,13.62,0,0,1,4.36,2,13.9,13.9,0,0,1,3.42,3.38,14.71,14.71,0,0,1,2.48,9.15,16.69,16.69,0,0,0-.64-4.72,14,14,0,0,0-2.05-4.28,13.71,13.71,0,0,0-3.31-3.4A16.07,16.07,0,0,0,144.12,55.14Z"/>
      <path class="cls-3" d="M129.28,78a16.06,16.06,0,0,1,5.18-8,16.37,16.37,0,0,1,4.17-2.41,15,15,0,0,1,4.67-1,17.79,17.79,0,0,0-4.61,1.2,16.18,16.18,0,0,0-4.07,2.44,16.44,16.44,0,0,0-3.22,3.49A18.49,18.49,0,0,0,129.28,78Z"/>
      <path class="cls-3" d="M152,88.38a39.53,39.53,0,0,0-4.17-17.1,33,33,0,0,1,3.29,8.26A32.55,32.55,0,0,1,152,88.38Z"/>
      <path class="cls-3" d="M66.63,72a27.69,27.69,0,0,1,5.44,6.92,28.06,28.06,0,0,1,3,8.28A38.35,38.35,0,0,0,73.71,83a33.86,33.86,0,0,0-4.22-7.67A37.88,37.88,0,0,0,66.63,72Z"/>
      <path class="cls-3" d="M38.66,78.23a14.73,14.73,0,0,1,4.71.56,15.83,15.83,0,0,1,4.33,2,16.25,16.25,0,0,1,5.85,7.36,18.82,18.82,0,0,0-2.51-4A16,16,0,0,0,47.56,81a15.46,15.46,0,0,0-4.24-2A17.49,17.49,0,0,0,38.66,78.23Z"/>
      <path class="cls-3" d="M70.07,91.61a17.82,17.82,0,0,0,9.61,14.74,16.06,16.06,0,0,1-3.89-2.48,17.54,17.54,0,0,1-3.07-3.48,16.92,16.92,0,0,1-1.94-4.21A15.79,15.79,0,0,1,70.07,91.61Z"/>
      <path class="cls-3" d="M100.19,97.25a19.84,19.84,0,0,0-4.34,16.57,17.83,17.83,0,0,1,4.34-16.57Z"/>
      <path class="cls-3" d="M103.42,91.58a19.36,19.36,0,0,1,2.91,2.51,23.26,23.26,0,0,1,2.43,3,23.63,23.63,0,0,1,1.8,3.41,19,19,0,0,1,1.17,3.66,24.95,24.95,0,0,0-8.31-12.58Z"/>
      <path class="cls-3" d="M49.14,120.39a37.2,37.2,0,0,0,9.15,5.25,36.74,36.74,0,0,0,10.24,2.51,32.51,32.51,0,0,1-10.33-2.28,33.45,33.45,0,0,1-4.75-2.38A29.24,29.24,0,0,1,49.14,120.39Z"/>
      <path class="cls-3" d="M73.06,113.7a21.95,21.95,0,0,1,8.3,16,25,25,0,0,0-2.66-8.75A24.38,24.38,0,0,0,73.06,113.7Z"/>
      <path class="cls-3" d="M96,134.33a13.47,13.47,0,0,1,1.93-9.27,13.4,13.4,0,0,1,7.63-5.6,14,14,0,0,0-7.42,5.73,13.19,13.19,0,0,0-1.85,4.37A15,15,0,0,0,96,134.33Z"/>
      <path class="cls-3" d="M79.76,135.48A26.65,26.65,0,0,1,88,148a33.19,33.19,0,0,0-3.41-6.69A33.91,33.91,0,0,0,79.76,135.48Z"/>
      <path class="cls-3" d="M120.05,138.08a17.83,17.83,0,0,1-10.81,13.12,22.79,22.79,0,0,0,3.75-2.29,18.82,18.82,0,0,0,3.13-3,19.32,19.32,0,0,0,2.4-3.67A22.05,22.05,0,0,0,120.05,138.08Z"/>
      <path class="cls-3" d="M137.68,139.21a12.1,12.1,0,0,0-1.13-5.21,10,10,0,0,0-3.5-4,12.36,12.36,0,0,0-4.94-2,16.35,16.35,0,0,0-5.36,0,14.37,14.37,0,0,1,5.39-.2,12.43,12.43,0,0,1,5.05,1.91,10.32,10.32,0,0,1,3.51,4.1A10.92,10.92,0,0,1,137.68,139.21Z"/>
    </g>
  </g>
</svg>
