<svg xmlns="http://www.w3.org/2000/svg" width="384.93" height="367.21" viewBox="0 0 384.93 367.21">
  <defs>
    <style>
      .cls-1 {
        fill: #618084;
        stroke: #333;
        stroke-miterlimit: 10;
        stroke-width: 0.11px;
      }
    </style>
  </defs>
  <g id="environment_backround" data-name="environment backround">
    <path class="cls-1" d="M323.62,224.69c-1.48,15.68-21.6,18.31-23.48,31.62-3.85,27.31,38.13,47.35,33.54,57-5.23,11-55.34-18.48-123.61-15.81-57.59,2.24-78.59,23.84-119.78,8.14-6.27-2.39-43-15.2-46.58-39.5a28.58,28.58,0,0,1,.09-7c2.75-23.94,24.43-35.27,37.5-52.06,30.35-39,2.63-92.84,32-106.3a18.47,18.47,0,0,1,4.79-1.64c23.72-4.43,28.75,24.33,76.43,50.42,50.86,27.84,103.94,27.28,123.36,56.9C320.23,210.09,324.39,216.6,323.62,224.69Z"/>
  </g>
</svg>
