<svg xmlns="http://www.w3.org/2000/svg" width="384.93" height="367.21" viewBox="0 0 384.93 367.21">
  <defs>
    <style>
      .cls-1 {
        fill: #f3912e;
      }
    </style>
  </defs>
  <g id="environment_leaf" data-name="environment leaf">
    <path class="cls-1" d="M137.86,257.46a84.6,84.6,0,0,0,13,9.27,86.59,86.59,0,0,0,33.87,11.08h0c8.87,1.27,21.95,1.53,21.95,1.53h0s10-.39,16-1.26c8.57-1.24,14.7-4.32,19.88-6.83,16.57-8,29.13-22.55,33.06-27.35a107.46,107.46,0,0,0,21.37-40c5.82-20.74,3.64-37.6,2.34-46.88-1.16-8.22-5.34-35.67-24.82-57.26-8.22-9.11-18.34-16.26-21.37-14.12-.61.43-.75,1.09-2.15,2.52a20.7,20.7,0,0,1-6.42,4.15c-5.44,2.22-11.93,1-15.61.13-7.55-1.89-8.66-4.09-16.74-7.56-4.72-2-14.09-6-25.31-5.91-10.63.11-16.77,3.87-18.25,1.51-1.09-1.75,1.44-5.16,6.29-11.58s7.25-9.58,11.59-13.1A52,52,0,0,1,207,45.69a53.15,53.15,0,0,1,22.79-.38c5.62,1,11.69,2.11,17.75,6.8a32.18,32.18,0,0,1,8.56,10.32c2.12,4.06,4.91,11.51,2.77,13.1-1.61,1.19-4.76-1.88-10.32-4.91-10-5.45-19.33-6.14-31.85-7.05-10.32-.76-15.22.26-18.26,1.13C194,66,189.58,68,189.71,68.48c0,0,.06.18,5.67-.63A74.2,74.2,0,0,1,205,66.46a79.53,79.53,0,0,1,13.09.13,84.29,84.29,0,0,1,29.21,8.18,89.57,89.57,0,0,1,12.64,7.83,101.4,101.4,0,0,1,12.6,10.23,91.6,91.6,0,0,1,12.36,15,118.2,118.2,0,0,1,12.85,24.51,112.42,112.42,0,0,1,7.65,50.62,115,115,0,0,1-9.23,35.77c-3.65,8.86-8.22,19.67-18.22,31-5.84,6.64-16.13,18.36-32.39,23.63-6.21,2-20.09,5.28-20.09,5.28.8-.21.8-.2.3-.08a81,81,0,0,1-10.2,1.49,159.61,159.61,0,0,1-20.15.32,115.26,115.26,0,0,1-16.27-2.21A94.16,94.16,0,0,1,162,273a88.56,88.56,0,0,1-22.31-13.49"/>
  </g>
</svg>
