<svg xmlns="http://www.w3.org/2000/svg" width="384.93" height="367.21" viewBox="0 0 384.93 367.21">
  <defs>
    <style>
      .cls-1 {
        fill: #f3912e;
      }

      .cls-2 {
        fill: #333;
      }
    </style>
  </defs>
  <g id="field_tractor" data-name="field tractor">
    <g>
      <polygon class="cls-1" points="196.62 183.61 196.62 210.59 204.39 209.75 203.85 183.61 196.62 183.61"/>
      <polygon class="cls-1" points="236.32 183.07 236.32 209.75 243.23 209.75 243.23 183.61 236.32 183.07"/>
      <path class="cls-2" d="M224.75,148.9c-1.75-1.22-3.63-.75-5.44-.1,1.07,0,2.14.34,3.22.4a5.27,5.27,0,0,0,2.38-.23Z"/>
      <path class="cls-2" d="M228.06,151.92a1,1,0,0,1-.2-.58,4.89,4.89,0,0,1-2.26.45l-2.49.06C224.76,151.89,226.41,151.92,228.06,151.92Z"/>
      <path class="cls-1" d="M240.38,167.34l-2.71-21.63-2.51-21.85h2.51l-.22-3.94-13-.63h-20l-1.27,4.95,2.13.38-5.31,42.49-4.64-.2.28,13.58,10.81.67-.1,13a3,3,0,0,0,2.76,0,4.61,4.61,0,0,0,1.64-2.41c1.4-3.56,6.36-4.94,8.39-5.21,4.62-.61,9.44,2.57,12.48,8h2.86V181.16h10.87V167.31Zm-9.17-8.2h0L208.57,159h0s.27-3.47.46-5.8c0-.36.32-3.79.61-6.76.78-8,1.84-15.17,1.84-15.17h3.37c4.93-.07,6.28-.07,6.28-.07,3.89,0,7.62.14,7.63.14h0l1.14,11h0s.33,3.75.6,7.06S231.44,162.35,231.21,159.14Z"/>
      <path class="cls-2" d="M216.93,138.34a6.72,6.72,0,0,0,.16,3.9c.57,1.5,1.49,1.83,1.63,3.34a3,3,0,0,1-.22,1.74c-1,1.74-4.11-.08-5.53,1.92a2.75,2.75,0,0,0-.42.87l-.51,5.78h0s.32.47,3.93.35c0-1.25,0-1.93,0-1.93h0c-1.5.07,3-.13,4.5-.17,1,0,2.37,0,4.07,0l-.22,2h3.93a6.45,6.45,0,0,0,0-.92c-.16-1.92.2-5.27-1.12-6.52a7.11,7.11,0,0,0-2.47-.64c-1.66-.3-2.18-.22-2.47-.76-.41-.75,0-2,.22-2.57a8.67,8.67,0,0,1,.9-1.68,6.6,6.6,0,0,0-.17-6.06,3.68,3.68,0,0,0-2.8-1.81C218.67,135.13,217.38,136.78,216.93,138.34Z"/>
      <path class="cls-1" d="M204.57,135.13h-4.35v-2.47a4,4,0,0,0-2.55-1.36,3.64,3.64,0,0,0-2.55.82c-.23,1.23-.42,2.57-.55,4a45.29,45.29,0,0,0,.46,11.6,4.27,4.27,0,0,0,2.86.76,4.55,4.55,0,0,0,2.54-1.2c0-1.43,0-2.85,0-4.28l3.37,2.91v-2.34l-3.48-3.17.09-4,4.18.21Z"/>
      <path class="cls-1" d="M236.24,135.13h4.35v-2.47a3.94,3.94,0,0,1,2.55-1.36,3.69,3.69,0,0,1,2.55.82c.11.4.21.81.31,1.23a31.81,31.81,0,0,1-.23,14.38,4.26,4.26,0,0,1-2.85.76,4.55,4.55,0,0,1-2.55-1.2c0-1.43,0-2.85,0-4.28L237,145.92v-2.34l3.47-3.17-.09-4-4.17.21Z"/>
    </g>
  </g>
</svg>
