<svg xmlns="http://www.w3.org/2000/svg" width="384.93" height="367.21" viewBox="0 0 384.93 367.21">
  <defs>
    <style>
      .cls-1 {
        fill: #618084;
        stroke: #333;
        stroke-miterlimit: 10;
        stroke-width: 0.11px;
      }
    </style>
  </defs>
  <g id="field_backround" data-name="field backround">
    <path class="cls-1" d="M235.27,148.65c9.08,4.15,27,10.28,63,22,48.09,15.7,60.54,17.24,67.49,30,10.78,19.81.92,53-19.4,69.35C322,289.7,300.16,271,262.5,287c-37.87,16.07-29.92,41-65.49,58.56C153.35,367.13,94,353,58.67,323.05a134.14,134.14,0,0,1-27.22-32.38C23.85,278.51,7,250.73,9.37,214.14a120,120,0,0,1,13.07-45.78C46.23,122.1,105.6,80.47,153.59,92,186,99.78,181.92,124.31,235.27,148.65Z"/>
  </g>
</svg>
