<svg xmlns="http://www.w3.org/2000/svg" width="384.93" height="367.21" viewBox="0 0 384.93 367.21">
  <defs>
    <style>
      .cls-1 {
        fill: #333;
      }
    </style>
  </defs>
  <g id="field_field" data-name="field field">
    <g>
      <polygon class="cls-1" points="33.97 215.62 40.06 219.9 65.19 195.19 45.12 205.04 33.97 215.62"/>
      <polygon class="cls-1" points="48.39 223.43 55.97 227.14 88.23 189.62 78.72 191.29 48.39 223.43"/>
      <polygon class="cls-1" points="65.19 231.23 74.41 234.38 107.7 187.76 98.64 187.76 65.19 231.23"/>
      <polygon class="cls-1" points="116.77 187.76 83.77 237.17 94.33 240.51 125.84 187.76 116.77 187.76"/>
      <polygon class="cls-1" points="135.06 187.76 105.47 242.37 116.18 245.16 143.38 187.76 135.06 187.76"/>
      <polygon class="cls-1" points="152.3 187.76 128.22 247.39 140.26 249.62 160.92 187.76 152.3 187.76"/>
      <path class="cls-1" d="M168.89,188.1,152.6,251.84l12.34,2c9.35-42.61,14.35-65.43,14.35-65.43h0Z"/>
      <polygon class="cls-1" points="186.88 189.37 178.04 254.99 191.17 255.91 196.2 189.37 186.88 189.37"/>
      <polygon class="cls-1" points="205.04 190.6 204.42 255.91 218.29 255.91 214.61 191.52 205.04 190.6"/>
      <polygon class="cls-1" points="223.32 192.13 230.81 253.89 244.06 253 232.16 192.13 223.32 192.13"/>
      <polygon class="cls-1" points="241.85 193.2 256.2 250.39 268.84 248.86 250.81 193.2 241.85 193.2"/>
      <polygon class="cls-1" points="260.99 194.38 280.99 246.56 291.79 244.26 269.58 195.04 260.99 194.38"/>
      <polygon class="cls-1" points="279.4 195.66 302.96 240.73 313.75 238.28 288.72 195.66 279.4 195.66"/>
      <polygon class="cls-1" points="298.66 195.66 323.69 234.91 333.39 231.53 307.13 195.66 298.66 195.66"/>
      <polygon class="cls-1" points="317.8 196.73 342.47 228.16 350.57 224.79 327.25 197.8 317.8 196.73"/>
      <polygon class="cls-1" points="341 200.72 358.54 220.47 365.29 217.28 355.23 207.92 341 200.72"/>
      <polygon class="cls-1" points="373.88 173.73 361 197.34 365.78 200.72 378.79 173.73 373.88 173.73"/>
      <polygon class="cls-1" points="367.38 173.73 356.21 195.66 351.18 193.2 362.71 173.73 367.38 173.73"/>
      <polygon class="cls-1" points="357.31 173.73 346.27 191.06 341 190.14 352.41 173.73 357.31 173.73"/>
      <polygon class="cls-1" points="346.64 173.73 336.33 189.22 331.55 188.6 342.96 173.73 346.64 173.73"/>
      <polygon class="cls-1" points="332.28 173.73 321.61 187.22 325.9 187.99 336.33 173.73 332.28 173.73"/>
      <polygon class="cls-1" points="327.01 174.5 316.58 187.22 311.91 187.22 322.96 174.5 327.01 174.5"/>
      <polygon class="cls-1" points="313.75 174.5 303.32 185.38 307.62 186.3 317.8 175.26 313.75 174.5"/>
      <polygon class="cls-1" points="307.99 175.26 299.52 184.69 295.47 184.69 304.55 175.26 307.99 175.26"/>
      <polygon class="cls-1" points="298.66 176.18 291.79 183.7 287.62 183.7 295.47 176.18 298.66 176.18"/>
      <polygon class="cls-1" points="290.07 176.18 283.45 182.93 280.38 182.32 286.51 176.95 290.07 176.18"/>
      <polygon class="cls-1" points="281.81 176.88 276.89 181.43 274 180.85 278.92 176.88 281.81 176.88"/>
      <polygon class="cls-1" points="274 176.88 271.22 179.94 268.44 179.56 271.22 177.16 274 176.88"/>
      <polygon class="cls-1" points="265.03 179.15 267.06 177.16 264.16 177.16 262.72 179.15 265.03 179.15"/>
      <polygon class="cls-1" points="14.22 195.19 23.11 208.38 25.78 206.88 14.78 190.36 14.22 195.19"/>
      <polygon class="cls-1" points="14.22 179.39 30.67 201.6 35.78 197.44 15.11 169.81 14.22 179.39"/>
      <polygon class="cls-1" points="22.45 169.81 40.89 193.55 46.01 190.36 28.34 168.36 22.45 168.36 22.45 169.81"/>
      <polygon class="cls-1" points="34.23 167.31 51.78 188.41 57.45 185.71 40.67 167.31 34.23 167.31"/>
      <polygon class="cls-1" points="47.01 167.31 62.56 183.97 68.31 183.28 52.9 167.31 47.01 167.31"/>
      <polygon class="cls-1" points="58.45 166.75 73.9 181.75 79.01 180.96 64.23 166.75 58.45 166.75"/>
      <polygon class="cls-1" points="69.9 166.75 84.68 180.22 89.24 179.53 75.46 166.75 69.9 166.75"/>
      <polygon class="cls-1" points="80.65 166.36 95.08 179.26 99.94 178.6 86.45 166.36 80.65 166.36"/>
      <polygon class="cls-1" points="91.13 166.36 105.47 178.41 110.57 177.84 96.14 166.36 91.13 166.36"/>
      <polygon class="cls-1" points="101.76 166.36 115.88 178.41 120.97 178.03 106.7 166.36 101.76 166.36"/>
      <polygon class="cls-1" points="111.78 167.21 126.13 178.41 131.3 178.41 117.1 167.21 111.78 167.21"/>
      <polygon class="cls-1" points="121.54 167.21 135.78 178.41 141.24 178.41 126.59 167.21 121.54 167.21"/>
      <polygon class="cls-1" points="131.3 167.88 146.25 178.41 151.12 178.41 136.54 167.88 131.3 167.88"/>
      <polygon class="cls-1" points="140.86 168.36 155.9 179.35 160.92 179.35 145.34 168.36 140.86 168.36"/>
      <polygon class="cls-1" points="150.51 169.77 165.95 179.35 169.49 179.35 154.99 169.77 150.51 169.77"/>
      <polygon class="cls-1" points="159.62 169.77 175.26 180.4 179.29 180.4 164.4 170.63 159.62 169.77"/>
      <polygon class="cls-1" points="168.65 170.82 183.91 180.78 188.17 180.78 172.91 170.82 168.65 170.82"/>
      <polygon class="cls-1" points="178.04 171.39 193.94 182.01 197.81 182.01 182.09 171.39 178.04 171.39"/>
      <polygon class="cls-1" points="186.27 172.15 202.23 182.01 205.63 182.01 191.36 173 186.27 172.15"/>
      <polygon class="cls-1" points="194.77 172.9 195.32 173.24 210.79 182.87 214.36 182.87 199.56 173.66 194.77 172.9"/>
      <polygon class="cls-1" points="203.74 174.22 218.29 183.69 222.87 183.69 208.48 175.09 203.74 174.22"/>
      <polygon class="cls-1" points="212.1 175.08 226.05 183.69 230.36 183.69 216.23 175.8 212.1 175.08"/>
      <polygon class="cls-1" points="221.23 176.26 235.27 184.66 237.51 183.69 224.59 176.7 221.23 176.26"/>
      <polygon class="cls-1" points="229.37 177.16 242.24 184.66 245.47 184.66 232.83 177.88 229.37 177.16"/>
      <polygon class="cls-1" points="237.51 178.41 248.83 185.02 251.85 185.02 241.07 178.95 237.51 178.41"/>
      <polygon class="cls-1" points="245.74 179.38 256.73 186.05 259.55 185.71 248.63 179.94 245.74 179.38"/>
      <polygon class="cls-1" points="253.91 180.46 262.72 186.05 265.45 186.05 257.07 180.91 253.91 180.46"/>
      <polygon class="cls-1" points="261.67 181.72 268.44 186.05 271.56 186.05 264.21 181.72 261.67 181.72"/>
      <polygon class="cls-1" points="269.64 182.93 275.34 186.48 277.61 186.48 272.39 183.26 269.64 182.93"/>
      <polygon class="cls-1" points="277.9 184.25 281.45 186.48 283.38 186.05 279.81 184.25 277.9 184.25"/>
      <polygon class="cls-1" points="285.23 185.02 287.62 187.08 289.83 187.08 287.53 185.37 285.23 185.02"/>
      <path class="cls-1" d="M15.62,144c3.65-2.45,5.11-2.32,5.73-1.62.46.51.51,1.37,1.3,1.87a1.8,1.8,0,0,0,2.11-.06c1-.88.3-2.82.72-4.52,1-4,7.74-5.21,12.24-4.71,2.59.29,6.73.75,8.21,4.13,1,2.28.31,4.81,1.65,5.68.92.6,1.61-.37,3.72.26a2.63,2.63,0,0,1,2,1.42c.31.88-.24,1.62.11,2.13s1.46.29,2.22-.2c1.19-.77,1.1-1.82,2.16-2.9a5.12,5.12,0,0,1,3.46-1.29,5.67,5.67,0,0,1,4.29.71c1.87,1.36,1.66,3.47,3,3.74s2.25-1.47,3.41-.77c.45.26.48.63,1.09.9a2.38,2.38,0,0,0,1.8,0c1.21-.44,1.4-1.42,2.27-2.13,1.78-1.45,5-.67,6.41,1.42.85,1.28.5,2.26,1.34,2.84,1.41,1,3.26-1.23,4.08-.33s-.35,2.65.46,3.68a2,2,0,0,0,2.27.32c1.65-.66,1.57-2.69,3-3.16a2.59,2.59,0,0,1,2.68,1c.69.89.44,1.77,1,2.07.93.49,2.21-1.77,3-1.23.33.23.2.69.62,1.35s1.16.85,1.75,1.17c.79.41,4.64,2.41,6.92.38.6-.53.77-1.06,1.5-1.29a2.19,2.19,0,0,1,2.43.78c.41.6.26,1.12.67,1.48s1.13.19,1.65-.06l10.23,1.16L158,162.44l31.56,4.78,28.71,4.17,15.82,2.83,18.53,2.66,8.69-.62L277,173.73l21.3-3,13.72-1.5c.12-1.6.56-2.19.9-2.44,1.61-1.21,4.39,2.64,6.14,1.31.5-.37.32-.71,1-1.78,1.52-2.47,4.43-3.86,5.47-2.81.68.7.1,2,.9,2.91a2.52,2.52,0,0,0,2.85.37c2.56-1.08,2.36-5,4.5-5.62,1.33-.37,1.63,1.09,3.3.75,1.9-.39,2.39-2.47,3.89-2.25.82.13.83.76,2,1.31a4.5,4.5,0,0,0,3.15.29c2.38-.88,2-4.62,4.27-5.53,1.66-.68,2.43,1.12,4,.37,1.79-.87,1.33-3.58,3.23-5.9,2.2-2.68,5.58-2.42,6.67-2.34a9.25,9.25,0,0,1,7.12,4.22c1.17,1.94.84,3.13,1.8,3.65,1.84,1,3.72-3,7.2-3.56,2.24-.34,4.2.91,5.47,2V167.6l-2.47,2-10,.53-24.25.18L323.1,172l-25.34,1.87-18.36,1.21-16.68,2.8L255.35,179l-7.89-1.07-17.1-2.08-15.07-2.3-18-2.11-17.39-2.11-17.7-2.07-24.48-2.65-36-2.65-36.57-1.65-51,1.65Z"/>
    </g>
  </g>
</svg>
