<svg xmlns="http://www.w3.org/2000/svg" width="384.93" height="367.21" viewBox="0 0 384.93 367.21">
  <defs>
    <style>
      .cls-1 {
        fill: #333;
      }
    </style>
  </defs>
  <g id="oat_1" data-name="oat 1">
    <g>
      <path class="cls-1" d="M48.19,116.5c-1.4,3.37-2.31,3.83-2.74,6-.3,1.52-.25,3.44.21,3.57.74.2,2.66-4,3.35-8.17.28-1.68.42-3.74.17-3.78S48.81,115,48.19,116.5Z"/>
      <path class="cls-1" d="M51.16,113.84c-1.13,3.52-2,4.11-2.26,6.27-.17,1.53.05,3.4.53,3.44.76.08,2.34-4.37,2.68-8.51.13-1.69.1-3.72-.15-3.72S51.66,112.29,51.16,113.84Z"/>
      <path class="cls-1" d="M86.68,96.38c2.31,1.32,3.2.77,4.3,2.08.77.92,1.4,2.53,1.07,3.09-.52.9-3.56-.6-5.56-3.24-.81-1.08-1.65-2.6-1.46-2.88S85.66,95.8,86.68,96.38Z"/>
      <path class="cls-1" d="M82.54,97.43c2.14,1.72,3.06,1.31,4,2.81.68,1.06,1.15,2.78.78,3.3-.58.82-3.41-1.19-5.14-4.19-.7-1.22-1.38-2.89-1.17-3.15S81.6,96.68,82.54,97.43Z"/>
      <path class="cls-1" d="M83,101.61c2.35,2.18,3.41,1.79,4.42,3.62.72,1.29,1.18,3.34.74,3.91-.7.9-3.82-1.7-5.64-5.34-.74-1.48-1.44-3.49-1.2-3.76S81.92,100.64,83,101.61Z"/>
      <path class="cls-1" d="M75.33,91.6a2.65,2.65,0,0,1,2.31-1.19,11,11,0,0,1,2.68.24,25.28,25.28,0,0,1,5.11,1.68A29.68,29.68,0,0,1,90.1,95a52,52,0,0,1,4.27,3.24l.74.62-.87-.34a59.77,59.77,0,0,0-5.89-2.09,22.65,22.65,0,0,0-3-.69,8.13,8.13,0,0,0-3,0,1.81,1.81,0,0,0-.65.26.4.4,0,0,0-.18.22,1.43,1.43,0,0,0-.14.34A4.21,4.21,0,0,0,81.13,98a13.31,13.31,0,0,0,.54,3,55.6,55.6,0,0,0,2.13,5.86c.39,1,.82,1.91,1.14,3a2.44,2.44,0,0,1,.08.45.4.4,0,0,1-.25.43.42.42,0,0,1-.42-.12,4.05,4.05,0,0,1-.56-.65c-.31-.44-.59-.88-.86-1.33-1.08-1.81-2-3.68-3-5.53S78,99.41,77.1,97.52c-.45-.94-.9-1.89-1.29-2.86a12.52,12.52,0,0,1-.49-1.5A2.6,2.6,0,0,1,75.33,91.6Zm0,0a2.47,2.47,0,0,0,0,1.52,11.3,11.3,0,0,0,.52,1.48c.4,1,.87,1.89,1.35,2.82,1,1.85,2,3.67,3,5.5s2,3.65,3.11,5.44c.27.44.55.88.84,1.3a3.77,3.77,0,0,0,.45.54s.09,0-.08,0-.1.14-.12.08a1.51,1.51,0,0,0-.06-.31c-.29-1-.73-1.93-1.11-2.9a48.68,48.68,0,0,1-2.11-5.94A13.74,13.74,0,0,1,80.68,98a5,5,0,0,1,.22-1.62,1.71,1.71,0,0,1,.17-.39.8.8,0,0,1,.31-.37,2.38,2.38,0,0,1,.8-.33,9,9,0,0,1,3.19,0,26.53,26.53,0,0,1,3.08.73,62.33,62.33,0,0,1,5.91,2.16l-.13.27c-1.42-1.2-2.79-2.27-4.26-3.32a30.13,30.13,0,0,0-4.6-2.76,23.87,23.87,0,0,0-5.07-1.72,10.82,10.82,0,0,0-2.66-.26A2.59,2.59,0,0,0,75.38,91.62Z"/>
      <path class="cls-1" d="M55.42,101.75a1,1,0,0,0-.82.12,3,3,0,0,0-.7.52,9.84,9.84,0,0,0-1.18,1.31,30.6,30.6,0,0,0-2,2.93,59.29,59.29,0,0,0-3.28,6.27c-1,2.15-1.81,4.35-2.59,6.58s-1.51,4.45-2.2,6.75l-.29-.14c.67-1.34,1.33-2.68,2-4s1.4-2.65,2.14-4,1.52-2.58,2.36-3.83c.43-.62.87-1.23,1.36-1.81a6.79,6.79,0,0,1,.77-.84,3.32,3.32,0,0,1,.46-.38,1,1,0,0,1,.27-.17,1.26,1.26,0,0,1,.16-.07l.09,0a.37.37,0,0,1,.21,0l-.05,0a1.7,1.7,0,0,1,1.05,1,6.4,6.4,0,0,1,.46,1.24,18.35,18.35,0,0,1,.44,2.53c.2,1.69.27,3.38.31,5.08s0,3.4.15,5a1.33,1.33,0,0,0,0,.26s0,0,0,0,0-.08-.18-.08-.13.08-.13,0a4.36,4.36,0,0,0,.14-.55c.07-.4.13-.82.18-1.23l.26-2.52c.32-3.35.54-6.73.78-10.1.11-1.68.22-3.37.28-5,0-.85.06-1.69,0-2.53,0-.42,0-.84-.1-1.26A1.65,1.65,0,0,0,55.42,101.75Zm0,0a1.75,1.75,0,0,1,.54,1.14c.06.42.1.84.13,1.26,0,.85,0,1.7,0,2.54,0,1.69-.1,3.38-.18,5.07-.16,3.38-.31,6.75-.54,10.13-.07.84-.13,1.69-.24,2.53,0,.42-.1.84-.18,1.27a4,4,0,0,1-.18.67c-.06.06,0,.19-.33.28a.35.35,0,0,1-.31-.18.55.55,0,0,1,0-.13,1.88,1.88,0,0,1-.07-.36c-.15-1.73-.1-3.4-.16-5.09s-.1-3.37-.27-5a18.3,18.3,0,0,0-.41-2.46,5.32,5.32,0,0,0-.41-1.14,1.25,1.25,0,0,0-.73-.73h0c.11,0,.06,0,.06,0h0l-.09,0a1.2,1.2,0,0,0-.21.13,3.21,3.21,0,0,0-.41.34,8,8,0,0,0-.75.79,21.07,21.07,0,0,0-1.34,1.77Q48,116.4,46.9,118.33t-2.17,3.92c-.71,1.31-1.37,2.65-2,4l-.29-.14c.68-2.22,1.44-4.49,2.24-6.7s1.69-4.42,2.69-6.56a70.75,70.75,0,0,1,3.35-6.25,31.47,31.47,0,0,1,2-2.93,12.33,12.33,0,0,1,1.19-1.31,4,4,0,0,1,.72-.53A1.08,1.08,0,0,1,55.45,101.7Z"/>
      <path class="cls-1" d="M66.56,104.07a31.3,31.3,0,0,1-3.27-6.58,19.84,19.84,0,0,1-.89-3.59,9.34,9.34,0,0,1,.12-3.72,3.67,3.67,0,0,1,.93-1.69,3.26,3.26,0,0,1,1.75-.86A8.18,8.18,0,0,1,69,88a19.75,19.75,0,0,1,6.42,3.61l0,0a25.73,25.73,0,0,0-6.54-3.14,7.93,7.93,0,0,0-3.5-.34,2.81,2.81,0,0,0-1.51.69,3.18,3.18,0,0,0-.86,1.46,8.87,8.87,0,0,0-.18,3.56,19,19,0,0,0,.8,3.55,30.84,30.84,0,0,0,3,6.63Z"/>
      <g>
        <path class="cls-1" d="M100.82,131.26c.84,2.11,1.4,1.94,1.64,3.58a7.17,7.17,0,0,1-.15,3.28c-.46.63-1.61-1.93-2-5.15a11.55,11.55,0,0,1-.08-3.23C100.33,129.61,100.45,130.33,100.82,131.26Z"/>
        <path class="cls-1" d="M100.83,131.25a9.27,9.27,0,0,0,1.08,2,4.31,4.31,0,0,1,.72,2.15,9.76,9.76,0,0,1,0,2.29,1,1,0,0,1-.24.59.27.27,0,0,1-.22.08c-.09,0-.13,0-.2-.06a1.06,1.06,0,0,1-.24-.23,4.44,4.44,0,0,1-.56-1,15.83,15.83,0,0,1-1.07-4.44,14.43,14.43,0,0,1,0-2.28,1.94,1.94,0,0,1,.12-.59s.08-.1.15-.05a.28.28,0,0,1,.07.09s0,.09,0,.14l.08.27C100.6,130.53,100.7,130.89,100.83,131.25Zm0,0c-.15-.34-.28-.7-.4-1.06l-.1-.26c0-.09-.15-.18,0-.14a2.07,2.07,0,0,0,0,.52c0,.74.12,1.49.21,2.23a19.11,19.11,0,0,0,1,4.36,4.36,4.36,0,0,0,.5,1c.1.14.24.24.25.18s.14-.27.17-.43a9.74,9.74,0,0,0,.09-2.23,4.15,4.15,0,0,0-.59-2.12A11.59,11.59,0,0,1,100.8,131.26Z"/>
      </g>
      <path class="cls-1" d="M98.27,129.25c.67,2.41,1.21,2.39,1.35,4.14a7.52,7.52,0,0,1-.35,3.36c-.47.54-1.41-2.42-1.59-5.86a12.86,12.86,0,0,1,.12-3.37C97.91,127.41,98,128.19,98.27,129.25Z"/>
      <path class="cls-1" d="M97.27,130.82c.67,2.93,1.27,3,1.37,5.07.06,1.47-.17,3.55-.51,3.9-.54.57-1.5-3-1.58-7.12a15.59,15.59,0,0,1,.24-3.95C96.92,128.61,97,129.53,97.27,130.82Z"/>
      <path class="cls-1" d="M95.38,121.16a.85.85,0,0,1,.92-.43,2.25,2.25,0,0,1,.91.55,9.65,9.65,0,0,1,1.36,1.63,24.19,24.19,0,0,1,2,3.74c.56,1.3,1,2.65,1.47,4s.85,2.73,1.2,4.07l.23.87-.42-.78a45.74,45.74,0,0,0-2.91-4.92,8.72,8.72,0,0,0-1.88-2.08c-.93-.84-1.22.55-1.43,1.37a33.54,33.54,0,0,0-.58,5.67c-.08,1.91-.08,3.82-.13,5.73a14.44,14.44,0,0,1-.08,1.46,1.77,1.77,0,0,1,0,.2.4.4,0,0,1-.09.17s0,.05-.13.06a.2.2,0,0,1-.16,0,.29.29,0,0,1-.08-.11,1.46,1.46,0,0,1-.1-.4c0-.25-.06-.49-.09-.73-.09-.95-.14-1.91-.19-2.87-.11-1.91-.13-3.82-.18-5.73l-.11-5.74c0-.95,0-1.91,0-2.87A7.94,7.94,0,0,1,95.38,121.16Zm0,0A7.54,7.54,0,0,0,95,124c0,1,0,1.91,0,2.87.06,1.91.15,3.82.24,5.73l.29,5.72c.05,1,.1,1.91.18,2.86,0,.23,0,.47.09.7a1.45,1.45,0,0,0,.06.29s0,0,0,0a.15.15,0,0,0-.12,0c-.09,0-.1,0-.1,0s0,0,0,0,0-.09,0-.15c.06-.45.06-.93.08-1.41,0-1.9.08-3.82.18-5.73a34.53,34.53,0,0,1,.63-5.72,5.63,5.63,0,0,1,.49-1.39,1.45,1.45,0,0,1,.23-.34.6.6,0,0,1,.44-.11,1.42,1.42,0,0,1,.71.3,9.23,9.23,0,0,1,1.94,2.16,48.33,48.33,0,0,1,2.89,5l-.19.09c-.37-1.4-.74-2.74-1.15-4.11s-.87-2.7-1.42-4a23.16,23.16,0,0,0-2-3.74,10.1,10.1,0,0,0-1.34-1.64,2.2,2.2,0,0,0-.89-.53A.78.78,0,0,0,95.42,121.18Z"/>
      <path class="cls-1" d="M88.32,129.33a61.34,61.34,0,0,1-.21-6.36,31.42,31.42,0,0,1,.71-6.34,12,12,0,0,1,.47-1.55,2.9,2.9,0,0,1,1-1.37,1.16,1.16,0,0,1,.91-.13,2.27,2.27,0,0,1,.76.43A5.25,5.25,0,0,1,93,115.25a21.51,21.51,0,0,1,2.41,5.91h0a25.88,25.88,0,0,0-2.69-5.7,5.33,5.33,0,0,0-1-1.16c-.37-.31-.86-.52-1.23-.26a2.66,2.66,0,0,0-.84,1.17,10.69,10.69,0,0,0-.49,1.48,31.4,31.4,0,0,0-.82,6.27,61.33,61.33,0,0,0,0,6.36Z"/>
      <path class="cls-1" d="M71.16,131.47c1.06,2.17.65,3,1.68,4,.73.72,2,1.3,2.41,1,.69-.51-.52-3.36-2.6-5.23-.84-.75-2-1.53-2.25-1.35S70.7,130.51,71.16,131.47Z"/>
      <path class="cls-1" d="M72.35,129.47c1.36,2,1.06,2.88,2.24,3.77.83.63,2.18,1.06,2.57.71.63-.57-1-3.22-3.32-4.82-1-.65-2.27-1.28-2.46-1.09S71.75,128.59,72.35,129.47Z"/>
      <path class="cls-1" d="M75.46,129.76c1.73,2.2,1.45,3.21,2.88,4.15,1,.67,2.61,1.09,3,.66.69-.67-1.37-3.6-4.23-5.28-1.16-.68-2.73-1.33-2.94-1.09S74.7,128.79,75.46,129.76Z"/>
      <path class="cls-1" d="M67.37,122.8a2.64,2.64,0,0,0-.85,2.18,12.42,12.42,0,0,0,.23,2.43,24.93,24.93,0,0,0,1.37,4.69,29.73,29.73,0,0,0,2.21,4.36c.85,1.41,1.72,2.74,2.71,4.12l-.25.1c-.59-1.67-1.16-3.33-1.63-5a23.49,23.49,0,0,1-.92-5.23,6.83,6.83,0,0,1,.11-1.35,1.84,1.84,0,0,1,.26-.68l.06-.09.1-.08.15-.1a2,2,0,0,1,.33-.16A4.93,4.93,0,0,1,74,128a26.32,26.32,0,0,1,5,1.9c.79.38,1.58.78,2.38,1.13.19.08.39.16.58.22l.13,0h0s-.06,0-.06,0,0,.14,0,.12a.46.46,0,0,0-.07-.1,7.22,7.22,0,0,0-1-.82c-1.39-1-2.86-2-4.33-3s-3-1.93-4.44-2.85c-.75-.46-1.5-.91-2.29-1.31a7.5,7.5,0,0,0-1.2-.52A1.72,1.72,0,0,0,67.37,122.8Zm0,0a1.72,1.72,0,0,1,1.3,0,10.31,10.31,0,0,1,1.24.49c.79.39,1.56.82,2.32,1.26,1.52.89,3,1.81,4.52,2.73s3,1.85,4.44,2.89a7.12,7.12,0,0,1,1,.89.83.83,0,0,1,.12.17.34.34,0,0,1,0,.42.4.4,0,0,1-.35.1l-.2,0a6.23,6.23,0,0,1-.65-.24c-.81-.36-1.6-.76-2.39-1.13a27.54,27.54,0,0,0-4.86-1.91,4.47,4.47,0,0,0-2.48-.07,1.26,1.26,0,0,0-.46.27,1.58,1.58,0,0,0-.21.55,5.32,5.32,0,0,0-.11,1.27,22.73,22.73,0,0,0,.86,5.15c.44,1.7,1,3.36,1.57,5l.3.87-.55-.77c-.92-1.29-1.83-2.7-2.65-4.11A30,30,0,0,1,68,132.15a27.69,27.69,0,0,1-1.33-4.73,11.81,11.81,0,0,1-.21-2.45A2.7,2.7,0,0,1,67.35,122.76Z"/>
      <path class="cls-1" d="M76.88,114.38a22.7,22.7,0,0,0-5.49-2.94,11.51,11.51,0,0,0-3-.67,4.32,4.32,0,0,0-2.88.61,3.18,3.18,0,0,0-1,2.64,11.15,11.15,0,0,0,.49,3,27.82,27.82,0,0,0,2.4,5.73l0,0a20.42,20.42,0,0,1-2.81-5.62A11.51,11.51,0,0,1,64,114a5.59,5.59,0,0,1,.26-1.61,2.82,2.82,0,0,1,1-1.33,4.62,4.62,0,0,1,3.13-.61,12.23,12.23,0,0,1,3.06.75,22.93,22.93,0,0,1,5.44,3.12Z"/>
      <path class="cls-1" d="M52.78,115.86c-.92,3.54-1.76,4.11-1.89,6.3-.09,1.54.22,3.44.7,3.5.75.1,2.08-4.37,2.19-8.55,0-1.7-.09-3.77-.34-3.77S53.19,114.31,52.78,115.86Z"/>
      <path class="cls-1" d="M114.64,216.92q-4.26-17.21-9.21-34.23t-10.6-33.82c-1.9-5.59-3.86-11.15-5.93-16.69a28.82,28.82,0,0,0-4.12-7.69,73,73,0,0,0-5.55-6.84,110.73,110.73,0,0,0-13-12c-2.29-1.85-4.69-3.58-7.07-5.31a14.35,14.35,0,0,0-1.9-1.09,4.14,4.14,0,0,0-2.07-.48,1.58,1.58,0,0,0-1.34,1.42,6.38,6.38,0,0,0,0,2.18H53.8a6.62,6.62,0,0,1,0-2.22,2.34,2.34,0,0,1,.45-1,1.53,1.53,0,0,1,1-.55,4.41,4.41,0,0,1,2.21.44,12.85,12.85,0,0,1,2,1.06c2.44,1.69,4.86,3.38,7.19,5.21a111.72,111.72,0,0,1,13.21,11.87,70.62,70.62,0,0,1,5.61,6.92,29.54,29.54,0,0,1,4.21,7.87q3,8.32,5.8,16.75c7.44,22.45,13.82,45.24,19.31,68.22Z"/>
    </g>
  </g>
</svg>
