<svg xmlns="http://www.w3.org/2000/svg" width="384.93" height="367.21" viewBox="0 0 384.93 367.21">
  <defs>
    <style>
      .cls-1 {
        fill: #333;
        stroke: #1d1d1b;
        stroke-miterlimit: 10;
        stroke-width: 0.77px;
      }
    </style>
  </defs>
  <g id="box">
    <g>
      <path id="alumine_kasti_osa" data-name="alumine kasti osa" class="cls-1" d="M170.88,318c25.91,5.89,45.7,4.78,67.49,3.55,21.08-1.19,31.43-3.93,40.42-7.82,5.83-2.53,16.26-7.17,25.82-17.42a65.9,65.9,0,0,0,16.51-32.69H105.39a51.13,51.13,0,0,0,8.25,26.3C125.55,307.73,146.51,312.5,170.88,318Z"/>
      <path class="cls-1" d="M321.12,263.66V234.2A354.18,354.18,0,0,1,212.86,251a354.11,354.11,0,0,1-107.47-16.8v29.46a384.63,384.63,0,0,0,109.38,15.43A384.51,384.51,0,0,0,321.12,263.66Z"/>
      <path class="cls-1" d="M321.12,234.2V202.56A542.14,542.14,0,0,1,234.8,213a544.91,544.91,0,0,1-129.41-10.39V234.2A354.11,354.11,0,0,0,212.86,251,354.18,354.18,0,0,0,321.12,234.2Z"/>
    </g>
  </g>
</svg>
