<svg xmlns="http://www.w3.org/2000/svg" width="384.93" height="367.21" viewBox="0 0 384.93 367.21">
  <defs>
    <style>
      .cls-1 {
        fill: #fff;
      }

      .cls-2 {
        fill: #1d1d1b;
      }

      .cls-3 {
        fill: #f3912e;
        stroke: #333;
        stroke-miterlimit: 10;
        stroke-width: 0.25px;
      }
    </style>
  </defs>
  <g id="rye_3" data-name="rye 3">
    <g>
      <g>
        <path class="cls-1" d="M299.72,257.67q3.21-56.33,6.41-112.66"/>
        <polygon class="cls-2" points="299.72 257.67 300.27 243.57 300.93 229.48 302.42 201.31 304.14 173.16 305.08 159.08 306.13 145.01 305.58 159.11 304.92 173.2 303.44 201.37 301.71 229.53 300.77 243.6 299.72 257.67"/>
      </g>
      <path class="cls-2" d="M303.46,147.31A190,190,0,0,1,294,122.79a219.76,219.76,0,0,1-6.24-25.55,229.29,229.29,0,0,1-3-26.12q-.39-6.57-.41-13.15c0-4.38.14-8.77.38-13.14A258.62,258.62,0,0,0,285,71.1a228,228,0,0,0,3.17,26.06,219,219,0,0,0,6.08,25.54q1.92,6.29,4.22,12.44T303.46,147.31Z"/>
      <path class="cls-2" d="M306.83,147.57a196.25,196.25,0,0,1-8.54-25,218.1,218.1,0,0,1-5.23-25.91,225.87,225.87,0,0,1-2-26.36q-.1-6.61.15-13.22c.2-4.4.53-8.79,1-13.17a258.05,258.05,0,0,0-.61,26.38,238.31,238.31,0,0,0,2.16,26.28,230,230,0,0,0,5.07,25.87q1.64,6.39,3.66,12.67T306.83,147.57Z"/>
      <path class="cls-2" d="M306.3,146.67q-1.91-6.24-3.48-12.57c-1-4.23-1.93-8.49-2.75-12.76-1.62-8.55-2.8-17.18-3.65-25.84s-1.15-17.38-1.16-26.08q0-6.53.24-13.05c.19-4.34.49-8.68.86-13q-.42,6.51-.59,13t-.14,13q.12,13,1.35,26c.78,8.66,1.9,17.28,3.46,25.83q1.17,6.42,2.65,12.77C304.05,138.27,305.12,142.49,306.3,146.67Z"/>
      <path class="cls-2" d="M306.19,154.37c-2.44-8.27-4.46-16.68-6.09-25.16s-2.9-17-3.88-25.6-1.53-17.2-1.84-25.83-.31-17.26,0-25.89q-.3,12.95.2,25.88t1.95,25.8c.94,8.58,2.17,17.12,3.77,25.6S303.88,146.06,306.19,154.37Z"/>
      <path class="cls-2" d="M304.89,149.69q-1.62-6.47-2.84-13t-2-13.16A228.86,228.86,0,0,1,298.39,97c0-4.44.12-8.88.39-13.31s.64-8.85,1.16-13.26,1.14-8.8,1.91-13.17,1.7-8.7,2.73-13a247.77,247.77,0,0,0-4.36,26.23q-.74,6.6-1.08,13.24c-.25,4.43-.33,8.86-.32,13.29a228.46,228.46,0,0,0,1.52,26.53c.5,4.4,1.15,8.79,1.91,13.15S303.88,145.37,304.89,149.69Z"/>
      <path class="cls-2" d="M306.4,154q2.67-6,5-12.17t4.22-12.44a219,219,0,0,0,6.08-25.54,228,228,0,0,0,3.17-26.06,255.75,255.75,0,0,0,.31-26.27c.25,4.37.38,8.76.39,13.14s-.16,8.77-.41,13.15a231.57,231.57,0,0,1-3,26.12,219.76,219.76,0,0,1-6.24,25.55A190,190,0,0,1,306.4,154Z"/>
      <path class="cls-2" d="M305.74,152.54a252.56,252.56,0,0,0,7.49-24.94c2.06-8.44,3.65-17,4.88-25.58s2.09-17.24,2.53-25.91.52-17.37.25-26q.3,6.51.32,13t-.32,13q-.58,13-2.39,26c-1.28,8.6-2.91,17.15-5,25.58A218.34,218.34,0,0,1,305.74,152.54Z"/>
      <path class="cls-2" d="M303.15,144.62a197.6,197.6,0,0,0,7.63-24.21,184,184,0,0,0,4.3-25c.45-4.2.76-8.43.9-12.65s.17-8.47,0-12.69a193,193,0,0,0-2.55-25.26q1.17,6.25,1.91,12.57c.47,4.21.77,8.44.94,12.67s.2,8.48.05,12.72-.4,8.47-.83,12.69a182.85,182.85,0,0,1-4.46,25c-1,4.12-2.2,8.19-3.51,12.22S304.75,140.7,303.15,144.62Z"/>
      <path class="cls-2" d="M306.29,146.76q3.56-25.27,4.89-50.79.72-12.73,1-25.5T312.29,45c.37,17,0,34-.87,51S308.87,129.94,306.29,146.76Z"/>
      <path class="cls-2" d="M302.45,150.05q3.56-25.28,4.89-50.79.74-12.75,1-25.5t.12-25.52c.37,17,0,34-.86,51S305,133.22,302.45,150.05Z"/>
      <path class="cls-2" d="M303.46,147.31l1-24.93c.36-8.31.58-16.63.73-24.94q.52-24.94.41-49.9.18,24.95-.27,49.9c-.17,8.32-.41,16.63-.8,24.94Z"/>
      <path class="cls-3" d="M305.6,144.91c1,.48,7-8.39,5.9-9.38-.55-.51-3.05.89-4.39,2.83a8.72,8.72,0,0,0-1.25,3.15C305.68,142.27,305.1,144.68,305.6,144.91Z"/>
      <path class="cls-3" d="M298.49,134.2c.91-.7,8.67,6.61,7.84,7.82-.42.62-3.16-.18-4.9-1.77a8.85,8.85,0,0,1-1.93-2.79C299.15,136.76,298.05,134.54,298.49,134.2Z"/>
      <path class="cls-3" d="M305.21,142.24c1.06.44,6.66-8.65,5.54-9.6-.56-.48-3,1-4.27,3a8.54,8.54,0,0,0-1.13,3.19C305.19,139.6,304.7,142,305.21,142.24Z"/>
      <path class="cls-3" d="M299,136.83c.91-.7,8.68,6.61,7.85,7.82-.42.61-3.17-.19-4.91-1.78a8.75,8.75,0,0,1-1.92-2.79C299.69,139.38,298.59,137.16,299,136.83Z"/>
      <path class="cls-3" d="M298.49,131.43c.91-.7,8.67,6.62,7.84,7.83-.42.61-3.16-.19-4.9-1.78a8.63,8.63,0,0,1-1.93-2.79C299.15,134,298.05,131.77,298.49,131.43Z"/>
      <path class="cls-3" d="M304.45,139c1.06.44,6.66-8.65,5.54-9.6-.56-.48-3,1-4.27,3a8.75,8.75,0,0,0-1.14,3.19C304.43,136.35,303.94,138.78,304.45,139Z"/>
      <path class="cls-3" d="M298.94,127.06c1-.59,7.91,7.52,6.95,8.63-.49.57-3.13-.53-4.69-2.3a8.87,8.87,0,0,1-1.61-3C299.32,129.68,298.47,127.35,298.94,127.06Z"/>
      <path class="cls-3" d="M304.45,135.78c1.06.44,6.66-8.64,5.54-9.59-.56-.48-3,1-4.27,3a8.81,8.81,0,0,0-1.14,3.19C304.43,133.14,303.94,135.57,304.45,135.78Z"/>
      <path class="cls-3" d="M299.31,123.77c1-.59,7.91,7.52,6.95,8.63-.49.57-3.13-.53-4.68-2.3a8.53,8.53,0,0,1-1.61-3C299.7,126.39,298.84,124.06,299.31,123.77Z"/>
      <path class="cls-3" d="M304.45,133c1.06.44,6.66-8.64,5.54-9.59-.56-.48-3,1-4.27,3a8.81,8.81,0,0,0-1.14,3.19C304.43,130.34,303.94,132.77,304.45,133Z"/>
      <path class="cls-3" d="M299.57,121c1-.59,7.91,7.52,6.95,8.63-.49.57-3.13-.53-4.68-2.3a8.53,8.53,0,0,1-1.61-3C300,123.66,299.1,121.33,299.57,121Z"/>
      <path class="cls-3" d="M304.2,128.78c1.06.44,6.66-8.64,5.54-9.59-.57-.49-3,1-4.27,3a8.75,8.75,0,0,0-1.14,3.19C304.18,126.14,303.69,128.57,304.2,128.78Z"/>
      <path class="cls-3" d="M299.31,116.64c1-.6,7.91,7.52,6.95,8.63-.49.56-3.13-.53-4.68-2.3a8.53,8.53,0,0,1-1.61-3C299.7,119.25,298.84,116.93,299.31,116.64Z"/>
      <path class="cls-3" d="M304.45,125.11c1.06.44,6.66-8.65,5.54-9.6-.56-.48-3,1-4.27,3a8.86,8.86,0,0,0-1.14,3.2C304.43,122.46,303.94,124.9,304.45,125.11Z"/>
      <path class="cls-3" d="M299.31,113.36c1-.59,7.91,7.52,6.95,8.63-.49.57-3.13-.53-4.68-2.3a8.53,8.53,0,0,1-1.61-3C299.7,116,298.84,113.65,299.31,113.36Z"/>
      <path class="cls-3" d="M304.2,122.13c1.06.44,6.66-8.65,5.54-9.6-.57-.48-3,1-4.27,3a8.86,8.86,0,0,0-1.14,3.2C304.18,119.48,303.69,121.92,304.2,122.13Z"/>
      <path class="cls-3" d="M299.34,109.76c1-.59,7.86,7.58,6.89,8.68-.49.56-3.12-.55-4.67-2.33a8.92,8.92,0,0,1-1.59-3C299.71,112.38,298.87,110.05,299.34,109.76Z"/>
      <path class="cls-3" d="M304.13,117.75c1.06.44,6.66-8.65,5.54-9.6-.57-.48-3,1-4.28,3a8.54,8.54,0,0,0-1.13,3.19C304.11,115.11,303.62,117.54,304.13,117.75Z"/>
      <path class="cls-3" d="M300.11,105.62c1.06-.42,6.5,8.76,5.37,9.7-.58.47-3-1.06-4.22-3.07a8.75,8.75,0,0,1-1.08-3.21C300,108.27,299.59,105.83,300.11,105.62Z"/>
      <path class="cls-3" d="M303.66,113.84c1.06.43,6.66-8.65,5.55-9.6-.57-.48-3,1-4.28,3a8.64,8.64,0,0,0-1.13,3.2C303.64,111.19,303.15,113.62,303.66,113.84Z"/>
      <path class="cls-3" d="M300.11,100.73c1.06-.42,6.5,8.76,5.37,9.69-.58.47-3-1.06-4.22-3.07a8.75,8.75,0,0,1-1.08-3.21C300,103.37,299.59,100.93,300.11,100.73Z"/>
      <path class="cls-3" d="M303.88,109.58c1.06.44,6.66-8.65,5.54-9.6-.57-.48-3,1-4.27,3a8.75,8.75,0,0,0-1.14,3.19C303.86,106.94,303.37,109.37,303.88,109.58Z"/>
      <path class="cls-3" d="M300.75,97c1.07-.42,6.51,8.76,5.37,9.69-.57.47-3-1.06-4.22-3.07a8.75,8.75,0,0,1-1.08-3.21C300.68,99.6,300.24,97.16,300.75,97Z"/>
      <path class="cls-3" d="M304.2,104.89c1.06.44,6.66-8.64,5.54-9.6-.57-.48-3,1-4.27,3a8.75,8.75,0,0,0-1.14,3.19C304.18,102.25,303.69,104.68,304.2,104.89Z"/>
      <path class="cls-3" d="M301.33,92.8c1.07-.42,6.51,8.76,5.37,9.69-.57.48-3-1-4.22-3.06a8.74,8.74,0,0,1-1.08-3.22C301.26,95.44,300.82,93,301.33,92.8Z"/>
      <path class="cls-3" d="M304.45,100.91c1.06.44,6.66-8.65,5.54-9.6-.56-.48-3,1-4.27,3a8.86,8.86,0,0,0-1.14,3.2C304.43,98.26,303.94,100.7,304.45,100.91Z"/>
      <path class="cls-3" d="M301.58,88.8c1.07-.42,6.51,8.76,5.37,9.69-.57.47-3-1-4.22-3.07a8.64,8.64,0,0,1-1.08-3.21C301.51,91.44,301.07,89,301.58,88.8Z"/>
      <path class="cls-3" d="M304.45,97c1.06.44,6.66-8.64,5.54-9.6-.56-.48-3,1-4.27,3a8.75,8.75,0,0,0-1.14,3.19C304.43,94.39,303.94,96.82,304.45,97Z"/>
      <path class="cls-3" d="M300.38,83.81c1-.55,7.6,7.83,6.6,8.9-.51.55-3.1-.65-4.59-2.48a8.84,8.84,0,0,1-1.49-3C300.66,86.44,299.9,84.08,300.38,83.81Z"/>
      <path class="cls-3" d="M305.33,91.56c1.06.43,6.66-8.65,5.54-9.6-.56-.48-3,1-4.27,3a8.64,8.64,0,0,0-1.13,3.2C305.31,88.91,304.82,91.34,305.33,91.56Z"/>
      <path class="cls-3" d="M301.33,79.81c1.07-.42,6.51,8.76,5.37,9.69-.57.47-3-1.06-4.22-3.07a8.75,8.75,0,0,1-1.08-3.21C301.26,82.45,300.82,80,301.33,79.81Z"/>
      <path class="cls-3" d="M304.45,87.9c1.06.44,6.66-8.65,5.54-9.6-.56-.48-3,1-4.27,3a8.75,8.75,0,0,0-1.14,3.19C304.43,85.26,303.94,87.69,304.45,87.9Z"/>
      <path class="cls-3" d="M301.58,74.72c1.07-.42,6.51,8.76,5.37,9.69-.57.47-3-1.06-4.22-3.07a8.75,8.75,0,0,1-1.08-3.21C301.51,77.36,301.07,74.92,301.58,74.72Z"/>
      <path class="cls-3" d="M304.45,83.83c1.06.44,6.66-8.65,5.54-9.6-.56-.48-3,1-4.27,3a8.75,8.75,0,0,0-1.14,3.19C304.43,81.19,303.94,83.62,304.45,83.83Z"/>
      <path class="cls-3" d="M302.08,71.58c1.07-.42,6.51,8.76,5.37,9.69-.57.48-3-1-4.22-3.06A8.74,8.74,0,0,1,302.15,75C302,74.22,301.57,71.78,302.08,71.58Z"/>
    </g>
  </g>
</svg>
