<svg xmlns="http://www.w3.org/2000/svg" width="384.93" height="367.21" viewBox="0 0 384.93 367.21">
  <defs>
    <style>
      .cls-1 {
        fill: #333;
      }
    </style>
  </defs>
  <g id="oat_2" data-name="oat 2">
    <g>
      <path class="cls-1" d="M124,224.38q-4.23-29-9.05-58t-10.24-57.79Q102,94.18,99.07,79.79c-1-4.79-1.95-9.59-3-14.35a100.12,100.12,0,0,0-4.77-13.77,161.22,161.22,0,0,0-13.7-25.83c-.67-1-1.31-2.06-2-3.07l-2.1-3c-1.36-2-2.87-3.95-4.32-5.92-.74-1-1.43-2-2.24-2.88a10.19,10.19,0,0,0-1.31-1.24,2.61,2.61,0,0,0-1.57-.64,1.66,1.66,0,0,0-1.28,1,6.72,6.72,0,0,0-.56,1.71,20,20,0,0,0-.34,3.63h-.1a20.59,20.59,0,0,1,.25-3.67A7.18,7.18,0,0,1,62.6,10a1.9,1.9,0,0,1,1.46-1.17,3,3,0,0,1,1.78.66,10.33,10.33,0,0,1,1.39,1.25c.85.9,1.57,1.89,2.33,2.85,1.48,1.95,3,3.86,4.41,5.88l2.14,3c.7,1,1.36,2,2,3A160.3,160.3,0,0,1,92.24,51.28a99.67,99.67,0,0,1,4.82,13.93c1,4.8,2,9.59,3,14.39q2.86,14.4,5.5,28.84,10.62,57.75,18.6,115.93Z"/>
      <path class="cls-1" d="M49.36,30.7c-2.79,3.6-4.15,3.53-5.3,6.19-.81,1.87-1.24,4.58-.64,5.11.94.84,4.68-3.57,6.7-8.77.82-2.12,1.56-4.87,1.23-5.11S50.6,29.11,49.36,30.7Z"/>
      <path class="cls-1" d="M53.55,29.11c-2.46,4-3.81,4.16-4.72,7-.64,2-.83,4.75-.19,5.18C49.65,42,53,37,54.53,31.5c.63-2.22,1.12-5.07.77-5.27S54.64,27.34,53.55,29.11Z"/>
      <path class="cls-1" d="M54.77,33.5c-2.62,4.83-4.17,5.11-5.07,8.43-.64,2.34-.72,5.54,0,6,1.19.71,4.75-5.29,6.27-11.74.61-2.63,1-5.95.63-6.15S55.93,31.37,54.77,33.5Z"/>
      <path class="cls-1" d="M106.78,28.7c2.36,3.6,3.5,3.53,4.47,6.18.68,1.88,1,4.58.54,5.11-.8.84-3.94-3.57-5.64-8.77-.7-2.11-1.32-4.86-1-5.11S105.75,27.11,106.78,28.7Z"/>
      <path class="cls-1" d="M103.3,27c2.21,4,3.46,4.12,4.26,6.92.57,2,.72,4.73.13,5.17-.94.7-3.94-4.23-5.31-9.69-.55-2.22-1-5.06-.65-5.25S102.32,25.22,103.3,27Z"/>
      <path class="cls-1" d="M100.64,30.13c2.2,4.76,3.55,5,4.28,8.29.51,2.32.52,5.5-.15,6-1.06.73-4.07-5.17-5.27-11.57-.49-2.6-.79-5.9-.43-6.1S99.67,28,100.64,30.13Z"/>
      <path class="cls-1" d="M93,13.56a2,2,0,0,1,2.11-.4,8.23,8.23,0,0,1,2,.88,25,25,0,0,1,3.6,2.6,60.06,60.06,0,0,1,6.32,6.24A77,77,0,0,1,112.46,30c1.67,2.42,3.28,5,4.74,7.46l1,1.66-1.31-1.36c-1.27-1.32-2.52-2.67-3.83-3.95-.64-.65-1.3-1.29-2-1.92s-1.32-1.26-2-1.86a49.65,49.65,0,0,0-4.25-3.45,18.33,18.33,0,0,0-2.3-1.43,7.52,7.52,0,0,0-1.22-.51,2.78,2.78,0,0,0-.61-.13h-.29c-.06,0-.22.07-.13,0h0l0,0a4.8,4.8,0,0,0-1.09,3.1,23.51,23.51,0,0,0,0,3.56c.16,2.39.5,4.77.89,7.14s.84,4.73,1.18,7.15q.06.45.09.93a2.33,2.33,0,0,1,0,.56.7.7,0,0,1-.11.25.48.48,0,0,1-.57.13.72.72,0,0,1-.21-.16l-.1-.13a9.68,9.68,0,0,1-.75-1.76c-.4-1.15-.74-2.31-1.08-3.47-1.3-4.66-2.41-9.34-3.53-14-.55-2.35-1.09-4.7-1.58-7.06-.24-1.19-.47-2.37-.62-3.57a15.57,15.57,0,0,1-.13-1.81A2.9,2.9,0,0,1,93,13.56Zm.06,0a2.75,2.75,0,0,0-.38,1.7,15.26,15.26,0,0,0,.16,1.79c.17,1.19.42,2.37.67,3.55.55,2.34,1.17,4.67,1.8,7,1.29,4.64,2.51,9.31,3.87,13.92.33,1.16.68,2.31,1.06,3.44a10.44,10.44,0,0,0,.66,1.57l0,.05s0,0,0,0a.3.3,0,0,0-.37.09s0,.06,0,0a1.68,1.68,0,0,0,0-.34c0-.28,0-.57-.08-.87-.33-2.36-.8-4.74-1.17-7.12s-.69-4.79-.83-7.22a26.33,26.33,0,0,1,0-3.66,9,9,0,0,1,.35-1.84,3.46,3.46,0,0,1,1-1.69l0,0a1,1,0,0,1,.52-.18h.4a4.31,4.31,0,0,1,.73.17,6.63,6.63,0,0,1,1.31.56,18.43,18.43,0,0,1,2.36,1.49,46.68,46.68,0,0,1,4.27,3.52c.69.61,1.36,1.25,2,1.89s1.32,1.29,2,1.95c1.3,1.29,2.54,2.65,3.81,4l-.33.3c-1.53-2.62-3.07-5.08-4.7-7.56A77.84,77.84,0,0,0,106.92,23a55.14,55.14,0,0,0-6.23-6.28,26.75,26.75,0,0,0-3.57-2.61,8.8,8.8,0,0,0-2-.89A2,2,0,0,0,93.08,13.61Z"/>
      <path class="cls-1" d="M62.58,15.91a2,2,0,0,0-2-.36,8.25,8.25,0,0,0-2,.88A26.75,26.75,0,0,0,55,19a56,56,0,0,0-6.23,6.28,77.88,77.88,0,0,0-5.24,7.14c-1.64,2.48-3.18,4.93-4.7,7.55l-.33-.29c1.26-1.34,2.5-2.7,3.81-4,.64-.66,1.29-1.31,2-1.95s1.32-1.27,2-1.89a48.07,48.07,0,0,1,4.27-3.52,18.43,18.43,0,0,1,2.36-1.49,6.71,6.71,0,0,1,1.32-.56,3.9,3.9,0,0,1,.73-.17h.4a.91.91,0,0,1,.53.2l0,0a3.48,3.48,0,0,1,1,1.69,9.76,9.76,0,0,1,.34,1.84,23.56,23.56,0,0,1,0,3.66c-.14,2.43-.46,4.83-.83,7.22s-.84,4.77-1.17,7.13c0,.29-.07.58-.08.86a3,3,0,0,0,0,.34s0,0,0,0a.29.29,0,0,0-.36-.09s0,0,0,0l0,0a9.63,9.63,0,0,0,.66-1.57c.39-1.13.73-2.28,1.06-3.43,1.36-4.62,2.59-9.28,3.87-13.93.63-2.33,1.26-4.66,1.8-7,.26-1.18.5-2.36.68-3.55A13.37,13.37,0,0,0,63,17.61,2.75,2.75,0,0,0,62.58,15.91Zm.06-.05a2.85,2.85,0,0,1,.43,1.75,15.57,15.57,0,0,1-.13,1.81c-.15,1.2-.38,2.39-.62,3.57-.48,2.36-1,4.72-1.58,7.06-1.11,4.7-2.23,9.39-3.53,14-.33,1.16-.68,2.32-1.07,3.48a9.9,9.9,0,0,1-.75,1.75l-.1.13a1,1,0,0,1-.21.17.5.5,0,0,1-.58-.14.7.7,0,0,1-.11-.25,1.86,1.86,0,0,1,0-.56,9.19,9.19,0,0,1,.08-.93c.34-2.42.81-4.77,1.18-7.15s.74-4.75.9-7.14a24.88,24.88,0,0,0,0-3.56,4.8,4.8,0,0,0-1.09-3.1l0,0a.13.13,0,0,0,.06.05h0l0,0-.12,0H55a3.42,3.42,0,0,0-.62.13,7.07,7.07,0,0,0-1.21.51,19.19,19.19,0,0,0-2.31,1.43,48,48,0,0,0-4.24,3.45c-.69.6-1.36,1.23-2,1.86s-1.32,1.27-2,1.92c-1.31,1.28-2.56,2.63-3.83,4l-1.31,1.36,1-1.66c1.47-2.48,3.08-5,4.74-7.46a78.51,78.51,0,0,1,5.38-7.08,60,60,0,0,1,6.31-6.24,27,27,0,0,1,3.6-2.6,8.56,8.56,0,0,1,2-.88A2.05,2.05,0,0,1,62.64,15.86Z"/>
      <path class="cls-1" d="M77.8,24.12A64.29,64.29,0,0,1,75.14,13a33.39,33.39,0,0,1-.33-5.74,17.6,17.6,0,0,1,.3-2.89,7.9,7.9,0,0,1,1-2.77l.2-.33L76.58,1l.27-.29a2.7,2.7,0,0,1,.33-.22l.34-.22.39-.12A2.4,2.4,0,0,1,78.7,0a6.5,6.5,0,0,1,2.9.82,20,20,0,0,1,4.59,3.57,46.15,46.15,0,0,1,6.89,9.17l-.06,0A67.36,67.36,0,0,0,85.64,5,22.74,22.74,0,0,0,81.23,1.5,5.81,5.81,0,0,0,78.71.7a2.35,2.35,0,0,0-2.07,1.22,7.28,7.28,0,0,0-1,2.55,18.5,18.5,0,0,0-.35,2.79,33.62,33.62,0,0,0,.22,5.67,63.64,63.64,0,0,0,2.34,11.16Z"/>
      <path class="cls-1" d="M114.92,86.37c.58,3.57,1.39,3.77,1.29,6.23-.06,1.73-.58,4.1-1.07,4.43-.79.52-1.69-3.92-1.38-8.68.13-1.94.49-4.4.74-4.54S114.66,84.79,114.92,86.37Z"/>
      <path class="cls-1" d="M112.76,83.58c.28,3.86,1,4.24.75,6.78-.2,1.8-.87,4.16-1.36,4.4-.78.38-1.28-4.44-.62-9.36.26-2,.79-4.49,1-4.58S112.64,81.88,112.76,83.58Z"/>
      <path class="cls-1" d="M110.57,86.82c.14,4.58,1,5.11.53,8.08-.3,2.09-1.15,4.8-1.71,5-.89.37-1.24-5.37-.29-11.09.39-2.33,1.09-5.21,1.38-5.3S110.51,84.8,110.57,86.82Z"/>
      <path class="cls-1" d="M111.14,70.38a.91.91,0,0,1,.82-.21,1.74,1.74,0,0,1,.72.47,6.15,6.15,0,0,1,1,1.4A22,22,0,0,1,115,75.16a51.8,51.8,0,0,1,1.77,6.57c.44,2.22.74,4.47,1,6.73s.45,4.53.58,6.75l.09,1.57-.4-1.5c-.35-1.29-.66-2.6-1-3.88s-.75-2.58-1.17-3.85-.89-2.52-1.43-3.74a13.93,13.93,0,0,0-.93-1.75,5.54,5.54,0,0,0-.58-.77,2.68,2.68,0,0,0-.34-.27c-.1-.1-.3-.08-.24-.11h0a3.16,3.16,0,0,0-.92,1.13,12.83,12.83,0,0,0-.66,1.4c-.38,1-.7,2-1,3-.57,2-1,4.07-1.48,6.12s-.85,4.12-1.33,6.19c-.06.26-.12.52-.2.78a3.84,3.84,0,0,1-.14.4l0,.12,0,.06a.5.5,0,0,1-.13.12c-.08,0-.06.08-.22.07a.47.47,0,0,1-.2-.1c0-.06,0,0,0-.08a.52.52,0,0,1-.06-.18,9,9,0,0,1,.06-1.66c.09-1,.23-2.1.36-3.15.56-4.18,1.29-8.33,2-12.5.35-2.08.7-4.15,1.1-6.23.2-1,.41-2.07.66-3.09.13-.51.27-1,.44-1.52A3.73,3.73,0,0,1,111.14,70.38Zm0,.05a3.41,3.41,0,0,0-.7,1.38c-.16.49-.29,1-.41,1.52-.23,1-.42,2.06-.6,3.1-.35,2.07-.65,4.16-1,6.24q-.9,6.27-1.72,12.53c-.14,1-.27,2.08-.37,3.13a9.74,9.74,0,0,0-.06,1.5s0,0,0,0,0,0,0,0a.23.23,0,0,0-.16-.08c-.13,0-.09,0-.14,0a.1.1,0,0,0-.06.05l0,0,0-.06c0-.1.08-.22.11-.34s.14-.5.2-.75l1.35-6.17c.46-2.06,1-4.12,1.55-6.15.3-1,.63-2,1-3a13.7,13.7,0,0,1,.69-1.45,3.58,3.58,0,0,1,1.09-1.28h0a.68.68,0,0,1,.71.09,1.88,1.88,0,0,1,.43.35,4.61,4.61,0,0,1,.63.84,15.59,15.59,0,0,1,1,1.81,39.16,39.16,0,0,1,1.41,3.79c.42,1.28.8,2.57,1.15,3.86s.68,2.61,1,3.91l-.3.06c-.13-2.3-.3-4.52-.51-6.79s-.49-4.5-.89-6.72a48.08,48.08,0,0,0-1.72-6.57,22.39,22.39,0,0,0-1.31-3.12,6.31,6.31,0,0,0-1-1.38,1.62,1.62,0,0,0-.69-.46A.83.83,0,0,0,111.18,70.43Z"/>
      <path class="cls-1" d="M99.38,76.3a83.64,83.64,0,0,1,1.44-9.17,33.78,33.78,0,0,1,3-8.81,5.66,5.66,0,0,1,1.53-1.87,3.05,3.05,0,0,1,.61-.27,1.38,1.38,0,0,1,.7,0,2.35,2.35,0,0,1,1.08.72,12.25,12.25,0,0,1,2,4.27,41.71,41.71,0,0,1,1.4,9.2h-.06a60.69,60.69,0,0,0-1.89-9,11.78,11.78,0,0,0-1.91-4.06c-.46-.55-1.1-.86-1.68-.42a5.26,5.26,0,0,0-1.42,1.66,34.19,34.19,0,0,0-3.13,8.64,82.6,82.6,0,0,0-1.66,9.12Z"/>
      <path class="cls-1" d="M76.79,66.48c.87,3.82.08,4.69,1.21,6.9.8,1.56,2.36,3.32,3,3.22,1.07-.17.18-5.06-2.16-9.24-1-1.71-2.37-3.7-2.71-3.61S76.41,64.79,76.79,66.48Z"/>
      <path class="cls-1" d="M78.75,63.83c1.32,3.83.68,4.81,2,7,1,1.51,2.68,3.14,3.32,3,1-.29-.48-5.21-3.26-9.24C79.73,62.86,78.11,61,77.8,61.1S78.17,62.14,78.75,63.83Z"/>
      <path class="cls-1" d="M83.18,67.08c1.77,4.38,1.12,5.56,2.82,8,1.2,1.7,3.27,3.51,4,3.25,1.11-.4-.92-6-4.36-10.57-1.4-1.84-3.36-3.94-3.71-3.78S82.4,65.15,83.18,67.08Z"/>
      <path class="cls-1" d="M74,50.71a1.69,1.69,0,0,0-1.34,1.16,6.74,6.74,0,0,0-.5,1.82,21.91,21.91,0,0,0-.21,3.8,48,48,0,0,0,.77,7.56,67,67,0,0,0,1.87,7.38c.76,2.44,1.55,4.81,2.45,7.25l-.38.06c-.19-1.57-.42-3.14-.57-4.71s-.3-3.15-.38-4.73a44.45,44.45,0,0,1,0-4.76,17.74,17.74,0,0,1,.3-2.39A6.55,6.55,0,0,1,76.3,62a3.75,3.75,0,0,1,.28-.57c.17-.19.19-.37.62-.52h0a2.92,2.92,0,0,1,1.67.25,9.11,9.11,0,0,1,1.41.78,21.27,21.27,0,0,1,2.43,2c1.53,1.42,2.94,2.95,4.32,4.49s2.69,3.17,4.07,4.67c.18.19.35.37.53.53a1.62,1.62,0,0,0,.23.17s0,0-.1,0a.25.25,0,0,0-.15.08s-.06.14-.07.12,0,0,0,0a9.15,9.15,0,0,0-.69-1.3c-.54-.87-1.11-1.73-1.69-2.58-2.31-3.42-4.73-6.78-7.1-10.17-1.19-1.69-2.39-3.37-3.65-5-.63-.81-1.28-1.62-2-2.38a14.14,14.14,0,0,0-1.1-1.09A2.44,2.44,0,0,0,74,50.71Zm0-.06a2.46,2.46,0,0,1,1.39.67,12.78,12.78,0,0,1,1.13,1.08c.7.76,1.36,1.56,2,2.36,1.3,1.61,2.56,3.26,3.81,4.91,2.5,3.3,5,6.6,7.36,10,.58.86,1.16,1.72,1.71,2.61a8.57,8.57,0,0,1,.75,1.45.74.74,0,0,1,0,.34c0,.09-.15.35-.33.34a.46.46,0,0,1-.28,0,1.81,1.81,0,0,1-.4-.28c-.21-.19-.39-.38-.57-.57-1.42-1.55-2.72-3.14-4.09-4.69s-2.73-3.08-4.22-4.5a21.7,21.7,0,0,0-2.35-1.95,4.09,4.09,0,0,0-2.65-1h0c.08,0-.05.05-.08.09a1.39,1.39,0,0,0-.15.19,3.62,3.62,0,0,0-.25.48,8,8,0,0,0-.32,1.09,16,16,0,0,0-.3,2.31,41.11,41.11,0,0,0,0,4.71c.06,1.57.18,3.14.34,4.71s.35,3.13.53,4.7l.19,1.62-.57-1.56c-.84-2.34-1.66-4.8-2.36-7.23a67.94,67.94,0,0,1-1.76-7.43,54,54,0,0,1-.71-7.6A22.1,22.1,0,0,1,72,53.68a6.91,6.91,0,0,1,.52-1.84A1.74,1.74,0,0,1,74,50.65Z"/>
      <path class="cls-1" d="M89.12,46.35A54.33,54.33,0,0,0,83,38.69a29.46,29.46,0,0,0-3.64-3.25,15.55,15.55,0,0,0-2-1.29,6.35,6.35,0,0,0-2.22-.75,2,2,0,0,0-1.92.74,5,5,0,0,0-.83,2.12,19.73,19.73,0,0,0-.1,4.8A57.84,57.84,0,0,0,74,50.67l-.07,0a40.06,40.06,0,0,1-2.32-9.57,17.78,17.78,0,0,1,.12-5,5.65,5.65,0,0,1,1-2.37,2,2,0,0,1,.5-.47l.29-.2.33-.12.33-.1.34,0a1.83,1.83,0,0,1,.66,0,6.76,6.76,0,0,1,2.39.85,15.21,15.21,0,0,1,2.07,1.38,28.1,28.1,0,0,1,3.62,3.36,55.6,55.6,0,0,1,5.91,7.85Z"/>
    </g>
  </g>
</svg>
