<svg xmlns="http://www.w3.org/2000/svg" width="384.93" height="367.21" viewBox="0 0 384.93 367.21">
  <defs>
    <style>
      .cls-1 {
        fill: #fff;
      }

      .cls-2 {
        fill: #1d1d1b;
      }

      .cls-3 {
        fill: #f3912e;
        stroke: #333;
        stroke-miterlimit: 10;
        stroke-width: 0.25px;
      }
    </style>
  </defs>
  <g id="rye_1" data-name="rye 1">
    <g>
      <g>
        <path class="cls-1" d="M275.47,240.22q3.21-56.33,6.41-112.65"/>
        <polygon class="cls-2" points="275.47 240.22 276.02 226.13 276.68 212.04 278.17 183.87 279.89 155.71 280.83 141.64 281.88 127.57 281.33 141.67 280.67 155.76 279.19 183.93 277.46 212.08 276.52 226.16 275.47 240.22"/>
      </g>
      <path class="cls-2" d="M279.21,129.87a189.62,189.62,0,0,1-9.45-24.53,219.6,219.6,0,0,1-6.24-25.54,229.46,229.46,0,0,1-3-26.13c-.26-4.37-.4-8.76-.41-13.14s.14-8.77.38-13.14a258.69,258.69,0,0,0,.32,26.27A228.28,228.28,0,0,0,264,79.72,219.46,219.46,0,0,0,270,105.26q1.92,6.28,4.22,12.44T279.21,129.87Z"/>
      <path class="cls-2" d="M282.58,130.13a196.39,196.39,0,0,1-8.54-25,217.3,217.3,0,0,1-5.23-25.91,225.7,225.7,0,0,1-2-26.35q-.1-6.61.15-13.22c.2-4.4.53-8.79,1-13.18a258.25,258.25,0,0,0-.61,26.39,237.93,237.93,0,0,0,2.16,26.27A230.16,230.16,0,0,0,274.52,105q1.64,6.39,3.66,12.67T282.58,130.13Z"/>
      <path class="cls-2" d="M282.05,129.23q-1.91-6.24-3.48-12.57c-1-4.23-1.93-8.49-2.75-12.76-1.62-8.55-2.8-17.19-3.65-25.85S271,60.68,271,52q0-6.52.24-13c.19-4.35.49-8.69.86-13q-.42,6.51-.59,13t-.14,13q.12,13.05,1.35,26c.78,8.65,1.9,17.28,3.46,25.83q1.17,6.4,2.65,12.76T282.05,129.23Z"/>
      <path class="cls-2" d="M281.94,136.93q-3.66-12.42-6.09-25.16c-1.63-8.48-2.9-17-3.88-25.6s-1.53-17.2-1.84-25.83-.31-17.27,0-25.89q-.3,12.94.2,25.88t1.95,25.8c.94,8.57,2.17,17.12,3.77,25.6S279.63,128.62,281.94,136.93Z"/>
      <path class="cls-2" d="M280.64,132.24q-1.62-6.45-2.84-13t-2-13.16a229,229,0,0,1-1.66-26.56c0-4.44.12-8.88.39-13.31s.64-8.85,1.16-13.26,1.14-8.8,1.91-13.17,1.7-8.71,2.73-13A248,248,0,0,0,276,53q-.74,6.61-1.08,13.25c-.25,4.43-.33,8.86-.32,13.29a228.16,228.16,0,0,0,1.52,26.52c.5,4.41,1.15,8.79,1.91,13.16S279.63,127.92,280.64,132.24Z"/>
      <path class="cls-2" d="M282.15,136.53q2.67-6,5-12.17t4.22-12.44a219.46,219.46,0,0,0,6.08-25.54,228.28,228.28,0,0,0,3.17-26.06,255.82,255.82,0,0,0,.31-26.27q.38,6.56.39,13.14c0,4.38-.16,8.77-.41,13.14a231.75,231.75,0,0,1-3,26.13A219.6,219.6,0,0,1,291.6,112,189.62,189.62,0,0,1,282.15,136.53Z"/>
      <path class="cls-2" d="M281.49,135.1A251.94,251.94,0,0,0,289,110.15c2.06-8.43,3.65-17,4.88-25.57s2.09-17.24,2.53-25.92.52-17.36.25-26q.3,6.51.32,13t-.32,13q-.58,13-2.39,25.95c-1.28,8.6-2.91,17.15-5,25.59A219,219,0,0,1,281.49,135.1Z"/>
      <path class="cls-2" d="M278.9,127.18A198.14,198.14,0,0,0,286.53,103a184.25,184.25,0,0,0,4.3-25q.68-6.31.91-12.66c.16-4.22.16-8.46,0-12.69a192.68,192.68,0,0,0-2.55-25.25q1.17,6.24,1.91,12.56c.47,4.22.77,8.45.94,12.68s.2,8.48.05,12.72-.4,8.47-.83,12.69a182.85,182.85,0,0,1-4.46,25c-1,4.11-2.2,8.18-3.51,12.22S280.5,123.25,278.9,127.18Z"/>
      <path class="cls-2" d="M282,129.32q3.56-25.27,4.89-50.79.72-12.73,1-25.5T288,27.51c.37,17,0,34-.87,51S284.62,112.5,282,129.32Z"/>
      <path class="cls-2" d="M278.2,132.6q3.56-25.27,4.89-50.79.74-12.74,1-25.49t.12-25.52c.37,17,0,34-.86,51S280.78,115.78,278.2,132.6Z"/>
      <path class="cls-2" d="M279.21,129.87l1-24.94c.36-8.3.58-16.62.73-24.94q.52-24.94.41-49.9.18,25-.27,49.91c-.17,8.31-.41,16.63-.8,24.94Z"/>
      <path class="cls-3" d="M281.35,127.47c1,.47,7-8.39,5.9-9.39-.55-.5-3.05.9-4.39,2.84a8.61,8.61,0,0,0-1.25,3.14C281.43,124.83,280.85,127.24,281.35,127.47Z"/>
      <path class="cls-3" d="M274.24,116.76c.91-.7,8.67,6.61,7.84,7.82-.42.61-3.16-.19-4.9-1.78a8.63,8.63,0,0,1-1.93-2.79C274.9,119.31,273.8,117.09,274.24,116.76Z"/>
      <path class="cls-3" d="M281,124.8c1.06.43,6.66-8.65,5.54-9.6-.56-.48-3,1-4.27,3a8.64,8.64,0,0,0-1.13,3.2C280.94,122.15,280.45,124.58,281,124.8Z"/>
      <path class="cls-3" d="M274.77,119.38c.91-.7,8.68,6.62,7.85,7.83-.42.61-3.17-.19-4.91-1.78a8.75,8.75,0,0,1-1.92-2.79C275.44,121.94,274.34,119.72,274.77,119.38Z"/>
      <path class="cls-3" d="M274.24,114c.91-.7,8.67,6.61,7.84,7.82-.42.62-3.16-.18-4.9-1.78a8.71,8.71,0,0,1-1.93-2.78C274.9,116.55,273.8,114.33,274.24,114Z"/>
      <path class="cls-3" d="M280.2,121.54c1.06.44,6.66-8.64,5.54-9.59-.56-.48-3,1-4.27,3a8.86,8.86,0,0,0-1.14,3.2C280.18,118.9,279.69,121.33,280.2,121.54Z"/>
      <path class="cls-3" d="M274.69,109.62c1-.6,7.91,7.52,6.95,8.63-.49.56-3.13-.53-4.69-2.3a8.87,8.87,0,0,1-1.61-3C275.07,112.23,274.22,109.91,274.69,109.62Z"/>
      <path class="cls-3" d="M280.2,118.34c1.06.44,6.66-8.64,5.54-9.6-.56-.48-3,1-4.27,3a8.75,8.75,0,0,0-1.14,3.19C280.18,115.7,279.69,118.13,280.2,118.34Z"/>
      <path class="cls-3" d="M275.06,106.33c1-.6,7.91,7.52,6.95,8.63-.49.56-3.13-.53-4.68-2.3a8.53,8.53,0,0,1-1.61-3C275.45,108.94,274.59,106.62,275.06,106.33Z"/>
      <path class="cls-3" d="M280.2,115.54c1.06.44,6.66-8.65,5.54-9.6-.56-.48-3,1-4.27,3a8.75,8.75,0,0,0-1.14,3.19C280.18,112.9,279.69,115.33,280.2,115.54Z"/>
      <path class="cls-3" d="M275.32,103.6c1-.6,7.91,7.52,6.95,8.63-.49.56-3.13-.53-4.68-2.3a8.53,8.53,0,0,1-1.61-3C275.71,106.21,274.85,103.89,275.32,103.6Z"/>
      <path class="cls-3" d="M280,111.34c1.06.44,6.66-8.65,5.54-9.6-.57-.48-3,1-4.27,3a8.86,8.86,0,0,0-1.14,3.2C279.93,108.69,279.44,111.13,280,111.34Z"/>
      <path class="cls-3" d="M275.06,99.2c1-.6,7.91,7.52,6.95,8.63-.49.56-3.13-.53-4.68-2.3a8.65,8.65,0,0,1-1.61-3C275.45,101.81,274.59,99.48,275.06,99.2Z"/>
      <path class="cls-3" d="M280.2,107.66c1.06.44,6.66-8.64,5.54-9.59-.56-.48-3,1-4.27,3a8.81,8.81,0,0,0-1.14,3.19C280.18,105,279.69,107.45,280.2,107.66Z"/>
      <path class="cls-3" d="M275.06,95.92c1-.6,7.91,7.52,6.95,8.63-.49.56-3.13-.53-4.68-2.3a8.53,8.53,0,0,1-1.61-3C275.45,98.53,274.59,96.21,275.06,95.92Z"/>
      <path class="cls-3" d="M280,104.68c1.06.44,6.66-8.64,5.54-9.59-.57-.48-3,1-4.27,3a8.81,8.81,0,0,0-1.14,3.19C279.93,102,279.44,104.47,280,104.68Z"/>
      <path class="cls-3" d="M275.09,92.32c1-.59,7.86,7.57,6.89,8.68-.49.56-3.12-.55-4.67-2.33a9,9,0,0,1-1.59-3C275.46,94.94,274.62,92.6,275.09,92.32Z"/>
      <path class="cls-3" d="M279.88,100.31c1.06.43,6.66-8.65,5.54-9.6-.57-.48-3,1-4.28,3A8.64,8.64,0,0,0,280,96.9C279.86,97.66,279.37,100.09,279.88,100.31Z"/>
      <path class="cls-3" d="M275.86,88.18c1.06-.42,6.5,8.76,5.37,9.69-.58.47-3-1.05-4.22-3.07a8.64,8.64,0,0,1-1.08-3.21C275.79,90.82,275.34,88.38,275.86,88.18Z"/>
      <path class="cls-3" d="M279.41,96.39c1.06.44,6.66-8.64,5.55-9.59-.57-.49-3,1-4.28,3A8.6,8.6,0,0,0,279.55,93C279.39,93.75,278.9,96.18,279.41,96.39Z"/>
      <path class="cls-3" d="M275.86,83.29c1.06-.42,6.5,8.76,5.37,9.69-.58.47-3-1.06-4.22-3.07a8.75,8.75,0,0,1-1.08-3.21C275.79,85.93,275.34,83.49,275.86,83.29Z"/>
      <path class="cls-3" d="M279.63,92.13c1.06.44,6.66-8.64,5.54-9.59-.57-.48-3,1-4.27,3a8.86,8.86,0,0,0-1.14,3.2C279.61,89.49,279.12,91.92,279.63,92.13Z"/>
      <path class="cls-3" d="M276.5,79.51c1.07-.42,6.51,8.76,5.37,9.69-.57.48-3-1-4.22-3.06a8.74,8.74,0,0,1-1.08-3.22C276.43,82.15,276,79.71,276.5,79.51Z"/>
      <path class="cls-3" d="M280,87.45c1.06.44,6.66-8.65,5.54-9.6-.57-.48-3,1-4.27,3a8.86,8.86,0,0,0-1.14,3.2C279.93,84.8,279.44,87.24,280,87.45Z"/>
      <path class="cls-3" d="M277.08,75.36c1.07-.42,6.51,8.76,5.37,9.69-.57.47-3-1.06-4.22-3.07a8.75,8.75,0,0,1-1.08-3.21C277,78,276.57,75.56,277.08,75.36Z"/>
      <path class="cls-3" d="M280.2,83.46c1.06.44,6.66-8.64,5.54-9.59-.56-.48-3,1-4.27,3a8.81,8.81,0,0,0-1.14,3.19C280.18,80.82,279.69,83.25,280.2,83.46Z"/>
      <path class="cls-3" d="M277.33,71.36c1.07-.42,6.51,8.76,5.37,9.69-.57.47-3-1.06-4.22-3.07a8.75,8.75,0,0,1-1.08-3.21C277.26,74,276.82,71.56,277.33,71.36Z"/>
      <path class="cls-3" d="M280.2,79.59c1.06.44,6.66-8.65,5.54-9.6-.56-.48-3,1-4.27,3a8.86,8.86,0,0,0-1.14,3.2C280.18,76.94,279.69,79.38,280.2,79.59Z"/>
      <path class="cls-3" d="M276.13,66.37c1-.56,7.6,7.83,6.6,8.9-.51.54-3.1-.65-4.59-2.49a8.8,8.8,0,0,1-1.49-3C276.41,69,275.65,66.64,276.13,66.37Z"/>
      <path class="cls-3" d="M281.08,74.11c1.06.44,6.66-8.64,5.54-9.59-.56-.49-3,1-4.27,3a8.6,8.6,0,0,0-1.13,3.19C281.06,71.47,280.57,73.9,281.08,74.11Z"/>
      <path class="cls-3" d="M277.08,62.36c1.07-.42,6.51,8.76,5.37,9.7-.57.47-3-1.06-4.22-3.07a8.75,8.75,0,0,1-1.08-3.21C277,65,276.57,62.57,277.08,62.36Z"/>
      <path class="cls-3" d="M280.2,70.45c1.06.44,6.66-8.64,5.54-9.59-.56-.48-3,1-4.27,3A8.81,8.81,0,0,0,280.33,67C280.18,67.81,279.69,70.24,280.2,70.45Z"/>
      <path class="cls-3" d="M277.33,57.28c1.07-.42,6.51,8.76,5.37,9.69-.57.47-3-1.06-4.22-3.07a8.75,8.75,0,0,1-1.08-3.21C277.26,59.92,276.82,57.48,277.33,57.28Z"/>
      <path class="cls-3" d="M280.2,66.38c1.06.44,6.66-8.64,5.54-9.59-.56-.48-3,1-4.27,3A8.81,8.81,0,0,0,280.33,63C280.18,63.74,279.69,66.17,280.2,66.38Z"/>
      <path class="cls-3" d="M277.83,54.14c1.07-.42,6.51,8.76,5.37,9.69-.57.47-3-1.06-4.22-3.07a8.75,8.75,0,0,1-1.08-3.21C277.76,56.78,277.32,54.34,277.83,54.14Z"/>
    </g>
  </g>
</svg>
