<svg xmlns="http://www.w3.org/2000/svg" width="384.93" height="367.21" viewBox="0 0 384.93 367.21">
  <defs>
    <style>
      .cls-1 {
        fill: #fff;
      }

      .cls-2 {
        fill: #1d1d1b;
      }

      .cls-3 {
        fill: #f3912e;
        stroke: #333;
        stroke-miterlimit: 10;
        stroke-width: 0.25px;
      }
    </style>
  </defs>
  <g id="rye_2" data-name="rye 2">
    <g>
      <g>
        <g>
          <path class="cls-1" d="M286.56,282.13q3.21-56.32,6.41-112.65"/>
          <polygon class="cls-2" points="286.56 282.13 287.11 268.04 287.77 253.94 289.25 225.78 290.98 197.62 291.92 183.54 292.97 169.48 292.42 183.57 291.76 197.66 290.28 225.83 288.55 253.99 287.61 268.06 286.56 282.13"/>
        </g>
        <path class="cls-2" d="M290.3,171.77a190,190,0,0,1-9.45-24.52,219.26,219.26,0,0,1-6.24-25.55,229.29,229.29,0,0,1-3-26.12q-.39-6.57-.41-13.15c0-4.38.14-8.76.38-13.14a261.56,261.56,0,0,0,.31,26.27A233,233,0,0,0,275,121.63a222,222,0,0,0,6.09,25.54q1.9,6.29,4.22,12.44T290.3,171.77Z"/>
        <path class="cls-2" d="M293.67,172a196.25,196.25,0,0,1-8.54-25,217.7,217.7,0,0,1-5.23-25.91,225.71,225.71,0,0,1-2-26.36q-.11-6.6.15-13.21c.2-4.4.53-8.8,1-13.18a258.05,258.05,0,0,0-.61,26.38A238.31,238.31,0,0,0,280.54,121a230,230,0,0,0,5.07,25.87q1.63,6.39,3.66,12.67C290.6,163.78,292.08,167.93,293.67,172Z"/>
        <path class="cls-2" d="M293.14,171.14q-1.9-6.24-3.48-12.58c-1-4.23-1.93-8.48-2.75-12.76-1.62-8.55-2.8-17.18-3.65-25.84s-1.15-17.38-1.16-26.08q0-6.52.24-13c.19-4.34.49-8.68.86-13q-.42,6.51-.59,13t-.14,13q.12,13,1.34,26c.79,8.65,1.91,17.27,3.47,25.82q1.17,6.42,2.65,12.77C290.88,162.74,292,167,293.14,171.14Z"/>
        <path class="cls-2" d="M293,178.84c-2.44-8.28-4.46-16.69-6.09-25.16s-2.91-17-3.88-25.61-1.53-17.2-1.84-25.83-.31-17.26,0-25.89q-.3,12.95.2,25.88T283.4,128c.94,8.57,2.17,17.11,3.77,25.59S290.72,170.52,293,178.84Z"/>
        <path class="cls-2" d="M291.72,174.15q-1.61-6.45-2.83-13t-2-13.16a228.86,228.86,0,0,1-1.66-26.56c0-4.43.12-8.87.39-13.3s.64-8.86,1.16-13.26,1.14-8.8,1.9-13.17,1.71-8.71,2.74-13a247.16,247.16,0,0,0-4.36,26.22q-.74,6.6-1.08,13.25c-.25,4.42-.33,8.85-.32,13.28A228.33,228.33,0,0,0,287.18,148c.5,4.4,1.15,8.79,1.91,13.15S290.72,169.83,291.72,174.15Z"/>
        <path class="cls-2" d="M293.24,178.43q2.67-6,5-12.16t4.22-12.44a222,222,0,0,0,6.08-25.54,230.72,230.72,0,0,0,3.17-26.07A255.75,255.75,0,0,0,312,76q.38,6.57.39,13.14c0,4.39-.16,8.77-.41,13.15a231.57,231.57,0,0,1-3,26.12,219.26,219.26,0,0,1-6.24,25.55A190,190,0,0,1,293.24,178.43Z"/>
        <path class="cls-2" d="M292.58,177a252.56,252.56,0,0,0,7.49-24.94c2.06-8.44,3.65-17,4.88-25.57s2.08-17.25,2.52-25.92.53-17.37.26-26q.3,6.51.32,13t-.32,13c-.39,8.68-1.2,17.35-2.39,26s-2.91,17.15-5,25.58A217.72,217.72,0,0,1,292.58,177Z"/>
        <path class="cls-2" d="M290,169.08a197.6,197.6,0,0,0,7.63-24.21,184,184,0,0,0,4.3-25c.45-4.2.76-8.42.9-12.65s.17-8.46,0-12.69a192.68,192.68,0,0,0-2.55-25.25q1.17,6.24,1.91,12.56c.47,4.21.77,8.44.94,12.68s.2,8.47.05,12.71-.4,8.47-.84,12.69a181.73,181.73,0,0,1-4.45,25c-1,4.11-2.21,8.18-3.51,12.21S291.59,165.16,290,169.08Z"/>
        <path class="cls-2" d="M293.13,171.22q3.56-25.28,4.89-50.78.72-12.75,1-25.5t.12-25.52c.37,17,0,34-.87,51S295.71,154.4,293.13,171.22Z"/>
        <path class="cls-2" d="M289.29,174.51q3.56-25.27,4.89-50.79.74-12.73,1-25.5t.12-25.52c.37,17,0,34-.87,51S291.87,157.69,289.29,174.51Z"/>
        <path class="cls-2" d="M290.3,171.77l1-24.93c.36-8.31.58-16.62.72-24.94q.54-24.95.42-49.9.18,24.94-.27,49.9c-.17,8.32-.41,16.63-.8,24.94Z"/>
        <path class="cls-3" d="M292.44,169.37c1.05.48,7-8.39,5.9-9.38-.55-.5-3,.89-4.39,2.83A8.72,8.72,0,0,0,292.7,166C292.52,166.73,291.94,169.14,292.44,169.37Z"/>
        <path class="cls-3" d="M285.33,158.66c.9-.7,8.67,6.62,7.84,7.83-.42.61-3.16-.19-4.9-1.78a8.63,8.63,0,0,1-1.93-2.79C286,161.22,284.89,159,285.33,158.66Z"/>
        <path class="cls-3" d="M292.05,166.7c1.06.44,6.66-8.64,5.54-9.59-.56-.49-3,1-4.27,3a8.81,8.81,0,0,0-1.14,3.19C292,164.06,291.54,166.49,292.05,166.7Z"/>
        <path class="cls-3" d="M285.86,161.29c.91-.7,8.68,6.61,7.85,7.82-.42.62-3.17-.18-4.91-1.78a8.66,8.66,0,0,1-1.92-2.78C286.53,163.85,285.42,161.63,285.86,161.29Z"/>
      </g>
      <path class="cls-3" d="M285.33,155.9c.9-.7,8.67,6.61,7.84,7.82-.42.61-3.16-.19-4.9-1.78a8.63,8.63,0,0,1-1.93-2.79C286,158.45,284.89,156.23,285.33,155.9Z"/>
      <path class="cls-3" d="M291.29,163.45c1.06.44,6.66-8.64,5.54-9.59-.57-.49-3,1-4.27,3a8.75,8.75,0,0,0-1.14,3.19C291.27,160.81,290.78,163.24,291.29,163.45Z"/>
      <path class="cls-3" d="M285.78,151.53c1-.6,7.91,7.52,7,8.63-.49.56-3.13-.53-4.69-2.3a8.88,8.88,0,0,1-1.61-3C286.16,154.14,285.31,151.81,285.78,151.53Z"/>
      <path class="cls-3" d="M291.29,160.25c1.06.43,6.66-8.65,5.54-9.6-.57-.48-3,1-4.27,3a8.86,8.86,0,0,0-1.14,3.2C291.27,157.6,290.78,160,291.29,160.25Z"/>
      <path class="cls-3" d="M286.15,148.24c1-.6,7.91,7.52,7,8.63-.49.56-3.13-.53-4.69-2.3a9,9,0,0,1-1.61-3C286.53,150.85,285.68,148.52,286.15,148.24Z"/>
      <path class="cls-3" d="M291.29,157.45c1.06.43,6.66-8.65,5.54-9.6-.57-.48-3,1-4.27,3a8.86,8.86,0,0,0-1.14,3.2C291.27,154.8,290.78,157.23,291.29,157.45Z"/>
      <path class="cls-3" d="M286.41,145.51c1-.6,7.91,7.52,6.95,8.63-.49.56-3.13-.53-4.68-2.3a8.7,8.7,0,0,1-1.61-3C286.8,148.12,285.94,145.79,286.41,145.51Z"/>
      <path class="cls-3" d="M291,153.24c1.06.44,6.66-8.64,5.54-9.59-.57-.48-3,1-4.27,3a8.81,8.81,0,0,0-1.14,3.19C291,150.6,290.53,153,291,153.24Z"/>
      <path class="cls-3" d="M286.15,141.1c1-.6,7.91,7.52,7,8.63-.49.57-3.13-.53-4.69-2.3a8.87,8.87,0,0,1-1.61-3C286.53,143.72,285.68,141.39,286.15,141.1Z"/>
      <path class="cls-3" d="M291.29,149.57c1.06.44,6.66-8.65,5.54-9.6-.57-.48-3,1-4.27,3a8.75,8.75,0,0,0-1.14,3.19C291.27,146.93,290.78,149.36,291.29,149.57Z"/>
      <path class="cls-3" d="M286.15,137.83c1-.6,7.91,7.51,7,8.63-.49.56-3.13-.53-4.69-2.31a8.87,8.87,0,0,1-1.61-3C286.53,140.44,285.68,138.11,286.15,137.83Z"/>
      <path class="cls-3" d="M291,146.59c1.06.44,6.66-8.65,5.54-9.6-.57-.48-3,1-4.27,3a8.75,8.75,0,0,0-1.14,3.19C291,144,290.53,146.38,291,146.59Z"/>
      <path class="cls-3" d="M286.18,134.23c1-.59,7.86,7.57,6.89,8.67-.49.56-3.12-.55-4.67-2.33a8.92,8.92,0,0,1-1.59-3C286.55,136.84,285.71,134.51,286.18,134.23Z"/>
      <path class="cls-3" d="M291,142.21c1.06.44,6.65-8.64,5.54-9.59-.57-.49-3,1-4.28,3a8.6,8.6,0,0,0-1.13,3.19C290.94,139.57,290.46,142,291,142.21Z"/>
      <path class="cls-3" d="M287,130.09c1.06-.42,6.5,8.76,5.37,9.69-.58.47-3-1.06-4.22-3.07A8.75,8.75,0,0,1,287,133.5C286.88,132.73,286.43,130.29,287,130.09Z"/>
      <path class="cls-3" d="M290.5,138.3c1.06.44,6.66-8.65,5.54-9.6-.56-.48-3,1-4.27,3a8.54,8.54,0,0,0-1.13,3.19C290.48,135.66,290,138.09,290.5,138.3Z"/>
      <path class="cls-3" d="M287,125.19c1.06-.42,6.5,8.76,5.37,9.69-.58.47-3-1-4.22-3.07A8.64,8.64,0,0,1,287,128.6C286.88,127.83,286.43,125.39,287,125.19Z"/>
      <path class="cls-3" d="M290.72,134c1.06.44,6.66-8.64,5.54-9.59-.57-.49-3,1-4.27,3a8.75,8.75,0,0,0-1.14,3.19C290.7,131.4,290.21,133.83,290.72,134Z"/>
      <path class="cls-3" d="M287.59,121.42c1.07-.42,6.51,8.76,5.37,9.69-.57.47-3-1.06-4.22-3.07a8.75,8.75,0,0,1-1.08-3.21C287.52,124.06,287.08,121.62,287.59,121.42Z"/>
      <path class="cls-3" d="M291,129.35c1.06.44,6.66-8.64,5.54-9.59-.57-.48-3,1-4.27,3a8.81,8.81,0,0,0-1.14,3.19C291,126.71,290.53,129.14,291,129.35Z"/>
      <path class="cls-3" d="M288.17,117.26c1.07-.42,6.51,8.77,5.37,9.7-.57.47-3-1.06-4.22-3.07a8.75,8.75,0,0,1-1.08-3.21C288.1,119.91,287.66,117.47,288.17,117.26Z"/>
      <path class="cls-3" d="M291.29,125.37c1.06.44,6.66-8.65,5.54-9.6-.57-.48-3,1-4.27,3a8.75,8.75,0,0,0-1.14,3.19C291.27,122.73,290.78,125.16,291.29,125.37Z"/>
      <path class="cls-3" d="M288.42,113.26c1.07-.42,6.51,8.76,5.37,9.69-.57.48-3-1-4.22-3.06a8.74,8.74,0,0,1-1.08-3.22C288.35,115.9,287.91,113.47,288.42,113.26Z"/>
      <path class="cls-3" d="M291.29,121.49c1.06.44,6.66-8.64,5.54-9.59-.57-.48-3,1-4.27,3a8.81,8.81,0,0,0-1.14,3.19C291.27,118.85,290.78,121.28,291.29,121.49Z"/>
      <path class="cls-3" d="M287.22,108.28c1-.56,7.6,7.82,6.6,8.9-.51.54-3.1-.66-4.59-2.49a8.7,8.7,0,0,1-1.49-3C287.5,110.9,286.74,108.54,287.22,108.28Z"/>
      <path class="cls-3" d="M292.17,116c1.06.44,6.66-8.65,5.54-9.6-.56-.48-3,1-4.27,3a8.75,8.75,0,0,0-1.14,3.19C292.15,113.38,291.66,115.81,292.17,116Z"/>
      <path class="cls-3" d="M288.17,104.27c1.07-.42,6.51,8.76,5.37,9.69-.57.47-3-1-4.22-3.07a8.64,8.64,0,0,1-1.08-3.21C288.1,106.91,287.66,104.47,288.17,104.27Z"/>
      <path class="cls-3" d="M291.29,112.36c1.06.44,6.66-8.64,5.54-9.59-.57-.49-3,1-4.27,3a8.75,8.75,0,0,0-1.14,3.19C291.27,109.72,290.78,112.15,291.29,112.36Z"/>
      <path class="cls-3" d="M288.42,99.18c1.07-.42,6.51,8.76,5.37,9.69-.57.48-3-1.05-4.22-3.06a8.74,8.74,0,0,1-1.08-3.22C288.35,101.82,287.91,99.38,288.42,99.18Z"/>
      <path class="cls-3" d="M291.29,108.29c1.06.44,6.66-8.64,5.54-9.59-.57-.49-3,1-4.27,3a8.75,8.75,0,0,0-1.14,3.19C291.27,105.65,290.78,108.08,291.29,108.29Z"/>
      <path class="cls-3" d="M288.92,96.05c1.07-.43,6.51,8.76,5.37,9.69-.57.47-3-1.06-4.22-3.07A8.75,8.75,0,0,1,289,99.46C288.85,98.69,288.41,96.25,288.92,96.05Z"/>
    </g>
  </g>
</svg>
