<svg xmlns="http://www.w3.org/2000/svg" width="384.93" height="367.21" viewBox="0 0 384.93 367.21">
  <defs>
    <style>
      .cls-1 {
        fill: #618084;
        stroke: #333;
        stroke-miterlimit: 10;
        stroke-width: 0.11px;
      }
    </style>
  </defs>
  <g id="backround">
    <path class="cls-1" d="M20,35.64c7.22-18.18,167-11.77,282.93,78.32,32.66,25.37,77.39,61.18,80.95,116.43.45,7,2.87,59.13-40.86,96.34C300.31,363,228.33,372.66,195,347.52c-22.48-16.94-11.42-37.61-40.86-63.76-2.59-2.31-40.16-34.91-73.24-26-36,9.73-38,60.93-53.19,59.93-16.37-1.09-42-62.23-20-116.44,22.1-54.65,76.75-63.36,74.79-99.1C80.29,63.59,15.17,47.7,20,35.64Z"/>
  </g>
</svg>
