<svg xmlns="http://www.w3.org/2000/svg" width="384.93" height="367.21" viewBox="0 0 384.93 367.21">
  <defs>
    <style>
      .cls-1 {
        fill: #333;
      }
    </style>
  </defs>
  <g id="oat_3" data-name="oat 3">
    <g>
      <path class="cls-1" d="M132.85,223.75q4.8-24,9.1-48t8.1-48.16q1.88-12.06,3.59-24.15c.57-4,1.15-8.08,1.66-12.08a84.79,84.79,0,0,0,.06-12.14c-.22-4-.66-8.08-1.26-12.1s-1.38-8-2.37-11.95-2.07-7.86-3.31-11.73a23.7,23.7,0,0,0-1-2.87,7.88,7.88,0,0,0-.73-1.3,1.66,1.66,0,0,0-1.1-.81,1.54,1.54,0,0,0-1.13.76,7.39,7.39,0,0,0-.73,1.32,19.5,19.5,0,0,0-1,2.88l-.08,0a20.13,20.13,0,0,1,.91-2.92,6.86,6.86,0,0,1,.71-1.37,1.73,1.73,0,0,1,1.29-.88,1.9,1.9,0,0,1,1.32.88,7.49,7.49,0,0,1,.79,1.34,25.53,25.53,0,0,1,1.08,2.87c1.29,3.86,2.48,7.76,3.46,11.72s1.82,8,2.53,12,1.14,8.09,1.41,12.16a83.77,83.77,0,0,1-.07,12.27c-.51,4.07-1.09,8.07-1.67,12.11q-1.77,12.09-3.74,24.14-7.78,48.24-17.78,96.06Z"/>
      <path class="cls-1" d="M128.06,51.45c-3.22,2-4.27,1.61-5.92,3.37-1.16,1.24-2.26,3.24-1.94,3.82.51.92,4.69-1.49,7.74-5,1.24-1.43,2.6-3.38,2.41-3.67S129.47,50.54,128.06,51.45Z"/>
      <path class="cls-1" d="M131.78,51.43c-3.07,2.46-4.18,2.2-5.68,4.15-1.06,1.38-2,3.48-1.6,4,.61.82,4.62-2.15,7.38-6,1.12-1.57,2.3-3.66,2.09-3.91S133.13,50.34,131.78,51.43Z"/>
      <path class="cls-1" d="M131.74,55c-3.51,2.95-4.8,2.69-6.51,5-1.21,1.63-2.25,4.07-1.8,4.65.72.91,5.32-2.66,8.46-7.2,1.28-1.84,2.62-4.29,2.36-4.56S133.29,53.71,131.74,55Z"/>
      <path class="cls-1" d="M174.22,66.28c.85,3.48,1.78,3.74,1.8,6.09,0,1.65-.46,3.88-1,4.15-.87.44-2.12-3.89-2-8.43,0-1.85.32-4.18.61-4.29S173.85,64.75,174.22,66.28Z"/>
      <path class="cls-1" d="M170.58,62.88c.82,3.83,1.85,4.32,1.78,6.78-.05,1.73-.67,3.94-1.3,4.1-1,.26-2.22-4.55-1.91-9.27.12-1.92.53-4.29.86-4.34S170.22,61.2,170.58,62.88Z"/>
      <path class="cls-1" d="M168.39,66.06c.37,4.32,1.35,4.87,1,7.64-.26,2-1.15,4.45-1.8,4.63-1,.28-1.71-5.14-.83-10.47.35-2.16,1-4.83,1.38-4.89S168.22,64.16,168.39,66.06Z"/>
      <path class="cls-1" d="M167.38,50a1.73,1.73,0,0,1,1.77.27,7,7,0,0,1,1.36,1.25,22.49,22.49,0,0,1,2.11,3,50.28,50.28,0,0,1,3.24,6.64,64.84,64.84,0,0,1,2.27,7c.63,2.37,1.19,4.82,1.65,7.18l.31,1.56-.65-1.42c-.64-1.39-1.25-2.79-1.92-4.16s-1.35-2.74-2.09-4.07A38.46,38.46,0,0,0,173,63.48a15.17,15.17,0,0,0-1.42-1.76,5.57,5.57,0,0,0-.81-.73,2.39,2.39,0,0,0-.45-.28l-.22-.08s-.19,0-.1,0h0l0,0a4,4,0,0,0-1.73,2.11,19.25,19.25,0,0,0-1,2.79c-.54,1.91-.94,3.87-1.29,5.84s-.67,3.94-1.08,5.93a6.87,6.87,0,0,1-.19.75,1.37,1.37,0,0,1-.18.43.46.46,0,0,1-.14.16.41.41,0,0,1-.48,0,.76.76,0,0,1-.15-.21l0-.13a7.94,7.94,0,0,1-.1-1.58c0-1,.06-2,.12-3,.3-4,.73-8,1.15-12,.21-2,.44-4,.72-6,.15-1,.3-2,.51-3a15.09,15.09,0,0,1,.41-1.46A2.41,2.41,0,0,1,167.38,50Zm0,.06a2.22,2.22,0,0,0-.77,1.22,11.92,11.92,0,0,0-.39,1.45c-.19,1-.33,2-.45,3-.23,2-.39,4-.55,6-.31,4-.64,8-.84,12-.06,1-.11,2-.12,3a7,7,0,0,0,.08,1.41v.05s0,0,0-.05a.25.25,0,0,0-.3,0l0,0a1.57,1.57,0,0,0,.1-.27,7.15,7.15,0,0,0,.18-.7c.4-1.94.7-3.94,1.07-5.91s.8-3.94,1.37-5.88a21.33,21.33,0,0,1,1.05-2.86,7.6,7.6,0,0,1,.79-1.34,2.88,2.88,0,0,1,1.26-1l0,0a1,1,0,0,1,.77.11,4,4,0,0,1,.53.33,6.82,6.82,0,0,1,.88.81,15.85,15.85,0,0,1,1.45,1.82,41.64,41.64,0,0,1,2.38,3.94q1.1,2,2.07,4.11c.66,1.38,1.26,2.79,1.89,4.19l-.34.14c-.48-2.48-1-4.83-1.6-7.23a63.7,63.7,0,0,0-2.15-7,45.46,45.46,0,0,0-3.16-6.65,20.39,20.39,0,0,0-2.09-3,6.91,6.91,0,0,0-1.34-1.25A1.64,1.64,0,0,0,167.41,50.1Z"/>
      <path class="cls-1" d="M142.7,43.43a1.68,1.68,0,0,0-1.5-.85,7.14,7.14,0,0,0-1.84.14,22.1,22.1,0,0,0-3.54,1.05A45.3,45.3,0,0,0,129.15,47,63.43,63.43,0,0,0,123,51.09c-2,1.48-3.89,3-5.83,4.61l-.18-.33c1.37-.69,2.73-1.41,4.13-2.06s2.78-1.31,4.21-1.9a40.94,40.94,0,0,1,4.35-1.57,16,16,0,0,1,2.28-.51,6.74,6.74,0,0,1,1.19-.08,3.27,3.27,0,0,1,.62.07l.32.11c.13.08.19,0,.37.3l0,0a2.93,2.93,0,0,1,.33,1.61,7.86,7.86,0,0,1-.25,1.54,20.87,20.87,0,0,1-1,2.88c-.79,1.86-1.72,3.65-2.68,5.42s-2,3.5-2.91,5.26c-.11.22-.22.44-.31.65a1.34,1.34,0,0,0-.08.26s0,0,0-.08a.22.22,0,0,0-.12-.11.17.17,0,0,0-.13,0c-.06,0,0,0,0,0a9,9,0,0,0,1-1c.63-.78,1.22-1.58,1.8-2.39,2.38-3.23,4.66-6.54,7-9.83,1.15-1.65,2.29-3.29,3.38-5,.53-.85,1-1.7,1.52-2.59a11.18,11.18,0,0,0,.63-1.36A2.33,2.33,0,0,0,142.7,43.43Zm.06,0a2.32,2.32,0,0,1-.16,1.49,12.14,12.14,0,0,1-.6,1.39c-.46.89-1,1.76-1.49,2.62-1,1.71-2.13,3.4-3.23,5.09-2.21,3.35-4.4,6.71-6.71,10-.59.81-1.18,1.62-1.82,2.42a8.75,8.75,0,0,1-1.07,1.16,1.1,1.1,0,0,1-.31.15c-.1,0-.37,0-.42-.2a.56.56,0,0,1,0-.27,2,2,0,0,1,.13-.46,7.7,7.7,0,0,1,.33-.71c.94-1.8,2-3.51,2.93-5.27s1.91-3.52,2.71-5.34a20.18,20.18,0,0,0,1-2.79A4,4,0,0,0,134,50l0,0s0,0,0,0h0l0,0-.09-.05-.23-.07a2.25,2.25,0,0,0-.52-.07,6.82,6.82,0,0,0-1.1.06,15.41,15.41,0,0,0-2.22.48,40.29,40.29,0,0,0-4.32,1.52c-1.41.58-2.82,1.2-4.2,1.86s-2.76,1.34-4.13,2l-1.42.71,1.24-1c1.86-1.54,3.84-3.1,5.84-4.53a63.87,63.87,0,0,1,6.23-4.05,49.37,49.37,0,0,1,6.72-3.13,21.11,21.11,0,0,1,3.57-1,6.76,6.76,0,0,1,1.85-.13A1.72,1.72,0,0,1,142.76,43.41Z"/>
      <path class="cls-1" d="M152.41,54.09a53,53,0,0,1,1-9.48A27.42,27.42,0,0,1,154.78,40a15.06,15.06,0,0,1,1.05-2.18A6.71,6.71,0,0,1,157.4,36a2.59,2.59,0,0,1,2.47-.5,5.37,5.37,0,0,1,2,1.44A16.73,16.73,0,0,1,164.54,41a38.57,38.57,0,0,1,2.89,9.1l-.07,0a55.48,55.48,0,0,0-3.4-8.84,18.9,18.9,0,0,0-2.51-3.91A4.71,4.71,0,0,0,159.68,36a2,2,0,0,0-2,.37,9.37,9.37,0,0,0-2.54,3.81,28,28,0,0,0-1.42,4.5,52.22,52.22,0,0,0-1.28,9.41Z"/>
      <path class="cls-1" d="M164.48,113.46c-.41,3,.19,3.34-.49,5.27-.47,1.36-1.47,3.11-1.94,3.26-.76.22-.4-3.52,1-7.24a13,13,0,0,1,1.7-3.43C165,111.29,164.66,112.14,164.48,113.46Z"/>
      <path class="cls-1" d="M163.29,110.57c-.86,3.1-.38,3.61-1.31,5.52-.66,1.35-1.85,3-2.3,3.07-.73.08.23-3.84,2.12-7.5a13.82,13.82,0,0,1,2.11-3.3C164.08,108.35,163.67,109.21,163.29,110.57Z"/>
      <path class="cls-1" d="M160.81,112c-1.17,3.62-.68,4.26-1.84,6.47-.83,1.56-2.26,3.44-2.77,3.47-.8,0,.53-4.56,2.89-8.77,1-1.71,2.31-3.77,2.57-3.76S161.33,110.36,160.81,112Z"/>
      <path class="cls-1" d="M165.77,99.57a.78.78,0,0,1,.7.06,1.3,1.3,0,0,1,.44.57,4.91,4.91,0,0,1,.38,1.36,17.73,17.73,0,0,1,.18,2.82A42.58,42.58,0,0,1,167,110c-.27,1.86-.67,3.71-1.1,5.54s-.92,3.68-1.44,5.45l-.26,0c.2-2.22.38-4.44.42-6.67a30.61,30.61,0,0,0-.08-3.32,12.55,12.55,0,0,0-.24-1.63,3.76,3.76,0,0,0-.25-.76,1.42,1.42,0,0,0-.19-.32c0-.09-.21-.14-.16-.15h0a2.69,2.69,0,0,0-1,.62,9.89,9.89,0,0,0-.91.92c-.57.65-1.1,1.34-1.61,2-1,1.42-2,2.9-2.89,4.38s-1.82,3-2.78,4.48l-.37.56-.22.27-.08.08a.38.38,0,0,1-.15.1.39.39,0,0,1-.15,0c-.09,0-.24-.18-.21-.2a.61.61,0,0,1,0-.18,8.06,8.06,0,0,1,.51-1.29c.37-.8.77-1.58,1.17-2.36,1.61-3.13,3.35-6.18,5.05-9.25.86-1.53,1.71-3.06,2.61-4.58.45-.75.9-1.5,1.39-2.24.24-.36.49-.72.77-1.07A3.18,3.18,0,0,1,165.77,99.57Zm0,.05a2.92,2.92,0,0,0-.94.88c-.27.35-.51.71-.75,1.08-.46.74-.9,1.5-1.34,2.26-.85,1.53-1.68,3.08-2.5,4.63l-4.86,9.33c-.4.78-.8,1.57-1.17,2.36a7.44,7.44,0,0,0-.46,1.15s0,0,0,0-.09-.17-.17-.15a.09.09,0,0,0-.07,0c-.07,0,0,0,0,0l0,0,.19-.24c.13-.17.25-.36.37-.54l2.79-4.46c.94-1.48,1.9-3,2.94-4.38.53-.71,1.07-1.4,1.66-2.06a9.47,9.47,0,0,1,1-1,3.16,3.16,0,0,1,1.21-.7h0a.6.6,0,0,1,.53.26,1.85,1.85,0,0,1,.24.4,5,5,0,0,1,.27.83,16.17,16.17,0,0,1,.24,1.68c.07,1.12.08,2.24.05,3.36-.06,2.24-.25,4.46-.47,6.69l-.26,0c.55-1.84,1-3.63,1.5-5.46s.88-3.67,1.18-5.52a37.83,37.83,0,0,0,.48-5.62,17.59,17.59,0,0,0-.16-2.81,5.19,5.19,0,0,0-.37-1.35,1.32,1.32,0,0,0-.42-.54A.68.68,0,0,0,165.79,99.62Z"/>
      <path class="cls-1" d="M154.84,100.94a67.4,67.4,0,0,1,3.7-6.78,28.53,28.53,0,0,1,4.84-6.06,4.73,4.73,0,0,1,1.72-1,2.51,2.51,0,0,1,.55-.06,1.46,1.46,0,0,1,.55.21,1.89,1.89,0,0,1,.66.86,9.87,9.87,0,0,1,.41,3.91,34.38,34.38,0,0,1-1.47,7.61h0a49.46,49.46,0,0,0,1-7.62,9.35,9.35,0,0,0-.37-3.71c-.22-.55-.64-1-1.22-.78a4.48,4.48,0,0,0-1.58.92,28,28,0,0,0-4.88,5.89,66,66,0,0,0-3.86,6.67Z"/>
      <path class="cls-1" d="M138.83,88.34a18.3,18.3,0,0,0-.56,4.28,5,5,0,0,0,.11,1.15c.27,1.4,1,3.19,1.55,3.32s.39-2.53.23-7.44c-.15-4.21-.33-4.51-.44-4.52S139.32,86.2,138.83,88.34Z"/>
      <path class="cls-1" d="M141.52,84.59c.26,1-.14,1.65-.44,2.65a9.8,9.8,0,0,0-.23,4.47c.32,1.6,1.27,3.34,1.79,3.23s.32-1,.46-6.09c.1-3.45.18-5.11-.72-5.58-.38-.21-1-.23-1.19,0S141.35,84,141.52,84.59Z"/>
      <path class="cls-1" d="M143.71,87.38c.33,3.8-.45,4.47.29,6.78.52,1.63,1.67,3.59,2.27,3.61.94,0,.71-4.77-.85-9.17-.64-1.79-1.65-3.94-1.95-3.92S143.57,85.71,143.71,87.38Z"/>
      <path class="cls-1" d="M141.94,73.85a1.43,1.43,0,0,0-1.38.52,6.48,6.48,0,0,0-.9,1.29,17.76,17.76,0,0,0-1.23,2.91,39.31,39.31,0,0,0-1.51,6.14,55.68,55.68,0,0,0-.59,6.3c-.09,2.12-.13,4.2-.1,6.36l-.31-.06c.28-1.28.55-2.57.87-3.84s.64-2.56,1-3.82a35.94,35.94,0,0,1,1.32-3.73,14.84,14.84,0,0,1,.9-1.78,5.29,5.29,0,0,1,.6-.83,2.3,2.3,0,0,1,.39-.37.92.92,0,0,1,.62-.24h0a2.34,2.34,0,0,1,1.24.66,6.37,6.37,0,0,1,.89,1,19.07,19.07,0,0,1,1.37,2.23c.81,1.54,1.5,3.13,2.15,4.72s1.24,3.22,1.91,4.79a5.77,5.77,0,0,0,.27.56.87.87,0,0,0,.13.19s0,0-.09,0-.17,0-.2.11,0,0,0,0a7.1,7.1,0,0,0-.18-1.21c-.18-.83-.39-1.66-.61-2.49-.85-3.32-1.82-6.63-2.76-9.94-.48-1.65-1-3.3-1.49-4.94-.28-.81-.56-1.62-.88-2.42a10.24,10.24,0,0,0-.57-1.15A1.91,1.91,0,0,0,141.94,73.85Zm0-.06a2,2,0,0,1,.91.92,9.58,9.58,0,0,1,.59,1.15c.35.79.65,1.6.94,2.41.58,1.62,1.1,3.26,1.62,4.9,1,3.29,2.07,6.57,3,9.89.22.83.43,1.67.61,2.52a6.18,6.18,0,0,1,.19,1.34.69.69,0,0,1-.07.3.42.42,0,0,1-.18.13c-.07,0-.1,0-.17,0a.31.31,0,0,1-.21-.11,1.78,1.78,0,0,1-.24-.33c-.11-.21-.2-.41-.29-.61-.68-1.6-1.26-3.21-1.91-4.8s-1.3-3.18-2.08-4.7a17.61,17.61,0,0,0-1.31-2.17,3.42,3.42,0,0,0-1.81-1.5h0c.07,0,0,0-.09,0l-.17.11a3.11,3.11,0,0,0-.32.31,4.66,4.66,0,0,0-.56.76,12.82,12.82,0,0,0-.89,1.73,32.86,32.86,0,0,0-1.33,3.68c-.39,1.24-.74,2.51-1.05,3.78s-.61,2.55-.9,3.83l-.3,1.32V97.32c0-2.06,0-4.22.16-6.32a55.58,55.58,0,0,1,.69-6.31,43.31,43.31,0,0,1,1.57-6.15,19.29,19.29,0,0,1,1.25-2.92,6.22,6.22,0,0,1,.93-1.29A1.48,1.48,0,0,1,142,73.79Z"/>
      <path class="cls-1" d="M155.12,74.64a45,45,0,0,0-2.67-7.7,24.48,24.48,0,0,0-2-3.55,8,8,0,0,0-2.79-2.77,1.69,1.69,0,0,0-1.71,0,4.1,4.1,0,0,0-1.25,1.42,16.07,16.07,0,0,0-1.43,3.74,47.66,47.66,0,0,0-1.33,8h-.06a33,33,0,0,1,.85-8.15,14.55,14.55,0,0,1,1.49-3.88,4.78,4.78,0,0,1,1.47-1.57,2.21,2.21,0,0,1,2.17,0,8.41,8.41,0,0,1,2.89,3,24.34,24.34,0,0,1,1.92,3.64,45.49,45.49,0,0,1,2.47,7.79Z"/>
    </g>
  </g>
</svg>
