<svg xmlns="http://www.w3.org/2000/svg" width="384.93" height="367.21" viewBox="0 0 384.93 367.21">
  <defs>
    <style>
      .cls-1 {
        fill: none;
      }

      .cls-2 {
        fill: #333;
      }
    </style>
  </defs>
  <g id="buckwheat-2" data-name="buckwheat">
    <g>
      <path class="cls-1" d="M211.49,203.08c3.39-9,11.23-33.52,3.12-62.73a99.68,99.68,0,0,0-20.84-38.61"/>
      <path class="cls-2" d="M215,196.66c1.38-7.8,3.06-15.54,5-23.23s4.14-15.31,6.49-22.87c1.19-3.77,2.37-7.54,3.32-11.37a95.3,95.3,0,0,0,2.22-11.6,90.26,90.26,0,0,0-.38-23.62,80.29,80.29,0,0,1,1.14,23.7c-.79,7.94-3,15.63-5.34,23.19s-4.65,15.12-6.71,22.76S216.75,189,215,196.66Z"/>
      <path class="cls-2" d="M216.1,187a47.33,47.33,0,0,0,.5-8.39,40.94,40.94,0,0,0-.37-4.16,33.7,33.7,0,0,0-.79-4.1,39.22,39.22,0,0,0-2.84-7.83,44,44,0,0,0-4.4-7.16A31.52,31.52,0,0,1,211,158.6a36.44,36.44,0,0,1,2.3,3.59,32.5,32.5,0,0,1,4.08,16.44,35.29,35.29,0,0,1-.34,4.25A32.32,32.32,0,0,1,216.1,187Z"/>
      <path class="cls-2" d="M216.27,186.22a94,94,0,0,0,1.42-11.33,78.59,78.59,0,0,0,0-11.38c-.61-7.55-2.46-15-4.05-22.43-.8-3.72-1.57-7.46-2.44-11.16-.44-1.85-.9-3.69-1.49-5.48a38.76,38.76,0,0,0-2.2-5.2,57.28,57.28,0,0,0-14.22-17.6,58.27,58.27,0,0,1,8.37,7.8,50.74,50.74,0,0,1,6.53,9.44,33.76,33.76,0,0,1,2.34,5.29c.62,1.82,1.1,3.68,1.56,5.54.9,3.71,1.7,7.44,2.53,11.16s1.59,7.46,2.3,11.21a82.31,82.31,0,0,1,1.53,11.38A79.48,79.48,0,0,1,216.27,186.22Z"/>
      <path class="cls-2" d="M217,155.28a51.55,51.55,0,0,1,.27-6.45,53.19,53.19,0,0,1,1.16-6.37,52.42,52.42,0,0,1,4.81-12c2.08-3.79,4.36-7.44,6.69-11.05s4.84-7.11,7.35-10.6c-1.08,1.86-2.22,3.69-3.33,5.53s-2.28,3.63-3.36,5.48c-2.2,3.69-4.48,7.33-6.47,11.11a56.09,56.09,0,0,0-4.95,11.75A61.14,61.14,0,0,0,217,155.28Z"/>
      <path class="cls-2" d="M208,119.3c.33-3.15.61-6.25.63-9.36a92.61,92.61,0,0,0-.46-9.38A27.91,27.91,0,0,1,209.6,110,28.3,28.3,0,0,1,208,119.3Z"/>
      <g>
        <path class="cls-2" d="M212.92,148.79a7.54,7.54,0,0,0,2.86-3.77,7.14,7.14,0,0,0-.44-5.36c-.77-1.4-2.54-2.27-6.05-4-4.2-2-4.94-1.8-5.33-1.58-.85.46-1.1,1.88-1.56,4.7-.53,3.28-.79,5-.14,6.72a7.81,7.81,0,0,0,2.31,3.29,6.38,6.38,0,0,0,4,1.68A6.84,6.84,0,0,0,212.92,148.79Z"/>
        <path class="cls-2" d="M212.89,148.75a7.19,7.19,0,0,0,2-2.2,6.31,6.31,0,0,0,.82-2.79,7.65,7.65,0,0,0-.34-2.83,5.77,5.77,0,0,0-.57-1.26,4.59,4.59,0,0,0-.93-1,18,18,0,0,0-2.48-1.62c-.87-.5-1.76-1-2.67-1.43a20.29,20.29,0,0,0-2.78-1.14,4.53,4.53,0,0,0-1.42-.28,1.07,1.07,0,0,0-.95.71,12.1,12.1,0,0,0-.61,2.85l-.41,3a15.28,15.28,0,0,0-.16,2.92,6.28,6.28,0,0,0,.8,2.65,7.67,7.67,0,0,0,1.75,2.21,7.23,7.23,0,0,0,2.43,1.47,5.09,5.09,0,0,0,2.87.12A7.15,7.15,0,0,0,212.89,148.75Zm.06.07a9.63,9.63,0,0,1-2.61,1.58,5.88,5.88,0,0,1-3.12.25,7.61,7.61,0,0,1-4.95-3.81,6.72,6.72,0,0,1-.9-3.1,15.89,15.89,0,0,1,.27-3.12c.16-1,.36-2,.56-3a10.86,10.86,0,0,1,.91-3,1.55,1.55,0,0,1,1.44-.88,6.15,6.15,0,0,1,1.52.37c1,.34,1.88.78,2.81,1.19A39.47,39.47,0,0,1,214.4,138a4.61,4.61,0,0,1,1.16,1.17,5.22,5.22,0,0,1,.67,1.49,6.68,6.68,0,0,1,.13,3.17,7,7,0,0,1-1.23,2.86A10,10,0,0,1,213,148.82Z"/>
      </g>
      <g>
        <path class="cls-2" d="M239.39,112.36c-.31.23-.68-.15-1.1.12-.24.15-.29.37-.55,1.78-.21,1.06-.23,1.21-.16,1.46a2,2,0,0,0,.88,1.11c2.17,1.54,6.92,2.09,6.92,2.09,4.6.75,5.25.32,5.57,0,.67-.69.51-2.12.15-5-.41-3.31-.64-5-1.76-6.49a7.79,7.79,0,0,0-3.15-2.5c-.74-.32-2.35-1-3.67-.31a4.07,4.07,0,0,0-.94.79c-.66.67-1.47,1.77-1.22,2.08s1.36-.26,1.41-.16-1.89.56-2.41,1.87S239.94,111.93,239.39,112.36Z"/>
        <path class="cls-2" d="M239.42,112.4c-.27.19-.56,0-.79,0a.52.52,0,0,0-.52.41,15.27,15.27,0,0,0-.27,1.53c0,.51-.22,1.08,0,1.44a2.25,2.25,0,0,0,1,.91,23.82,23.82,0,0,0,5.86,1.68c1.05.18,2.05.42,3.08.56a13.17,13.17,0,0,0,1.54.16,2.37,2.37,0,0,0,1.4-.26,1.73,1.73,0,0,0,.48-1.31,10,10,0,0,0-.09-1.54c-.1-1-.31-2.07-.47-3.1-.38-2-.69-4.15-2.07-5.57a7.26,7.26,0,0,0-2.34-1.75,5.73,5.73,0,0,0-2.73-.67,2,2,0,0,0-1.15.46,10.12,10.12,0,0,0-1,1,5.41,5.41,0,0,0-.43.58,2.79,2.79,0,0,0-.16.28c0,.07,0,.18-.06,0s-.12-.11-.14-.1h.07l.32,0,.37-.09.21,0a.54.54,0,0,1,.17,0h.08a.39.39,0,0,1,.27.21.36.36,0,0,1,0,.33c-.09.12-.06.06-.08.1a2.21,2.21,0,0,1-.45.19l-.36.13c-.23.1-.46.2-.68.32a2.31,2.31,0,0,0-1,1,2.56,2.56,0,0,0-.07,1.48l.17.77A.79.79,0,0,1,239.42,112.4Zm-.06-.08c.18-.16.14-.44.09-.69s-.12-.5-.19-.76a2.92,2.92,0,0,1,0-1.61c.33-1.11,1.6-1.7,2.32-2.08l-.05.06a.3.3,0,0,0,0,.29.29.29,0,0,0,.22.18h0s0,0,0,0l-.16.06-.39.14a1.85,1.85,0,0,1-.45.11,1.26,1.26,0,0,1-.33,0,.66.66,0,0,1-.43-.34,1,1,0,0,1,0-.71,2.14,2.14,0,0,1,.19-.43,6.2,6.2,0,0,1,.46-.71,8.2,8.2,0,0,1,1.13-1.23,3,3,0,0,1,1.7-.74,6.29,6.29,0,0,1,3.29.79,8.21,8.21,0,0,1,2.6,2.07,6.72,6.72,0,0,1,1.47,3,21.6,21.6,0,0,1,.43,3.16l.28,3.13a12.07,12.07,0,0,1,.05,1.59,2.18,2.18,0,0,1-.58,1.55,2.77,2.77,0,0,1-1.61.42,14.21,14.21,0,0,1-1.6,0c-1.05,0-2.11-.19-3.14-.29a14.37,14.37,0,0,1-6.08-2,2.9,2.9,0,0,1-1.12-1.29,1.56,1.56,0,0,1,0-.88l.19-.77c.14-.5.22-1,.39-1.53a.68.68,0,0,1,.64-.48C238.9,112.31,239.16,112.46,239.36,112.32Z"/>
      </g>
      <path class="cls-2" d="M243.16,103.59c0,.34-.35.59-.55.86l-.68.78a17.82,17.82,0,0,0-1.3,1.6,2,2,0,0,0-.24.45c-.06.17,0,.31.17.3a4.11,4.11,0,0,0,1-.25l.14,0a.12.12,0,0,1,.11,0c.11,0,0,.2,0,.18a1.51,1.51,0,0,1-.25.13l-.47.22a4.73,4.73,0,0,0-.86.53,1.92,1.92,0,0,0-.82,1.66,4.22,4.22,0,0,0,.18,1,2.88,2.88,0,0,1,.17,1.11.68.68,0,0,1-.5.53,2.43,2.43,0,0,1-.57,0,.54.54,0,0,0-.58.39,6.29,6.29,0,0,0-.1,2,2.48,2.48,0,0,1-.05.58.54.54,0,0,1-.3.38.56.56,0,0,1-.45-.1,2.8,2.8,0,0,1-.73-.87,4.87,4.87,0,0,1-.64-2.06,7.34,7.34,0,0,1,1.19-4,13.06,13.06,0,0,1,2.64-3.22,12.67,12.67,0,0,1,1.64-1.28c.29-.18.58-.36.89-.52A1.93,1.93,0,0,1,243.16,103.59Zm0,0a1.83,1.83,0,0,0-1,.32,8,8,0,0,0-.88.54,12.47,12.47,0,0,0-1.61,1.29,12.31,12.31,0,0,0-2.46,3.29,7.07,7.07,0,0,0-1,3.86,4.22,4.22,0,0,0,.61,1.86,2.46,2.46,0,0,0,.59.7s.11,0,0,0,0,0,0,0a2.17,2.17,0,0,0,0-.46,6.36,6.36,0,0,1,.17-2.14,1,1,0,0,1,1-.66c.43.06.58.07.63-.16.06-.52-.29-1.27-.28-2a2.21,2.21,0,0,1,1-1.86,4.43,4.43,0,0,1,.92-.52l.49-.2.21-.1s0,0,0,0a.09.09,0,0,0,0,.06s0,0,0,0l-.11,0a4.28,4.28,0,0,1-1,.21.3.3,0,0,1-.26-.15.34.34,0,0,1,0-.28,2.16,2.16,0,0,1,.26-.47,18.35,18.35,0,0,1,1.33-1.59l.7-.76C242.8,104.17,243.12,103.93,243.16,103.59Z"/>
      <g>
        <path class="cls-2" d="M207.71,163.38c-.4-.15-1.15.82-1.18.79s1.39-1.09,1.32-2.28a2.67,2.67,0,0,0-.7-1.4c-.7-.9-1.35-1-1.32-1.41s1.12-.4,1.47-1c.5-.88-.53-3-2.15-3.8-.65-.33-1.56-.48-7.1,1.32-4.44,1.44-4.82,2.11-5,2.54-.29.92.52,2.11,2.13,4.47,1.88,2.75,2.85,4.13,4.53,5a8.19,8.19,0,0,0,3.95.79c.83,0,3.4-.12,4.08-1.58a4.45,4.45,0,0,0,.22-1.65C208,164.4,208.05,163.52,207.71,163.38Z"/>
        <path class="cls-2" d="M207.69,163.43c-.21-.05-.45.15-.64.32a3.7,3.7,0,0,0-.28.28l-.14.14,0,0s-.09,0-.11,0,0-.12,0-.1l.07-.08a4.15,4.15,0,0,0,.94-1.25,1.51,1.51,0,0,0,0-1.39,5.06,5.06,0,0,0-1-1.14,6.87,6.87,0,0,0-.63-.46,1.06,1.06,0,0,1-.39-.45.72.72,0,0,1,.22-.79,4,4,0,0,1,.82-.42.76.76,0,0,0,.39-.3,1.66,1.66,0,0,0-.15-1.17,4.34,4.34,0,0,0-.77-1.22,3.7,3.7,0,0,0-1.11-.91,2.68,2.68,0,0,0-1.41-.13,19.06,19.06,0,0,0-3.11.63,29.46,29.46,0,0,0-5.94,2.25c-.44.25-.91.58-1,.9a1.84,1.84,0,0,0,.27,1.26,27.51,27.51,0,0,0,1.73,2.62c.62.87,1.23,1.75,1.87,2.58a9.31,9.31,0,0,0,2.13,2.12,7.53,7.53,0,0,0,2.78,1,13.09,13.09,0,0,0,3.07.07,2.73,2.73,0,0,0,2.46-1.4,7.93,7.93,0,0,0,.19-1.56,7.15,7.15,0,0,0,0-.8C207.92,163.86,207.89,163.54,207.69,163.43Zm0-.09c.3.17.29.5.33.75s0,.54,0,.81a11.24,11.24,0,0,1-.07,1.63,2.21,2.21,0,0,1-1,1.35,5.41,5.41,0,0,1-1.57.62,10.25,10.25,0,0,1-3.32.25,7.87,7.87,0,0,1-3.22-1.1,9.17,9.17,0,0,1-2.39-2.38c-.64-.89-1.23-1.78-1.82-2.68a21.47,21.47,0,0,1-1.67-2.81,2.41,2.41,0,0,1-.19-1.83,1.75,1.75,0,0,1,.64-.74,4.92,4.92,0,0,1,.74-.41,58,58,0,0,1,6.11-2.09c1-.31,2.05-.65,3.12-.87a3.41,3.41,0,0,1,1.76,0,4.45,4.45,0,0,1,1.45,1,4.77,4.77,0,0,1,1,1.44,2.25,2.25,0,0,1,.1,1.93c-.45.75-1.27.76-1.47.92,0,0,0,0,0-.08a.52.52,0,0,0,.13.15,7.87,7.87,0,0,1,.6.57,5.29,5.29,0,0,1,.95,1.41,1.83,1.83,0,0,1-.16,1.69,5.07,5.07,0,0,1-1.07,1.23l-.07.06s0-.05,0-.06-.1,0-.07,0l0,0,.14-.14.29-.28C207.18,163.5,207.4,163.27,207.73,163.34Z"/>
      </g>
      <path class="cls-2" d="M207.82,166.71c-.14-.11-.13-.31-.14-.48s0-.34,0-.51l0-1a8.81,8.81,0,0,0,0-1,1.23,1.23,0,0,0-.14-.47.25.25,0,0,0-.39-.05,4.86,4.86,0,0,0-.73.71l-.07.05s-.15,0-.16-.05,0-.14.05-.2l.15-.22.29-.42a3.23,3.23,0,0,0,.6-1.84,2.93,2.93,0,0,0-.84-1.69c-.21-.25-.45-.49-.69-.78a1.79,1.79,0,0,1-.3-.55.75.75,0,0,1,.22-.79,1.91,1.91,0,0,1,.55-.26c.11-.06.17-.1.19-.18a1.11,1.11,0,0,0-.1-.72c-.23-.59-.62-1.14-1-1.79a1.73,1.73,0,0,1-.2-.63.63.63,0,0,1,.28-.57.84.84,0,0,1,.46-.08,2.9,2.9,0,0,1,1.12.37,5.16,5.16,0,0,1,1.64,1.44,7.5,7.5,0,0,1,1.28,4,14.28,14.28,0,0,1-.4,4.13,12.58,12.58,0,0,1-.64,2,8.73,8.73,0,0,1-.44.93c-.09.15-.18.29-.28.43S208,166.73,207.82,166.71Zm0,0c.18,0,.28-.17.38-.29a4.08,4.08,0,0,0,.28-.44c.16-.3.3-.62.43-.93a11.41,11.41,0,0,0,.55-2,13.58,13.58,0,0,0,.14-4.07,7.18,7.18,0,0,0-1.42-3.66,4.62,4.62,0,0,0-1.47-1.2,2.49,2.49,0,0,0-.82-.28s-.09,0,0,0a.2.2,0,0,0,.08-.08c0-.06,0-.05,0,0a1,1,0,0,0,.13.34c.28.58.67,1.17.94,1.87a1.57,1.57,0,0,1,0,1.27c-.23.53-.91.56-.94.63s-.05.06,0,.15a1.3,1.3,0,0,0,.18.35c.18.26.41.53.62.81a3.28,3.28,0,0,1,.81,2,3.54,3.54,0,0,1-.78,2l-.32.41c-.12.12-.21.35-.23.17a5.16,5.16,0,0,1,.78-.67.51.51,0,0,1,.28-.07.35.35,0,0,1,.23.16,1.17,1.17,0,0,1,.13.51,9,9,0,0,1,0,1l-.06,1a4.34,4.34,0,0,0,0,.51C207.7,166.4,207.68,166.59,207.82,166.71Z"/>
      <g>
        <path class="cls-2" d="M234.43,100.19c.79.18,1.66-.89,1.76-1a4.15,4.15,0,0,0,.84-2.48c0-.64-.13-3.24-4.18-7.58-1.36-1.47-5.16-5.54-7.13-4.57-1.06.53-.39,1.91-1.67,6.66-.77,2.83-1.38,3.72-1.35,5.92a7.77,7.77,0,0,0,.87,3.93c.87,1.57,2.61,3.2,3.86,2.9a4.29,4.29,0,0,0,.48-.17c.82-.31,1.82-.69,1.81-1.06s-1.23-.64-1.2-.77,2.31.57,3.49-.42a4.66,4.66,0,0,0,.39-.39c.73-.85.73-1.52,1.09-1.55S233.93,100.07,234.43,100.19Z"/>
        <path class="cls-2" d="M234.43,100.19a1.82,1.82,0,0,0,1.5-.74,3.71,3.71,0,0,0,.88-1.49,4.4,4.4,0,0,0,.16-1.73,6.61,6.61,0,0,0-.47-1.67A19,19,0,0,0,232.4,89a33.3,33.3,0,0,0-2.55-2.36,8.92,8.92,0,0,0-2.86-1.7,1.33,1.33,0,0,0-1.22.13,2.85,2.85,0,0,0-.33,1.38,32.87,32.87,0,0,1-.57,3.51c-.26,1.15-.6,2.29-1,3.41a11.47,11.47,0,0,0-.76,3.28,9.47,9.47,0,0,0,.32,3.33,7.11,7.11,0,0,0,1.79,2.81,4,4,0,0,0,1.37.91,1.43,1.43,0,0,0,.76.09l.81-.27c.27-.1.54-.2.8-.32s.54-.27.61-.44-.3-.34-.53-.44l-.41-.17-.1,0s-.11,0-.1-.16.19-.05.28-.07a10.31,10.31,0,0,0,1.74.15,2.43,2.43,0,0,0,1.6-.57,4.29,4.29,0,0,0,1-1.41,1.31,1.31,0,0,1,.24-.37.32.32,0,0,1,.41,0C234,99.86,234.13,100.13,234.43,100.19Zm0,0c-.31-.06-.48-.33-.7-.51a.3.3,0,0,0-.39,0,1.1,1.1,0,0,0-.23.37,4.33,4.33,0,0,1-1,1.43,2.48,2.48,0,0,1-1.61.62,9.36,9.36,0,0,1-1.76-.09c-.19,0-.17-.1,0,0l.41.15a2.6,2.6,0,0,1,.42.19.48.48,0,0,1,.27.46c-.15.38-.46.47-.71.63s-.54.26-.81.37-.55.23-.84.33a1.77,1.77,0,0,1-1,0,4.35,4.35,0,0,1-1.58-.93,7.7,7.7,0,0,1-2.1-3,9.83,9.83,0,0,1-.54-3.59,11.8,11.8,0,0,1,.72-3.54c.35-1.11.66-2.22.91-3.34a32.36,32.36,0,0,0,.58-3.41c0-.29.08-.59.15-.91a1.91,1.91,0,0,1,.51-1,2.17,2.17,0,0,1,2.1-.29,9.34,9.34,0,0,1,3,2,32.85,32.85,0,0,1,2.47,2.54,19.4,19.4,0,0,1,3.87,5.86,6.79,6.79,0,0,1,.42,1.71,4.49,4.49,0,0,1-.21,1.75,3.67,3.67,0,0,1-.89,1.49A1.84,1.84,0,0,1,234.43,100.19Z"/>
      </g>
      <path class="cls-2" d="M226.69,104.16c.1-.38.51-.49.82-.62s.66-.2,1-.31a4.37,4.37,0,0,0,.94-.36.4.4,0,0,0,.15-.13s0,0,0-.09a1.5,1.5,0,0,0-.4-.22l-.48-.18-.13,0-.08,0-.06,0a.25.25,0,0,1-.06-.21c0-.07.12-.16.19-.16h.15l.14,0a9.3,9.3,0,0,0,1,.22,2.51,2.51,0,0,0,1.84-.28,4.44,4.44,0,0,0,1.11-1.63,1.92,1.92,0,0,1,.33-.45.59.59,0,0,1,.59-.13c.39.21.48.58.81.59a1.2,1.2,0,0,0,.84-.42,5.48,5.48,0,0,0,.64-.8c.4-.56.7-1.18,1.06-1.78a3,3,0,0,1,.32-.46.24.24,0,0,1,.3-.05.28.28,0,0,1,.12.22,1.52,1.52,0,0,1,0,.29,6,6,0,0,1-.17,1.06,8.22,8.22,0,0,1-.77,2,11.11,11.11,0,0,1-2.69,3.25,8.83,8.83,0,0,1-3.74,1.94,4.85,4.85,0,0,1-2.11,0,3.61,3.61,0,0,1-1-.4C227.06,104.77,226.7,104.55,226.69,104.16Zm.05,0c0,.34.37.55.64.72a3,3,0,0,0,1,.34,4.67,4.67,0,0,0,2-.2,10.6,10.6,0,0,0,3.49-2,12,12,0,0,0,2.6-3.09,9,9,0,0,0,.82-1.85,4.81,4.81,0,0,0,.21-1,.88.88,0,0,0,0-.23s0-.07,0,0,.1,0,.07,0a2.09,2.09,0,0,0-.29.38c-.37.57-.74,1.16-1.15,1.73a6.4,6.4,0,0,1-.67.81,1.38,1.38,0,0,1-1,.48c-.44,0-.62-.49-.87-.56s-.47.21-.6.51a4.63,4.63,0,0,1-1.11,1.83,2.74,2.74,0,0,1-2.16.38,10.12,10.12,0,0,1-1-.27l-.11,0h-.05c.06,0,.15-.08.15-.13s-.06-.18,0-.15h0l0,0,.11,0,.47.22a1.6,1.6,0,0,1,.47.34.33.33,0,0,1,.05.38.52.52,0,0,1-.25.2,4.38,4.38,0,0,1-1,.3c-.34.07-.67.16-1,.26S226.83,103.84,226.74,104.16Z"/>
      <g>
        <path class="cls-2" d="M215,87.51c.21.31-.18.67.07,1.1.14.24.36.3,1.75.64,1,.25,1.2.28,1.45.23a2.08,2.08,0,0,0,1.16-.83c1.63-2.09,2.41-6.81,2.41-6.81,1-4.56.58-5.23.28-5.56-.66-.71-2.09-.62-4.94-.4-3.32.26-5,.41-6.56,1.45a7.87,7.87,0,0,0-2.66,3c-.35.73-1.11,2.3-.47,3.64a3.83,3.83,0,0,0,.73,1c.64.7,1.7,1.56,2,1.33s-.2-1.38-.09-1.42.47,1.92,1.74,2.5S214.61,86.93,215,87.51Z"/>
        <path class="cls-2" d="M215.05,87.48c.18.28,0,.56,0,.79a.52.52,0,0,0,.39.53,14.06,14.06,0,0,0,1.52.35c.51.06,1.06.27,1.43.07a2.35,2.35,0,0,0,1-1,23.85,23.85,0,0,0,1.95-5.78c.23-1,.52-2,.71-3a13.63,13.63,0,0,0,.23-1.52,2.29,2.29,0,0,0-.19-1.42,1.74,1.74,0,0,0-1.28-.54,11.46,11.46,0,0,0-1.55,0c-1,.06-2.08.21-3.12.32-2.06.28-4.17.5-5.66,1.81a7.18,7.18,0,0,0-1.86,2.25,5.7,5.7,0,0,0-.8,2.69,2,2,0,0,0,.4,1.17,11.22,11.22,0,0,0,1,1.08,4.7,4.7,0,0,0,.56.46,2.85,2.85,0,0,0,.26.17c.07,0,.18,0,.05.07s-.13.11-.11.12a.28.28,0,0,1,0-.06,2.11,2.11,0,0,0,0-.32l-.06-.37,0-.21a.46.46,0,0,1,0-.18v-.08a.36.36,0,0,1,.22-.26.37.37,0,0,1,.33,0c.11.09.06.06.09.09a1.89,1.89,0,0,1,.17.45l.12.37a5.86,5.86,0,0,0,.28.69,2.37,2.37,0,0,0,1,1,2.46,2.46,0,0,0,1.48.14l.77-.13A.79.79,0,0,1,215.05,87.48Zm-.08,0c-.15-.19-.43-.16-.68-.12l-.77.15a3,3,0,0,1-1.61,0c-1.09-.39-1.62-1.69-2-2.43l.06.06a.31.31,0,0,0,.29,0,.32.32,0,0,0,.19-.22v0s0,0,0,0l.05.17.13.39a2.73,2.73,0,0,1,.08.46.93.93,0,0,1,0,.32.62.62,0,0,1-.35.42,1,1,0,0,1-.72,0l-.42-.21c-.24-.16-.47-.33-.68-.5a9.4,9.4,0,0,1-1.18-1.18,3.16,3.16,0,0,1-.66-1.74,6.27,6.27,0,0,1,1-3.25,8.18,8.18,0,0,1,2.19-2.49,6.73,6.73,0,0,1,3-1.33,21.58,21.58,0,0,1,3.18-.28l3.14-.13a10.71,10.71,0,0,1,1.6,0,2.13,2.13,0,0,1,1.51.66,2.73,2.73,0,0,1,.34,1.62,13.86,13.86,0,0,1-.09,1.59c-.1,1-.29,2.11-.44,3.13a14.28,14.28,0,0,1-2.26,6,2.71,2.71,0,0,1-1.33,1.06,1.39,1.39,0,0,1-.88,0l-.76-.22c-.5-.16-1-.27-1.51-.47a.66.66,0,0,1-.45-.66C214.94,88,215.11,87.73,215,87.53Z"/>
      </g>
      <path class="cls-2" d="M206.44,83.31c.33.06.56.38.82.59l.75.72A16.69,16.69,0,0,0,209.55,86a2,2,0,0,0,.44.26c.16.07.3,0,.3-.16a4,4,0,0,0-.2-1,.68.68,0,0,1,0-.14s0,0,0-.12.21,0,.18,0a.93.93,0,0,1,.12.25l.2.48a4.72,4.72,0,0,0,.49.88,1.92,1.92,0,0,0,1.62.91,4.21,4.21,0,0,0,1-.14,2.68,2.68,0,0,1,1.12-.11.65.65,0,0,1,.5.52,1.86,1.86,0,0,1,0,.57.53.53,0,0,0,.36.59,6.1,6.1,0,0,0,2,.2,2.17,2.17,0,0,1,.58.08.5.5,0,0,1,.36.32.53.53,0,0,1-.12.44,2.75,2.75,0,0,1-.9.69,5,5,0,0,1-2.09.54,7.32,7.32,0,0,1-4-1.39,13.74,13.74,0,0,1-4.28-4.48,9,9,0,0,1-.48-.92A1.78,1.78,0,0,1,206.44,83.31Zm0,0a1.83,1.83,0,0,0,.26,1c.15.31.32.61.5.91a12.51,12.51,0,0,0,4.38,4.29,7.21,7.21,0,0,0,3.81,1.17,4.45,4.45,0,0,0,1.89-.52,2.52,2.52,0,0,0,.73-.56s0-.11,0,0,0,0,0,0a1.93,1.93,0,0,0-.45,0,6.48,6.48,0,0,1-2.13-.28,1,1,0,0,1-.61-1.06c.08-.42.09-.57-.13-.63-.52-.08-1.28.23-2,.18a2.2,2.2,0,0,1-1.81-1.11,5.21,5.21,0,0,1-.48-.94l-.18-.49a1.32,1.32,0,0,0-.08-.22s0,0,0,0a.06.06,0,0,0,.06,0s0,0,0,0a.52.52,0,0,0,0,.11,4.42,4.42,0,0,1,.15,1,.31.31,0,0,1-.16.26.38.38,0,0,1-.28,0,2.27,2.27,0,0,1-.45-.28A16.91,16.91,0,0,1,208,84.65l-.74-.73C207,83.7,206.77,83.38,206.44,83.31Z"/>
      <g>
        <path class="cls-2" d="M204.68,72.89c.27.27-.06.69.26,1.07.18.22.41.24,1.83.33,1.08.06,1.24.07,1.48,0a2,2,0,0,0,1-1c1.24-2.34,1.19-7.12,1.19-7.12.16-4.67-.35-5.26-.7-5.53-.77-.59-2.17-.24-4.93.47-3.22.83-4.86,1.28-6.21,2.58a7.81,7.81,0,0,0-2.08,3.44c-.23.78-.7,2.46.16,3.67a3.68,3.68,0,0,0,.9.84c.74.57,1.94,1.23,2.22,1s-.44-1.32-.34-1.38.8,1.8,2.16,2.15S204.19,72.39,204.68,72.89Z"/>
        <path class="cls-2" d="M204.71,72.85c.23.25.09.56.14.79a.52.52,0,0,0,.48.45,11.34,11.34,0,0,0,1.55.07c.52,0,1.1.09,1.43-.18a2.2,2.2,0,0,0,.77-1.15,23.57,23.57,0,0,0,.92-6c.05-1.06.16-2.08.17-3.12,0-.52,0-1,0-1.55a2.33,2.33,0,0,0-.43-1.35,1.78,1.78,0,0,0-1.37-.32,11.89,11.89,0,0,0-1.52.28c-1,.24-2,.57-3,.86-2,.64-4,1.22-5.26,2.77a7.3,7.3,0,0,0-1.44,2.54,5.73,5.73,0,0,0-.32,2.79,2.07,2.07,0,0,0,.6,1.08,10.29,10.29,0,0,0,1.17.89,5.06,5.06,0,0,0,.63.36l.29.12c.08,0,.18,0,.06.06s-.1.13-.09.14a.09.09,0,0,0,0-.06,1.42,1.42,0,0,0-.08-.31l-.13-.36-.07-.2a.43.43,0,0,1,0-.18v-.08a.4.4,0,0,1,.17-.29.44.44,0,0,1,.34,0c.12.07.07,0,.1.07a1.93,1.93,0,0,1,.25.42l.18.34a5.16,5.16,0,0,0,.4.63,2.37,2.37,0,0,0,1.14.87,2.6,2.6,0,0,0,1.48-.12l.75-.27C204.15,72.73,204.48,72.63,204.71,72.85Zm-.07.07c-.17-.16-.45-.08-.69,0s-.48.19-.73.28a2.93,2.93,0,0,1-1.59.26c-1.14-.19-1.89-1.37-2.36-2l.07,0a.31.31,0,0,0,.44-.27v0s0,0,0,0l.08.16.19.36a2,2,0,0,1,.16.44,1,1,0,0,1,0,.32.64.64,0,0,1-.28.47.9.9,0,0,1-.71.08,2.66,2.66,0,0,1-.45-.13,6,6,0,0,1-.76-.37,8,8,0,0,1-1.36-1,3.09,3.09,0,0,1-1-1.59,6.41,6.41,0,0,1,.37-3.37,8.44,8.44,0,0,1,1.73-2.84,6.79,6.79,0,0,1,2.75-1.83,21.49,21.49,0,0,1,3.07-.83l3.08-.68a11.42,11.42,0,0,1,1.57-.25,2.21,2.21,0,0,1,1.61.39,2.83,2.83,0,0,1,.62,1.54,13.89,13.89,0,0,1,.18,1.58c.09,1,.08,2.12.11,3.16a14.09,14.09,0,0,1-1.18,6.27,2.81,2.81,0,0,1-1.12,1.28,1.44,1.44,0,0,1-.87.14l-.79-.09c-.52-.07-1-.09-1.57-.19a.67.67,0,0,1-.56-.58C204.7,73.38,204.81,73.1,204.64,72.92Z"/>
      </g>
      <path class="cls-2" d="M195.51,70.26c.34,0,.62.27.91.43l.87.58A17.6,17.6,0,0,0,199,72.36a2.34,2.34,0,0,0,.48.18c.17,0,.3,0,.27-.21a4.14,4.14,0,0,0-.37-1s0-.08,0-.13a.22.22,0,0,1,0-.12c0-.11.21,0,.18,0a1.13,1.13,0,0,1,.17.23l.28.43a4.75,4.75,0,0,0,.63.79,1.92,1.92,0,0,0,1.75.6,4.19,4.19,0,0,0,1-.3,2.64,2.64,0,0,1,1.08-.31A.65.65,0,0,1,205,73a2.15,2.15,0,0,1,.06.57.54.54,0,0,0,.46.52,6.17,6.17,0,0,0,2-.15,2.12,2.12,0,0,1,.57,0,.48.48,0,0,1,.42.25.53.53,0,0,1,0,.45,2.85,2.85,0,0,1-.77.84,4.66,4.66,0,0,1-2,.89,7.32,7.32,0,0,1-4.14-.67,13,13,0,0,1-3.53-2.2A12.75,12.75,0,0,1,196.56,72a7.14,7.14,0,0,1-.63-.82C195.76,70.89,195.49,70.6,195.51,70.26Zm0,0c0,.34.26.63.43.91a10,10,0,0,0,.65.81,12.59,12.59,0,0,0,1.49,1.43,12.4,12.4,0,0,0,3.57,2,7.15,7.15,0,0,0,4,.49,4.31,4.31,0,0,0,1.76-.85,2.27,2.27,0,0,0,.62-.67s0-.12,0,0,0,0,0,0a4.07,4.07,0,0,0-.46,0,6.32,6.32,0,0,1-2.15.11,1,1,0,0,1-.78-.94c0-.43,0-.58-.24-.6-.52,0-1.22.45-1.94.52a2.22,2.22,0,0,1-2-.77,5.26,5.26,0,0,1-.64-.85l-.26-.45-.12-.2h0a.09.09,0,0,0,.06,0s0,0,0,0a.56.56,0,0,0,0,.12,4.26,4.26,0,0,1,.33,1,.31.31,0,0,1-.11.28.42.42,0,0,1-.29,0,2.92,2.92,0,0,1-.49-.19,18.52,18.52,0,0,1-1.74-1.13l-.86-.59C196.13,70.54,195.85,70.26,195.51,70.26Z"/>
      <g>
        <path class="cls-2" d="M191.11,65.7c.37-.12.6.35,1.08.23.27-.06.4-.26,1.1-1.5.54-.93.61-1.07.63-1.33a2.06,2.06,0,0,0-.48-1.34c-1.55-2.15-5.86-4.22-5.86-4.22-4.11-2.2-4.87-2-5.27-1.81-.86.43-1.17,1.84-1.75,4.63-.68,3.26-1,4.92-.43,6.71a7.75,7.75,0,0,0,2.16,3.39c.6.54,1.9,1.71,3.37,1.47a3.86,3.86,0,0,0,1.14-.43c.85-.42,2-1.2,1.84-1.58s-1.38-.19-1.39-.3,2,.08,2.89-1S190.45,65.92,191.11,65.7Z"/>
        <path class="cls-2" d="M191.1,65.65c.32-.1.54.17.76.22a.53.53,0,0,0,.62-.23,11.85,11.85,0,0,0,.75-1.36c.2-.47.56-1,.47-1.36a2.27,2.27,0,0,0-.69-1.2,23.48,23.48,0,0,0-5-3.49c-.93-.51-1.79-1.06-2.72-1.53a15,15,0,0,0-1.41-.65,2.36,2.36,0,0,0-1.4-.21,1.77,1.77,0,0,0-.89,1.08,12.66,12.66,0,0,0-.42,1.49c-.23,1-.38,2.06-.56,3.09-.3,2.06-.68,4.14.16,5.94a7.16,7.16,0,0,0,1.64,2.41,5.82,5.82,0,0,0,2.37,1.52,2,2,0,0,0,1.23-.06,10.16,10.16,0,0,0,1.32-.66,5.08,5.08,0,0,0,.59-.4l.24-.21c.07-.05.08-.16.08,0a.2.2,0,0,0,.09.15.14.14,0,0,0-.06,0,1.8,1.8,0,0,0-.31-.07l-.38,0-.21,0-.18,0-.07,0a.37.37,0,0,1-.19-.29.4.4,0,0,1,.14-.3c.12-.08.07,0,.11-.06a1.88,1.88,0,0,1,.48,0H188a6,6,0,0,0,.74-.08,2.31,2.31,0,0,0,1.28-.65,2.5,2.5,0,0,0,.55-1.38l.09-.78C190.74,66.1,190.8,65.76,191.1,65.65Zm0,.09c-.22.09-.28.37-.31.62s0,.52-.06.78a3,3,0,0,1-.48,1.54c-.67.94-2.07,1.09-2.87,1.21l.06,0a.29.29,0,0,0,.11-.27.3.3,0,0,0-.15-.25l0,0h.6a2.9,2.9,0,0,1,.47,0,1.09,1.09,0,0,1,.3.12.63.63,0,0,1,.3.45,1,1,0,0,1-.24.68,3.53,3.53,0,0,1-.32.34,6.36,6.36,0,0,1-.67.52,8.59,8.59,0,0,1-1.46.8,3,3,0,0,1-1.85.15,6.33,6.33,0,0,1-2.86-1.82,8.19,8.19,0,0,1-1.78-2.8,6.7,6.7,0,0,1-.43-3.28,20,20,0,0,1,.61-3.12l.75-3.06a12.1,12.1,0,0,1,.47-1.52,2.16,2.16,0,0,1,1.06-1.27,2.7,2.7,0,0,1,1.65.12,15,15,0,0,1,1.51.53c1,.39,1.94.87,2.88,1.3a14.37,14.37,0,0,1,5.11,3.83,2.79,2.79,0,0,1,.64,1.58,1.42,1.42,0,0,1-.26.84l-.42.67c-.3.43-.54.89-.87,1.32a.68.68,0,0,1-.76.25C191.56,65.9,191.36,65.66,191.13,65.74Z"/>
      </g>
      <path class="cls-2" d="M184.7,72.76c.15-.31.52-.44.8-.63l.9-.52a17.6,17.6,0,0,0,1.75-1.09,2.06,2.06,0,0,0,.37-.35c.11-.14.1-.29-.07-.34a4.14,4.14,0,0,0-1-.08l-.14,0a.19.19,0,0,1-.11,0c-.08-.07.07-.2.07-.17s.19,0,.28-.05l.51,0a5.48,5.48,0,0,0,1-.23,1.94,1.94,0,0,0,1.32-1.3,4.45,4.45,0,0,0,.14-1,2.73,2.73,0,0,1,.2-1.11.69.69,0,0,1,.64-.34,2.09,2.09,0,0,1,.54.21.55.55,0,0,0,.67-.18,6,6,0,0,0,.73-1.83,2.73,2.73,0,0,1,.24-.53.51.51,0,0,1,.41-.27.56.56,0,0,1,.39.24,2.74,2.74,0,0,1,.41,1.06,4.92,4.92,0,0,1-.07,2.16,7.24,7.24,0,0,1-2.43,3.41,12.94,12.94,0,0,1-3.53,2.19,12.75,12.75,0,0,1-2,.68c-.33.08-.67.15-1,.2A1.85,1.85,0,0,1,184.7,72.76Zm0,0a1.82,1.82,0,0,0,1,0,8.65,8.65,0,0,0,1-.22,13.31,13.31,0,0,0,1.95-.7,12.72,12.72,0,0,0,3.39-2.31,7.13,7.13,0,0,0,2.19-3.34,4.28,4.28,0,0,0,0-2,2.38,2.38,0,0,0-.33-.86s-.09-.07,0,0,.05,0,0,0a2.43,2.43,0,0,0-.17.42,6.45,6.45,0,0,1-.86,2,1,1,0,0,1-1.19.29c-.38-.2-.52-.25-.64-.06-.23.48-.14,1.3-.39,2a2.21,2.21,0,0,1-1.56,1.44,5.52,5.52,0,0,1-1.05.19l-.52,0a1.29,1.29,0,0,0-.23,0s0,0,0,0a.16.16,0,0,0,0-.07s0,0,0,0l.11,0a4.64,4.64,0,0,1,1,.14.3.3,0,0,1,.2.22.41.41,0,0,1-.1.27,2.18,2.18,0,0,1-.4.35,15.26,15.26,0,0,1-1.78,1.07l-.9.5C185.23,72.33,184.86,72.46,184.7,72.76Z"/>
      <g>
        <path class="cls-2" d="M203.91,54.88c.33.18.13.68.55,1,.23.15.45.11,1.85-.19,1.05-.23,1.21-.27,1.41-.43A2.06,2.06,0,0,0,208.4,54c.56-2.59-.79-7.17-.79-7.17-1.11-4.53-1.76-5-2.17-5.13-.9-.36-2.15.35-4.62,1.79-2.88,1.67-4.33,2.54-5.27,4.16a7.72,7.72,0,0,0-1.08,3.88c0,.81,0,2.56,1.16,3.49a3.82,3.82,0,0,0,1.09.56c.87.35,2.21.66,2.4.31s-.79-1.15-.7-1.24,1.25,1.53,2.65,1.5S203.31,54.53,203.91,54.88Z"/>
        <path class="cls-2" d="M203.94,54.83c.28.17.23.51.35.72a.52.52,0,0,0,.58.31,13.77,13.77,0,0,0,1.51-.36c.49-.16,1.08-.21,1.32-.56a2.29,2.29,0,0,0,.44-1.32,23.78,23.78,0,0,0-.76-6c-.24-1-.41-2-.68-3a14.92,14.92,0,0,0-.46-1.48,2.44,2.44,0,0,0-.78-1.19,1.81,1.81,0,0,0-1.4.07,12,12,0,0,0-1.39.69c-.91.5-1.78,1.09-2.66,1.64-1.74,1.15-3.54,2.26-4.32,4.09a7.23,7.23,0,0,0-.69,2.84,5.65,5.65,0,0,0,.45,2.77,2.05,2.05,0,0,0,.87.88,10.27,10.27,0,0,0,1.37.54,5.94,5.94,0,0,0,.7.17l.31,0c.09,0,.18,0,.07,0s-.06.15,0,.16a.12.12,0,0,0,0-.06,1.39,1.39,0,0,0-.16-.28l-.22-.31L198.2,55a.88.88,0,0,1-.09-.16l0-.07a.39.39,0,0,1,.08-.33.36.36,0,0,1,.32-.1c.14,0,.08,0,.12,0a1.92,1.92,0,0,1,.35.33l.27.28a5.27,5.27,0,0,0,.56.5,2.3,2.3,0,0,0,1.33.52,2.39,2.39,0,0,0,1.39-.52l.65-.45A.76.76,0,0,1,203.94,54.83Zm-.05.09c-.21-.11-.46,0-.67.18l-.62.47a3,3,0,0,1-1.46.68c-1.15.13-2.19-.81-2.83-1.32l.07,0a.3.3,0,0,0,.28-.1.29.29,0,0,0,.08-.28v0s0,0,0,0l.12.13.28.29a2.5,2.5,0,0,1,.28.38,1.27,1.27,0,0,1,.11.3.61.61,0,0,1-.14.53.91.91,0,0,1-.66.27,2.46,2.46,0,0,1-.47,0,7.17,7.17,0,0,1-.83-.15,8.63,8.63,0,0,1-1.57-.56,3,3,0,0,1-1.35-1.27,6.22,6.22,0,0,1-.56-3.34,8.18,8.18,0,0,1,.89-3.2A6.62,6.62,0,0,1,197,45.42a21.93,21.93,0,0,1,2.73-1.64l2.78-1.48a11.81,11.81,0,0,1,1.44-.67,2.18,2.18,0,0,1,1.65-.07,2.75,2.75,0,0,1,1,1.32c.23.48.43,1,.61,1.47.36,1,.65,2,1,3a14.21,14.21,0,0,1,.57,6.36,2.85,2.85,0,0,1-.74,1.53,1.45,1.45,0,0,1-.8.38l-.78.13c-.52.07-1,.19-1.57.23a.67.67,0,0,1-.69-.4C204.07,55.34,204.1,55,203.89,54.92Z"/>
      </g>
      <path class="cls-2" d="M194.37,54.83a2.18,2.18,0,0,1,1,.17l1,.32a15.54,15.54,0,0,0,2,.57,2.18,2.18,0,0,0,.5,0c.18,0,.29-.12.21-.28a4.59,4.59,0,0,0-.62-.81l-.08-.11a.19.19,0,0,1,0-.12c0-.11.19-.08.17-.06a1.42,1.42,0,0,1,.22.18l.39.34a5.08,5.08,0,0,0,.82.58,1.91,1.91,0,0,0,1.85.11,4.42,4.42,0,0,0,.83-.55,2.71,2.71,0,0,1,1-.59.66.66,0,0,1,.67.25,1.72,1.72,0,0,1,.21.54.55.55,0,0,0,.58.38,6.49,6.49,0,0,0,1.86-.68,2.37,2.37,0,0,1,.55-.18.48.48,0,0,1,.47.13.51.51,0,0,1,.08.44,2.65,2.65,0,0,1-.51,1,4.71,4.71,0,0,1-1.65,1.39,7.28,7.28,0,0,1-4.16.48,13.24,13.24,0,0,1-4-1.16,13.93,13.93,0,0,1-1.81-1c-.29-.2-.57-.4-.83-.62S194.45,55.17,194.37,54.83Zm0,0c.09.33.42.54.67.76a10,10,0,0,0,.84.61,13.79,13.79,0,0,0,1.82,1,12.62,12.62,0,0,0,4,1,7.18,7.18,0,0,0,3.94-.6,4.27,4.27,0,0,0,1.47-1.3,2.21,2.21,0,0,0,.42-.82s0-.11,0,0,0,0,0,0a2.3,2.3,0,0,0-.43.16,6.71,6.71,0,0,1-2,.68,1,1,0,0,1-1-.69c-.1-.42-.16-.56-.38-.52-.51.16-1.06.77-1.73,1a2.23,2.23,0,0,1-2.11-.2,5.37,5.37,0,0,1-.84-.65l-.37-.36a1.22,1.22,0,0,0-.18-.16h0a.1.1,0,0,0,.05-.06s0,0,0,0l.07.1a3.91,3.91,0,0,1,.59.87.28.28,0,0,1,0,.29.37.37,0,0,1-.27.1,2.38,2.38,0,0,1-.53-.05,18.91,18.91,0,0,1-2-.61l-1-.34C195,54.94,194.7,54.74,194.37,54.83Z"/>
      <g>
        <path class="cls-2" d="M188.82,46.57c.36-.13.61.35,1.09.22.27-.08.38-.27,1.07-1.53.52-.94.59-1.09.6-1.34a2.11,2.11,0,0,0-.5-1.33c-1.6-2.12-6-4.1-6-4.1-4.15-2.12-4.9-1.92-5.3-1.71-.86.44-1.14,1.85-1.66,4.66-.62,3.27-.91,4.94-.31,6.71a7.82,7.82,0,0,0,2.23,3.35c.61.53,1.94,1.68,3.4,1.41a3.73,3.73,0,0,0,1.14-.46c.83-.43,1.94-1.23,1.8-1.61s-1.38-.16-1.39-.28,2,0,2.87-1S188.16,46.8,188.82,46.57Z"/>
        <path class="cls-2" d="M188.81,46.52c.31-.1.54.16.76.2a.53.53,0,0,0,.62-.23,12.86,12.86,0,0,0,.72-1.38c.2-.48.54-1,.44-1.36a2.27,2.27,0,0,0-.71-1.2,24.12,24.12,0,0,0-5.07-3.39c-.94-.49-1.82-1-2.76-1.47a12.57,12.57,0,0,0-1.41-.62,2.38,2.38,0,0,0-1.41-.19,1.77,1.77,0,0,0-.87,1.11,11.61,11.61,0,0,0-.39,1.49c-.21,1-.34,2.06-.5,3.09-.26,2.07-.6,4.16.28,5.94a7.18,7.18,0,0,0,1.69,2.38,5.73,5.73,0,0,0,2.39,1.48,2.06,2.06,0,0,0,1.23-.09,10.71,10.71,0,0,0,1.3-.68,5.19,5.19,0,0,0,.59-.42,2.51,2.51,0,0,0,.23-.21c.07-.06.09-.17.08,0s.08.15.1.14l-.06,0-.32-.06-.37,0-.22,0a.86.86,0,0,1-.17,0l-.08,0a.37.37,0,0,1-.19-.28.41.41,0,0,1,.13-.31c.12-.08.07,0,.11-.06a1.59,1.59,0,0,1,.48,0l.39,0a6,6,0,0,0,.74-.1,2.3,2.3,0,0,0,1.27-.66,2.6,2.6,0,0,0,.52-1.4l.07-.78C188.46,47,188.51,46.64,188.81,46.52Zm0,.09c-.22.1-.27.38-.3.63s0,.51,0,.78a2.94,2.94,0,0,1-.44,1.55c-.65,1-2.05,1.13-2.85,1.27l.06,0a.29.29,0,0,0,.11-.27.31.31,0,0,0-.16-.25h0c-.05,0,0,0,0,0h.58a2.64,2.64,0,0,1,.47,0,1.11,1.11,0,0,1,.3.11.64.64,0,0,1,.31.46.9.9,0,0,1-.23.67,2.15,2.15,0,0,1-.31.35,5.56,5.56,0,0,1-.66.54,8.5,8.5,0,0,1-1.44.82,3.1,3.1,0,0,1-1.85.19,6.33,6.33,0,0,1-2.89-1.76,8.29,8.29,0,0,1-1.84-2.77,6.66,6.66,0,0,1-.49-3.26,20,20,0,0,1,.55-3.14l.69-3.08a11.93,11.93,0,0,1,.44-1.52,2.17,2.17,0,0,1,1-1.3,2.81,2.81,0,0,1,1.66.09,14.87,14.87,0,0,1,1.51.51c1,.37,2,.83,2.91,1.24a14.19,14.19,0,0,1,5.18,3.73,2.74,2.74,0,0,1,.67,1.56,1.44,1.44,0,0,1-.24.85l-.41.67c-.28.45-.52.91-.84,1.34a.67.67,0,0,1-.76.27C189.28,46.76,189.07,46.53,188.84,46.61Z"/>
      </g>
      <path class="cls-2" d="M182.55,53.75c.14-.3.51-.44.78-.64l.89-.54A16.16,16.16,0,0,0,186,51.44a2,2,0,0,0,.36-.35c.11-.14.1-.29-.08-.33a4.15,4.15,0,0,0-1-.07h-.14s-.05,0-.11,0,.07-.2.06-.17a1.11,1.11,0,0,1,.28-.05l.51-.07a4.79,4.79,0,0,0,1-.25,1.92,1.92,0,0,0,1.29-1.32,4.62,4.62,0,0,0,.12-1,2.92,2.92,0,0,1,.18-1.11.67.67,0,0,1,.64-.35,2.29,2.29,0,0,1,.54.2.54.54,0,0,0,.66-.2,6.08,6.08,0,0,0,.7-1.84,2.43,2.43,0,0,1,.23-.54.51.51,0,0,1,.4-.27.56.56,0,0,1,.4.23,2.89,2.89,0,0,1,.43,1.06,4.88,4.88,0,0,1,0,2.15A7.31,7.31,0,0,1,190,50.57a12.82,12.82,0,0,1-3.49,2.26,12.29,12.29,0,0,1-1.95.71,8.85,8.85,0,0,1-1,.23A1.82,1.82,0,0,1,182.55,53.75Zm0,0a1.74,1.74,0,0,0,1,0,8.72,8.72,0,0,0,1-.24,13.29,13.29,0,0,0,1.93-.75,12.34,12.34,0,0,0,3.35-2.37A7.15,7.15,0,0,0,192,47a4.28,4.28,0,0,0,0-1.95,2.27,2.27,0,0,0-.35-.85c0-.05-.09-.07,0-.05s0,0,0,0a2.3,2.3,0,0,0-.16.43,6.46,6.46,0,0,1-.82,2,1,1,0,0,1-1.18.31c-.39-.19-.53-.24-.65,0-.21.49-.11,1.3-.34,2a2.23,2.23,0,0,1-1.54,1.47,5.33,5.33,0,0,1-1,.21l-.52,0-.23,0s0,0,0,0a.11.11,0,0,0,0-.08s0,0,0,0h.12a4.17,4.17,0,0,1,1,.13.28.28,0,0,1,.21.21.41.41,0,0,1-.1.27,2.64,2.64,0,0,1-.39.36,17.93,17.93,0,0,1-1.76,1.11l-.9.52C183.07,53.32,182.7,53.45,182.55,53.75Z"/>
      <g>
        <path class="cls-2" d="M208.15,95.44c.35-.14.61.33,1.09.18.27-.08.38-.28,1-1.55.49-1,.56-1.11.56-1.37a2.07,2.07,0,0,0-.54-1.31c-1.66-2.07-6.08-3.91-6.08-3.91-4.21-2-5-1.76-5.35-1.55-.84.48-1.07,1.9-1.51,4.72-.52,3.29-.76,5-.1,6.72a7.91,7.91,0,0,0,2.34,3.27c.62.52,2,1.62,3.44,1.31a4.12,4.12,0,0,0,1.12-.5c.82-.46,1.91-1.29,1.75-1.66s-1.38-.12-1.4-.24,2,0,2.84-1.12S207.5,95.69,208.15,95.44Z"/>
        <path class="cls-2" d="M208.13,95.39c.31-.11.55.14.78.18a.52.52,0,0,0,.6-.25,11.31,11.31,0,0,0,.68-1.4c.18-.48.51-1,.4-1.38a2.27,2.27,0,0,0-.75-1.17,23.77,23.77,0,0,0-5.18-3.23c-.95-.46-1.84-1-2.8-1.39-.47-.21-1-.41-1.43-.57A2.3,2.3,0,0,0,199,86a1.77,1.77,0,0,0-.83,1.12,12.7,12.7,0,0,0-.34,1.51c-.18,1-.27,2.07-.4,3.11-.2,2.07-.48,4.17.46,5.93a7.43,7.43,0,0,0,1.76,2.32,5.64,5.64,0,0,0,2.44,1.4,2,2,0,0,0,1.23-.13,9.05,9.05,0,0,0,1.28-.72,5,5,0,0,0,.57-.43,2.49,2.49,0,0,0,.23-.22c.07-.06.08-.17.08,0s.07.14.09.14a.14.14,0,0,0-.06,0l-.31-.05-.38,0h-.21a.92.92,0,0,1-.18,0l-.08,0a.35.35,0,0,1-.07-.59c.11-.08.07,0,.1-.06a2.45,2.45,0,0,1,.48-.07l.39,0A4.75,4.75,0,0,0,206,99a2.34,2.34,0,0,0,1.24-.7,2.51,2.51,0,0,0,.48-1.41l.05-.78C207.8,95.86,207.84,95.52,208.13,95.39Zm0,.1c-.22.09-.26.38-.28.63s0,.52,0,.78a3,3,0,0,1-.39,1.56c-.62,1-2,1.19-2.81,1.36l.06,0a.29.29,0,0,0,.1-.28.29.29,0,0,0-.17-.23l0,0s0,0,0,0h.18l.4,0a2.57,2.57,0,0,1,.47,0,1.22,1.22,0,0,1,.31.1.66.66,0,0,1,.32.45.89.89,0,0,1-.21.68,2.12,2.12,0,0,1-.3.36,4.67,4.67,0,0,1-.64.55,8.23,8.23,0,0,1-1.42.88,3.14,3.14,0,0,1-1.84.24,6.38,6.38,0,0,1-2.95-1.67A8.43,8.43,0,0,1,197,98.1a6.77,6.77,0,0,1-.59-3.25,21.53,21.53,0,0,1,.45-3.15l.6-3.09a10.66,10.66,0,0,1,.39-1.55,2.16,2.16,0,0,1,1-1.32,2.75,2.75,0,0,1,1.66,0,13.47,13.47,0,0,1,1.53.46c1,.33,2,.76,2.94,1.14a14.33,14.33,0,0,1,5.3,3.57,2.84,2.84,0,0,1,.72,1.54,1.47,1.47,0,0,1-.21.86l-.39.69c-.28.44-.5.92-.81,1.36a.64.64,0,0,1-.74.28C208.61,95.62,208.39,95.4,208.17,95.49Z"/>
      </g>
      <path class="cls-2" d="M202.1,102.82c.14-.31.5-.47.77-.67l.87-.56a17,17,0,0,0,1.69-1.19,1.7,1.7,0,0,0,.35-.36c.11-.15.1-.29-.08-.33a4.19,4.19,0,0,0-1,0h-.14s-.05,0-.11,0,.06-.2.05-.18a1.77,1.77,0,0,1,.28-.06l.51-.08a4.66,4.66,0,0,0,1-.27,1.91,1.91,0,0,0,1.25-1.37,4.62,4.62,0,0,0,.1-1,2.63,2.63,0,0,1,.14-1.11.67.67,0,0,1,.62-.37,2,2,0,0,1,.55.17.54.54,0,0,0,.66-.21,6.24,6.24,0,0,0,.64-1.87,3.13,3.13,0,0,1,.21-.54.48.48,0,0,1,.4-.28.54.54,0,0,1,.4.22,2.66,2.66,0,0,1,.46,1,4.88,4.88,0,0,1,0,2.15,7.34,7.34,0,0,1-2.26,3.54,13,13,0,0,1-3.42,2.36,12,12,0,0,1-1.93.77,7,7,0,0,1-1,.26A1.87,1.87,0,0,1,202.1,102.82Zm0,0a1.84,1.84,0,0,0,1,0,8.68,8.68,0,0,0,1-.27,14.53,14.53,0,0,0,1.91-.8,12.84,12.84,0,0,0,3.27-2.48,7.19,7.19,0,0,0,2-3.44,4.33,4.33,0,0,0-.08-2,2.32,2.32,0,0,0-.38-.84s-.09-.06,0,0,0,0,0,0a2.3,2.3,0,0,0-.16.43,6.19,6.19,0,0,1-.75,2,1,1,0,0,1-1.18.35c-.39-.18-.53-.22-.64,0-.2.49-.07,1.3-.29,2a2.22,2.22,0,0,1-1.49,1.51,5.14,5.14,0,0,1-1,.24l-.52.06a1.2,1.2,0,0,0-.23,0s0,0,0,0a.08.08,0,0,0,0-.07s0,0,0,0l.12,0a3.8,3.8,0,0,1,1.05.09.28.28,0,0,1,.21.2.41.41,0,0,1-.09.28,2.65,2.65,0,0,1-.38.37,17.86,17.86,0,0,1-1.72,1.16l-.88.54C202.61,102.37,202.24,102.51,202.1,102.82Z"/>
      <g>
        <path class="cls-2" d="M192.62,96.78c.32-.21.67.19,1.11,0,.24-.13.31-.35.67-1.73.28-1,.31-1.2.26-1.46a2.06,2.06,0,0,0-.8-1.17c-2.06-1.67-6.76-2.55-6.76-2.55-4.54-1.06-5.22-.68-5.56-.39-.72.64-.65,2.08-.49,4.93.19,3.32.3,5,1.32,6.59a7.83,7.83,0,0,0,3,2.72c.72.36,2.28,1.16,3.64.55a3.74,3.74,0,0,0,1-.72c.71-.62,1.6-1.67,1.37-2s-1.38.18-1.42.07,1.93-.43,2.53-1.7S192,97.16,192.62,96.78Z"/>
        <path class="cls-2" d="M192.6,96.74c.28-.18.56,0,.79,0a.52.52,0,0,0,.54-.37,13,13,0,0,0,.37-1.52c.08-.51.3-1,.1-1.43a2.21,2.21,0,0,0-1-1,23.37,23.37,0,0,0-5.74-2.08c-1-.25-2-.55-3-.77-.51-.11-1-.2-1.53-.26a2.34,2.34,0,0,0-1.41.16,1.77,1.77,0,0,0-.58,1.28,13.16,13.16,0,0,0,0,1.54c0,1,.16,2.08.26,3.12.23,2.07.4,4.19,1.69,5.7a7.22,7.22,0,0,0,2.21,1.91,5.58,5.58,0,0,0,2.68.85,2,2,0,0,0,1.17-.38,10,10,0,0,0,1.1-1,6,6,0,0,0,.47-.55,1.64,1.64,0,0,0,.17-.26c.06-.07.05-.18.07,0s.11.12.13.11H191a1.15,1.15,0,0,0-.31,0l-.38.05-.21,0h-.18l-.08,0a.35.35,0,0,1-.25-.22.4.4,0,0,1,.05-.33c.1-.11.06-.06.09-.09a2.54,2.54,0,0,1,.46-.16l.37-.11c.24-.08.47-.17.7-.27a2.32,2.32,0,0,0,1.07-1,2.51,2.51,0,0,0,.16-1.47l-.11-.78A.8.8,0,0,1,192.6,96.74Zm.05.08c-.19.14-.17.43-.14.68s.09.51.14.77a3,3,0,0,1-.06,1.61c-.4,1.08-1.71,1.58-2.46,1.92l.05-.06a.31.31,0,0,0-.17-.48h0s0,0,0,0l.17,0,.39-.12A2.73,2.73,0,0,1,191,101a1.47,1.47,0,0,1,.33,0,.63.63,0,0,1,.4.36,1,1,0,0,1-.05.71,4,4,0,0,1-.22.42,5.08,5.08,0,0,1-.52.68,9.35,9.35,0,0,1-1.2,1.15A3.1,3.1,0,0,1,188,105a6.24,6.24,0,0,1-3.23-1,8.21,8.21,0,0,1-2.45-2.24,6.78,6.78,0,0,1-1.26-3,21.43,21.43,0,0,1-.22-3.18l-.06-3.15a10.57,10.57,0,0,1,.06-1.59,2.11,2.11,0,0,1,.69-1.5,2.72,2.72,0,0,1,1.63-.31,14.2,14.2,0,0,1,1.59.13c1.05.12,2.1.33,3.12.5a14.24,14.24,0,0,1,5.92,2.38,2.75,2.75,0,0,1,1,1.35,1.38,1.38,0,0,1,0,.88l-.23.76c-.18.5-.29,1-.5,1.5a.68.68,0,0,1-.67.44C193.11,96.86,192.85,96.69,192.65,96.82Z"/>
      </g>
      <path class="cls-2" d="M188.26,105.26c.06-.33.39-.56.61-.81l.73-.73A16.81,16.81,0,0,0,191,102.2a1.94,1.94,0,0,0,.27-.43c.07-.16,0-.3-.15-.3a4,4,0,0,0-1,.17l-.14,0s-.05,0-.12,0,0-.21,0-.18a1.12,1.12,0,0,1,.26-.11l.48-.19a4.24,4.24,0,0,0,.89-.48,1.9,1.9,0,0,0,.94-1.6,4.17,4.17,0,0,0-.12-1,2.68,2.68,0,0,1-.09-1.12.67.67,0,0,1,.53-.49,1.73,1.73,0,0,1,.57.06.55.55,0,0,0,.6-.35,6.39,6.39,0,0,0,.24-2,2.4,2.4,0,0,1,.09-.57.49.49,0,0,1,.33-.36.53.53,0,0,1,.43.12,2.71,2.71,0,0,1,.67.92,4.84,4.84,0,0,1,.5,2.1,7.32,7.32,0,0,1-1.46,3.93,13,13,0,0,1-2.85,3,13.28,13.28,0,0,1-1.72,1.16,8,8,0,0,1-.93.46A1.87,1.87,0,0,1,188.26,105.26Zm0,0a1.83,1.83,0,0,0,1-.24c.32-.15.62-.31.92-.48a12.53,12.53,0,0,0,1.69-1.19,12.2,12.2,0,0,0,2.68-3.1,7.1,7.1,0,0,0,1.25-3.79,4.21,4.21,0,0,0-.48-1.9,2.53,2.53,0,0,0-.54-.74s-.11,0,0,0,0,0,0,0a1.89,1.89,0,0,0-.06.45,6.57,6.57,0,0,1-.32,2.13,1,1,0,0,1-1.07.59c-.43-.1-.57-.11-.64.11-.09.52.21,1.28.14,2a2.23,2.23,0,0,1-1.14,1.79,5.28,5.28,0,0,1-1,.46l-.49.16-.22.09s0,0,0,0,0,0,0-.07,0,0,0,0h.12a4.36,4.36,0,0,1,1-.13.28.28,0,0,1,.25.16.38.38,0,0,1,0,.28,2.89,2.89,0,0,1-.29.45,17,17,0,0,1-1.45,1.49l-.74.72C188.66,104.71,188.33,104.93,188.26,105.26Z"/>
      <g>
        <path class="cls-2" d="M195.93,82.18c.32-.08.53.31,1,.24.24,0,.34-.2,1-1.16.47-.73.53-.84.55-1.05a1.66,1.66,0,0,0-.43-1.09c-1.39-1.78-5.23-3.59-5.23-3.59-3.66-1.92-4.33-1.8-4.69-1.66-.76.31-1,1.43-1.53,3.64-.59,2.58-.87,3.9-.36,5.35a6.76,6.76,0,0,0,1.94,2.8,4.39,4.39,0,0,0,3,1.31,3.55,3.55,0,0,0,1-.31c.74-.3,1.74-.88,1.62-1.19s-1.23-.2-1.24-.3,1.76.15,2.57-.67S195.34,82.33,195.93,82.18Z"/>
        <path class="cls-2" d="M195.92,82.14c.26-.06.45.14.64.2a.47.47,0,0,0,.55-.12,8.28,8.28,0,0,0,.71-1.1c.19-.4.51-.76.39-1.11a2,2,0,0,0-.67-1,24.3,24.3,0,0,0-4.31-2.87c-.76-.41-1.54-.88-2.31-1.28a8,8,0,0,0-2.4-.94,1,1,0,0,0-1,.57,5.48,5.48,0,0,0-.45,1.21c-.23.84-.36,1.72-.53,2.59-.3,1.74-.63,3.49.2,5a6.1,6.1,0,0,0,1.51,2,5.15,5.15,0,0,0,2.06,1.23,1.89,1.89,0,0,0,1.08,0,9.65,9.65,0,0,0,1.16-.46,4.54,4.54,0,0,0,.53-.3l.22-.16c.06,0,.08-.14.06,0s.07.14.08.13l-.06,0a1.43,1.43,0,0,0-.26-.06l-.31,0a1.8,1.8,0,0,1-.43-.09h0a.24.24,0,0,1-.1-.1.26.26,0,0,1,0-.28c.21-.24.19-.13.22-.16l.13,0h.51c.21,0,.43,0,.64,0a2.24,2.24,0,0,0,1.16-.4,1.6,1.6,0,0,0,.55-1.1c0-.21.05-.43.08-.66S195.65,82.22,195.92,82.14Zm0,.08c-.2.06-.25.3-.28.51l-.06.66a1.87,1.87,0,0,1-.52,1.26,2.52,2.52,0,0,1-1.25.6c-.23,0-.46.08-.68.11l-.34,0-.15,0h0s0,.09.14-.13a.27.27,0,0,0,0-.25.22.22,0,0,0-.09-.08h0s.15,0,.24,0h.34a3,3,0,0,1,.39,0,1,1,0,0,1,.25.11.51.51,0,0,1,.24.4.78.78,0,0,1-.25.56,2.38,2.38,0,0,1-.29.27q-.3.21-.6.39a8.17,8.17,0,0,1-1.28.57,3,3,0,0,1-1.54,0,5.76,5.76,0,0,1-2.45-1.46,7.1,7.1,0,0,1-1.64-2.27,5.24,5.24,0,0,1-.48-2.76,16.26,16.26,0,0,1,.55-2.64l.7-2.57a5.05,5.05,0,0,1,.51-1.26,1.28,1.28,0,0,1,1.19-.71,21,21,0,0,1,5,1.87,13.54,13.54,0,0,1,4.39,3.13,2.59,2.59,0,0,1,.64,1.28,1.05,1.05,0,0,1-.19.74l-.39.55c-.27.35-.49.73-.8,1.07a.62.62,0,0,1-.67.12C196.31,82.35,196.14,82.17,195.94,82.22Z"/>
      </g>
      <path class="cls-2" d="M190.27,87.59c.14-.25.46-.33.7-.47l.79-.38a15,15,0,0,0,1.54-.8,1.72,1.72,0,0,0,.33-.26c.11-.11.12-.23,0-.27a2.84,2.84,0,0,0-.84-.11,1.11,1.11,0,0,1-.23,0h0s-.06-.06,0-.1.08-.05.1-.07l.12,0,.44,0a4.72,4.72,0,0,0,.84-.12,1.64,1.64,0,0,0,1.27-.89,2.38,2.38,0,0,0,.17-.8,2.86,2.86,0,0,1,.14-.92A.6.6,0,0,1,196,82a1.18,1.18,0,0,1,.49.16.5.5,0,0,0,.61,0,3.35,3.35,0,0,0,.7-1.44,1.94,1.94,0,0,1,.21-.44.43.43,0,0,1,.32-.22.48.48,0,0,1,.35.16,2.11,2.11,0,0,1,.39.89,3.48,3.48,0,0,1-.06,1.81,5.73,5.73,0,0,1-2.26,2.69,11,11,0,0,1-3.12,1.55,12.34,12.34,0,0,1-1.69.44,8.08,8.08,0,0,1-.86.11A1.73,1.73,0,0,1,190.27,87.59Zm0,0a1.73,1.73,0,0,0,.85,0,8.46,8.46,0,0,0,.86-.12,14.27,14.27,0,0,0,1.67-.46,10.94,10.94,0,0,0,3-1.67,5.5,5.5,0,0,0,2.05-2.62,3.07,3.07,0,0,0,0-1.62,1.73,1.73,0,0,0-.31-.7s-.06,0,0,0,0,0,0,0a2.44,2.44,0,0,0-.15.35,3.68,3.68,0,0,1-.86,1.61.89.89,0,0,1-1,.06c-.28-.16-.43-.17-.52,0a11.29,11.29,0,0,1-.37,1.68,1.91,1.91,0,0,1-1.48,1,6.69,6.69,0,0,1-.89.08h-.53s0,0,0,0,0-.06,0-.05a.5.5,0,0,0,.19,0,3.33,3.33,0,0,1,.87.16.23.23,0,0,1,.16.2.4.4,0,0,1-.12.21,2.11,2.11,0,0,1-.35.26,15.13,15.13,0,0,1-1.56.78l-.79.36C190.73,87.27,190.41,87.35,190.27,87.59Z"/>
      <g>
        <path class="cls-2" d="M204.58,121.22c0-.37.47-.51.45-1,0-.28-.18-.43-1.26-1.37-.81-.71-.93-.81-1.18-.87a2,2,0,0,0-1.41.2c-2.41,1.1-5.28,4.93-5.28,4.93-3,3.6-2.93,4.37-2.81,4.81.25.93,1.57,1.5,4.2,2.62,3.06,1.3,4.63,1.95,6.49,1.74a7.8,7.8,0,0,0,3.75-1.46c.65-.48,2.05-1.53,2.1-3a3.77,3.77,0,0,0-.2-1.21c-.24-.91-.79-2.17-1.18-2.11s-.46,1.31-.58,1.3.47-1.92-.39-3S204.67,121.92,204.58,121.22Z"/>
        <path class="cls-2" d="M204.53,121.23c0-.33.27-.49.37-.7a.52.52,0,0,0-.1-.65,12.93,12.93,0,0,0-1.19-1c-.42-.29-.82-.73-1.24-.72a2.25,2.25,0,0,0-1.32.44,23.74,23.74,0,0,0-4.4,4.23c-.68.81-1.39,1.55-2,2.37-.32.4-.63.82-.91,1.25a2.34,2.34,0,0,0-.48,1.34,1.77,1.77,0,0,0,.89,1.08,11,11,0,0,0,1.37.7c.95.43,1.95.77,2.92,1.15,2,.7,3.93,1.49,5.86,1a7.35,7.35,0,0,0,2.68-1.14,5.71,5.71,0,0,0,2-2,2.06,2.06,0,0,0,.18-1.22,10.32,10.32,0,0,0-.39-1.42,4.36,4.36,0,0,0-.28-.66,2.32,2.32,0,0,0-.16-.28c0-.08-.14-.11,0-.08s.16,0,.16-.06l0,0a1.33,1.33,0,0,0-.12.29l-.12.36-.06.21a1.22,1.22,0,0,1-.07.17L208,126a.37.37,0,0,1-.31.13.4.4,0,0,1-.28-.2c-.05-.13,0-.08,0-.12a1.79,1.79,0,0,1,0-.48l.07-.38a4.71,4.71,0,0,0,.06-.74,2.32,2.32,0,0,0-.38-1.39,2.45,2.45,0,0,0-1.25-.8l-.74-.24C204.9,121.67,204.59,121.55,204.53,121.23Zm.1,0c.05.23.31.34.55.42l.75.22a3,3,0,0,1,1.42.77c.79.84.66,2.24.63,3.05l0-.07a.29.29,0,0,0-.24-.16.29.29,0,0,0-.27.1l0,0s0,0,0,0l0-.17.07-.41a2.22,2.22,0,0,1,.14-.44,1.23,1.23,0,0,1,.17-.28.65.65,0,0,1,.51-.2.9.9,0,0,1,.61.37,2.77,2.77,0,0,1,.28.37,7.69,7.69,0,0,1,.38.76,9.78,9.78,0,0,1,.5,1.59,3.09,3.09,0,0,1-.22,1.85,6.29,6.29,0,0,1-2.34,2.45,8.22,8.22,0,0,1-3.1,1.19,6.78,6.78,0,0,1-3.29-.21,21.48,21.48,0,0,1-3-1.22l-2.85-1.33a12.63,12.63,0,0,1-1.4-.76,2.18,2.18,0,0,1-1-1.29,2.77,2.77,0,0,1,.44-1.6c.25-.47.53-.93.82-1.37.57-.88,1.23-1.73,1.83-2.57a14.45,14.45,0,0,1,4.76-4.26,2.78,2.78,0,0,1,1.67-.32,1.42,1.42,0,0,1,.78.42l.57.54c.37.38.77.71,1.12,1.12a.65.65,0,0,1,.1.79C204.87,120.82,204.6,121,204.63,121.22Z"/>
      </g>
      <path class="cls-2" d="M210.25,128.9c-.27-.21-.32-.6-.46-.91l-.33-1a16.78,16.78,0,0,0-.73-1.94,2,2,0,0,0-.27-.42c-.11-.15-.26-.16-.34,0a4.29,4.29,0,0,0-.28,1,.65.65,0,0,1,0,.13s0,0-.08.1-.18-.11-.15-.1a1.24,1.24,0,0,1,0-.28l0-.52a4.26,4.26,0,0,0,0-1,2,2,0,0,0-1-1.55,4.75,4.75,0,0,0-.94-.33,2.68,2.68,0,0,1-1-.41.66.66,0,0,1-.21-.69,1.81,1.81,0,0,1,.31-.49.54.54,0,0,0,0-.69A5.9,5.9,0,0,0,203,118.7a2.31,2.31,0,0,1-.47-.34.48.48,0,0,1-.18-.45.53.53,0,0,1,.31-.34,2.84,2.84,0,0,1,1.12-.19,4.78,4.78,0,0,1,2.1.48,7.29,7.29,0,0,1,2.87,3.06,13,13,0,0,1,1.46,3.89,14.36,14.36,0,0,1,.28,2.06c0,.35,0,.69,0,1A1.78,1.78,0,0,1,210.25,128.9Zm0,0a1.85,1.85,0,0,0,.22-1c0-.35,0-.69,0-1a14,14,0,0,0-.31-2,12.78,12.78,0,0,0-1.6-3.78,7.14,7.14,0,0,0-2.84-2.8,4.54,4.54,0,0,0-1.92-.41,2.45,2.45,0,0,0-.9.16c-.06,0-.09.08-.06,0s0,0,.05,0a2.08,2.08,0,0,0,.38.25,6.43,6.43,0,0,1,1.77,1.23,1,1,0,0,1,0,1.22c-.27.34-.35.46-.19.62.43.32,1.25.39,1.86.77a2.19,2.19,0,0,1,1.1,1.81,5.36,5.36,0,0,1,0,1.06l-.07.52a1,1,0,0,0,0,.23s0,0,0,0a.09.09,0,0,0-.07,0s0,0,0,0,0-.07,0-.11a4.22,4.22,0,0,1,.34-1,.31.31,0,0,1,.26-.15.41.41,0,0,1,.24.16,3,3,0,0,1,.27.45,17.61,17.61,0,0,1,.7,2l.31,1C209.94,128.29,210,128.69,210.25,128.9Z"/>
      <g>
        <path class="cls-2" d="M215.5,106.91c.07-.37-.44-.54-.38-1,0-.27.2-.42,1.34-1.29.85-.65,1-.75,1.24-.8a2.06,2.06,0,0,1,1.39.3c2.34,1.25,5,5.24,5,5.24,2.73,3.78,2.65,4.55,2.5,5-.31.91-1.66,1.41-4.35,2.36-3.14,1.11-4.75,1.65-6.59,1.33A7.9,7.9,0,0,1,212,116.3c-.62-.53-2-1.66-1.91-3.15a3.93,3.93,0,0,1,.27-1.19c.3-.89.93-2.11,1.32-2s.37,1.34.49,1.34-.35-2,.58-3S215.37,107.6,215.5,106.91Z"/>
        <path class="cls-2" d="M215.45,106.9c.05-.24-.21-.41-.33-.66a.66.66,0,0,1,.15-.78c.38-.39.8-.69,1.19-1l.6-.51a1.42,1.42,0,0,1,.81-.37,2.72,2.72,0,0,1,1.64.43,14.27,14.27,0,0,1,4.48,4.54c.55.88,1.16,1.77,1.67,2.68a12.68,12.68,0,0,1,.73,1.42,2.77,2.77,0,0,1,.35,1.63,2.15,2.15,0,0,1-1.12,1.21,11,11,0,0,1-1.44.67l-2.93,1.16a22.82,22.82,0,0,1-3,1,6.82,6.82,0,0,1-3.3,0,8.39,8.39,0,0,1-3-1.39,6.27,6.27,0,0,1-2.18-2.59,3,3,0,0,1-.1-1.85,9.12,9.12,0,0,1,.59-1.56,6.06,6.06,0,0,1,.43-.73,4.44,4.44,0,0,1,.3-.37.93.93,0,0,1,.63-.32.63.63,0,0,1,.5.23,1,1,0,0,1,.15.29,1.64,1.64,0,0,1,.11.45l0,.41v.17s0,.06,0,0l0,0a.3.3,0,0,0-.26-.13.31.31,0,0,0-.26.15l0,.07c0-.82,0-2.22.82-3a3,3,0,0,1,1.47-.68c.25,0,.51-.1.76-.17S215.39,107.13,215.45,106.9Zm.1,0c-.08.32-.4.42-.64.49l-.76.2a2.53,2.53,0,0,0-1.3.72,2.3,2.3,0,0,0-.46,1.36,6.15,6.15,0,0,0,0,.74l0,.39a1.66,1.66,0,0,1,0,.48s0,0,0,.12a.39.39,0,0,1-.28.18.4.4,0,0,1-.31-.15l0-.07a.88.88,0,0,1-.06-.17l-.05-.21-.09-.37c0-.11-.07-.22-.11-.3l0,0s.08.06.16.07,0,0,0,.08a2.12,2.12,0,0,0-.17.27,4.79,4.79,0,0,0-.33.64,12,12,0,0,0-.47,1.39,2.07,2.07,0,0,0,.1,1.23,5.67,5.67,0,0,0,1.83,2.14,7.38,7.38,0,0,0,2.61,1.31c1.89.59,3.91-.06,5.91-.65,1-.31,2-.59,3-1a13,13,0,0,0,1.42-.62,1.72,1.72,0,0,0,.95-1,2.36,2.36,0,0,0-.39-1.37c-.25-.44-.54-.87-.84-1.3-.59-.86-1.24-1.64-1.87-2.49a24.34,24.34,0,0,0-4.13-4.5,2.29,2.29,0,0,0-1.29-.52c-.42,0-.84.38-1.28.64a15,15,0,0,0-1.25.93.51.51,0,0,0-.14.64C215.31,106.41,215.6,106.59,215.55,106.92Z"/>
      </g>
      <path class="cls-2" d="M209.36,114.21c.28-.19.35-.58.5-.88l.37-1a18.05,18.05,0,0,1,.83-1.91,2.39,2.39,0,0,1,.29-.44.41.41,0,0,1,.25-.14.31.31,0,0,1,.25.17,4.24,4.24,0,0,1,.28,1l0,.12s0,0,0,0h-.07s0,0,0,0a1,1,0,0,0,0-.24l0-.52a4.74,4.74,0,0,1,.05-1.06,2.23,2.23,0,0,1,1.21-1.74c.63-.34,1.46-.36,1.9-.65.18-.15.11-.27-.14-.63a1,1,0,0,1,.13-1.22A6.24,6.24,0,0,1,217,104a2,2,0,0,0,.39-.23c.06,0,0-.07.05,0s0,0-.06,0a2.33,2.33,0,0,0-.89-.21,4.41,4.41,0,0,0-1.94.28,7.15,7.15,0,0,0-3,2.62,12.62,12.62,0,0,0-1.83,3.67,12.77,12.77,0,0,0-.44,2c0,.34-.07.69-.08,1A1.77,1.77,0,0,0,209.36,114.21Zm0,0a1.76,1.76,0,0,1-.17-1,8.91,8.91,0,0,1,.07-1,11.87,11.87,0,0,1,.4-2,12.84,12.84,0,0,1,1.7-3.8,7.27,7.27,0,0,1,3-2.86,4.72,4.72,0,0,1,2.13-.36,2.91,2.91,0,0,1,1.11.27.53.53,0,0,1,.29.35.49.49,0,0,1-.21.44,2.47,2.47,0,0,1-.49.31,6,6,0,0,0-1.72,1,.54.54,0,0,0-.09.69,2.27,2.27,0,0,1,.28.51.66.66,0,0,1-.25.67,2.53,2.53,0,0,1-1.07.35,4.18,4.18,0,0,0-.95.28,1.92,1.92,0,0,0-1.12,1.48,4.75,4.75,0,0,0-.09,1V111a2.61,2.61,0,0,1,0,.28s-.08.17-.16.09-.05-.07-.07-.1a.35.35,0,0,1,0-.13,4.43,4.43,0,0,0-.23-1c-.07-.16-.22-.15-.34,0a2.34,2.34,0,0,0-.29.41,16,16,0,0,0-.85,1.89l-.39,1C209.72,113.64,209.64,114,209.36,114.21Z"/>
      <g>
        <path class="cls-2" d="M223.61,141.27c-.3.23-.68-.15-1.1.12-.23.15-.28.38-.55,1.78-.2,1.06-.23,1.22-.16,1.47a2.09,2.09,0,0,0,.88,1.11c2.17,1.53,6.92,2.08,6.92,2.08,4.6.75,5.25.33,5.57,0,.68-.69.51-2.12.16-5-.42-3.3-.65-5-1.77-6.48a7.79,7.79,0,0,0-3.15-2.51c-.74-.32-2.35-1-3.66-.3a3.81,3.81,0,0,0-.94.78c-.67.67-1.48,1.78-1.23,2.09s1.37-.27,1.41-.16-1.89.56-2.41,1.86S224.17,140.84,223.61,141.27Z"/>
        <path class="cls-2" d="M223.64,141.31c-.27.19-.56,0-.79,0a.52.52,0,0,0-.51.41,11,11,0,0,0-.27,1.54c0,.51-.22,1.07,0,1.43a2.3,2.3,0,0,0,1,.92,23.76,23.76,0,0,0,5.87,1.67c1,.18,2,.42,3.07.56a13.4,13.4,0,0,0,1.54.16,2.36,2.36,0,0,0,1.4-.25,1.77,1.77,0,0,0,.48-1.32,11.44,11.44,0,0,0-.08-1.54c-.11-1-.31-2.07-.47-3.1-.38-2.05-.7-4.14-2.08-5.57a7.41,7.41,0,0,0-2.34-1.75,5.7,5.7,0,0,0-2.73-.67,2,2,0,0,0-1.14.46,10.32,10.32,0,0,0-1,1c-.15.19-.3.38-.43.58a1.49,1.49,0,0,0-.15.27c0,.07,0,.18-.07.05s-.11-.12-.13-.11h.06a1.33,1.33,0,0,0,.32,0l.37-.08.21-.05a.57.57,0,0,1,.18,0H226a.4.4,0,0,1,.27.2.42.42,0,0,1,0,.34c-.08.11,0,.06-.08.09a1.62,1.62,0,0,1-.45.19l-.35.14a4.72,4.72,0,0,0-.68.32,2.31,2.31,0,0,0-1,1,2.48,2.48,0,0,0-.06,1.48l.16.77A.77.77,0,0,1,223.64,141.31Zm-.06-.08c.18-.15.15-.44.09-.68s-.12-.51-.19-.76a3,3,0,0,1,0-1.61c.33-1.11,1.6-1.7,2.33-2.09l0,.06a.28.28,0,0,0,0,.29.27.27,0,0,0,.23.18h0c.05,0,0,0,0,0l-.16.06-.38.15a2,2,0,0,1-.46.1.88.88,0,0,1-.32,0,.62.62,0,0,1-.43-.34,1,1,0,0,1,0-.71,4.28,4.28,0,0,1,.19-.43c.15-.25.3-.48.47-.71a8.65,8.65,0,0,1,1.12-1.23,3.08,3.08,0,0,1,1.7-.74,6.35,6.35,0,0,1,3.3.79,8.32,8.32,0,0,1,2.59,2.08A6.74,6.74,0,0,1,235,138.6a21.82,21.82,0,0,1,.44,3.16l.28,3.14a12,12,0,0,1,0,1.59,2.17,2.17,0,0,1-.58,1.54,2.73,2.73,0,0,1-1.61.42,14,14,0,0,1-1.59,0c-1.06-.05-2.12-.2-3.15-.29a14.34,14.34,0,0,1-6.07-2,2.76,2.76,0,0,1-1.12-1.28,1.4,1.4,0,0,1,0-.88l.18-.77c.14-.51.22-1,.4-1.53a.67.67,0,0,1,.63-.49C223.12,141.23,223.39,141.38,223.58,141.23Z"/>
      </g>
      <path class="cls-2" d="M227.39,132.51c0,.34-.36.58-.55.85l-.69.78a18.29,18.29,0,0,0-1.3,1.61,1.91,1.91,0,0,0-.23.45c-.07.16,0,.3.17.29a4,4,0,0,0,1-.25l.14,0s0,0,.12,0,0,.21,0,.18a1.51,1.51,0,0,1-.25.13l-.47.22a5.91,5.91,0,0,0-.86.54,1.91,1.91,0,0,0-.82,1.66,4.14,4.14,0,0,0,.18,1A2.57,2.57,0,0,1,224,141a.65.65,0,0,1-.5.53,2,2,0,0,1-.57,0,.54.54,0,0,0-.57.39,6,6,0,0,0-.11,2,2,2,0,0,1-.05.58.49.49,0,0,1-.3.38.53.53,0,0,1-.44-.1,2.73,2.73,0,0,1-.74-.87,4.82,4.82,0,0,1-.64-2.06,7.35,7.35,0,0,1,1.2-4,13.16,13.16,0,0,1,2.63-3.22,13.54,13.54,0,0,1,1.64-1.27,10.11,10.11,0,0,1,.9-.53A1.8,1.8,0,0,1,227.39,132.51Zm0,0a1.85,1.85,0,0,0-1,.31,9,9,0,0,0-.88.54,12.48,12.48,0,0,0-4.07,4.58,7.11,7.11,0,0,0-1,3.87,4.36,4.36,0,0,0,.61,1.85,2.38,2.38,0,0,0,.6.71s.1,0,0,0,0,0,0,0a2.23,2.23,0,0,0,0-.46,6.4,6.4,0,0,1,.18-2.14,1,1,0,0,1,1-.66c.42.06.57.07.62-.15.06-.53-.29-1.28-.27-2a2.22,2.22,0,0,1,1-1.86,5,5,0,0,1,.93-.52l.48-.2a1.39,1.39,0,0,0,.21-.1s0,0,0,0a.14.14,0,0,0,0,.07h0l-.12,0a4.27,4.27,0,0,1-1,.2.31.31,0,0,1-.26-.14.41.41,0,0,1,0-.29,2.28,2.28,0,0,1,.26-.46,15.65,15.65,0,0,1,1.34-1.59l.69-.77C227,133.08,227.34,132.84,227.39,132.51Z"/>
      <g>
        <path class="cls-2" d="M236.56,131.21c-.18.33-.68.15-.95.57-.15.23-.1.46.24,1.85.26,1,.31,1.2.47,1.39a2,2,0,0,0,1.27.64c2.61.49,7.15-1,7.15-1,4.5-1.24,4.91-1.9,5.07-2.32.32-.91-.42-2.14-1.93-4.56-1.76-2.83-2.67-4.26-4.32-5.15a7.74,7.74,0,0,0-3.91-1c-.81,0-2.55.07-3.45,1.26a3.89,3.89,0,0,0-.53,1.1c-.32.89-.6,2.23-.24,2.41s1.13-.81,1.22-.74-1.49,1.31-1.42,2.71S236.89,130.59,236.56,131.21Z"/>
        <path class="cls-2" d="M236.6,131.23c-.16.29-.5.25-.7.37a.52.52,0,0,0-.29.59,14,14,0,0,0,.39,1.51c.18.48.25,1.06.6,1.3a2.28,2.28,0,0,0,1.34.39,23.85,23.85,0,0,0,6-.93c1-.27,2-.47,3-.78a12.72,12.72,0,0,0,1.47-.5,2.39,2.39,0,0,0,1.16-.81,1.77,1.77,0,0,0-.11-1.4,11.78,11.78,0,0,0-.72-1.36c-.53-.9-1.15-1.75-1.73-2.62-1.2-1.7-2.36-3.48-4.22-4.19a7.05,7.05,0,0,0-2.85-.61,5.71,5.71,0,0,0-2.76.53,2.05,2.05,0,0,0-.85.9,10.27,10.27,0,0,0-.5,1.38,6.79,6.79,0,0,0-.15.7,1.89,1.89,0,0,0,0,.32c0,.09,0,.17,0,.07s-.16-.06-.17,0a.12.12,0,0,0,.06,0,1.19,1.19,0,0,0,.27-.17l.3-.23.18-.13a.69.69,0,0,1,.15-.09l.07,0a.42.42,0,0,1,.34.08.39.39,0,0,1,.11.31c0,.14,0,.08,0,.12a2.27,2.27,0,0,1-.32.37l-.28.27a6.57,6.57,0,0,0-.48.57,2.31,2.31,0,0,0-.48,1.35,2.49,2.49,0,0,0,.56,1.38l.47.62C236.55,130.66,236.74,130.94,236.6,131.23Zm-.09,0c.11-.21,0-.46-.2-.66s-.32-.4-.49-.6a3,3,0,0,1-.72-1.45c-.16-1.14.75-2.21,1.24-2.86l0,.07a.28.28,0,0,0,.11.27.26.26,0,0,0,.28.07h0s0,0,0,0l-.12.13-.29.29a2.38,2.38,0,0,1-.37.29,1.24,1.24,0,0,1-.3.12.62.62,0,0,1-.53-.13.92.92,0,0,1-.29-.65,2.4,2.4,0,0,1,0-.46,5.46,5.46,0,0,1,.13-.84,8.15,8.15,0,0,1,.5-1.59,3,3,0,0,1,1.24-1.39,6.19,6.19,0,0,1,3.32-.65,8.3,8.3,0,0,1,3.22.79,6.87,6.87,0,0,1,2.58,2.07,21.36,21.36,0,0,1,1.71,2.69l1.57,2.73a11.2,11.2,0,0,1,.71,1.43,2.15,2.15,0,0,1,.11,1.64,2.77,2.77,0,0,1-1.28,1.06,15.83,15.83,0,0,1-1.46.65c-1,.39-2,.71-3,1a14.3,14.3,0,0,1-6.34.76,2.81,2.81,0,0,1-1.56-.7,1.35,1.35,0,0,1-.39-.79l-.16-.77c-.08-.52-.23-1-.28-1.56a.65.65,0,0,1,.38-.7C236.1,131.37,236.4,131.4,236.51,131.18Z"/>
      </g>
      <path class="cls-2" d="M236.32,121.67a2.09,2.09,0,0,1-.14,1l-.29,1a17.44,17.44,0,0,0-.52,2,2.1,2.1,0,0,0,0,.5c0,.18.12.28.28.2a4.62,4.62,0,0,0,.79-.64l.11-.09a.18.18,0,0,1,.11,0c.12,0,.09.19.07.17a1,1,0,0,1-.17.22l-.33.4a4.72,4.72,0,0,0-.56.84,2,2,0,0,0-.05,1.86,5.2,5.2,0,0,0,.57.81,2.61,2.61,0,0,1,.62.93.67.67,0,0,1-.23.69,2.06,2.06,0,0,1-.53.22.55.55,0,0,0-.36.6,6.24,6.24,0,0,0,.73,1.83,2,2,0,0,1,.2.54.44.44,0,0,1-.56.57,2.73,2.73,0,0,1-1-.48,4.79,4.79,0,0,1-1.44-1.6,7.3,7.3,0,0,1-.6-4.15,13,13,0,0,1,1-4,13.37,13.37,0,0,1,1-1.84,8.56,8.56,0,0,1,.59-.85C235.79,122.1,236,121.76,236.32,121.67Zm0,0c-.33.1-.52.44-.74.69a8.62,8.62,0,0,0-.58.86,12.37,12.37,0,0,0-1.78,5.86,7.18,7.18,0,0,0,.72,3.93,4.43,4.43,0,0,0,1.33,1.43,2.53,2.53,0,0,0,.84.39s.11,0,0,0,0,0,0,0a2.17,2.17,0,0,0-.17-.42,6.46,6.46,0,0,1-.74-2,1,1,0,0,1,.66-1c.42-.12.55-.18.51-.4-.17-.5-.8-1-1.09-1.7a2.25,2.25,0,0,1,.14-2.12,5.35,5.35,0,0,1,.63-.85l.35-.39a2,2,0,0,0,.15-.18s0,0,0,0,0,0,.05,0,0,0,0,0l-.09.07a4.42,4.42,0,0,1-.85.62.32.32,0,0,1-.3,0,.43.43,0,0,1-.11-.27,2.37,2.37,0,0,1,0-.53,19.71,19.71,0,0,1,.55-2l.31-1C236.23,122.34,236.42,122,236.32,121.67Z"/>
      <g>
        <path class="cls-2" d="M177.78,162.35c-.07-.28-1.18-4.68,1.59-7.51a8,8,0,0,1,4.78-2.06,19.34,19.34,0,0,1,8.58.93s-.32,2.37-.69,3.91a15.22,15.22,0,0,1-2.62,5.71,8.17,8.17,0,0,1-3.51,3.14,6.34,6.34,0,0,1-6.29-.85A6,6,0,0,1,177.78,162.35Z"/>
        <path class="cls-2" d="M177.78,162.35a9.31,9.31,0,0,1,.23-5.43,6.77,6.77,0,0,1,1.5-2.31,6.6,6.6,0,0,1,2.37-1.43,15.4,15.4,0,0,1,5.48-.74,20.74,20.74,0,0,1,5.41,1l-.15.45a.28.28,0,0,0,.2,0,.25.25,0,0,0,.14-.16h0v.14l0,.2-.06.4-.11.79c-.09.53-.19,1.06-.3,1.58a16.93,16.93,0,0,1-.91,3.1,16.24,16.24,0,0,1-3.61,5.32,6.6,6.6,0,0,1-6,1.47,5.36,5.36,0,0,1-2.73-1.6A6.36,6.36,0,0,1,177.78,162.35Zm0,0a6.21,6.21,0,0,0,1.4,2.82,5.19,5.19,0,0,0,2.72,1.55,6.44,6.44,0,0,0,5.83-1.59,17,17,0,0,0,3.39-5.28,17.71,17.71,0,0,0,.85-3l.27-1.57.13-.78.06-.4,0-.19,0-.1v-.09a.27.27,0,0,1,.15-.19.23.23,0,0,1,.19,0l-.14.45a21,21,0,0,0-5.35-1.11,15.09,15.09,0,0,0-5.39.55,6,6,0,0,0-3.88,3.55A9.32,9.32,0,0,0,177.78,162.35Z"/>
      </g>
      <g>
        <path class="cls-2" d="M233,206a5.78,5.78,0,0,1-4.57-2.32,7,7,0,0,1-.95-3.58c-.18-1.74.18-1.59.28-4.85.06-1.75,0-2.58.6-3.12a2.56,2.56,0,0,1,1.78-.4c3.06,0,4.59-.07,5.74.27,1.64.5,2.83.85,3.61,2s.68,2.66.51,4.25a9,9,0,0,1-1.13,4C238.5,202.9,236.47,206.05,233,206Z"/>
        <path class="cls-2" d="M233,206a5.75,5.75,0,0,1-4.76-2.56,6.52,6.52,0,0,1-.77-2.69c-.06-.47-.12-.93-.14-1.41a9.46,9.46,0,0,1,.11-1.41,25.76,25.76,0,0,0,.16-2.78l0-1.41a2.84,2.84,0,0,1,.34-1.45,1.74,1.74,0,0,1,1.34-.74c.49-.05.95,0,1.42-.05.94,0,1.87,0,2.81,0a8.75,8.75,0,0,1,2.82.44,7.44,7.44,0,0,1,2.61,1.2,3.78,3.78,0,0,1,1.3,2.56,14,14,0,0,1-.16,2.83,10.36,10.36,0,0,1-.67,2.74,8.76,8.76,0,0,1-1.54,2.35A6.44,6.44,0,0,1,233,206Zm0,0a6.45,6.45,0,0,0,4.84-2.44,8.49,8.49,0,0,0,1.45-2.37,9.56,9.56,0,0,0,.57-2.71,12.79,12.79,0,0,0,.07-2.76,3.46,3.46,0,0,0-1.23-2.29,7.36,7.36,0,0,0-2.47-1.09,8.55,8.55,0,0,0-2.71-.39c-.93,0-1.86,0-2.79,0s-2-.14-2.43.57a2.6,2.6,0,0,0-.31,1.25l-.06,1.4a24.09,24.09,0,0,1-.26,2.8,8.18,8.18,0,0,0-.14,1.38c0,.46.05.93.09,1.39a6.22,6.22,0,0,0,.68,2.68A5.69,5.69,0,0,0,233,206Z"/>
      </g>
      <g>
        <path class="cls-2" d="M232.94,186.09c-.28.07-4.69,1.1-7.48-1.72a7.91,7.91,0,0,1-2-4.8,19.34,19.34,0,0,1,1.07-8.57s2.37.36,3.9.75a15.2,15.2,0,0,1,5.66,2.72c1.36,1.07,2.49,1.94,3.08,3.56a6.34,6.34,0,0,1-.95,6.28A6.07,6.07,0,0,1,232.94,186.09Z"/>
        <path class="cls-2" d="M232.94,186.09a9.4,9.4,0,0,1-5.43-.32,6.76,6.76,0,0,1-2.28-1.54,6.53,6.53,0,0,1-1.39-2.39,15.22,15.22,0,0,1-.64-5.49,20.35,20.35,0,0,1,1.12-5.4l.45.16a.25.25,0,0,0,0-.19.22.22,0,0,0-.16-.15h.16l.2,0,.39.07.79.13c.53.09,1.05.2,1.58.32a17.45,17.45,0,0,1,3.08,1,16.45,16.45,0,0,1,5.26,3.7,6.61,6.61,0,0,1,1.37,6.06,5.31,5.31,0,0,1-1.65,2.71A6.29,6.29,0,0,1,232.94,186.09Zm0,0a6.35,6.35,0,0,0,2.84-1.35,5.25,5.25,0,0,0,1.6-2.69,6.45,6.45,0,0,0-1.5-5.86,16.8,16.8,0,0,0-5.22-3.48,16.42,16.42,0,0,0-3-.9l-1.56-.3-.78-.14-.39-.07-.2,0-.09,0h-.1a.29.29,0,0,1-.18-.15.26.26,0,0,1,0-.2l.45.16a20.85,20.85,0,0,0-1.2,5.33,15.09,15.09,0,0,0,.46,5.39,6,6,0,0,0,3.49,3.94A9.29,9.29,0,0,0,232.94,186.09Z"/>
      </g>
      <g>
        <path class="cls-2" d="M169,179.38c-.28,0-4.81-.06-6.84-3.46a7.9,7.9,0,0,1-.78-5.14,19.22,19.22,0,0,1,3.09-8.06s2.21.91,3.61,1.66a15.23,15.23,0,0,1,4.84,4,8,8,0,0,1,2.14,4.2,6.35,6.35,0,0,1-2.42,5.87A6.08,6.08,0,0,1,169,179.38Z"/>
        <path class="cls-2" d="M169,179.38a9.38,9.38,0,0,1-5.18-1.61,6.69,6.69,0,0,1-1.85-2,6.35,6.35,0,0,1-.78-2.66,15.41,15.41,0,0,1,.68-5.48,20.52,20.52,0,0,1,2.38-5l.4.25a.18.18,0,0,0,.07-.18.22.22,0,0,0-.12-.17s0,0,0,0l.05,0,.09,0,.18.07.37.16.74.32c.49.21,1,.44,1.45.68a17.68,17.68,0,0,1,2.76,1.68,16.09,16.09,0,0,1,4.23,4.84,6.62,6.62,0,0,1-.12,6.22,5.43,5.43,0,0,1-2.25,2.23A6.39,6.39,0,0,1,169,179.38Zm0,0a6.32,6.32,0,0,0,3.09-.64,5.32,5.32,0,0,0,2.2-2.23,6.45,6.45,0,0,0-.06-6,16.84,16.84,0,0,0-4.24-4.62,17.54,17.54,0,0,0-2.71-1.6l-1.44-.66-.73-.32-.36-.16-.19-.08-.09,0,0,0,0,0a.24.24,0,0,1-.13-.18.25.25,0,0,1,0-.2l.4.26a21.09,21.09,0,0,0-2.44,4.89,15,15,0,0,0-.84,5.35,6,6,0,0,0,2.45,4.65A9.31,9.31,0,0,0,169,179.38Z"/>
      </g>
      <g>
        <path class="cls-2" d="M239.9,188.8c-.07-.28-1.18-4.67,1.59-7.51a8,8,0,0,1,4.78-2.06,19.27,19.27,0,0,1,8.58.94s-.32,2.37-.69,3.9a15.22,15.22,0,0,1-2.62,5.71c-1,1.37-1.9,2.52-3.51,3.14a6.35,6.35,0,0,1-6.29-.84A6.1,6.1,0,0,1,239.9,188.8Z"/>
        <path class="cls-2" d="M239.9,188.8a9.31,9.31,0,0,1,.23-5.43,6.64,6.64,0,0,1,1.5-2.3,6.49,6.49,0,0,1,2.37-1.44,15.17,15.17,0,0,1,5.48-.73,20.33,20.33,0,0,1,5.41,1l-.15.45a.24.24,0,0,0,.2,0,.25.25,0,0,0,.14-.16h0v.15l0,.2L255,181l-.12.79c-.08.53-.18,1.06-.29,1.58a16.7,16.7,0,0,1-.91,3.1,16.13,16.13,0,0,1-3.61,5.32,6.6,6.6,0,0,1-6,1.47,5.36,5.36,0,0,1-2.73-1.6A6.36,6.36,0,0,1,239.9,188.8Zm0,0a6.21,6.21,0,0,0,1.4,2.82,5.19,5.19,0,0,0,2.72,1.55,6.44,6.44,0,0,0,5.83-1.59,17,17,0,0,0,3.39-5.28,17.71,17.71,0,0,0,.85-3l.27-1.57.13-.78.06-.39,0-.2,0-.1v-.09a.24.24,0,0,1,.15-.18.25.25,0,0,1,.19,0l-.14.45a21.41,21.41,0,0,0-5.36-1.11,15.06,15.06,0,0,0-5.38.55,6.05,6.05,0,0,0-3.88,3.56A9.29,9.29,0,0,0,239.9,188.8Z"/>
      </g>
      <g>
        <path class="cls-2" d="M234,165.65c-.07-.28-1.17-4.67,1.6-7.51a8,8,0,0,1,4.77-2.06A19.31,19.31,0,0,1,249,157s-.31,2.38-.68,3.91a15.12,15.12,0,0,1-2.63,5.71c-1,1.37-1.89,2.52-3.51,3.14a6.36,6.36,0,0,1-6.29-.84A6.1,6.1,0,0,1,234,165.65Z"/>
        <path class="cls-2" d="M234,165.65a9.39,9.39,0,0,1,.24-5.43,6.24,6.24,0,0,1,3.86-3.74,15.23,15.23,0,0,1,5.48-.73,20.33,20.33,0,0,1,5.41,1l-.14.45a.21.21,0,0,0,.19,0,.22.22,0,0,0,.14-.16s0,0,0,0v.05l0,.1,0,.19-.06.4-.12.79c-.08.53-.18,1.06-.29,1.58a17.53,17.53,0,0,1-.92,3.1,16.11,16.11,0,0,1-3.6,5.32,6.6,6.6,0,0,1-6,1.47,5.28,5.28,0,0,1-2.73-1.6A6.38,6.38,0,0,1,234,165.65Zm0,0a6.33,6.33,0,0,0,1.41,2.82,5.2,5.2,0,0,0,2.71,1.55,6.43,6.43,0,0,0,5.83-1.59,16.09,16.09,0,0,0,4.25-8.31l.27-1.57.13-.78.06-.39,0-.2V157a.23.23,0,0,1,.14-.18.23.23,0,0,1,.2,0l-.15.45a21.34,21.34,0,0,0-5.35-1.11,15.11,15.11,0,0,0-5.39.55,6,6,0,0,0-3.87,3.56A9.37,9.37,0,0,0,234,165.65Z"/>
      </g>
      <g>
        <path class="cls-2" d="M166.5,146.68c-3.23.18-4.61,0-5.17.87-.18.29-.29.7.21,2.56.69,2.6,1.08,4,2.31,5.71,1.09,1.49,2.18,3,4.17,3.39a6.06,6.06,0,0,0,4.41-.94,5.61,5.61,0,0,0,2.17-2.54,5.11,5.11,0,0,0,.37-1.82c0-.32.19-6-3-7.52C171,145.89,170.9,146.43,166.5,146.68Z"/>
        <path class="cls-2" d="M166.5,146.68l-2.73.12a10.13,10.13,0,0,0-1.35.14,1.47,1.47,0,0,0-1.09.68,2.2,2.2,0,0,0,0,1.32c.09.44.22.88.34,1.32.25.87.5,1.75.8,2.6a12.92,12.92,0,0,0,2.89,4.5,5.19,5.19,0,0,0,2.14,1.46,4.88,4.88,0,0,0,2.57.15,6,6,0,0,0,4.16-2.92,5.28,5.28,0,0,0,.59-2.54,15.1,15.1,0,0,0-.22-2.69,8.83,8.83,0,0,0-.83-2.56,4.1,4.1,0,0,0-1.87-1.88,2.09,2.09,0,0,0-1.31-.11l-1.36.19C168.32,146.57,167.41,146.63,166.5,146.68Zm0,0c.91-.06,1.82-.14,2.72-.26l1.35-.2a2.15,2.15,0,0,1,1.35.09,4.37,4.37,0,0,1,2,1.87,8.82,8.82,0,0,1,.93,2.59,14.74,14.74,0,0,1,.32,2.73,5.44,5.44,0,0,1-.55,2.74,6.45,6.45,0,0,1-4.44,3.22,5.41,5.41,0,0,1-2.82-.2,5.76,5.76,0,0,1-2.3-1.6,13.06,13.06,0,0,1-2.81-4.72c-.28-.87-.5-1.76-.72-2.64-.11-.45-.22-.89-.29-1.34a2.37,2.37,0,0,1,0-1.37,1.56,1.56,0,0,1,1.15-.7,7.81,7.81,0,0,1,1.36-.12Z"/>
      </g>
      <g>
        <path class="cls-2" d="M177.7,133.47c-.34.14-.32.66-.5,1.51-.37,1.83-1.06,2.4-1.7,3.84a10.26,10.26,0,0,0-.48,6.78,6.29,6.29,0,0,0,2.31,3.46,5.67,5.67,0,0,0,4.63.81c3-.88,3.77-4.19,3.86-4.62a6.76,6.76,0,0,0-.36-3.91c-.76-1.86-1.7-1.81-4.49-4.8C179.15,134.6,178.29,133.23,177.7,133.47Z"/>
        <path class="cls-2" d="M177.7,133.47c-.22.1-.28.36-.32.57l-.11.67a8.7,8.7,0,0,1-.34,1.31,21.15,21.15,0,0,1-1.21,2.43,10.41,10.41,0,0,0-.93,5.24,7.53,7.53,0,0,0,2.1,4.74,5.11,5.11,0,0,0,8.42-2.23,6.45,6.45,0,0,0-.12-5.15,6,6,0,0,0-1.71-2c-.68-.6-1.34-1.23-2-1.88s-1.24-1.33-1.82-2c-.3-.34-.59-.69-.9-1a4.29,4.29,0,0,0-.49-.46A.67.67,0,0,0,177.7,133.47Zm0,0a.68.68,0,0,1,.62.18,5.45,5.45,0,0,1,.5.46c.31.33.61.67.91,1,.59.68,1.2,1.35,1.84,2s1.32,1.24,2,1.81a6.09,6.09,0,0,1,1.84,2,6.72,6.72,0,0,1,.29,5.4,6.81,6.81,0,0,1-1.45,2.38,5.09,5.09,0,0,1-2.41,1.43,5.82,5.82,0,0,1-5.25-1.42,6.08,6.08,0,0,1-1.49-2.35,9.1,9.1,0,0,1-.57-2.68,10.71,10.71,0,0,1,1.11-5.29A21.19,21.19,0,0,0,176.9,136a8.15,8.15,0,0,0,.35-1.31l.12-.66C177.42,133.82,177.47,133.57,177.7,133.47Z"/>
      </g>
      <path class="cls-2" d="M176.62,181a27.48,27.48,0,0,1,10.94-1.29,26.42,26.42,0,0,1,5.47,1.11,25,25,0,0,1,5.07,2.39,24.72,24.72,0,0,1,7.75,7.95,22.92,22.92,0,0,1,3.3,10.49,26.1,26.1,0,0,0-1.46-5.26,23.16,23.16,0,0,0-2.49-4.82,26.44,26.44,0,0,0-7.64-7.52,24.71,24.71,0,0,0-4.83-2.33,27.76,27.76,0,0,0-5.26-1.24,28.86,28.86,0,0,0-5.42-.19A31.06,31.06,0,0,0,176.62,181Z"/>
      <path class="cls-2" d="M218.19,189.71l-.34-2.13a18.59,18.59,0,0,0-.36-2.11,7.59,7.59,0,0,0-2.43-3.47,27,27,0,0,0-3.53-2.44c-1.21-.76-2.43-1.52-3.67-2.24a35.1,35.1,0,0,0-7.79-3.55,23.37,23.37,0,0,0-8.44-.89,31.19,31.19,0,0,0-15.76,5.84,24.88,24.88,0,0,0-3.24,2.71,11.4,11.4,0,0,0-1.32,1.58,3.07,3.07,0,0,0-.4.82l0,.15s0,.06,0,0,0,0,0,0a.42.42,0,0,0,.14,0c.56.06,1.35,0,2.07,0a15.07,15.07,0,0,1,2.22.16,13.26,13.26,0,0,1,4.21,1.42,18.48,18.48,0,0,1,6.38,6,15.31,15.31,0,0,1,2.12,3.87c.49,1.37.9,2.73,1.42,4.06a71.45,71.45,0,0,0,3.51,7.78,13.89,13.89,0,0,0,2.48,3.39,13.3,13.3,0,0,0,3.48,2.32,4.46,4.46,0,0,0,2,.46,3.12,3.12,0,0,0,1.87-.63,11.89,11.89,0,0,0,2.36-3.47,14.33,14.33,0,0,1,6-6.09c.64-.32,1.32-.56,2-.88a8.51,8.51,0,0,0,1.76-1.22,16,16,0,0,0,2.84-3.19,7.26,7.26,0,0,0,1.27-4C218.72,192.53,218.4,191.13,218.19,189.71Zm0,0c.22,1.42.55,2.81.79,4.23a7.37,7.37,0,0,1-1.23,4.07,16.85,16.85,0,0,1-2.84,3.24,9.08,9.08,0,0,1-1.77,1.24c-.64.34-1.32.58-1.95.91a13.86,13.86,0,0,0-5.78,6.1,12.24,12.24,0,0,1-2.38,3.64,3.64,3.64,0,0,1-2.12.77,5.13,5.13,0,0,1-2.19-.46A13.77,13.77,0,0,1,195,211.1a14.53,14.53,0,0,1-2.67-3.48,66.53,66.53,0,0,1-3.71-7.82c-.54-1.34-1-2.73-1.46-4.05a14.34,14.34,0,0,0-2-3.64,17.69,17.69,0,0,0-6.1-5.64,12.24,12.24,0,0,0-3.89-1.35,12.94,12.94,0,0,0-2.07-.16c-.71,0-1.35.09-2.22,0a2,2,0,0,1-.38-.11,1,1,0,0,1-.4-.37A1.12,1.12,0,0,1,170,184a2.47,2.47,0,0,1,.05-.38,3.81,3.81,0,0,1,.53-1.11A12.59,12.59,0,0,1,172,180.8a24.9,24.9,0,0,1,3.38-2.77,31.57,31.57,0,0,1,16.23-5.65,23.85,23.85,0,0,1,8.56,1.09,37.25,37.25,0,0,1,7.77,3.72c1.23.74,2.44,1.51,3.65,2.27a28.94,28.94,0,0,1,3.52,2.48,7.67,7.67,0,0,1,2.41,3.52,18.74,18.74,0,0,1,.35,2.12Z"/>
      <path class="cls-2" d="M188.14,188.12a110.91,110.91,0,0,1,19.55,7.59,110.11,110.11,0,0,1-19.55-7.59Z"/>
      <path class="cls-2" d="M208.82,199.61a32.65,32.65,0,0,0,2.48-3.81,18.08,18.08,0,0,0,1.69-4.11,10.19,10.19,0,0,0-1.37-8.47,7.85,7.85,0,0,1,2.39,4A9.33,9.33,0,0,1,214,192a13.91,13.91,0,0,1-2,4.25A15,15,0,0,1,208.82,199.61Z"/>
      <path class="cls-2" d="M205.19,190.88a11.85,11.85,0,0,0,1.39-3.47,9.1,9.1,0,0,0,.09-3.6,9.22,9.22,0,0,0-1.3-3.36,12.65,12.65,0,0,0-2.48-2.81A7.8,7.8,0,0,1,206,180a8,8,0,0,1-.81,10.88Z"/>
      <path class="cls-2" d="M208.82,199.61a21,21,0,0,1-5.55.38,24,24,0,0,1-5.51-1,22.22,22.22,0,0,1-9.46-5.77,34.91,34.91,0,0,0,20.52,6.4Z"/>
    </g>
  </g>
</svg>
