<svg xmlns="http://www.w3.org/2000/svg" width="384.93" height="367.21" viewBox="0 0 384.93 367.21">
  <defs>
    <style>
      .cls-1 {
        fill: #333;
      }
    </style>
  </defs>
  <g id="health_hand" data-name="health hand">
    <g id="käsi">
      <path class="cls-1" d="M134.48,236.35a41.2,41.2,0,0,0,9.78-4.16,33.48,33.48,0,0,0,8.22-6.65c1.18-1.32,2.21-2.77,3.43-4.11a15.2,15.2,0,0,1,4.31-3.33,21.69,21.69,0,0,1,10.54-2.34,90.84,90.84,0,0,1,10.72,1A61,61,0,0,1,192,219.18c1.72.56,3.39,1.16,5.07,1.84s3.31,1.58,4.86,2.33,3.22,1.4,4.88,2,3.31,1.24,5,1.75a38.61,38.61,0,0,0,10.29,1.76,83.76,83.76,0,0,0,10.55-.68l5.31-.57c1.77-.18,3.53-.43,5.41-.48a11.84,11.84,0,0,1,2.92.26,6,6,0,0,1,2.8,1.51,7.33,7.33,0,0,1,2.1,5.68,5.17,5.17,0,0,1-1.29,3,7.07,7.07,0,0,1-2.54,1.69,24.65,24.65,0,0,1-5.36,1.44c-3.57.6-7.13.94-10.7,1.18s-7.15.38-10.72.44-7.15,0-10.72-.2V242c3.56-.12,7.12-.25,10.67-.51s7.1-.53,10.63-.92,7.07-.8,10.52-1.49a23.38,23.38,0,0,0,4.92-1.44,5.34,5.34,0,0,0,1.85-1.28,3.18,3.18,0,0,0,.74-1.86,5.39,5.39,0,0,0-1.53-4,4,4,0,0,0-1.86-1,9.76,9.76,0,0,0-2.4-.18c-1.69.05-3.46.26-5.24.43l-5.33.52a85.88,85.88,0,0,1-10.8.49,40.49,40.49,0,0,1-10.71-2c-1.72-.55-3.41-1.19-5.07-1.86s-3.33-1.34-5-2.16-3.12-1.7-4.74-2.36-3.3-1.31-5-1.88a60.47,60.47,0,0,0-10.27-2.55,94.52,94.52,0,0,0-10.56-1.1,20.64,20.64,0,0,0-10.16,2.05,14.37,14.37,0,0,0-4.17,3.09c-1.2,1.27-2.27,2.72-3.49,4a34.29,34.29,0,0,1-8.47,6.6,41.08,41.08,0,0,1-9.93,4Z"/>
      <path class="cls-1" d="M143.24,269.84a56,56,0,0,1,7.94-7.68,52.06,52.06,0,0,1,9.36-5.92A50,50,0,0,1,171,252.48a55.27,55.27,0,0,1,11-1.43h.11c8.21,1.37,16.46,2.4,24.75,3.29a95.67,95.67,0,0,0,12.34.87,62.93,62.93,0,0,0,12.1-2.07l12.11-3c4-1,8.1-2,12.09-3.08a127.88,127.88,0,0,0,23.07-9.24l.1.17a98.48,98.48,0,0,1-11,6,86.25,86.25,0,0,1-11.7,4.63c-4,1.26-8,2.36-12.06,3.43s-8,2.14-12.14,3.07a61.25,61.25,0,0,1-12.53,1.9,101.93,101.93,0,0,1-12.57-1.13c-8.27-1-16.55-2.2-24.76-3.72H182a55.65,55.65,0,0,0-10.84,1.22,49.47,49.47,0,0,0-10.36,3.46,52.63,52.63,0,0,0-9.38,5.65,55.79,55.79,0,0,0-8.06,7.46Z"/>
      <path class="cls-1" d="M246.07,228.7l-3.9.65-1.95.31a7.36,7.36,0,0,0-1.79.47,7.18,7.18,0,0,0-1.59.89,2.93,2.93,0,0,0-.93,1.32,5.16,5.16,0,0,0,.07,3.38,2.82,2.82,0,0,0,2,2,2.68,2.68,0,0,0,.7,0l.95-.09,1.9-.19c2.55-.26,5.13-.67,7.8-.88l.06.19a28.14,28.14,0,0,1-7.56,2.67,19.62,19.62,0,0,1-2,.28c-.33,0-.68.05-1,.07a4.53,4.53,0,0,1-1.25-.14,3.92,3.92,0,0,1-2.1-1.43,5.84,5.84,0,0,1-1-2.06,6.54,6.54,0,0,1,.25-4.36,4.21,4.21,0,0,1,1.46-1.75,8.59,8.59,0,0,1,1.92-.9,7.7,7.7,0,0,1,2-.33l2-.13,3.94-.23Z"/>
    </g>
  </g>
</svg>
