<svg xmlns="http://www.w3.org/2000/svg" width="384.93" height="367.21" viewBox="0 0 384.93 367.21">
  <defs>
    <style>
      .cls-1 {
        fill: #f3912e;
      }

      .cls-2 {
        fill: #333;
      }
    </style>
  </defs>
  <g id="health_leaf" data-name="health leaf">
    <g>
      <path class="cls-1" d="M191.26,218.38a26.49,26.49,0,0,1-3.51,1.78c-8.55,3.94-14,3.65-14.46,5.8-.3,1.32,1.34,3.12,3.22,3.8,4.57,1.64,8-4.49,16.63-6.17.25-.05.89-.14,2.64-.29,13.75-1.17,21.61,1.12,32.17,0,6.78-.73,11.71-2.55,17-4.51a78,78,0,0,0,18-9,63.14,63.14,0,0,0,20.83-23.26c2.39-4.69,8.9-17.46,4.22-22.64-.62-.68-2-1.65-16.36-1.42-6.86.11-12.92.21-20.92,1.9a76.14,76.14,0,0,0-18,5.93c-6.64,3.2-28.36,13.67-31.54,29.8,0,0-2,10.22-6.27,15.07A19.21,19.21,0,0,1,191.26,218.38Z"/>
      <path class="cls-2" d="M229.31,204a40.08,40.08,0,0,0,4.64.18,30.86,30.86,0,0,0,4.6-.43,34.64,34.64,0,0,0,8.84-2.71,22.42,22.42,0,0,1-4.22,2,26.11,26.11,0,0,1-4.54,1.18A24.55,24.55,0,0,1,229.31,204Z"/>
      <path class="cls-2" d="M245.55,193.65a38,38,0,0,0,4.64.19,30.62,30.62,0,0,0,4.6-.43,34.83,34.83,0,0,0,8.85-2.71,23.37,23.37,0,0,1-4.22,2,26.35,26.35,0,0,1-4.54,1.18A24.6,24.6,0,0,1,245.55,193.65Z"/>
      <path class="cls-2" d="M261.66,181.19a38,38,0,0,0,4.64.17,32,32,0,0,0,4.6-.45,34.54,34.54,0,0,0,8.83-2.75,22.41,22.41,0,0,1-4.21,2,27.24,27.24,0,0,1-4.53,1.2A24.6,24.6,0,0,1,261.66,181.19Z"/>
      <path class="cls-2" d="M224.34,188.32a37.72,37.72,0,0,0-1.24,4.48,32.13,32.13,0,0,0-.63,4.58,35,35,0,0,0,.63,9.23,22.33,22.33,0,0,1-1-4.57,26.26,26.26,0,0,1-.12-4.69A24.75,24.75,0,0,1,224.34,188.32Z"/>
      <path class="cls-2" d="M239.44,179.18a42,42,0,0,0-1.24,4.48,30.74,30.74,0,0,0-.62,4.58,34.44,34.44,0,0,0,.62,9.22,22.77,22.77,0,0,1-1-4.56,26.26,26.26,0,0,1-.12-4.69A24.7,24.7,0,0,1,239.44,179.18Z"/>
      <path class="cls-2" d="M254.54,170a42,42,0,0,0-1.24,4.48,32.11,32.11,0,0,0-.62,4.58,34.86,34.86,0,0,0,.62,9.22,22.77,22.77,0,0,1-1-4.56,26.26,26.26,0,0,1-.12-4.69A24.7,24.7,0,0,1,254.54,170Z"/>
      <path class="cls-2" d="M188.15,223c4.15-1.42,8.25-3,12.26-4.73s8-3.62,11.81-5.7,7.52-4.48,11.28-6.74l11.26-6.8,11.31-6.71c1.88-1.13,3.79-2.22,5.56-3.45s3.48-2.64,5.19-4c3.4-2.75,6.72-5.61,10-8.51l4.92-4.37,4.86-4.43c-6.19,6.21-12.57,12.24-19.3,17.9-1.68,1.42-3.37,2.81-5.17,4.11s-3.71,2.39-5.59,3.53l-11.27,6.78L224,206.65c-3.79,2.22-7.48,4.57-11.39,6.63A135.06,135.06,0,0,1,188.15,223Z"/>
    </g>
  </g>
</svg>
