<svg xmlns="http://www.w3.org/2000/svg" width="384.93" height="367.21" viewBox="0 0 384.93 367.21">
  <defs>
    <style>
      .cls-1 {
        fill: #618084;
        stroke: #333;
        stroke-miterlimit: 10;
        stroke-width: 0.11px;
      }
    </style>
  </defs>
  <g id="health_backround" data-name="health backround">
    <path class="cls-1" d="M336.59,194.51c-8.25,17.94-20.85,18.75-23.47,31.62-5.13,25.21,38.25,48.07,33.54,57-5.36,10.15-57.45-26.1-110.65-10-34.68,10.47-37.62,33.45-61.85,30.92-30.47-3.17-36.23-40.58-76.12-47.66-21.6-3.85-34,4.66-38.74-2.63-6.52-10.12,16-27.88,35-76.83a238.68,238.68,0,0,0,10.34-31.51c9.6-38.89,5.19-66.54,21.66-74.78A20,20,0,0,1,131.05,69c25.84-6.18,46.11,30.92,76.43,50.42,53.9,34.67,111.81-4.16,130.23,26.65C345.89,159.75,342.7,181.23,336.59,194.51Z"/>
  </g>
</svg>
