<svg xmlns="http://www.w3.org/2000/svg" width="384.93" height="367.21" viewBox="0 0 384.93 367.21">
  <defs>
    <style>
      .cls-1 {
        fill: #333;
      }
    </style>
  </defs>
  <g id="health_heart" data-name="health heart">
    <path id="süda" class="cls-1" d="M204.67,213.44c-20,2-36.35-11.38-48.13-21.05-8.23-6.75-24.78-20.33-30.73-44.22-2.08-8.36-7.8-31.32,6.32-49.63,1.3-1.7,14.17-17.84,34.81-17.78.67,0,1.34,0,1.34,0a39.48,39.48,0,0,1,22.88,8.5,38.51,38.51,0,0,1,11.35,15.57s6.05-10.67,10.91-15.56C223.5,79.15,244.06,78.22,259,85.88a43,43,0,0,1,16.51,15.17c10.76,16.94,5.71,35.5,4.65,39.38-1.68,6.17-5,13.79-23.79,33.09C231.3,199.2,218.77,212.05,204.67,213.44Z"/>
  </g>
</svg>
