<svg xmlns="http://www.w3.org/2000/svg" width="199.59" height="190.68" viewBox="0 0 199.59 190.68">
  <defs>
    <style>
      .cls-1 {
        fill: #618084;
      }

      .cls-2 {
        fill: #e2e2d7;
      }

      .cls-3 {
        fill: #333;
      }
    </style>
  </defs>
  <g id="oat">
    <ellipse class="cls-1" cx="99.8" cy="95.34" rx="99.75" ry="95.3"/>
    <g id="Layer_53" data-name="Layer 53">
      <g>
        <g id="kaer-2" data-name="kaer">
          <path class="cls-2" d="M102.24,69.38c-4.73,2.1-5,9.21-5.07,11.67-.14,4,.75,11.76,4.57,12.68,3.28.79,7.07-3.87,8.6-6.57a16.35,16.35,0,0,0,1.86-9c-.11-3.14-.2-5.93-2.34-7.78A7.5,7.5,0,0,0,102.24,69.38Z"/>
          <path class="cls-3" d="M102.25,69.38a6.74,6.74,0,0,0-3,2.68,12.47,12.47,0,0,0-1.47,3.74,22.68,22.68,0,0,0-.51,4,28.66,28.66,0,0,0,0,4,18.37,18.37,0,0,0,2.06,7.68A4.88,4.88,0,0,0,100.69,93a3.18,3.18,0,0,0,1.75.6,5.88,5.88,0,0,0,3.49-1.51,17,17,0,0,0,2.76-2.87,16.56,16.56,0,0,0,2.08-3.41,17,17,0,0,0,1.29-7.84,23.37,23.37,0,0,0-.33-4,6,6,0,0,0-1.87-3.47A7.42,7.42,0,0,0,102.25,69.38Zm0,0a7.44,7.44,0,0,1,7.66,1,6.28,6.28,0,0,1,2,3.49,23,23,0,0,1,.43,4.05,17.11,17.11,0,0,1-1.14,8,16.9,16.9,0,0,1-2.1,3.52,17.34,17.34,0,0,1-2.82,3,6.43,6.43,0,0,1-3.83,1.59,3.77,3.77,0,0,1-2-.71A5.47,5.47,0,0,1,99,91.76a13.23,13.23,0,0,1-1.41-3.85,26.45,26.45,0,0,1-.53-4,29.08,29.08,0,0,1,.05-4.07,23.52,23.52,0,0,1,.6-4A12.26,12.26,0,0,1,99.26,72,6.82,6.82,0,0,1,102.25,69.38Z"/>
        </g>
        <g>
          <g id="kaer-3" data-name="kaer">
            <path class="cls-2" d="M56.84,91.74c-1.62,5,3.88,10.71,5.79,12.68,3.09,3.19,9.91,8.57,13.31,6.54,2.91-1.75,1.83-8.08.74-11.26a20,20,0,0,0-5.89-8.3C68.21,89,65.92,87,63,87.06A6.87,6.87,0,0,0,56.84,91.74Z"/>
            <path class="cls-3" d="M56.84,91.74A7.22,7.22,0,0,0,57,96,15,15,0,0,0,58.9,99.9a27,27,0,0,0,2.76,3.37,35.57,35.57,0,0,0,3.14,3,24.15,24.15,0,0,0,7.33,4.52,6.65,6.65,0,0,0,2.06.35,3.71,3.71,0,0,0,1-.13,3.31,3.31,0,0,0,.87-.47,5,5,0,0,0,1.45-3.74,17.56,17.56,0,0,0-.35-4.27,19.43,19.43,0,0,0-1.25-4.12,20.46,20.46,0,0,0-5.16-6.86,35.44,35.44,0,0,0-3.29-2.84,7.69,7.69,0,0,0-4-1.61A6.82,6.82,0,0,0,56.84,91.74Zm0,0A6.87,6.87,0,0,1,63.51,87a7.93,7.93,0,0,1,4.05,1.55,34.67,34.67,0,0,1,3.38,2.78,20.48,20.48,0,0,1,5.4,6.87,20.2,20.2,0,0,1,1.33,4.21,18.49,18.49,0,0,1,.4,4.4,8.86,8.86,0,0,1-.4,2.21,4,4,0,0,1-1.29,1.9,3.71,3.71,0,0,1-1,.55,5,5,0,0,1-1.15.15,6.87,6.87,0,0,1-2.21-.41,16.94,16.94,0,0,1-3.91-2,33.34,33.34,0,0,1-3.45-2.7A36.31,36.31,0,0,1,58.83,100,14.93,14.93,0,0,1,56.92,96,7.25,7.25,0,0,1,56.84,91.74Z"/>
          </g>
          <path class="cls-3" d="M59.15,91.59a51.87,51.87,0,0,0,8.17,8.64,45.75,45.75,0,0,0,4.78,3.54,56.4,56.4,0,0,0,5.18,3,34.42,34.42,0,0,1-5.4-2.61A38.17,38.17,0,0,1,67,100.66a39.77,39.77,0,0,1-4.29-4.22A34.13,34.13,0,0,1,59.15,91.59Z"/>
        </g>
        <g>
          <g id="kaer-4" data-name="kaer">
            <path class="cls-2" d="M68.59,51.8c-5.27-.43-9.54,6.23-11,8.53-2.41,3.74-6.09,11.61-3.34,14.45,2.37,2.44,8.29-.06,11.13-1.85a19.8,19.8,0,0,0,6.74-7.62c1.71-3.05,3.22-5.76,2.44-8.63A6.88,6.88,0,0,0,68.59,51.8Z"/>
            <path class="cls-3" d="M68.59,51.8a7.25,7.25,0,0,0-4.15,1.09,15.29,15.29,0,0,0-3.33,2.78,27.81,27.81,0,0,0-2.65,3.46,39,39,0,0,0-2.21,3.74A24.33,24.33,0,0,0,53.53,71a6.62,6.62,0,0,0,.13,2.09,3.86,3.86,0,0,0,.35.95,3.13,3.13,0,0,0,.66.74,5,5,0,0,0,4,.56,18.09,18.09,0,0,0,4.07-1.32,18.89,18.89,0,0,0,3.72-2.16,20.19,20.19,0,0,0,5.5-6.59,35.26,35.26,0,0,0,2-3.85,7.67,7.67,0,0,0,.66-4.22A6.81,6.81,0,0,0,68.59,51.8Zm0,0a6.86,6.86,0,0,1,6.11,5.42,7.85,7.85,0,0,1-.58,4.3,35.61,35.61,0,0,1-1.93,3.92,20.66,20.66,0,0,1-5.46,6.83,20.14,20.14,0,0,1-3.79,2.25,18,18,0,0,1-4.2,1.39A8.83,8.83,0,0,1,56.5,76a4,4,0,0,1-2.15-.82,3.86,3.86,0,0,1-.77-.89,4.41,4.41,0,0,1-.4-1.08A7.12,7.12,0,0,1,53.06,71a17.21,17.21,0,0,1,1.11-4.27,34.15,34.15,0,0,1,1.84-4,36.26,36.26,0,0,1,5-7.12,14.87,14.87,0,0,1,3.37-2.76A7.23,7.23,0,0,1,68.59,51.8Z"/>
          </g>
          <path class="cls-3" d="M69.26,54A51.7,51.7,0,0,0,62.71,64a44.67,44.67,0,0,0-2.35,5.46,56.17,56.17,0,0,0-1.71,5.72A33.93,33.93,0,0,1,60,69.27a40.1,40.1,0,0,1,2.26-5.57,40.74,40.74,0,0,1,3.13-5.14A34.62,34.62,0,0,1,69.26,54Z"/>
        </g>
        <g>
          <g id="kaer-5" data-name="kaer">
            <path class="cls-2" d="M90.39,99.2c-5.27-.43-9.55,6.23-11,8.53-2.4,3.74-6.08,11.61-3.33,14.45,2.37,2.44,8.29-.06,11.13-1.85a20,20,0,0,0,6.74-7.62c1.7-3,3.22-5.76,2.44-8.63A6.88,6.88,0,0,0,90.39,99.2Z"/>
            <path class="cls-3" d="M90.39,99.2a7.23,7.23,0,0,0-4.15,1.09,14.84,14.84,0,0,0-3.33,2.78,27.49,27.49,0,0,0-2.65,3.45,39.2,39.2,0,0,0-2.21,3.75,24,24,0,0,0-2.72,8.16,6.36,6.36,0,0,0,.12,2.09,4,4,0,0,0,.36,1,3.31,3.31,0,0,0,.66.74,5,5,0,0,0,4,.56,18,18,0,0,0,4.08-1.32,19.19,19.19,0,0,0,3.72-2.16,20.52,20.52,0,0,0,5.5-6.59,35.26,35.26,0,0,0,2-3.85,7.67,7.67,0,0,0,.66-4.22A6.81,6.81,0,0,0,90.39,99.2Zm0,0a6.85,6.85,0,0,1,6.11,5.41,8,8,0,0,1-.58,4.31A35.68,35.68,0,0,1,94,112.84a18.27,18.27,0,0,1-9.25,9.08,18.57,18.57,0,0,1-4.19,1.39,8.91,8.91,0,0,1-2.25.12,4,4,0,0,1-2.14-.82,3.67,3.67,0,0,1-.78-.89,4.93,4.93,0,0,1-.4-1.09,6.76,6.76,0,0,1-.11-2.24,16.77,16.77,0,0,1,1.1-4.27,34.21,34.21,0,0,1,1.85-4,35.56,35.56,0,0,1,5-7.12,14.65,14.65,0,0,1,3.37-2.76A7.21,7.21,0,0,1,90.39,99.2Z"/>
          </g>
          <path class="cls-3" d="M91.06,101.42a50.93,50.93,0,0,0-6.55,9.93,46.34,46.34,0,0,0-2.36,5.46,56.17,56.17,0,0,0-1.71,5.72,33.75,33.75,0,0,1,1.31-5.86A40.1,40.1,0,0,1,84,111.1,38.94,38.94,0,0,1,87.14,106,34,34,0,0,1,91.06,101.42Z"/>
        </g>
        <g>
          <g id="kaer-6" data-name="kaer">
            <path class="cls-2" d="M78.51,78.08c-5-.88-8.35,4.24-9.52,6C67.1,87,64.42,93.17,67.3,95.82c2.46,2.27,7.78.77,10.28-.44a12.43,12.43,0,0,0,5.58-5.69c1.3-2.37,2.45-4.48,1.43-7A8.46,8.46,0,0,0,78.51,78.08Z"/>
            <path class="cls-3" d="M78.51,78.08a6.43,6.43,0,0,0-3.6.41,9.85,9.85,0,0,0-3,2.05,17.06,17.06,0,0,0-2.32,2.83,21.36,21.36,0,0,0-1.8,3.19A18.19,18.19,0,0,0,66.55,90a8.48,8.48,0,0,0-.2,3.57,4.16,4.16,0,0,0,.65,1.6,3.78,3.78,0,0,0,1.33,1.08,7.09,7.09,0,0,0,3.49.48A16,16,0,0,0,75.36,96a14,14,0,0,0,3.3-1.47,11.44,11.44,0,0,0,2.71-2.39,18.79,18.79,0,0,0,2-3.06,12.67,12.67,0,0,0,1.45-3.34,5,5,0,0,0-.49-3.53,7.77,7.77,0,0,0-2.44-2.69A8.58,8.58,0,0,0,78.51,78.08Zm0,0a8.52,8.52,0,0,1,3.37,1.42,7.92,7.92,0,0,1,2.49,2.69,5.21,5.21,0,0,1,.57,3.59,12.91,12.91,0,0,1-1.38,3.43,20,20,0,0,1-1.93,3.15,11.37,11.37,0,0,1-2.74,2.53,14.41,14.41,0,0,1-3.39,1.55,15.59,15.59,0,0,1-3.65.76,7.41,7.41,0,0,1-3.71-.55,4.23,4.23,0,0,1-1.49-1.23,4.55,4.55,0,0,1-.71-1.79,8.8,8.8,0,0,1,.28-3.72,18.59,18.59,0,0,1,1.33-3.46,22.37,22.37,0,0,1,1.89-3.16,18.38,18.38,0,0,1,2.4-2.8,9.85,9.85,0,0,1,3.06-2A6.45,6.45,0,0,1,78.51,78.08Z"/>
          </g>
          <path class="cls-3" d="M79.37,80a30.21,30.21,0,0,0-5.23,7.67,31.29,31.29,0,0,0-2.66,8.89,22.25,22.25,0,0,1,.64-4.66,24.19,24.19,0,0,1,1.58-4.44A22.58,22.58,0,0,1,79.37,80Z"/>
        </g>
        <g>
          <g id="kaer-7" data-name="kaer">
            <path class="cls-2" d="M107.69,53.23c-5-.88-8.35,4.25-9.52,6C96.28,62.13,93.6,68.33,96.48,71c2.46,2.27,7.78.77,10.28-.44a12.43,12.43,0,0,0,5.58-5.69c1.3-2.37,2.45-4.48,1.43-7A8.46,8.46,0,0,0,107.69,53.23Z"/>
            <path class="cls-3" d="M107.69,53.23a6.43,6.43,0,0,0-3.6.41,9.73,9.73,0,0,0-3,2,17.06,17.06,0,0,0-2.32,2.83A21.36,21.36,0,0,0,97,61.71a18.44,18.44,0,0,0-1.22,3.43,8.48,8.48,0,0,0-.2,3.57,4.1,4.1,0,0,0,.65,1.6,3.67,3.67,0,0,0,1.33,1.08,6.87,6.87,0,0,0,3.49.48,16,16,0,0,0,3.54-.71,14,14,0,0,0,3.3-1.47,11.44,11.44,0,0,0,2.71-2.39,19.53,19.53,0,0,0,2-3.06A13,13,0,0,0,114,60.9a5,5,0,0,0-.49-3.53A7.77,7.77,0,0,0,111,54.68,8.58,8.58,0,0,0,107.69,53.23Zm0,0a8.67,8.67,0,0,1,3.37,1.42,7.92,7.92,0,0,1,2.49,2.69,5.21,5.21,0,0,1,.57,3.59,12.78,12.78,0,0,1-1.38,3.43,20.55,20.55,0,0,1-1.93,3.16A11.33,11.33,0,0,1,108.07,70a14.23,14.23,0,0,1-3.39,1.55,16.14,16.14,0,0,1-3.65.77,7.42,7.42,0,0,1-3.71-.56,4.23,4.23,0,0,1-1.49-1.23,4.55,4.55,0,0,1-.71-1.79,8.8,8.8,0,0,1,.28-3.72,18.59,18.59,0,0,1,1.33-3.46,22.37,22.37,0,0,1,1.89-3.16,18.87,18.87,0,0,1,2.4-2.8,9.85,9.85,0,0,1,3.06-2A6.45,6.45,0,0,1,107.69,53.23Z"/>
          </g>
          <path class="cls-3" d="M108.55,55.15a30,30,0,0,0-5.23,7.66,31.39,31.39,0,0,0-2.66,8.89,22.07,22.07,0,0,1,.64-4.65,24.29,24.29,0,0,1,1.58-4.45A22.44,22.44,0,0,1,108.55,55.15Z"/>
        </g>
        <g>
          <g id="kaer-8" data-name="kaer">
            <path class="cls-2" d="M66.85,123.82c1.52,4.84,7.62,5.46,9.73,5.67,3.43.35,10.16-.13,11.18-3.9.88-3.24-2.9-7.27-5.13-8.92A12.43,12.43,0,0,0,75,114.34c-2.71-.06-5.11-.11-6.83,1.94A8.44,8.44,0,0,0,66.85,123.82Z"/>
            <path class="cls-3" d="M66.85,123.82a6.42,6.42,0,0,0,2,3,9.7,9.7,0,0,0,3.21,1.73,16.77,16.77,0,0,0,3.58.75,21.34,21.34,0,0,0,3.66.13,18.25,18.25,0,0,0,3.61-.5,8.58,8.58,0,0,0,3.25-1.47,4,4,0,0,0,1.12-1.32,3.73,3.73,0,0,0,.35-1.68,7,7,0,0,0-1.18-3.31,16.13,16.13,0,0,0-2.27-2.82,14.22,14.22,0,0,0-2.83-2.25A11.25,11.25,0,0,0,78,114.8a19.17,19.17,0,0,0-3.63-.35,13,13,0,0,0-3.63.26,5,5,0,0,0-2.91,2.06,7.88,7.88,0,0,0-1.26,3.41A8.61,8.61,0,0,0,66.85,123.82Zm0,0a8.62,8.62,0,0,1-.3-3.64,8.06,8.06,0,0,1,1.24-3.45,5.21,5.21,0,0,1,2.92-2.16,12.72,12.72,0,0,1,3.68-.36,19.2,19.2,0,0,1,3.7.26,11.3,11.3,0,0,1,3.5,1.26A14.25,14.25,0,0,1,84.53,118a16,16,0,0,1,2.36,2.89,7.43,7.43,0,0,1,1.22,3.55,4.16,4.16,0,0,1-.41,1.89,4.61,4.61,0,0,1-1.25,1.45A8.85,8.85,0,0,1,83,129.27a20,20,0,0,1-3.68.42,21.71,21.71,0,0,1-3.69-.23,18.34,18.34,0,0,1-3.59-.83,9.77,9.77,0,0,1-3.2-1.78A6.36,6.36,0,0,1,66.85,123.82Z"/>
          </g>
          <path class="cls-3" d="M68.15,122.18a30.31,30.31,0,0,0,9.21,1.1,31.4,31.4,0,0,0,9.12-1.74,22.9,22.9,0,0,1-4.43,1.58,24.32,24.32,0,0,1-4.67.65A22.7,22.7,0,0,1,68.15,122.18Z"/>
        </g>
        <g>
          <g id="kaer-9" data-name="kaer">
            <path class="cls-2" d="M119,102.81c-5-.87-8.36,4.25-9.52,6-1.89,2.89-4.57,9.08-1.7,11.72,2.47,2.28,7.79.78,10.29-.43a12.39,12.39,0,0,0,5.57-5.69c1.3-2.37,2.46-4.48,1.44-7A8.49,8.49,0,0,0,119,102.81Z"/>
            <path class="cls-3" d="M119,102.81a6.51,6.51,0,0,0-3.6.42,10,10,0,0,0-3,2,17.49,17.49,0,0,0-2.31,2.84,21.71,21.71,0,0,0-1.81,3.18,19.29,19.29,0,0,0-1.22,3.44,8.42,8.42,0,0,0-.19,3.56,4.06,4.06,0,0,0,.65,1.61,3.78,3.78,0,0,0,1.33,1.08,7.06,7.06,0,0,0,3.48.48,16.55,16.55,0,0,0,3.55-.71,14.42,14.42,0,0,0,3.3-1.48,11.35,11.35,0,0,0,2.7-2.38,18.84,18.84,0,0,0,2-3.06,13.08,13.08,0,0,0,1.45-3.35,5.07,5.07,0,0,0-.49-3.52,7.78,7.78,0,0,0-2.44-2.69A8.59,8.59,0,0,0,119,102.81Zm0,0a8.69,8.69,0,0,1,3.37,1.43,7.77,7.77,0,0,1,2.48,2.68,5.24,5.24,0,0,1,.58,3.6,13.05,13.05,0,0,1-1.38,3.42,19,19,0,0,1-1.94,3.16,11.15,11.15,0,0,1-2.74,2.52,14.6,14.6,0,0,1-3.38,1.56,16.68,16.68,0,0,1-3.65.76,7.34,7.34,0,0,1-3.72-.56,4.09,4.09,0,0,1-1.48-1.23,4.42,4.42,0,0,1-.71-1.78,8.48,8.48,0,0,1,.28-3.72,19.28,19.28,0,0,1,1.32-3.46,21.62,21.62,0,0,1,1.9-3.17,18.3,18.3,0,0,1,2.4-2.8,9.72,9.72,0,0,1,3-2A6.59,6.59,0,0,1,119,102.81Z"/>
          </g>
          <path class="cls-3" d="M119.85,104.73a30.6,30.6,0,0,0-5.23,7.66,31.47,31.47,0,0,0-2.65,8.89,22.25,22.25,0,0,1,.64-4.65,25.3,25.3,0,0,1,1.57-4.45A22.68,22.68,0,0,1,119.85,104.73Z"/>
          <g>
            <g id="kaer-10" data-name="kaer">
              <path class="cls-2" d="M80.43,95c-5-.88-8.36,4.24-9.52,6-1.9,2.89-4.57,9.08-1.7,11.73,2.47,2.27,7.78.77,10.28-.44a12.37,12.37,0,0,0,5.58-5.69c1.3-2.37,2.46-4.48,1.44-7A8.47,8.47,0,0,0,80.43,95Z"/>
              <path class="cls-3" d="M80.43,95a6.45,6.45,0,0,0-3.61.41,10,10,0,0,0-3,2,17.55,17.55,0,0,0-2.32,2.84,21.65,21.65,0,0,0-1.8,3.18,18.53,18.53,0,0,0-1.22,3.44,8.43,8.43,0,0,0-.2,3.56,4.21,4.21,0,0,0,.65,1.61,3.81,3.81,0,0,0,1.34,1.08,7,7,0,0,0,3.48.48,16.67,16.67,0,0,0,3.55-.71,14.18,14.18,0,0,0,3.3-1.48,11.32,11.32,0,0,0,2.7-2.38,19.53,19.53,0,0,0,2-3.06,12.79,12.79,0,0,0,1.44-3.34,5,5,0,0,0-.48-3.53,7.81,7.81,0,0,0-2.45-2.69A8.45,8.45,0,0,0,80.43,95Zm0,0a8.48,8.48,0,0,1,3.36,1.42,7.8,7.8,0,0,1,2.49,2.68,5.24,5.24,0,0,1,.57,3.6,12.72,12.72,0,0,1-1.38,3.42,18.31,18.31,0,0,1-1.93,3.16,11.58,11.58,0,0,1-2.74,2.53,15.06,15.06,0,0,1-3.39,1.55,16.72,16.72,0,0,1-3.64.76,7.34,7.34,0,0,1-3.72-.56,4,4,0,0,1-1.49-1.23,4.66,4.66,0,0,1-.71-1.78,8.64,8.64,0,0,1,.29-3.72,19.28,19.28,0,0,1,1.32-3.46,21.62,21.62,0,0,1,1.9-3.17,18.23,18.23,0,0,1,2.39-2.8,9.76,9.76,0,0,1,3.06-2A6.5,6.5,0,0,1,80.43,95Z"/>
            </g>
            <path class="cls-3" d="M81.28,96.94a30.34,30.34,0,0,0-5.23,7.66,31.78,31.78,0,0,0-2.66,8.9,22.93,22.93,0,0,1,.64-4.66,24.19,24.19,0,0,1,1.58-4.44A22.48,22.48,0,0,1,81.28,96.94Z"/>
          </g>
        </g>
        <path class="cls-3" d="M104,70.77a41.44,41.44,0,0,0-.53,10.71,36.25,36.25,0,0,0,.8,5.3A46.94,46.94,0,0,0,105.7,92a28.36,28.36,0,0,1-1.87-5.08,32.36,32.36,0,0,1-.92-5.35,32.94,32.94,0,0,1,0-5.44A29.06,29.06,0,0,1,104,70.77Z"/>
        <g id="kaer-11" data-name="kaer">
          <path class="cls-2" d="M71.27,80.77c3.23-1.79,3.18-6.85,3.17-8.59,0-2.85-.88-8.3-3.57-8.72-2.31-.35-4.8,3.19-5.78,5.2a12,12,0,0,0-1,6.49c.16,2.22.31,4.19,1.86,5.37A5.09,5.09,0,0,0,71.27,80.77Z"/>
          <path class="cls-3" d="M71.27,80.77A6.57,6.57,0,0,0,74.11,76a20.53,20.53,0,0,0,.12-5.7,13,13,0,0,0-1.63-5.39,3.29,3.29,0,0,0-.94-1,2.12,2.12,0,0,0-1.27-.32A4.26,4.26,0,0,0,68,64.9a13.61,13.61,0,0,0-3.16,4.66,12.08,12.08,0,0,0-.69,5.6A17.79,17.79,0,0,0,64.51,78a4.23,4.23,0,0,0,1.37,2.42A5,5,0,0,0,71.27,80.77Zm0,0a5.05,5.05,0,0,1-5.45-.29A4.33,4.33,0,0,1,64.37,78,19.72,19.72,0,0,1,64,75.17a12.48,12.48,0,0,1,.62-5.71,14,14,0,0,1,3.16-4.83,4.57,4.57,0,0,1,2.61-1.34,2.39,2.39,0,0,1,1.45.39,3.7,3.7,0,0,1,1,1.08,13.39,13.39,0,0,1,1.59,5.53A20.82,20.82,0,0,1,74.2,76,6.6,6.6,0,0,1,71.27,80.77Z"/>
        </g>
        <path class="cls-3" d="M68.69,65a30.46,30.46,0,0,0-.42,3.8,26.92,26.92,0,0,0,0,3.81,26.65,26.65,0,0,0,.56,3.76,31.55,31.55,0,0,0,1,3.69,20.06,20.06,0,0,1-1.31-3.62,23.2,23.2,0,0,1-.64-3.8,23.68,23.68,0,0,1,0-3.86A21,21,0,0,1,68.69,65Z"/>
        <g id="kaer-12" data-name="kaer">
          <path class="cls-2" d="M78.92,55.32c-3.28,4-.3,10.47.73,12.7,1.68,3.64,6,10.17,9.8,9.26,3.29-.77,4.57-6.65,4.71-9.74a16.32,16.32,0,0,0-2.39-8.86c-1.51-2.76-2.85-5.21-5.6-5.89A7.46,7.46,0,0,0,78.92,55.32Z"/>
          <path class="cls-3" d="M78.92,55.32A6.84,6.84,0,0,0,77.49,59a12.32,12.32,0,0,0,.38,4,22.41,22.41,0,0,0,1.35,3.81,30.44,30.44,0,0,0,1.87,3.58,18.3,18.3,0,0,0,5.3,5.92,5,5,0,0,0,1.78.72A3.14,3.14,0,0,0,90,76.82a5.91,5.91,0,0,0,2.43-2.92,17.33,17.33,0,0,0,1.17-3.81,16.64,16.64,0,0,0,.32-4,17.08,17.08,0,0,0-2.39-7.58,22.81,22.81,0,0,0-2.11-3.44,6,6,0,0,0-3.23-2.25A7.43,7.43,0,0,0,78.92,55.32Zm0,0a7.48,7.48,0,0,1,7.29-2.56A6.34,6.34,0,0,1,89.56,55a23.21,23.21,0,0,1,2.21,3.42,17.24,17.24,0,0,1,2.61,7.68,17.5,17.5,0,0,1-.29,4.09,17.82,17.82,0,0,1-1.17,3.94,6.35,6.35,0,0,1-2.7,3.14,3.68,3.68,0,0,1-2.12.28,5.33,5.33,0,0,1-1.95-.8,12.85,12.85,0,0,1-3-2.8,27.45,27.45,0,0,1-2.3-3.37,29.36,29.36,0,0,1-1.79-3.65,24.83,24.83,0,0,1-1.28-3.85,12.44,12.44,0,0,1-.33-4A6.74,6.74,0,0,1,78.92,55.32Z"/>
        </g>
        <path class="cls-3" d="M81.08,55.79a41.23,41.23,0,0,0,4.36,9.8A36.79,36.79,0,0,0,88.54,70a47,47,0,0,0,3.65,4,29.47,29.47,0,0,1-4-3.7A30.71,30.71,0,0,1,82.57,61,28.68,28.68,0,0,1,81.08,55.79Z"/>
        <g id="kaer-13" data-name="kaer">
          <path class="cls-2" d="M118,59.82c-5.16-.5-8.87,5.56-10.16,7.65-2.09,3.42-5.15,10.61-2.27,13.29,2.47,2.31,8.07.12,10.72-1.48a16.18,16.18,0,0,0,6-6.91c1.46-2.78,2.75-5.26,1.8-7.92A7.47,7.47,0,0,0,118,59.82Z"/>
          <path class="cls-3" d="M118,59.82a6.79,6.79,0,0,0-3.89.88A12.25,12.25,0,0,0,111,63.23a21.85,21.85,0,0,0-2.42,3.24A28.28,28.28,0,0,0,106.61,70a18.42,18.42,0,0,0-2,7.69,5.24,5.24,0,0,0,.4,1.89A3.17,3.17,0,0,0,106.24,81a5.93,5.93,0,0,0,3.78.41,17.67,17.67,0,0,0,3.82-1.14,15.66,15.66,0,0,0,8.47-8.14A22.86,22.86,0,0,0,124,68.44a6,6,0,0,0,.08-3.94A7.41,7.41,0,0,0,118,59.82Zm0,0a7.49,7.49,0,0,1,6.18,4.65,6.29,6.29,0,0,1,0,4,22.49,22.49,0,0,1-1.62,3.73A15.35,15.35,0,0,1,114,80.68a16.65,16.65,0,0,1-3.92,1.21,6.4,6.4,0,0,1-4.12-.5,3.64,3.64,0,0,1-1.4-1.61,5.31,5.31,0,0,1-.42-2.06,12.88,12.88,0,0,1,.67-4,26.33,26.33,0,0,1,1.53-3.77,28.54,28.54,0,0,1,2-3.52,24.15,24.15,0,0,1,2.5-3.2,12.67,12.67,0,0,1,3.17-2.52A6.8,6.8,0,0,1,118,59.82Z"/>
        </g>
        <path class="cls-3" d="M118.79,61.88a40.92,40.92,0,0,0-5.74,9.06,38.21,38.21,0,0,0-1.92,5,46,46,0,0,0-1.26,5.24,27.92,27.92,0,0,1,.88-5.35,32.07,32.07,0,0,1,1.83-5.11,31.37,31.37,0,0,1,2.7-4.71A28.91,28.91,0,0,1,118.79,61.88Z"/>
        <g id="kaer-14" data-name="kaer">
          <path class="cls-2" d="M78.85,84.7c-2.13,4.73,2.42,10.19,4,12.08,2.56,3.08,8.39,8.28,11.86,6.42,3-1.6,2.69-7.6,2-10.62a16.31,16.31,0,0,0-4.6-8C90,82.36,88,80.34,85.2,80.39A7.46,7.46,0,0,0,78.85,84.7Z"/>
          <path class="cls-3" d="M78.85,84.7a6.84,6.84,0,0,0-.42,4,12.7,12.7,0,0,0,1.4,3.77,23.12,23.12,0,0,0,2.29,3.33,29.68,29.68,0,0,0,2.73,3,18.4,18.4,0,0,0,6.65,4.35,5,5,0,0,0,1.91.23,3.06,3.06,0,0,0,1.7-.72,5.87,5.87,0,0,0,1.6-3.45,17.65,17.65,0,0,0,.15-4,17.27,17.27,0,0,0-.72-3.92,17,17,0,0,0-4.27-6.71A22.52,22.52,0,0,0,89,81.77a6.06,6.06,0,0,0-3.71-1.34A7.43,7.43,0,0,0,78.85,84.7Zm0,0a7.48,7.48,0,0,1,6.39-4.35,6.33,6.33,0,0,1,3.81,1.28,23,23,0,0,1,3,2.74,15.41,15.41,0,0,1,5.28,10.77,17.69,17.69,0,0,1-.11,4.11,6.35,6.35,0,0,1-1.8,3.73,3.63,3.63,0,0,1-2,.82,5.4,5.4,0,0,1-2.08-.27,12.89,12.89,0,0,1-3.62-1.94,26.88,26.88,0,0,1-3.08-2.65A30.06,30.06,0,0,1,82,95.87a24.78,24.78,0,0,1-2.23-3.39,12.62,12.62,0,0,1-1.36-3.8A6.78,6.78,0,0,1,78.85,84.7Z"/>
        </g>
        <path class="cls-3" d="M81.06,84.6a41.14,41.14,0,0,0,6.74,8.34,35.43,35.43,0,0,0,4.12,3.42,46.55,46.55,0,0,0,4.55,2.88,28.44,28.44,0,0,1-4.78-2.54,32.83,32.83,0,0,1-4.25-3.38,31.5,31.5,0,0,1-3.59-4.07A28.93,28.93,0,0,1,81.06,84.6Z"/>
        <g id="kaer-15" data-name="kaer">
          <path class="cls-2" d="M119,82.53c-5.11-.86-9.24,4.93-10.67,6.93-2.33,3.25-5.88,10.22-3.2,13.09,2.3,2.48,8,.68,10.79-.72a16.3,16.3,0,0,0,6.52-6.47c1.65-2.67,3.11-5,2.35-7.78A7.51,7.51,0,0,0,119,82.53Z"/>
          <path class="cls-3" d="M119,82.53a6.86,6.86,0,0,0-3.94.61,12.2,12.2,0,0,0-3.3,2.31,22.75,22.75,0,0,0-2.64,3.06,28.74,28.74,0,0,0-2.18,3.39,18.44,18.44,0,0,0-2.53,7.54,4.86,4.86,0,0,0,.26,1.9,3.23,3.23,0,0,0,1.13,1.47,5.92,5.92,0,0,0,3.75.67,17.41,17.41,0,0,0,3.88-.87,15.56,15.56,0,0,0,9-7.52,22.1,22.1,0,0,0,1.95-3.53,6,6,0,0,0,.36-3.93A7.45,7.45,0,0,0,119,82.53Zm0,0a7.48,7.48,0,0,1,5.83,5.08,6.27,6.27,0,0,1-.27,4,23.76,23.76,0,0,1-1.88,3.61,17.26,17.26,0,0,1-5.39,6.07,17,17,0,0,1-3.7,1.77,17.5,17.5,0,0,1-4,.93,6.35,6.35,0,0,1-4.07-.79,3.7,3.7,0,0,1-1.29-1.71,5.48,5.48,0,0,1-.27-2.08,13,13,0,0,1,1-4,27,27,0,0,1,1.79-3.66,28.34,28.34,0,0,1,2.28-3.36,24.33,24.33,0,0,1,2.72-3A12.67,12.67,0,0,1,115,83.1,6.93,6.93,0,0,1,119,82.53Z"/>
        </g>
        <path class="cls-3" d="M119.61,84.65a41.18,41.18,0,0,0-6.36,8.63A36.32,36.32,0,0,0,111,98.14a45,45,0,0,0-1.63,5.13A28.25,28.25,0,0,1,110.61,98a30.51,30.51,0,0,1,5.21-9.48A28.31,28.31,0,0,1,119.61,84.65Z"/>
        <g id="kaer-16" data-name="kaer">
          <path class="cls-2" d="M109.39,74.28c-2.69,1.33-2.83,5.79-2.88,7.33-.08,2.51.42,7.39,2.59,8,1.87.49,4-2.44,4.88-4.13A11.18,11.18,0,0,0,115,79.81c-.06-2-.12-3.73-1.33-4.89A3.93,3.93,0,0,0,109.39,74.28Z"/>
          <path class="cls-3" d="M109.39,74.28a5.61,5.61,0,0,0-2.49,4,20.13,20.13,0,0,0-.29,4.9,13.68,13.68,0,0,0,1,4.75c.36.7.89,1.42,1.67,1.49a2.8,2.8,0,0,0,2.09-.89,11.13,11.13,0,0,0,2.8-3.94,11.49,11.49,0,0,0,.74-4.8,20,20,0,0,0-.15-2.45,4.26,4.26,0,0,0-.92-2.22A3.89,3.89,0,0,0,109.39,74.28Zm0,0a3.94,3.94,0,0,1,4.56.83,4.41,4.41,0,0,1,1,2.26,18.67,18.67,0,0,1,.19,2.47,10.72,10.72,0,0,1-3.48,9,3.13,3.13,0,0,1-2.33.92,1.87,1.87,0,0,1-1.14-.6,3.72,3.72,0,0,1-.71-1.06,13.45,13.45,0,0,1-1-4.84,20.26,20.26,0,0,1,.36-4.92,8.59,8.59,0,0,1,.84-2.32A4.22,4.22,0,0,1,109.39,74.28Z"/>
        </g>
        <path class="cls-3" d="M110.36,75.16a28.69,28.69,0,0,0,1,13.31,20.4,20.4,0,0,1-1.59-6.57A20.65,20.65,0,0,1,110.36,75.16Z"/>
        <g>
          <g id="kaer-17" data-name="kaer">
            <path class="cls-2" d="M103.66,99.34c-5-.88-8.35,4.25-9.52,6-1.89,2.88-4.57,9.08-1.69,11.72,2.46,2.27,7.78.77,10.28-.43a12.43,12.43,0,0,0,5.58-5.69c1.3-2.38,2.45-4.49,1.43-7A8.48,8.48,0,0,0,103.66,99.34Z"/>
            <path class="cls-3" d="M103.66,99.34a6.43,6.43,0,0,0-3.6.42,9.7,9.7,0,0,0-3,2,17.13,17.13,0,0,0-2.32,2.84,20.78,20.78,0,0,0-1.8,3.18,18.53,18.53,0,0,0-1.22,3.44,8.43,8.43,0,0,0-.2,3.56,4.1,4.1,0,0,0,.65,1.6,3.67,3.67,0,0,0,1.33,1.08A6.87,6.87,0,0,0,97,118a15.44,15.44,0,0,0,3.54-.71,14,14,0,0,0,3.3-1.47,11.62,11.62,0,0,0,2.71-2.38,19.17,19.17,0,0,0,2-3.07,12.83,12.83,0,0,0,1.44-3.34,5,5,0,0,0-.49-3.53,7.86,7.86,0,0,0-2.44-2.69A8.73,8.73,0,0,0,103.66,99.34Zm0,0a8.67,8.67,0,0,1,3.37,1.42,7.92,7.92,0,0,1,2.49,2.69,5.21,5.21,0,0,1,.57,3.59,12.78,12.78,0,0,1-1.38,3.43,20.55,20.55,0,0,1-1.93,3.16,11.33,11.33,0,0,1-2.74,2.52,14.23,14.23,0,0,1-3.39,1.55,16.14,16.14,0,0,1-3.65.77,7.42,7.42,0,0,1-3.71-.56,4.23,4.23,0,0,1-1.49-1.23,4.57,4.57,0,0,1-.71-1.78,8.85,8.85,0,0,1,.28-3.73,18.5,18.5,0,0,1,1.33-3.45,22.48,22.48,0,0,1,1.89-3.17,18.87,18.87,0,0,1,2.4-2.8,9.85,9.85,0,0,1,3.06-2A6.45,6.45,0,0,1,103.66,99.34Z"/>
          </g>
          <path class="cls-3" d="M104.52,101.26a30.34,30.34,0,0,0-5.23,7.66,31.49,31.49,0,0,0-2.66,8.89,22.25,22.25,0,0,1,.64-4.65,24.29,24.29,0,0,1,1.58-4.45A22.55,22.55,0,0,1,104.52,101.26Z"/>
        </g>
        <g id="kaer-18" data-name="kaer">
          <path class="cls-2" d="M88.49,63.24c-4.73,2.11-5,9.22-5.07,11.67-.14,4,.74,11.77,4.57,12.69,3.28.79,7.07-3.88,8.59-6.57a16.2,16.2,0,0,0,1.86-9c-.1-3.14-.19-5.93-2.34-7.78A7.47,7.47,0,0,0,88.49,63.24Z"/>
          <path class="cls-3" d="M88.49,63.24a6.85,6.85,0,0,0-2.95,2.69,12.47,12.47,0,0,0-1.47,3.74,22.56,22.56,0,0,0-.51,4,28.68,28.68,0,0,0,0,4,18.41,18.41,0,0,0,2.06,7.68,4.88,4.88,0,0,0,1.27,1.44,3.18,3.18,0,0,0,1.75.6,5.88,5.88,0,0,0,3.49-1.51,17.43,17.43,0,0,0,2.76-2.87A16.56,16.56,0,0,0,97,79.65,17,17,0,0,0,98.3,71.8a22.37,22.37,0,0,0-.32-4,6.1,6.1,0,0,0-1.87-3.48A7.45,7.45,0,0,0,88.49,63.24Zm0,0a7.48,7.48,0,0,1,7.67,1,6.28,6.28,0,0,1,2,3.49,23,23,0,0,1,.43,4,15.52,15.52,0,0,1-3.24,11.55,17.73,17.73,0,0,1-2.82,3,6.36,6.36,0,0,1-3.83,1.58,3.61,3.61,0,0,1-2-.71,5.48,5.48,0,0,1-1.38-1.58,12.92,12.92,0,0,1-1.4-3.85,26.42,26.42,0,0,1-.53-4,29,29,0,0,1,0-4.06,24.84,24.84,0,0,1,.6-4,12.32,12.32,0,0,1,1.52-3.74A6.87,6.87,0,0,1,88.49,63.24Z"/>
        </g>
        <path class="cls-3" d="M90.21,64.64a41,41,0,0,0-.53,10.71,38.08,38.08,0,0,0,.79,5.3A47.63,47.63,0,0,0,92,85.83a28.36,28.36,0,0,1-1.87-5.08,33.38,33.38,0,0,1-.93-5.36,32.83,32.83,0,0,1,0-5.43A28.24,28.24,0,0,1,90.21,64.64Z"/>
        <g id="kaer-19" data-name="kaer">
          <path class="cls-2" d="M101.4,86.27C98.22,87.8,98.05,93,98,94.77c-.09,2.91.5,8.56,3.07,9.23,2.21.58,4.76-2.82,5.79-4.78a12.73,12.73,0,0,0,1.25-6.55c-.07-2.28-.13-4.31-1.58-5.66A4.72,4.72,0,0,0,101.4,86.27Z"/>
          <path class="cls-3" d="M101.4,86.27a4.88,4.88,0,0,0-2,2,9.5,9.5,0,0,0-1,2.69,22.84,22.84,0,0,0-.33,5.72,14.9,14.9,0,0,0,1.27,5.53,2.74,2.74,0,0,0,2,1.68,3.51,3.51,0,0,0,2.45-1.06A12,12,0,0,0,108,92.67a22.64,22.64,0,0,0-.19-2.86,4.84,4.84,0,0,0-1.13-2.57A4.7,4.7,0,0,0,101.4,86.27Zm0,0a4.73,4.73,0,0,1,5.36.91A4.94,4.94,0,0,1,108,89.79a21.37,21.37,0,0,1,.24,2.87,13.09,13.09,0,0,1-.8,5.71,13.31,13.31,0,0,1-3.32,4.74,3.83,3.83,0,0,1-2.72,1.1,3,3,0,0,1-2.21-1.88,15.06,15.06,0,0,1-1.21-5.64,22.63,22.63,0,0,1,.43-5.75,9.59,9.59,0,0,1,1-2.69A4.81,4.81,0,0,1,101.4,86.27Z"/>
        </g>
        <path class="cls-3" d="M102.56,87.29a36.38,36.38,0,0,0-.41,3.89,32.19,32.19,0,0,0,.59,7.75,35,35,0,0,0,1,3.78A21.75,21.75,0,0,1,102.46,99a25.42,25.42,0,0,1-.62-3.89,25.91,25.91,0,0,1,0-3.94A21.94,21.94,0,0,1,102.56,87.29Z"/>
        <g>
          <g id="kaer-20" data-name="kaer">
            <path class="cls-2" d="M140.33,92.45c-5.27-.43-9.55,6.23-11,8.53-2.4,3.74-6.08,11.61-3.33,14.45,2.37,2.44,8.29-.06,11.13-1.85a20,20,0,0,0,6.74-7.63c1.7-3,3.22-5.76,2.44-8.62A6.88,6.88,0,0,0,140.33,92.45Z"/>
            <path class="cls-3" d="M140.33,92.45a7.23,7.23,0,0,0-4.15,1.09,14.53,14.53,0,0,0-3.33,2.78,27.71,27.71,0,0,0-2.65,3.45,38,38,0,0,0-2.21,3.75,24,24,0,0,0-2.72,8.16,6.36,6.36,0,0,0,.12,2.09,4.76,4.76,0,0,0,.36,1,3.57,3.57,0,0,0,.66.74,5,5,0,0,0,4,.55,17.49,17.49,0,0,0,4.08-1.31,19.94,19.94,0,0,0,3.72-2.16,20.52,20.52,0,0,0,5.5-6.59,36.2,36.2,0,0,0,2-3.85,7.7,7.7,0,0,0,.66-4.22A6.81,6.81,0,0,0,140.33,92.45Zm0,0a6.85,6.85,0,0,1,6.11,5.41,7.92,7.92,0,0,1-.58,4.3,35,35,0,0,1-1.94,3.93,20.5,20.5,0,0,1-5.45,6.83,19.91,19.91,0,0,1-3.8,2.25,18.41,18.41,0,0,1-4.19,1.39,8.88,8.88,0,0,1-2.25.12,4.12,4.12,0,0,1-2.14-.82,3.9,3.9,0,0,1-.78-.89,4.93,4.93,0,0,1-.4-1.09,6.81,6.81,0,0,1-.11-2.25,17.23,17.23,0,0,1,1.1-4.26,33.46,33.46,0,0,1,1.85-4,36.33,36.33,0,0,1,5-7.13,14.91,14.91,0,0,1,3.37-2.76A7.28,7.28,0,0,1,140.33,92.45Z"/>
          </g>
          <path class="cls-3" d="M141,94.66a51.54,51.54,0,0,0-6.55,9.93,47.22,47.22,0,0,0-2.36,5.47,58,58,0,0,0-1.71,5.72,34.48,34.48,0,0,1,1.31-5.86,39.6,39.6,0,0,1,2.26-5.57,40,40,0,0,1,3.13-5.14A34.7,34.7,0,0,1,141,94.66Z"/>
        </g>
        <g>
          <g id="kaer-21" data-name="kaer">
            <path class="cls-2" d="M116.8,140.51c4.74-1.81,5-7.94,5.07-10,.15-3.45-.74-10.14-4.56-10.93-3.29-.68-7.08,3.33-8.6,5.65a12.4,12.4,0,0,0-1.86,7.75c.1,2.71.19,5.11,2.34,6.71A8.48,8.48,0,0,0,116.8,140.51Z"/>
            <path class="cls-3" d="M116.8,140.51a6.48,6.48,0,0,0,2.88-2.21,9.87,9.87,0,0,0,1.54-3.3,17.1,17.1,0,0,0,.53-3.63,21.32,21.32,0,0,0-.09-3.66,18.08,18.08,0,0,0-.72-3.57,8.48,8.48,0,0,0-1.66-3.16,4.13,4.13,0,0,0-1.38-1,3.65,3.65,0,0,0-1.7-.24,6.88,6.88,0,0,0-3.23,1.38,15.83,15.83,0,0,0-2.68,2.43,14.11,14.11,0,0,0-2.08,3,11.74,11.74,0,0,0-1.09,3.43,18.5,18.5,0,0,0-.12,3.65,12.52,12.52,0,0,0,.48,3.61,5,5,0,0,0,2.23,2.77,7.86,7.86,0,0,0,3.47,1.06A8.73,8.73,0,0,0,116.8,140.51Zm0,0a8.59,8.59,0,0,1-3.62.51,7.77,7.77,0,0,1-3.51-1,5.21,5.21,0,0,1-2.34-2.78,13,13,0,0,1-.58-3.65,19.07,19.07,0,0,1,0-3.7,11.26,11.26,0,0,1,1-3.58,14.43,14.43,0,0,1,2.11-3.07,15.68,15.68,0,0,1,2.74-2.53,7.32,7.32,0,0,1,3.47-1.43,4.17,4.17,0,0,1,1.91.29,4.37,4.37,0,0,1,1.52,1.16,8.69,8.69,0,0,1,1.67,3.34,19.82,19.82,0,0,1,.65,3.65,21.65,21.65,0,0,1,0,3.69,18,18,0,0,1-.61,3.64,10.06,10.06,0,0,1-1.58,3.3A6.57,6.57,0,0,1,116.8,140.51Z"/>
          </g>
          <path class="cls-3" d="M115.08,139.3a30.37,30.37,0,0,0,.55-9.26,31.47,31.47,0,0,0-2.29-9,21.93,21.93,0,0,1,1.84,4.32,25.18,25.18,0,0,1,.94,4.63A22.51,22.51,0,0,1,115.08,139.3Z"/>
        </g>
        <g>
          <g id="kaer-22" data-name="kaer">
            <path class="cls-2" d="M134.67,57.17c-5-.88-8.36,4.25-9.52,6-1.9,2.88-4.57,9.08-1.7,11.72,2.47,2.27,7.78.77,10.28-.44a12.37,12.37,0,0,0,5.58-5.69c1.3-2.37,2.46-4.48,1.44-7A8.47,8.47,0,0,0,134.67,57.17Z"/>
            <path class="cls-3" d="M134.67,57.17a6.45,6.45,0,0,0-3.61.41,9.85,9.85,0,0,0-3,2.05,17.06,17.06,0,0,0-2.32,2.83,22.29,22.29,0,0,0-1.8,3.19,18.44,18.44,0,0,0-1.22,3.43,8.48,8.48,0,0,0-.2,3.57,4.1,4.1,0,0,0,.65,1.6,3.7,3.7,0,0,0,1.34,1.08,6.82,6.82,0,0,0,3.48.48,16.08,16.08,0,0,0,3.55-.71,14.15,14.15,0,0,0,3.3-1.47,11.59,11.59,0,0,0,2.7-2.39,18.65,18.65,0,0,0,2-3.06,12.65,12.65,0,0,0,1.44-3.34,5,5,0,0,0-.48-3.53A7.89,7.89,0,0,0,138,58.62,8.6,8.6,0,0,0,134.67,57.17Zm0,0A8.63,8.63,0,0,1,138,58.59a7.92,7.92,0,0,1,2.49,2.69,5.21,5.21,0,0,1,.57,3.59,12.78,12.78,0,0,1-1.38,3.43,19.1,19.1,0,0,1-1.93,3.16A11.33,11.33,0,0,1,135,74a14.23,14.23,0,0,1-3.39,1.55,16.17,16.17,0,0,1-3.64.77,7.45,7.45,0,0,1-3.72-.56,4.23,4.23,0,0,1-1.49-1.23,4.72,4.72,0,0,1-.71-1.78,8.68,8.68,0,0,1,.29-3.73,19.28,19.28,0,0,1,1.32-3.46,21.52,21.52,0,0,1,1.9-3.16,18.23,18.23,0,0,1,2.39-2.8,10,10,0,0,1,3.06-2A6.5,6.5,0,0,1,134.67,57.17Z"/>
          </g>
          <path class="cls-3" d="M135.52,59.09a30,30,0,0,0-5.23,7.66,31.71,31.71,0,0,0-2.66,8.89,22.84,22.84,0,0,1,.64-4.65,24.29,24.29,0,0,1,1.58-4.45A22.44,22.44,0,0,1,135.52,59.09Z"/>
        </g>
        <g>
          <g id="kaer-23" data-name="kaer">
            <path class="cls-2" d="M48.62,73.84c-5.27-.42-9.55,6.23-11,8.53C35.18,86.11,31.5,94,34.26,96.82c2.36,2.44,8.28-.06,11.13-1.85a19.88,19.88,0,0,0,6.74-7.62c1.7-3,3.22-5.76,2.44-8.63A6.88,6.88,0,0,0,48.62,73.84Z"/>
            <path class="cls-3" d="M48.62,73.84a7.29,7.29,0,0,0-4.15,1.09,14.84,14.84,0,0,0-3.33,2.78,26.88,26.88,0,0,0-2.65,3.46,37.07,37.07,0,0,0-2.21,3.74,24.11,24.11,0,0,0-2.72,8.16,6.33,6.33,0,0,0,.12,2.09,3.88,3.88,0,0,0,.36,1,2.92,2.92,0,0,0,.66.74,5,5,0,0,0,4,.56,18.17,18.17,0,0,0,4.08-1.32,19.19,19.19,0,0,0,3.72-2.16A20.38,20.38,0,0,0,52,87.35a36.35,36.35,0,0,0,2-3.86,7.67,7.67,0,0,0,.66-4.22A6.83,6.83,0,0,0,48.62,73.84Zm0,0a6.86,6.86,0,0,1,6.11,5.42,7.94,7.94,0,0,1-.58,4.3,37.56,37.56,0,0,1-1.94,3.92,20.31,20.31,0,0,1-5.46,6.83A20.14,20.14,0,0,1,43,96.56,18.09,18.09,0,0,1,38.77,98a8.91,8.91,0,0,1-2.25.12,4,4,0,0,1-2.15-.82,3.86,3.86,0,0,1-.77-.89,4.68,4.68,0,0,1-.4-1.08A6.83,6.83,0,0,1,33.09,93a16.77,16.77,0,0,1,1.1-4.27,34.15,34.15,0,0,1,1.84-4,36.31,36.31,0,0,1,5-7.12,14.7,14.7,0,0,1,3.37-2.76A7.21,7.21,0,0,1,48.62,73.84Z"/>
          </g>
          <path class="cls-3" d="M49.29,76.06A51.75,51.75,0,0,0,42.73,86a44.67,44.67,0,0,0-2.35,5.46,56.17,56.17,0,0,0-1.71,5.72A33.64,33.64,0,0,1,40,91.32a38.55,38.55,0,0,1,2.26-5.58,39.6,39.6,0,0,1,3.13-5.14A34.62,34.62,0,0,1,49.29,76.06Z"/>
        </g>
        <g>
          <g id="kaer-24" data-name="kaer">
            <path class="cls-2" d="M49.05,114.71c-4,3.43-2.34,11.16-1.76,13.83,1,4.35,3.91,12.51,7.87,12.57,3.4,0,5.81-5.9,6.56-9.18a19.93,19.93,0,0,0-.64-10.16c-.95-3.36-1.79-6.35-4.38-7.82A6.87,6.87,0,0,0,49.05,114.71Z"/>
            <path class="cls-3" d="M49.05,114.71a7.23,7.23,0,0,0-2.16,3.71,14.6,14.6,0,0,0-.39,4.32,27.21,27.21,0,0,0,.57,4.31,37.13,37.13,0,0,0,1.09,4.21A24,24,0,0,0,52,139a6.37,6.37,0,0,0,1.56,1.38,3.7,3.7,0,0,0,.93.42,3,3,0,0,0,1,.06,5,5,0,0,0,3.2-2.42,18,18,0,0,0,2-3.81,18.92,18.92,0,0,0,1.1-4.16,20.36,20.36,0,0,0-.77-8.55,37,37,0,0,0-1.3-4.15,7.76,7.76,0,0,0-2.52-3.45A6.82,6.82,0,0,0,49.05,114.71Zm0,0a6.87,6.87,0,0,1,8.15-.49,7.85,7.85,0,0,1,2.63,3.44,36.87,36.87,0,0,1,1.41,4.15,20.42,20.42,0,0,1,1,8.68,19.63,19.63,0,0,1-1.09,4.28,17.82,17.82,0,0,1-2,3.95,8.47,8.47,0,0,1-1.5,1.67,4,4,0,0,1-2.1.94,3.85,3.85,0,0,1-1.17-.08,4.56,4.56,0,0,1-1-.48,7.1,7.1,0,0,1-1.67-1.51,16.58,16.58,0,0,1-2.24-3.8,34.42,34.42,0,0,1-1.52-4.11,36.53,36.53,0,0,1-1.47-8.61,14.7,14.7,0,0,1,.43-4.33A7.23,7.23,0,0,1,49.05,114.71Z"/>
          </g>
          <path class="cls-3" d="M51.09,115.8a51.72,51.72,0,0,0,2.39,11.66,47,47,0,0,0,2.2,5.52,59.25,59.25,0,0,0,2.84,5.26,34.75,34.75,0,0,1-3.22-5.07A39.13,39.13,0,0,1,53,127.63a40.45,40.45,0,0,1-1.43-5.84A34.37,34.37,0,0,1,51.09,115.8Z"/>
        </g>
        <g>
          <g id="kaer-25" data-name="kaer">
            <path class="cls-2" d="M148.42,113.59c-.46,5.27,6.17,9.59,8.46,11.08,3.73,2.43,11.57,6.16,14.43,3.42,2.45-2.35,0-8.29-1.78-11.14a19.83,19.83,0,0,0-7.59-6.79c-3-1.72-5.74-3.25-8.61-2.49A6.88,6.88,0,0,0,148.42,113.59Z"/>
            <path class="cls-3" d="M148.42,113.59a7.26,7.26,0,0,0,1.06,4.16,14.81,14.81,0,0,0,2.76,3.35,27.68,27.68,0,0,0,3.44,2.66,39.17,39.17,0,0,0,3.73,2.24,24.23,24.23,0,0,0,8.15,2.77,6.56,6.56,0,0,0,2.08-.11,4.59,4.59,0,0,0,1-.35,3.6,3.6,0,0,0,.74-.66,5,5,0,0,0,.58-4,18.16,18.16,0,0,0-1.29-4.09,19.66,19.66,0,0,0-2.13-3.73,20.53,20.53,0,0,0-6.56-5.54,36.22,36.22,0,0,0-3.84-2,7.69,7.69,0,0,0-4.22-.69A6.83,6.83,0,0,0,148.42,113.59Zm0,0a6.85,6.85,0,0,1,5.45-6.08,8,8,0,0,1,4.3.61,35.68,35.68,0,0,1,3.91,2,20.53,20.53,0,0,1,6.79,5.5,19.61,19.61,0,0,1,2.23,3.8,18.19,18.19,0,0,1,1.37,4.21,8.39,8.39,0,0,1,.1,2.24,4,4,0,0,1-.83,2.14,3.86,3.86,0,0,1-.89.77,4.48,4.48,0,0,1-1.09.4,7.11,7.11,0,0,1-2.25.1,17.28,17.28,0,0,1-4.26-1.13,33.44,33.44,0,0,1-4-1.87,36,36,0,0,1-7.09-5.09,14.62,14.62,0,0,1-2.74-3.38A7.24,7.24,0,0,1,148.42,113.59Z"/>
          </g>
          <path class="cls-3" d="M150.64,112.93a51.45,51.45,0,0,0,9.89,6.62,44.71,44.71,0,0,0,5.45,2.38,55.42,55.42,0,0,0,5.71,1.75,34.44,34.44,0,0,1-5.85-1.34,37.48,37.48,0,0,1-10.68-5.46A34,34,0,0,1,150.64,112.93Z"/>
        </g>
        <g>
          <g id="kaer-26" data-name="kaer">
            <path class="cls-2" d="M149.2,105.61c-4-.4-7.23,4.54-8.33,6.25-1.79,2.77-4.5,8.63-2.35,10.81,1.85,1.86,6.35.07,8.51-1.23a14.12,14.12,0,0,0,5.05-5.64c1.27-2.26,2.39-4.28,1.75-6.44A5.49,5.49,0,0,0,149.2,105.61Z"/>
            <path class="cls-3" d="M149.2,105.61a5.5,5.5,0,0,0-3.14.74,10.68,10.68,0,0,0-2.53,2.06,24.35,24.35,0,0,0-3.66,5.4,16.54,16.54,0,0,0-1.94,6.16,3.07,3.07,0,0,0,1,2.78,4.11,4.11,0,0,0,3,.41,13.77,13.77,0,0,0,10-7.45,21.52,21.52,0,0,0,1.5-2.9,5.07,5.07,0,0,0-4.31-7.2Zm0,0a5.5,5.5,0,0,1,4.73,4,5.61,5.61,0,0,1-.3,3.24,22.55,22.55,0,0,1-1.43,3,13.36,13.36,0,0,1-7,6.77,14,14,0,0,1-3.18,1,4.49,4.49,0,0,1-3.31-.51,2.73,2.73,0,0,1-1-1.43,4.84,4.84,0,0,1-.16-1.69,16.69,16.69,0,0,1,2.11-6.23,25.89,25.89,0,0,1,3.8-5.36,10.52,10.52,0,0,1,2.57-2A5.36,5.36,0,0,1,149.2,105.61Z"/>
          </g>
          <path class="cls-3" d="M149.75,107.28a38.27,38.27,0,0,0-2.67,3.55,34.92,34.92,0,0,0-3.94,7.89,39.31,39.31,0,0,0-1.23,4.27,25.36,25.36,0,0,1,.92-4.37,28.57,28.57,0,0,1,1.65-4.16,30.45,30.45,0,0,1,2.33-3.82A25.46,25.46,0,0,1,149.75,107.28Z"/>
        </g>
      </g>
    </g>
  </g>
</svg>
