<svg xmlns="http://www.w3.org/2000/svg" width="384.93" height="367.21" viewBox="0 0 384.93 367.21">
  <defs>
    <style>
      .cls-1 {
        fill: none;
        stroke: #333;
        stroke-miterlimit: 10;
      }

      .cls-2 {
        fill: #333;
      }
    </style>
  </defs>
  <g id="production_bottle_2" data-name="production bottle 2">
    <g>
      <path class="cls-1" d="M144.85,261h36.93c.12-.72,2.8-57.89,0-64-.92-2-2-4.13-2-4.13-.83-1.63-1.5-2.8-1.7-3.19-2-3.93-3.6-7.27-4.66-9.67-.38-2.57-.76-5.15-1.15-7.72H153.15l-1,8.26-7.19,13.77-1.1,3.39C143.19,199.59,143.26,215.92,144.85,261Z"/>
      <path class="cls-2" d="M160,182.23a71.7,71.7,0,0,0-3.14,8.05,64.83,64.83,0,0,0-2.14,8.33,78,78,0,0,0-1,17.15l.12,8.65c0,1.44,0,2.88,0,4.33s-.05,2.88-.09,4.33l-.25,8.65c-.11,2.88-.2,5.77-.35,8.65-.07-2.89-.09-5.77-.14-8.66l0-8.65c0-2.88.07-5.76,0-8.64l-.21-8.65c-.06-5.75,0-11.63,1.25-17.31A60.78,60.78,0,0,1,160,182.23Z"/>
      <path class="cls-2" d="M167.61,172.22c3.88,0,7.4-.25,7.4-.25h0a23.72,23.72,0,0,0,1.28-4.92,12.93,12.93,0,0,0-.13-3.84h0a8.82,8.82,0,0,0-1.44-1.88c-1.46-1.42-20.41-.83-20.41-.83,1.67-.05-3.76-.36-4.94.83-.48.48-.6,1.17-.85,2.53a9.61,9.61,0,0,0-.06,3.9,12.83,12.83,0,0,0,2,4.34s4.61.19,15,.1C166.79,172.18,166.84,172.22,167.61,172.22Z"/>
    </g>
  </g>
</svg>
