<svg xmlns="http://www.w3.org/2000/svg" width="384.93" height="367.21" viewBox="0 0 384.93 367.21">
  <defs>
    <style>
      .cls-1 {
        fill: #618084;
        stroke: #333;
        stroke-miterlimit: 10;
        stroke-width: 0.11px;
      }

      .cls-2 {
        fill: #333;
      }
    </style>
  </defs>
  <g id="production_backround" data-name="production backround">
    <g>
      <path class="cls-1" d="M303.56,41.44c19.76,6,11.58,89.35.25,145.56C294,235.56,278,315,240.51,320.77c-15.32,2.37-21.06-9.55-44.75-21.7-78.15-40.07-171.28,9.87-178.91-8.7-2.36-5.74,6.56-10.39,25.66-36.23,23.42-31.71,41.22-55.79,37.32-78.46-5-29.19-41.75-31.08-42-52C37.62,98.49,90.34,66.3,142.2,66.53c49.55.22,66.47,29.88,103.05,19S290.1,37.34,303.56,41.44Z"/>
      <path class="cls-2" d="M26.17,329.46q-.44-12-1.58-23.93c-.38-4-.94-7.95-1-12a59.9,59.9,0,0,1,.86-12,40.63,40.63,0,0,1,1.45-5.9,15,15,0,0,1,3.05-5.37,14.47,14.47,0,0,1,11.25-4.4l24-.14,96-.23,96,.23,48,.28,48,.49-48,.49-48,.28-96,.22-96-.23-24-.14c-.49,0-1,0-1.48,0s-1,.07-1.43.13a14.76,14.76,0,0,0-2.79.68A12.08,12.08,0,0,0,29.76,271c-2.64,2.82-3.57,6.84-4.36,10.69a59.41,59.41,0,0,0-1.07,11.84c0,4,.48,7.95.79,11.94C25.76,313.46,26.09,321.46,26.17,329.46Z"/>
      <path class="cls-2" d="M85.16,127.08s6.5,4.71,11.88,8.75c2.43,1.82,5.77,4.36,9.73,7.48q.93,8.53,1.88,17.07h3.23q1-8.69,1.93-17.37c5.94-4.71,10.74-8.09,14.07-10.33,2.3-1.54,8.46-5.6,8.46-5.6Zm27.54,19.41c-.17,1.64-.24,1.47-.53,3.52-.14,1-.23,1.93-.33,2.9a7.69,7.69,0,0,1-.6,2.64,1,1,0,0,1-1.69.54.94.94,0,0,1-.41-.78,19.1,19.1,0,0,0-.28-2.61,1.19,1.19,0,0,1-.11-.42c-.06-.7-.33-1.37-.43-2.06s-.19-1.39-.33-2.08-.15-1.29-.24-1.93a14.36,14.36,0,0,0-.37-2.08,1.34,1.34,0,0,1,.12-1.18c.53-.87,5.34-.8,5.4-.38,0,0,0,.27,0,.27S112.89,144.72,112.7,146.49Z"/>
      <path class="cls-2" d="M4.64,89.77l110.88-.67L115,131.19l-9.35-.65q0-15.25-.08-30.51L5.13,102.57"/>
    </g>
  </g>
</svg>
