<svg xmlns="http://www.w3.org/2000/svg" width="384.93" height="367.21" viewBox="0 0 384.93 367.21">
  <defs>
    <style>
      .cls-1 {
        fill: none;
        stroke: #333;
        stroke-miterlimit: 10;
      }

      .cls-2 {
        fill: #333;
      }
    </style>
  </defs>
  <g id="production_bottle_5" data-name="production bottle 5">
    <g>
      <path class="cls-1" d="M300.66,259.61h36.93c.12-.72,2.8-57.89,0-64-.92-2.05-2-4.14-2-4.14-.83-1.63-1.5-2.8-1.7-3.19-2.05-3.93-3.6-7.27-4.66-9.66l-1.14-7.73H309l-1,8.26-7.19,13.77-1.1,3.39C299,198.24,299.07,214.57,300.66,259.61Z"/>
      <path class="cls-2" d="M315.84,180.89a71.55,71.55,0,0,0-3.14,8,65.25,65.25,0,0,0-2.14,8.33,78,78,0,0,0-1,17.15l.12,8.65c0,1.44,0,2.89,0,4.33s0,2.89-.09,4.33l-.25,8.65c-.11,2.89-.2,5.77-.35,8.65-.07-2.89-.09-5.77-.14-8.66l0-8.64c-.05-2.88.07-5.77,0-8.65l-.21-8.65c-.06-5.75,0-11.62,1.25-17.31A60.58,60.58,0,0,1,315.84,180.89Z"/>
      <path class="cls-2" d="M323.42,170.87c3.88,0,7.4-.25,7.4-.25h0a23.54,23.54,0,0,0,1.28-4.91,13,13,0,0,0-.13-3.85h0a8.82,8.82,0,0,0-1.44-1.88c-1.46-1.42-20.41-.83-20.41-.83,1.67-.05-3.76-.35-4.94.83-.48.49-.6,1.17-.85,2.53a9.61,9.61,0,0,0-.06,3.9,12.75,12.75,0,0,0,2,4.34s4.6.19,15,.1C322.6,170.84,322.65,170.87,323.42,170.87Z"/>
    </g>
  </g>
</svg>
