<svg xmlns="http://www.w3.org/2000/svg" width="384.93" height="367.21" viewBox="0 0 384.93 367.21">
  <defs>
    <style>
      .cls-1 {
        fill: none;
        stroke: #333;
        stroke-miterlimit: 10;
      }

      .cls-2 {
        fill: #333;
      }
    </style>
  </defs>
  <g id="production_bottle_1" data-name="production bottle 1">
    <g>
      <path class="cls-1" d="M93.47,261H130.4c.12-.72,2.8-57.89,0-64-.92-2-2-4.13-2-4.13-.83-1.63-1.5-2.8-1.7-3.19-2-3.93-3.59-7.27-4.66-9.67L121,172.22H101.78l-1,8.26-7.19,13.77-1.1,3.39C91.81,199.59,91.88,215.92,93.47,261Z"/>
      <path class="cls-2" d="M108.65,182.23a73.67,73.67,0,0,0-3.14,8.05,64.83,64.83,0,0,0-2.14,8.33,78,78,0,0,0-1,17.15l.12,8.65c0,1.44,0,2.88,0,4.33s0,2.88-.09,4.33l-.25,8.65c-.11,2.88-.2,5.77-.34,8.65-.08-2.89-.1-5.77-.15-8.66l0-8.65c0-2.88.07-5.76,0-8.64l-.21-8.65c-.06-5.75,0-11.63,1.25-17.31A60.78,60.78,0,0,1,108.65,182.23Z"/>
    </g>
  </g>
</svg>
