<svg xmlns="http://www.w3.org/2000/svg" width="384.93" height="367.21" viewBox="0 0 384.93 367.21">
  <defs>
    <style>
      .cls-1 {
        fill: none;
        stroke: #f3912e;
        stroke-miterlimit: 10;
      }

      .cls-2 {
        fill: #f3912e;
      }
    </style>
  </defs>
  <g id="production_bottle_3" data-name="production bottle 3">
    <g>
      <path class="cls-1" d="M195,260H232c.12-.72,2.8-57.89,0-64-.92-2-2-4.13-2-4.13-.83-1.63-1.5-2.8-1.7-3.19-2.05-3.93-3.6-7.27-4.66-9.66q-.57-3.87-1.15-7.73H203.34l-1,8.26-7.19,13.77-1.1,3.39C193.38,198.67,193.45,215,195,260Z"/>
      <path class="cls-2" d="M210.22,181.32a70.81,70.81,0,0,0-3.14,8,64.83,64.83,0,0,0-2.14,8.33,78,78,0,0,0-1,17.15l.12,8.65c0,1.44,0,2.88,0,4.33s-.05,2.88-.09,4.33l-.25,8.65c-.11,2.89-.2,5.77-.35,8.65-.07-2.89-.09-5.77-.14-8.66l0-8.64c0-2.89.07-5.77,0-8.65l-.21-8.65c-.06-5.75,0-11.62,1.25-17.31A60.58,60.58,0,0,1,210.22,181.32Z"/>
      <path class="cls-2" d="M217.8,171.3c3.88,0,7.4-.25,7.4-.25h0a23.54,23.54,0,0,0,1.28-4.91,13,13,0,0,0-.13-3.85h0a8.82,8.82,0,0,0-1.44-1.88c-1.46-1.42-20.41-.83-20.41-.83,1.67-.05-3.76-.35-4.94.83-.48.48-.6,1.17-.85,2.53a9.61,9.61,0,0,0-.06,3.9,12.75,12.75,0,0,0,2,4.34s4.6.19,15,.1C217,171.27,217,171.3,217.8,171.3Z"/>
    </g>
  </g>
</svg>
