<svg xmlns="http://www.w3.org/2000/svg" width="30" height="20.126" viewBox="0 0 30 20.126">
  <path id="Path_2" data-name="Path 2" d="M3491.652,589.365h-4.13l-4.264,0-4.323,0-9.329,0c-.8,0-1.6,0-2.4-.006a1.239,1.239,0,0,1-1.171-.927,1.255,1.255,0,0,1,.564-1.375,1.169,1.169,0,0,1,.622-.178c1.232,0,7.528,0,8.759,0l4.265,0,4.322,0,4.265,0h2.643c.06,0,.12-.007.219-.013-.057-.068-.086-.109-.121-.145l-3.045-3.044q-1.724-1.723-3.447-3.448a1.245,1.245,0,0,1,.542-2.121,1.213,1.213,0,0,1,1.238.367l2.519,2.517,2.993,2.992c1.076,1.077,2.157,2.149,3.226,3.233a1.244,1.244,0,0,1-.027,1.845q-4.241,4.242-8.486,8.481a2.831,2.831,0,0,1-.643.516,1.236,1.236,0,0,1-1.755-1.053,1.294,1.294,0,0,1,.4-1q1.789-1.792,3.581-3.582l2.889-2.89c.039-.039.072-.083.108-.125Z" transform="translate(3495.999 598.184) rotate(-180)" fill="#333"/>
</svg>
