<svg id="Layer_2" data-name="Layer 2" xmlns="http://www.w3.org/2000/svg" width="209.66" height="66.03" viewBox="0 0 209.66 66.03">
  <defs>
    <style>
      .cls-1 {
        fill: #333;
      }
    </style>
  </defs>
  <g>
    <path class="cls-1" d="M89.76,30.56c.11-7.95.37-27.67,7.75-30.11a3.74,3.74,0,0,1,.87-.22c7.74-.95,11.93,1.05,15,6.81,5.83,12.26-1,25.15.25,37.89-.54,5.36,5.06,6.56,7.22,1.79C127,33.82,124.57,18.62,131.89,6c4.66-9.07,18.71-7.36,20,2.82,2.41,8.69.79,17.87,1.94,26.8a69.46,69.46,0,0,1-1.8,21.7c-.86,3.71-3.3,6.86-8.07,6.6-7.1-.38-6.6-10.1-5.26-14.89l.06-.27c2.3-13.5,8-26.51,9-40.15.3-4.14-5.49-6.12-7.66-3-2.32,2.41-4.45,5.28-3.24,8.94,5.51,15.59-3.41,29.75-10.24,43.2-2.44,6.9-11.35,6.86-13-.48C108.38,41.53,105.29,25,100.85,9c-.71-5.7-6.2-4.42-5.73.94a86,86,0,0,0,7.62,38c2.08,5.19,3.65,14.35-3.35,15.92a3.63,3.63,0,0,1-.73.08,8.68,8.68,0,0,1-5.51-1.52c-3-2.29-3.16-9.89-3.32-25.58C89.77,30.48,89.75,31.21,89.76,30.56Z"/>
    <path class="cls-1" d="M31.57,63.94c-8.54.19-16.65-.73-24.41-5.22-7.95-4.61-10-20.42-2.45-26.35,2.23-1.74,2.93-3.33,1-5.81C-10.52-.88,30.61-2.81,47.35,2.14c5,1.12,6.77,3.67,6.42,9.13a3.72,3.72,0,0,1-.27,1.14c-6.64,15.24-25.13-.27-35.07-4.79a2.7,2.7,0,0,1-.52-.3C9.62,1.53,4,16.24,11.33,20.58c9.35,5.85,20.82,3.05,31.21,3.72,14.27.93,15.7,16.21.73,18.38-3.84.41-6.94-2-8-6.3C31,14.88,7.65,35.3,6,48.15a3.84,3.84,0,0,0,0,.68c.63,10.38,16.3,10.91,23.27,5.94,4.39-2.55,7.94-6.41,13.12-7.81,6.91-2.58,14.15,3.95,11,10.63C50.05,65.39,38.62,63.41,31.57,63.94Z"/>
    <path class="cls-1" d="M164.38,28.86c-.06-8.8-1.24-21,7-26.83,3-2.23,7.8-.15,9.44,4,3.68,8.92-3.67,16.84-7.44,24.39a2.75,2.75,0,0,1-.17.29c-11.36,16.83,8.78,44.38,22.25,22.11,12.91-19.59-3-26.27-4.55-43.78a7.21,7.21,0,0,1,13.72-3.59c8.31,15.11,5.47,34.25-1.67,49.39-5.5,10.64-17.25,14.31-27.41,8.27a4.46,4.46,0,0,1-.56-.41C165.64,54.73,163.92,40.73,164.38,28.86Z"/>
    <path class="cls-1" d="M63.87,44.55c.52-5.55-1.56-20.34,4.68-22.66a3.24,3.24,0,0,1,2.64.11c1.3.7,1.79,2.13,1.92,3.93.7,9.22,4.49,17.82,5.74,26.89,3.37,12.58-14.57,16.07-15,2.92-.12-3.64,0-7.29,0-10.93C63.86,44.72,63.87,44.64,63.87,44.55Z"/>
    <path class="cls-1" d="M77.64,7.25c-.4,2.65-3,9.21-6.71,10.46a3.36,3.36,0,0,1-4.26-2.29c-.73-2.72.38-6.73-.86-9.31C65,2.27,66.82.49,71.15.28c5.26-.25,6.48.64,6.52,6.46A4.36,4.36,0,0,1,77.64,7.25Z"/>
  </g>
</svg>
