<svg xmlns="http://www.w3.org/2000/svg" width="78.46" height="72.22" viewBox="0 0 78.46 72.22">
  <defs>
    <style>
      .cls-1 {
        fill: #262626;
      }
    </style>
  </defs>
  <g id="basket">
    <g>
      <path class="cls-1" d="M26.75,27.5H54.14c-.12-.18-.19-.31-.28-.43q-3.77-5.19-7.51-10.39a1.22,1.22,0,0,1-.24-.9,1.06,1.06,0,0,1,.64-.6c.35-.13.65.1.87.4L50,18.86q3,4.18,6.05,8.36a.66.66,0,0,0,.6.32c1.15,0,2.3,0,3.45,0a4.13,4.13,0,0,1,1.44,8,.64.64,0,0,0-.47.52l-4.71,20c-.19.79-.41,1-1.22,1H25.78c-.84,0-1.06-.17-1.25-1q-2.4-10.2-4.82-20.41a1,1,0,0,0-.39-.56,4.14,4.14,0,0,1,2.33-7.59c.83,0,1.67,0,2.5,0a.8.8,0,0,0,.75-.38Q29,21.42,33.2,15.68a1,1,0,0,1,1-.52.86.86,0,0,1,.48,1.42L32.15,20Q29.59,23.55,27,27.1ZM21.5,35.86c.1.42.18.78.27,1.15q2.09,8.9,4.18,17.8c.08.31.1.58.57.58H54.37c.35,0,.47-.13.55-.44q2.19-9.36,4.39-18.7c0-.12,0-.24,0-.39Zm19.37-1.74H60.22A2.45,2.45,0,0,0,62.57,32a2.41,2.41,0,0,0-1.7-2.63,3.69,3.69,0,0,0-1.1-.14H21.55a2.41,2.41,0,0,0-2.17,1.47,2.29,2.29,0,0,0,.29,2.48,2.53,2.53,0,0,0,2.16,1Z"/>
      <path class="cls-1" d="M48.32,45.57V40.18a2.15,2.15,0,0,1,0-.51.82.82,0,0,1,1.56-.11,1.65,1.65,0,0,1,.08.59c0,3.64,0,7.27,0,10.91a1.74,1.74,0,0,1-.06.51.83.83,0,0,1-1.59-.1,2.42,2.42,0,0,1,0-.47Z"/>
      <path class="cls-1" d="M32.55,45.57c0,1.83,0,3.66,0,5.48a1.66,1.66,0,0,1-.09.59.75.75,0,0,1-.79.48.74.74,0,0,1-.74-.55,2.33,2.33,0,0,1-.07-.64V40.23c0-.79.3-1.2.87-1.18s.82.4.82,1.18Z"/>
      <path class="cls-1" d="M41.06,45.57c0,1.86,0,3.71,0,5.57a1.06,1.06,0,0,1-.29.75,1,1,0,0,1-.81.16c-.24-.09-.4-.41-.54-.65s0-.28,0-.43V40.23a3.12,3.12,0,0,1,0-.43.82.82,0,0,1,.84-.75.79.79,0,0,1,.8.75c0,.38,0,.77,0,1.16Z"/>
    </g>
  </g>
</svg>
