<svg xmlns="http://www.w3.org/2000/svg" width="1292" height="1292" viewBox="0 0 1292 1292">
  <defs>
    <style>
      .cls-1 {
        fill: #fff;
      }
    </style>
  </defs>
  <g id="Layer_1" data-name="Layer 1">
    <path class="cls-1" d="M645.71,221.06c236.12-.68,425.45,186.16,426.88,424.6,1.39,231.61-192.84,423-426.92,423-235.68,0-427-192.89-426.27-429.7C220.16,410.43,413.32,221.08,645.71,221.06ZM330.53,879.58l241.79-182.5c-54.09-52.55-55.48-57.14-26.79-72-14.8-13.2-31.07-26.43-45.65-41.31-6.35-6.47-14-17.52-12.34-24.34,1.76-7.11,14.07-11.61,17.43-14.07-16.82-16.29-35.68-33.07-52.67-51.55-11.67-12.69-5.52-23.66,9.58-27.33,19.2-4.66,39-6.91,56.31-9.82-4.7-20.29-9.57-39.57-13.57-59s-7.77-39.28-10.45-59.09c-.91-6.66,1.79-13.8,2.85-20.72,7.22,3.1,15.76,4.73,21.32,9.68,6.32,5.63,9,15.19,15,21.36,22,22.67,44.77,44.64,66.57,66.2,6.86-7.37,16-19.5,27.4-29,24.3-20.14,34.93-16.89,40.84,13.28,3.78,19.36,3.44,39.53,5,59.26,29-7.61,29-7.61,41.15,81.49C735.1,527,746.3,538.29,754,560.29c66.25-50.14,130.42-98.22,193.53-147.65,3.85-3,2.66-19.94-2-25.16C841.5,271.7,710.7,228.65,559.9,261.09c-266.29,57.29-393.81,355.05-247,595.58C317.33,864,323.33,870.31,330.53,879.58Zm464.6-179.14c23.92-16.51,31.79-2,35.77,16.83,9.36,44.33,2.6,84.49-34.63,114.75-14.06,11.44-16.35,22.31-6.95,38.44,14.19,24.35,26.23,50,38.89,75.18,20.2,40.22,20.91,40.79,55.6,13.44,126.41-99.66,176.3-229.78,151.08-387.68-6-37.36-15.55-75.28-40.29-108.31-8.78,5.47-15.75,9.12-22,13.78-50.88,38.11-100.58,77.91-152.85,114-26.28,18.14-37,36.21-25.34,67.39C798.71,669.62,795.13,683.91,795.13,700.44ZM635.86,777.38c-21.45-3.45-41.84-13.38-50.72-7.1-67,47.34-131.71,97.85-197.12,147.41-10.26,7.77-13.7,15.44-1.4,25.14,130.25,102.69,269.28,120.28,415.25,63.35,17.42-6.79,17.51-16.34,10.13-30.64-16.56-32.1-33.14-64.22-48.34-97C756,862.1,744.07,859.77,729,863.24c-44.65,10.28-79.55-6.7-108.27-39.12C601,801.83,602.38,796.85,635.86,777.38Z"/>
  </g>
</svg>
