<svg xmlns="http://www.w3.org/2000/svg" width="1292" height="1292" viewBox="0 0 1292 1292">
  <defs>
    <style>
      .cls-1 {
        fill: #fff;
      }
    </style>
  </defs>
  <g id="Layer_1" data-name="Layer 1">
    <path class="cls-1" d="M1957.71,221.06c236.12-.68,425.45,186.16,426.88,424.6,1.39,231.61-192.84,423-426.92,423-235.68,0-427.05-192.89-426.27-429.7C1532.16,410.43,1725.32,221.08,1957.71,221.06ZM1642.53,879.58l241.79-182.5c-54.09-52.55-55.48-57.14-26.79-72-14.8-13.2-31.07-26.43-45.65-41.31-6.35-6.47-14-17.52-12.34-24.34,1.76-7.11,14.07-11.61,17.43-14.07-16.82-16.29-35.68-33.07-52.67-51.55-11.67-12.69-5.52-23.66,9.58-27.33,19.2-4.66,39-6.91,56.31-9.82-4.7-20.29-9.57-39.57-13.57-59s-7.77-39.28-10.45-59.09c-.91-6.66,1.79-13.8,2.85-20.72,7.22,3.1,15.76,4.73,21.32,9.68,6.32,5.63,9,15.19,15,21.36,22,22.67,44.77,44.64,66.57,66.2,6.86-7.37,16-19.5,27.4-29,24.3-20.14,34.93-16.89,40.84,13.28,3.78,19.36,3.44,39.53,5,59.26,29-7.61,29-7.61,41.15,81.49,20.88-13.17,32.08-1.89,39.82,20.11,66.25-50.14,130.42-98.22,193.53-147.65,3.85-3,2.66-19.94-2-25.16-104-115.78-234.84-158.83-385.64-126.39-266.29,57.29-393.81,355.05-247,595.58C1629.33,864,1635.33,870.31,1642.53,879.58Zm464.6-179.14c23.92-16.51,31.79-2,35.77,16.83,9.36,44.33,2.6,84.49-34.63,114.75-14.06,11.44-16.35,22.31-6.95,38.44,14.19,24.35,26.23,50,38.89,75.18,20.2,40.22,20.91,40.79,55.6,13.44,126.41-99.66,176.3-229.78,151.08-387.68-6-37.36-15.55-75.28-40.29-108.31-8.78,5.47-15.75,9.12-22,13.78-50.88,38.11-100.58,77.91-152.85,114-26.28,18.14-37,36.21-25.34,67.39C2110.71,669.62,2107.13,683.91,2107.13,700.44Zm-159.27,76.94c-21.45-3.45-41.84-13.38-50.72-7.1-67,47.34-131.71,97.85-197.12,147.41-10.26,7.77-13.7,15.44-1.4,25.14,130.25,102.69,269.28,120.28,415.25,63.35,17.42-6.79,17.51-16.34,10.13-30.64-16.56-32.1-33.14-64.22-48.34-97-7.64-16.47-19.59-18.8-34.67-15.33-44.65,10.28-79.55-6.7-108.27-39.12C1913,801.83,1914.38,796.85,1947.86,777.38Z"/>
    <path class="cls-1" d="M646.4,1077c-233.6-.46-428-189-426.61-428.74,1.36-230.79,190.86-418.34,424.42-419.08,229.36-.73,427.54,182.41,428,422.37C1072.67,884.7,884.32,1074.19,646.4,1077ZM751.71,534a7.15,7.15,0,0,0,9.65,1c54.55-41.11,108.7-82.68,163.9-122.84,18-13.06,17.68-21.9,2.28-36.73-112.45-108.26-245.3-140.92-394-99.73C336.4,330.23,215.56,533.91,257.79,733.59c9.85,46.58,26.72,90.43,54.62,130a7.17,7.17,0,0,0,8.49,2.54,27.36,27.36,0,0,0,6.55-3.21C383.9,820.39,440.91,778.5,496,734.25c9.73-7.81,15.57-25.39,16.09-38.73,1.86-47.61,0-95.35,1.08-143,.22-10.25,5.84-28.58,10.36-29a78.64,78.64,0,0,1,42,8c9.16,4.75,14.49,17.3,20.93,26.78,12.51,18.42,24.72,37,39.1,58.77a7.14,7.14,0,0,0,11.84.11c20-29,37.37-54.7,55.25-80C708.31,514.93,733.82,513.72,751.71,534ZM364.28,917.07a7.16,7.16,0,0,0-.7,10.8c90.74,89.46,195.78,130.6,318.39,116.22,165.54-19.42,281.78-107.53,338.77-265.67,40-111.07,25.35-217.47-32.64-322a7.15,7.15,0,0,0-10.54-2.25l-69.77,52.43a7.13,7.13,0,0,0,1.1,12.09c76.74,38,102.35,71.81,94.81,122.33C995,699.72,957.16,741,893.33,744.09c-72,3.48-113.8-32.84-128.74-97.31-1.88-8.07-13.75-7.09-14.09,1.18,0,.1,0,.19,0,.29-.85,23.81-.24,47.66-.44,71.49-.15,18.86-12.14,23.24-28.35,23.31-16,.06-25.23-5.47-24.5-23.13.51-12.64.32-25.31.2-40.42A7.14,7.14,0,0,0,686,673.86ZM946.94,634.63c1.57-33.57-28.32-65.26-62.48-66.26-32.15-.93-62.89,28.72-64.09,61.82-1.17,32.21,28.1,63.12,61.27,64.71S945.36,668.2,946.94,634.63ZM570.63,652.45v10.13a7.14,7.14,0,0,0,11.15,5.9c8-5.37,8.61-9.43,2-19.87A7.13,7.13,0,0,0,570.63,652.45Z"/>
    <path class="cls-1" d="M494.6,648.22c-2.08,62.72-20.69,85.17-77.87,93.92-58.28,8.92-115.16-23-132.27-74.3-16.2-48.56-1.28-99,37.85-127.91,41.9-31,101.34-33.51,141.38-4.14,5.71,4.2,8.1,12.9,11,20.86a7.14,7.14,0,0,1-3.28,8.75c-10.54,5.77-21,13-31.89,13.73-13,.94-26.56-9.57-40.15-10.35-27.37-1.57-48.18,12.2-59.07,36.93C330,629.25,332.72,652.82,351.4,672c19.16,19.62,43.34,24,68.44,15,6.15-2.22,10.84-8.44,15.64-14.39a7.14,7.14,0,0,0-1.66-10.47c-5.91-3.85-11.8-7.85-18-8.41C386,650.93,379,646,384.77,623.13c1.75-6.91,11.42-15.55,18.54-16.69,20.81-3.32,42.16-3.89,63.32-4.35C489.38,601.6,495.77,612.75,494.6,648.22Z"/>
  </g>
</svg>
