<svg xmlns="http://www.w3.org/2000/svg" width="15.925" height="15.693" viewBox="0 0 15.925 15.693">
  <g id="Group_16" data-name="Group 16" transform="translate(-16 -19.5)">
    <path id="Path_103" data-name="Path 103" d="M378.4,91.9a.8.8,0,1,0,.8.8A.8.8,0,0,0,378.4,91.9Z" transform="translate(-349.603 -69.998)" fill="none"/>
    <circle id="Ellipse_29" data-name="Ellipse 29" cx="3.749" cy="3.749" r="3.749" transform="translate(20.214 23.597)" fill="none"/>
    <path id="Path_104" data-name="Path 104" d="M28.724,19.5H19.2A3.2,3.2,0,0,0,16,22.7v9.29a3.2,3.2,0,0,0,3.2,3.2h9.522a3.2,3.2,0,0,0,3.2-3.2V22.7A3.2,3.2,0,0,0,28.724,19.5ZM23.963,31.1a3.749,3.749,0,1,1,3.749-3.749A3.749,3.749,0,0,1,23.963,31.1ZM28.8,23.5a.8.8,0,1,1,.8-.8A.8.8,0,0,1,28.8,23.5Z" fill="#fff"/>
  </g>
</svg>
