<svg xmlns="http://www.w3.org/2000/svg" width="1292" height="1292" viewBox="0 0 1292 1292">
  <defs>
    <style>
      .cls-1 {
        fill: #fff;
      }
    </style>
  </defs>
  <g id="Layer_1" data-name="Layer 1">
    <path class="cls-1" d="M1043.29,633.19c1.83,213.46-175.71,411.11-416.25,411.12-229.69,0-415.16-180.77-416.49-417.21-1.23-218.37,183.26-413.58,422.34-411C859.6,218.46,1043.29,403.22,1043.29,633.19ZM913.08,373.78c-6.43-7.29-10.57-12.62-15.35-17.3C729.6,191.65,453.3,212.33,315.07,403c-93.61,129.14-99.91,267.39-28.39,409.53,7.49,14.88,14.17,25.13,32.44,10.54,35.74-28.54,73.6-54.48,108.68-83.77,9.62-8,17.61-24.13,17.6-36.51,0-75.78-2.06-151.58-4.7-227.32-.82-23.57,8.45-39.93,23.65-57.17,12.86-14.57,24-34,27.28-52.82,4.81-27.81,10.94-37.07,40.48-36q86.76,3.06,173.52,6.21c30.54,1.06,42.64,10.61,45.41,41.23,3.1,34.19,31.89,49.28,50.49,71.9,1.71,2.08,10.4,1.23,13.67-1.18C847.65,423.68,879.64,399.14,913.08,373.78ZM341.35,885.83c5.15,7,7.64,11.54,11.16,15,68.75,68.69,151.58,107.7,248.84,112.82C740,1021,852,969,937.32,859.4c89.11-114.41,101.5-290.31,29-414.29-9.26-15.83-16.64-18.7-31.67-6.55-28.85,23.29-58.29,46-89,66.77-21.12,14.24-28.34,31.6-28,56.48,1.62,109.46,1.39,219,2.69,328.43.24,20.75-7,31.29-27.71,36.17-60.46,14.24-121.43,27.29-180.48,46.16-47,15-85.28,10.71-118.34-27.14-6.14-7-14.42-12.37-22.23-17.74-18.93-13-26.08-30.88-25.17-53.36.83-20.67.17-41.4.17-68.05ZM789,572.67c-23.66,9-46,13-63,24.76C675,632.82,625.59,670.52,577,709.09c-9.16,7.26-16.36,22.62-16.62,34.42-1.38,62,.11,124.06-.19,186.1-.08,18.49,5,24.62,24.61,19.39,57.4-15.37,115.21-29.17,172.9-43.46,33.87-8.38,35-10,28.22-46.59-4.85,2.16-9.6,6.17-14.07,5.89-13.75-.86-32.08,1.22-39.74-6.55-7.38-7.48-9.37-29.3-3.62-38.6,10.15-16.41,28.22-27.85,42.49-41.86,6.61-6.5,17.11-14,17.27-21.3C789.61,696.33,789,636.09,789,572.67ZM534.21,413.18c12.09,46.94,12.09,46.93,54.24,46.82q27.16-.06,54.34-.08H763.42l4.39-8.7c-16.91-12.68-33.07-34.94-50.85-36.3C657.07,410.33,596.61,413.18,534.21,413.18Zm-7.09,521.05V753.84c-11.06,9.43-21.13,23.8-34.44,28-19.75,6.26-22.74,17.3-21.29,34.29.88,10.27,2,21,.19,30.93C463.26,892.42,492,913.6,527.12,934.23Zm188-437.38L708,490.79q-59.19,0-118.38,0c-35.5.05-39.26,5.07-30.26,44.11,28.22-19.39,48.36-17.07,59,19.48,2.42,8.31,20.28,14.08,32,16.41,2.95.59,8.64-17.18,14.56-25.46s13.45-15.93,21-23.08C695.23,513.39,705.34,505.29,715.13,496.85ZM521.76,524.31c5.82-34-10.71-52.1-43.19-47.95-4.44.56-11.3,8.56-11.33,13.16-.37,54.27.2,108.54.9,162.81.19,15.19,6.17,28.49,23.28,28,10.85-.29,21.54-6.81,25.07-8C502.42,634,486.76,602.4,479.71,569,472.22,533.61,486.11,521.67,521.76,524.31ZM648.1,382.2v.12c18.1,0,36.26.82,54.28-.46,6.08-.43,11.78-6.2,17.65-9.53-6-3.64-11.91-10.17-18.1-10.48-52.43-2.55-104.9-4.48-157.38-5.2-8.26-.11-16.62,6.82-24.93,10.49,8.43,5,16.68,13.95,25.34,14.38C579.27,383.19,613.71,382.2,648.1,382.2Z"/>
    <path class="cls-1" d="M662.89,837.7c-43.87-.37-54-12.68-47.31-54.58,1.84-11.52.36-23.92-1.47-35.62-6.41-41.06,9.4-66.7,49.28-77.91,14.94-4.2,29.8-9.3,45.05-11.65,22.86-3.52,44.51,1.83,55.91,23.35,11,20.82-1.49,35.74-15.89,52C736.26,747,727.28,766.5,724,784.71,716.9,824.84,704.11,838.06,662.89,837.7Z"/>
  </g>
</svg>
