<svg xmlns="http://www.w3.org/2000/svg" width="15.16" height="14.489" viewBox="0 0 15.16 14.489">
  <path id="Path_105" data-name="Path 105" d="M3.443,4.706v9.78H.187V4.706ZM3.65,1.687c0,.018,0,.038,0,.059a1.557,1.557,0,0,1-.5,1.144h0A1.851,1.851,0,0,1,1.9,3.375l-.089,0H1.794l-.083,0A1.777,1.777,0,0,1,.489,2.89h0A1.612,1.612,0,0,1,0,1.729c0-.014,0-.029,0-.044v0c0-.013,0-.027,0-.042A1.586,1.586,0,0,1,.5.481h0A1.85,1.85,0,0,1,1.754,0l.083,0h0l.086,0A1.8,1.8,0,0,1,3.147.48h0a1.642,1.642,0,0,1,.5,1.185v.025h0Zm11.506,7.2v5.6H11.91V9.256c0-.048,0-.1,0-.159A2.838,2.838,0,0,0,11.5,7.62l.007.013a1.4,1.4,0,0,0-1.144-.591c-.036,0-.072,0-.109,0h-.049a1.59,1.59,0,0,0-.991.344l0,0a2.109,2.109,0,0,0-.623.83l0,.014a2.331,2.331,0,0,0-.11.716q0,.043,0,.087v5.454H5.239q.02-3.937.02-6.385t-.01-2.921l-.01-.474H8.486V6.128h-.02a4.279,4.279,0,0,1,.409-.558l0,.005a4.2,4.2,0,0,1,.548-.506l.01-.007a2.543,2.543,0,0,1,.84-.425l.018,0a3.831,3.831,0,0,1,1.085-.153h.045c.043,0,.093,0,.143,0A3.5,3.5,0,0,1,14.128,5.6l0,0a4.7,4.7,0,0,1,1.027,3.281Z" transform="translate(0.003 0.002)" fill="#fff"/>
</svg>
