<svg xmlns="http://www.w3.org/2000/svg" width="556" height="326" viewBox="0 0 556 326">
  <g id="Group_25" data-name="Group 25" transform="translate(-64 -274)">
    <rect id="Rectangle_56" data-name="Rectangle 56" width="556" height="326" transform="translate(64 274)" fill="#fff"/>
    <text id="TRANSPARENCY" transform="translate(469 397)" fill="#fc9226" font-size="25" font-family="Helvetica-Light, Helvetica" font-weight="300"><tspan x="-151.475" y="0">Transparency</tspan></text>
    <text id="Local_Production" data-name="Local Production" transform="translate(328 319)" fill="#fc9226" font-size="25" font-family="Helvetica-Light, Helvetica" font-weight="300"><tspan x="-188.525" y="0">Local Production</tspan></text>
    <text id="ENVIRONMENT" transform="translate(402 475)" fill="#fc9226" font-size="25" font-family="Helvetica-Light, Helvetica" font-weight="300"><tspan x="-138.475" y="0">Environment</tspan></text>
    <path id="Path_95" data-name="Path 95" d="M21.03,42.38,13.1,43.547l-1.482.212-.209-1.482-1.376-7.82,3.068-.639.634,3.909c5.606-9.406,4.972-22.505-2.22-30.75l2.116-1.9c8.459,9.515,8.99,24.412,2.111,34.979l4.866-.743.424,3.071Z" transform="translate(327.47 310.928)" fill="#fc9226"/>
    <path id="Path_96" data-name="Path 96" d="M10.03,42.38l7.932,1.167,1.482.212.209-1.482,1.376-7.82-3.068-.639-.634,3.909c-5.606-9.406-4.972-22.505,2.22-30.75l-2.116-1.9c-8.459,9.515-8.99,24.412-2.111,34.979l-4.866-.743L10.03,42.38Z" transform="translate(238.185 388.928)" fill="#fc9226"/>
    <text id="Healthier_life" data-name="Healthier life" transform="translate(584 553)" fill="#fc9226" font-size="25" font-family="Helvetica-Light, Helvetica" font-weight="300"><tspan x="-138.925" y="0">Healthier life</tspan></text>
    <path id="Path_97" data-name="Path 97" d="M21.03,42.38,13.1,43.547l-1.482.212-.209-1.482-1.376-7.82,3.068-.639.634,3.909c5.606-9.406,4.972-22.505-2.22-30.75l2.116-1.9c8.459,9.515,8.99,24.412,2.111,34.979l4.866-.743.424,3.071Z" transform="translate(407.97 466.928)" fill="#fc9226"/>
  </g>
</svg>
