<svg xmlns="http://www.w3.org/2000/svg" width="441" height="259" viewBox="0 0 441 259">
  <g id="Group_30" data-name="Group 30" transform="translate(-143 -300)">
    <text id="Läbipaistvus" transform="translate(469 397)" fill="#fc9226" font-size="25" font-family="Helvetica-Light, Helvetica" font-weight="300"><tspan x="-141.7" y="0">Läbipaistvus</tspan></text>
    <text id="Kohalik_tootmine" data-name="Kohalik tootmine" transform="translate(328 319)" fill="#fc9226" font-size="25" font-family="Helvetica-Light, Helvetica" font-weight="300"><tspan x="-184.8" y="0">Kohalik tootmine</tspan></text>
    <text id="Keskkond" transform="translate(402 475)" fill="#fc9226" font-size="25" font-family="Helvetica-Light, Helvetica" font-weight="300"><tspan x="-111.15" y="0">Keskkond</tspan></text>
    <path id="Path_95" data-name="Path 95" d="M21.03,42.38,13.1,43.547l-1.482.212-.209-1.482-1.376-7.82,3.068-.639.634,3.909c5.606-9.406,4.972-22.505-2.22-30.75l2.116-1.9c8.459,9.515,8.99,24.412,2.111,34.979l4.866-.743.424,3.071Z" transform="translate(327.471 310.928)" fill="#fc9226"/>
    <path id="Path_96" data-name="Path 96" d="M10.03,42.38l7.932,1.167,1.482.212.209-1.482,1.376-7.82-3.068-.639-.634,3.909c-5.606-9.406-4.972-22.505,2.22-30.75l-2.116-1.9c-8.459,9.515-8.99,24.412-2.111,34.979l-4.866-.743L10.03,42.38Z" transform="translate(238.186 388.928)" fill="#fc9226"/>
    <text id="Tervislikum_eluviis" data-name="Tervislikum eluviis" transform="translate(584 553)" fill="#fc9226" font-size="25" font-family="Helvetica-Light, Helvetica" font-weight="300"><tspan x="-198.625" y="0">Tervislikum eluviis</tspan></text>
    <path id="Path_97" data-name="Path 97" d="M21.03,42.38,13.1,43.547l-1.482.212-.209-1.482-1.376-7.82,3.068-.639.634,3.909c5.606-9.406,4.972-22.505-2.22-30.75l2.116-1.9c8.459,9.515,8.99,24.412,2.111,34.979l4.866-.743.424,3.071Z" transform="translate(407.971 466.928)" fill="#fc9226"/>
  </g>
</svg>
