<svg xmlns="http://www.w3.org/2000/svg" width="1292" height="1292" viewBox="0 0 1292 1292">
  <defs>
    <style>
      .cls-1 {
        fill: #fff;
      }
    </style>
  </defs>
  <g id="Layer_1" data-name="Layer 1">
    <path class="cls-1" d="M1084.88,641.54c6.19,205.65-171.56,403.38-408.51,402.91C457.33,1044,270,866.74,269.71,634.76c-.27-220.2,187.5-407.24,414.6-404.11C906.69,233.71,1092.83,422,1084.88,641.54Zm-129.78-261c-7.07-8-11.07-13.35-15.93-17.81C795.22,230.5,585.48,224.28,434.37,347.69c-135.52,110.68-175.53,307.93-93.9,462.69,6.6,12.51,11.49,25.37,29.64,11.41,53.09-40.82,107-80.62,160.42-121,3.06-2.31,5-6.12,8.25-10.25-11.79-9.44-22.46-17.61-32.72-26.26C425.17,596.05,398.54,494.8,436.3,403.93c8.64-20.77,21.47-30.7,44.19-30.23,34.81.71,69.74-1.56,104.43.53,17,1,34.67,6.65,50,14.31,37.86,19,54.44,56.78,75.3,90.52,11.77,19,23.38,38.15,36.24,59.15ZM799.06,577c32.77,18.12,63.31,31.46,89.87,50.37,72.7,51.75,95.13,168.62,46.84,233-63.37,84.45-199.26,83.36-267.58-4.16-23.23-29.76-40.56-64.25-59.39-97.26-11.43-20-22.12-23.61-41.56-8.15-47.07,37.46-95.76,72.9-143.66,109.33-10.44,7.95-20.3,16.65-32,26.27C492.15,991.73,611.19,1035.16,751,1006.82c153.56-31.13,252.81-126.05,294.21-276.46,29.17-106,9.08-205.92-50.07-301.32ZM678.9,667.75c-15.64,11.61-36.55,26.14-56.09,42.31-5,4.11-9.94,15.83-7.62,20,21.62,38.24,41.78,77.89,68.22,112.7,53.67,70.63,151.63,81.92,215.84,28.92-2-21.15-6.33-42,19.69-53.14,4.31-1.84,8.32-11.81,7.4-17.15-4.73-27.5-11.12-54.72-16.93-82l-6.5,1.55c4.77,11.68,11,23,13.76,35.16,1.53,6.59-2.7,14.5-4.34,21.81-6.86-4.13-17.57-6.7-20-12.64-24.81-60.49-67.28-91.43-134.65-88.3C734,678,709.94,671.6,678.9,667.75Zm-137.27-.48,4.53,5.16c8-.58,18,1.76,23.5-2.19q54.66-39.11,107.39-80.87c6.3-5,10.66-14.66,12.19-22.86,2.06-11.08.51-22.84.51-35.21-9.54-3.21-23.29-3.58-29.11-10.55-25-30-49.3-59.34-88.07-73.42-32.07-11.65-62.94-26.55-96.49-40.94-14.56,52.06-34.4,100-3.59,146.1,20.92,31.3,47.87,58.86,74,86.32C557.82,650.72,566.51,658.12,541.63,667.27ZM637,409.4l-28.84-14.56-10.47,25.35,25.81,13.36C628.05,425.31,632,418.18,637,409.4ZM449.31,424.08l-2.84-.86L439,518.71l.93,0Q444.64,471.41,449.31,424.08Z"/>
  </g>
</svg>
