<svg xmlns="http://www.w3.org/2000/svg" width="1292" height="1292" viewBox="0 0 1292 1292">
  <defs>
    <style>
      .cls-1 {
        fill: #fff;
      }
    </style>
  </defs>
  <g id="Layer_1" data-name="Layer 1">
    <path class="cls-1" d="M695.45,229.36c238-.07,427.94,189.31,428.17,426.8.22,229-194.32,421.57-426.92,420.58-233-1-425.62-182-426.2-426.19C269.94,414.43,463.85,229.13,695.45,229.36ZM992,393.21C852.41,226.83,590,218.82,437.27,354.44c-176.19,156.46-163.39,386.42-69.34,510,49.34-37,99-73.6,147.63-111.52,4.57-3.57,4.65-15.49,3.62-23.09-2.7-20-9.6-39.63-10.42-59.58-1.61-39.07-14.55-73-33.27-107.16-13.82-25.23-25-55.81-24.84-83.94.3-64.69,36.51-117.93,68.39-171.66.51-.86,3.25-.41,5-.57,27.57,26.26,56.24,52,89.56,68.44,39.09,19.25,66.69,47.31,83.2,85.1,14.53,33.28,35.8,57.37,66.52,76,16.12,9.76,27.25,10.82,42.38-1.08,43.75-34.41,88.61-67.42,133-101.06C956,421.06,973.27,407.62,992,393.21ZM406.56,917.57c107.68,128.35,353.8,196.3,550.44,32.29,162.51-135.55,166.57-373.58,74.14-501.66-5.79,3.53-12,6.65-17.51,10.78q-84.75,63.75-169.27,127.8c-24.26,18.33-25.2,35.12.83,51.25,18.45,11.43,40.1,18,60.74,25.63,41.64,15.43,69.37,45,76.68,87.53,6.1,35.45,12.89,68.64,38.61,95.37.56.59-.91,3.12-.74,2.59L886.52,889c15.3,24.52,27.9,44.72,43.33,69.43-24.19-3-43.11-6.92-62.12-7.39-19.3-.48-38.7,2.3-58,3.85-75.51,6-127.94-25.68-155.6-96.19-12.87-32.82-39.16-49-69.32-60.89-6.24-2.46-16.91-1.13-22.3,2.84C510.59,838.7,459.4,877.71,406.56,917.57ZM869,682.86c-38.32-.36-74.65,20.21-84.78,50.65-2.3,6.94,1.7,21.62,7.2,24.57,40.08,21.49,66.47,54.27,83.93,95,6.15,14.33,14.06,17.73,28.64,11.43,38.78-16.76,66.8-63.61,60-102.17C955.8,716.57,916.05,683.31,869,682.86ZM766.65,564c-31.28-20-64.18-23.2-93.51-9.62-11.29,5.23-27.34,9.18-20,27.83,6.11,15.63,42.28,34.51,52.3,27.41C725.37,595.48,744.74,580.43,766.65,564Zm36.55,54.2c-22,16.94-44.21,32.24-64.24,50-16.94,15-7.29,32.41,1.57,47.62,2.66,4.56,11.13,9.7,15.56,8.67C790.8,716.42,818.08,657.34,803.2,618.23ZM596.28,400.55c33.51,44.7,47.19,95.29,49.82,153.12,25-31.41,34.81-61.89,20.83-96.42C654.43,426.38,632.62,405.5,596.28,400.55Z"/>
  </g>
</svg>
