<svg xmlns="http://www.w3.org/2000/svg" width="1292" height="1292" viewBox="0 0 1292 1292">
  <defs>
    <style>
      .cls-1 {
        fill: #fff;
      }
    </style>
  </defs>
  <g id="Layer_1" data-name="Layer 1">
    <path class="cls-1" d="M1088.23,614.55c8.22,199.71-159,420.51-425.53,420.73-237.19.2-422-199.35-420.75-427.84,1.16-210.88,184.46-419,430.53-415.64C908.74,195.06,1096.44,396.74,1088.23,614.55Zm-814.68-2.86c-6.3,204,165.5,393.29,390.11,393.32,215.84,0,397.74-167.29,396.56-391.13C1059,386.94,882.32,223.22,664.41,222.19,441.38,221.15,265.49,413.36,273.55,611.69Z"/>
    <path class="cls-1" d="M657.27,671.62c24.6-60.94,47.54-117.52,70.26-174.17,18.81-46.89,49.3-58.65,103.1-36.43-8.81,22.31-17.38,44.91-26.59,67.24-33.13,80.34-66.77,160.46-99.52,241-7.76,19.07-15.83,34.52-40.37,34.34-26-.2-46.08-6.69-56.8-33.14C578,698,547.71,626,517.9,553.8c-9.38-22.71-18.81-45.42-27.53-68.39-10-26.21-4.65-32.77,24-31.5,7,.31,14.21,1.08,21-.11,22.33-3.88,34.42,6.54,42.27,26.36,21.67,54.66,44.07,109,66.33,163.46C647.27,651.52,651.32,659.1,657.27,671.62Z"/>
  </g>
</svg>
