<svg xmlns="http://www.w3.org/2000/svg" width="16.957" height="21.702" viewBox="0 0 16.957 21.702">
  <g id="background-water" transform="translate(-14.75 -10.189)">
    <path id="Path_90" data-name="Path 90" d="M14.75,18.653A9.042,9.042,0,0,1,15,16.663a8.484,8.484,0,0,1,9.088-6.432,8.029,8.029,0,0,1,2.078.463,8.5,8.5,0,0,1,2.434,1.388,8.6,8.6,0,0,1,2.281,2.9,8.329,8.329,0,0,1,.634,1.851,8.153,8.153,0,0,1,.185,2.221,8.727,8.727,0,0,1-.565,2.443,17.69,17.69,0,0,1-1.819,3.452,35.127,35.127,0,0,1-2.263,3.082c-.777.925-1.587,1.851-2.443,2.739q-.463.463-.9.925a.639.639,0,0,1-.925,0c-.87-.842-1.7-1.717-2.489-2.642-.565-.666-1.124-1.342-1.666-2.031-.62-.791-1.185-1.629-1.726-2.48a17.848,17.848,0,0,1-1.323-2.471,10.226,10.226,0,0,1-.62-1.874A7.071,7.071,0,0,1,14.75,18.653Zm8.445,3.341a3.332,3.332,0,1,0-3.3-3.318A3.332,3.332,0,0,0,23.195,21.994Z" transform="translate(0 0)" fill="#fc9226"/>
  </g>
</svg>
